<?xml version="1.0" encoding="UTF-8" standalone="no"?>
<svg
   xmlns:dc="http://purl.org/dc/elements/1.1/"
   xmlns:cc="http://creativecommons.org/ns#"
   xmlns:rdf="http://www.w3.org/1999/02/22-rdf-syntax-ns#"
   xmlns:svg="http://www.w3.org/2000/svg"
   xmlns="http://www.w3.org/2000/svg"
   version="1.1"
   id="svg2"
   viewBox="0 0 58 68"
   height="68mm"
   width="58mm">
  <defs
     id="defs4" />
  <metadata
     id="metadata7">
    <rdf:RDF>
      <cc:Work
         rdf:about="">
        <dc:format>image/svg+xml</dc:format>
        <dc:type
           rdf:resource="http://purl.org/dc/dcmitype/StillImage" />
        <dc:title></dc:title>
      </cc:Work>
    </rdf:RDF>
  </metadata>
  <g
     transform="translate(0,0.5)"
     style="display:inline"
     id="g4146">
    <path
       id="path4380-0-6-6"
       d="M 20.176619,66.23218 20.176619,64.973253 18.916135,64.973253 17.655652,64.973253 17.655652,61.196462 17.655652,57.419673 15.134685,57.419673 12.61372,57.419673 12.61372,56.160741 12.61372,54.901812 10.092753,54.901812 7.5717892,54.901812 7.5717892,53.642879 7.5717892,52.383952 6.3113032,52.383952 5.0508222,52.383952 5.0508222,51.12502 5.0508222,49.866088 3.7903382,49.866088 2.5298552,49.866088 2.5298552,47.348232 2.5298552,44.830372 1.2693742,44.830372 0.00888817,44.830372 0.00888817,41.053581 0.00888817,37.27679 1.2693742,37.27679 2.5298552,37.27679 2.5298552,36.01786 2.5298552,34.758928 6.3113032,34.758928 10.092753,34.758928 10.092753,36.01786 10.092753,37.27679 11.353236,37.27679 12.61372,37.27679 12.61372,38.53572 12.61372,39.794652 13.874201,39.794652 15.134685,39.794652 15.134685,41.053581 15.134685,42.312511 16.395168,42.312511 17.655652,42.312511 17.655652,41.053581 17.655652,39.794652 18.916135,39.794652 20.176619,39.794652 20.176619,38.53572 20.176619,37.27679 21.437102,37.27679 22.697583,37.27679 22.697583,36.01786 22.697583,34.758928 23.958067,34.758928 25.21855,34.758928 25.21855,33.499999 25.21855,32.241069 23.958067,32.241069 22.697583,32.241069 22.697583,30.98214 22.697583,29.723207 21.437102,29.723207 20.176619,29.723207 20.176619,28.46428 20.176619,27.205348 18.916135,27.205348 17.655652,27.205348 17.655652,24.687489 17.655652,22.169628 18.916135,22.169628 20.176619,22.169628 20.176619,19.651768 20.176619,17.133909 21.437102,17.133909 22.697583,17.133909 22.697583,8.3213973 22.697583,-0.4911119 26.479031,-0.4911119 30.260482,-0.4911119 30.260482,0.7678202 30.260482,2.0267472 31.520965,2.0267472 32.781449,2.0267472 32.781449,3.2856793 32.781449,4.5446093 34.04193,4.5446093 35.302416,4.5446093 35.302416,3.2856793 35.302416,2.0267472 40.34435,2.0267472 45.386279,2.0267472 45.386279,0.7678202 45.386279,-0.4911119 47.907246,-0.4911119 50.428213,-0.4911119 50.428213,3.2856793 50.428213,7.0624683 49.16773,7.0624683 47.907246,7.0624683 47.907246,8.3213973 47.907246,9.5803293 50.428213,9.5803293 52.949178,9.5803293 52.949178,10.839256 52.949178,12.098188 54.209659,12.098188 55.470145,12.098188 55.470145,13.357118 55.470145,14.616048 54.209659,14.616048 52.949178,14.616048 52.949178,15.87498 52.949178,17.133909 51.688697,17.133909 50.428213,17.133909 50.428213,19.651768 50.428213,22.169628 51.688697,22.169628 52.949178,22.169628 52.949178,24.687489 52.949178,27.205348 54.209659,27.205348 55.470145,27.205348 55.470145,28.46428 55.470145,29.723207 52.949178,29.723207 50.428213,29.723207 50.428213,30.98214 50.428213,32.241069 49.16773,32.241069 47.907246,32.241069 47.907246,34.758928 47.907246,37.27679 49.16773,37.27679 50.428213,37.27679 50.428213,36.01786 50.428213,34.758928 52.949178,34.758928 55.470145,34.758928 55.470145,36.01786 55.470145,37.27679 56.730626,37.27679 57.991112,37.27679 57.991112,41.053581 57.991112,44.830372 56.730626,44.830372 55.470145,44.830372 55.470145,47.348232 55.470145,49.866088 56.730626,49.866088 57.991112,49.866088 57.991112,56.160741 57.991112,62.455389 56.730626,62.455389 55.470145,62.455389 55.470145,63.714324 55.470145,64.973253 51.688697,64.973253 47.907246,64.973253 47.907246,63.714324 47.907246,62.455389 46.646763,62.455389 45.386279,62.455389 45.386279,61.196462 45.386279,59.937532 41.604831,59.937532 37.82338,59.937532 37.82338,61.196462 37.82338,62.455389 34.04193,62.455389 30.260482,62.455389 30.260482,63.714324 30.260482,64.973253 27.739517,64.973253 25.21855,64.973253 25.21855,66.23218 25.21855,67.491112 22.697583,67.491112 20.176619,67.491112 20.176619,66.23218 20.176619,66.23218"
       style="display:inline;fill:#000000;fill-opacity:1;stroke:#000000;stroke-width:0.01777585;stroke-linecap:butt;stroke-linejoin:miter;stroke-miterlimit:4;stroke-dasharray:none;stroke-opacity:1" />
  </g>
</svg>
