G04 #@! TF.GenerationSoftware,KiCad,Pcbnew,5.1.2*
G04 #@! TF.CreationDate,2019-06-30T01:50:48-07:00*
G04 #@! TF.ProjectId,Mario_SAO,4d617269-6f5f-4534-914f-2e6b69636164,rev?*
G04 #@! TF.SameCoordinates,Original*
G04 #@! TF.FileFunction,Soldermask,Bot*
G04 #@! TF.FilePolarity,Negative*
%FSLAX46Y46*%
G04 Gerber Fmt 4.6, Leading zero omitted, Abs format (unit mm)*
G04 Created by KiCad (PCBNEW 5.1.2) date 2019-06-30 01:50:48*
%MOMM*%
%LPD*%
G04 APERTURE LIST*
%ADD10C,0.010000*%
%ADD11C,0.100000*%
G04 APERTURE END LIST*
D10*
G36*
X115978624Y-84116553D02*
G01*
X115986000Y-84146167D01*
X115952113Y-84202291D01*
X115922500Y-84209667D01*
X115866376Y-84175780D01*
X115859000Y-84146167D01*
X115892886Y-84090043D01*
X115922500Y-84082667D01*
X115978624Y-84116553D01*
X115978624Y-84116553D01*
G37*
X115978624Y-84116553D02*
X115986000Y-84146167D01*
X115952113Y-84202291D01*
X115922500Y-84209667D01*
X115866376Y-84175780D01*
X115859000Y-84146167D01*
X115892886Y-84090043D01*
X115922500Y-84082667D01*
X115978624Y-84116553D01*
G36*
X116274957Y-84412887D02*
G01*
X116282333Y-84442500D01*
X116248447Y-84498624D01*
X116218833Y-84506000D01*
X116162709Y-84472114D01*
X116155333Y-84442500D01*
X116189220Y-84386376D01*
X116218833Y-84379000D01*
X116274957Y-84412887D01*
X116274957Y-84412887D01*
G37*
X116274957Y-84412887D02*
X116282333Y-84442500D01*
X116248447Y-84498624D01*
X116218833Y-84506000D01*
X116162709Y-84472114D01*
X116155333Y-84442500D01*
X116189220Y-84386376D01*
X116218833Y-84379000D01*
X116274957Y-84412887D01*
G36*
X116698291Y-84539887D02*
G01*
X116705667Y-84569500D01*
X116671780Y-84625624D01*
X116642167Y-84633000D01*
X116586042Y-84599114D01*
X116578667Y-84569500D01*
X116612553Y-84513376D01*
X116642167Y-84506000D01*
X116698291Y-84539887D01*
X116698291Y-84539887D01*
G37*
X116698291Y-84539887D02*
X116705667Y-84569500D01*
X116671780Y-84625624D01*
X116642167Y-84633000D01*
X116586042Y-84599114D01*
X116578667Y-84569500D01*
X116612553Y-84513376D01*
X116642167Y-84506000D01*
X116698291Y-84539887D01*
G36*
X116860059Y-85001323D02*
G01*
X116867521Y-85028092D01*
X116849285Y-85088510D01*
X116814604Y-85098667D01*
X116759645Y-85063057D01*
X116748000Y-85010472D01*
X116770304Y-84948406D01*
X116817510Y-84946809D01*
X116860059Y-85001323D01*
X116860059Y-85001323D01*
G37*
X116860059Y-85001323D02*
X116867521Y-85028092D01*
X116849285Y-85088510D01*
X116814604Y-85098667D01*
X116759645Y-85063057D01*
X116748000Y-85010472D01*
X116770304Y-84948406D01*
X116817510Y-84946809D01*
X116860059Y-85001323D01*
G36*
X115254547Y-85260960D02*
G01*
X115266333Y-85310334D01*
X115239863Y-85379286D01*
X115202833Y-85395000D01*
X115151119Y-85359707D01*
X115139333Y-85310334D01*
X115165803Y-85241381D01*
X115202833Y-85225667D01*
X115254547Y-85260960D01*
X115254547Y-85260960D01*
G37*
X115254547Y-85260960D02*
X115266333Y-85310334D01*
X115239863Y-85379286D01*
X115202833Y-85395000D01*
X115151119Y-85359707D01*
X115139333Y-85310334D01*
X115165803Y-85241381D01*
X115202833Y-85225667D01*
X115254547Y-85260960D01*
G36*
X116994624Y-85428887D02*
G01*
X117002000Y-85458500D01*
X116968113Y-85514624D01*
X116938500Y-85522000D01*
X116882376Y-85488114D01*
X116875000Y-85458500D01*
X116908886Y-85402376D01*
X116938500Y-85395000D01*
X116994624Y-85428887D01*
X116994624Y-85428887D01*
G37*
X116994624Y-85428887D02*
X117002000Y-85458500D01*
X116968113Y-85514624D01*
X116938500Y-85522000D01*
X116882376Y-85488114D01*
X116875000Y-85458500D01*
X116908886Y-85402376D01*
X116938500Y-85395000D01*
X116994624Y-85428887D01*
G36*
X115682291Y-85725220D02*
G01*
X115689667Y-85754834D01*
X115655780Y-85810958D01*
X115626167Y-85818334D01*
X115570042Y-85784447D01*
X115562667Y-85754834D01*
X115596553Y-85698709D01*
X115626167Y-85691334D01*
X115682291Y-85725220D01*
X115682291Y-85725220D01*
G37*
X115682291Y-85725220D02*
X115689667Y-85754834D01*
X115655780Y-85810958D01*
X115626167Y-85818334D01*
X115570042Y-85784447D01*
X115562667Y-85754834D01*
X115596553Y-85698709D01*
X115626167Y-85691334D01*
X115682291Y-85725220D01*
G36*
X116571291Y-85852220D02*
G01*
X116578667Y-85881834D01*
X116544780Y-85937958D01*
X116515167Y-85945334D01*
X116459042Y-85911447D01*
X116451667Y-85881834D01*
X116485553Y-85825709D01*
X116515167Y-85818334D01*
X116571291Y-85852220D01*
X116571291Y-85852220D01*
G37*
X116571291Y-85852220D02*
X116578667Y-85881834D01*
X116544780Y-85937958D01*
X116515167Y-85945334D01*
X116459042Y-85911447D01*
X116451667Y-85881834D01*
X116485553Y-85825709D01*
X116515167Y-85818334D01*
X116571291Y-85852220D01*
G36*
X111863952Y-86183470D02*
G01*
X111879667Y-86220500D01*
X111844373Y-86272214D01*
X111795000Y-86284000D01*
X111726048Y-86257530D01*
X111710333Y-86220500D01*
X111745626Y-86168786D01*
X111795000Y-86157000D01*
X111863952Y-86183470D01*
X111863952Y-86183470D01*
G37*
X111863952Y-86183470D02*
X111879667Y-86220500D01*
X111844373Y-86272214D01*
X111795000Y-86284000D01*
X111726048Y-86257530D01*
X111710333Y-86220500D01*
X111745626Y-86168786D01*
X111795000Y-86157000D01*
X111863952Y-86183470D01*
G36*
X110263624Y-86190887D02*
G01*
X110271000Y-86220500D01*
X110237113Y-86276624D01*
X110207500Y-86284000D01*
X110151376Y-86250114D01*
X110144000Y-86220500D01*
X110177886Y-86164376D01*
X110207500Y-86157000D01*
X110263624Y-86190887D01*
X110263624Y-86190887D01*
G37*
X110263624Y-86190887D02*
X110271000Y-86220500D01*
X110237113Y-86276624D01*
X110207500Y-86284000D01*
X110151376Y-86250114D01*
X110144000Y-86220500D01*
X110177886Y-86164376D01*
X110207500Y-86157000D01*
X110263624Y-86190887D01*
G36*
X111999291Y-86487220D02*
G01*
X112006667Y-86516834D01*
X111972780Y-86572958D01*
X111943167Y-86580334D01*
X111887042Y-86546447D01*
X111879667Y-86516834D01*
X111913553Y-86460709D01*
X111943167Y-86453334D01*
X111999291Y-86487220D01*
X111999291Y-86487220D01*
G37*
X111999291Y-86487220D02*
X112006667Y-86516834D01*
X111972780Y-86572958D01*
X111943167Y-86580334D01*
X111887042Y-86546447D01*
X111879667Y-86516834D01*
X111913553Y-86460709D01*
X111943167Y-86453334D01*
X111999291Y-86487220D01*
G36*
X111279624Y-86487220D02*
G01*
X111287000Y-86516834D01*
X111253113Y-86572958D01*
X111223500Y-86580334D01*
X111167376Y-86546447D01*
X111160000Y-86516834D01*
X111193886Y-86460709D01*
X111223500Y-86453334D01*
X111279624Y-86487220D01*
X111279624Y-86487220D01*
G37*
X111279624Y-86487220D02*
X111287000Y-86516834D01*
X111253113Y-86572958D01*
X111223500Y-86580334D01*
X111167376Y-86546447D01*
X111160000Y-86516834D01*
X111193886Y-86460709D01*
X111223500Y-86453334D01*
X111279624Y-86487220D01*
G36*
X110847952Y-86479803D02*
G01*
X110863667Y-86516834D01*
X110828373Y-86568548D01*
X110779000Y-86580334D01*
X110710048Y-86553864D01*
X110694333Y-86516834D01*
X110729626Y-86465119D01*
X110779000Y-86453334D01*
X110847952Y-86479803D01*
X110847952Y-86479803D01*
G37*
X110847952Y-86479803D02*
X110863667Y-86516834D01*
X110828373Y-86568548D01*
X110779000Y-86580334D01*
X110710048Y-86553864D01*
X110694333Y-86516834D01*
X110729626Y-86465119D01*
X110779000Y-86453334D01*
X110847952Y-86479803D01*
G36*
X110094291Y-86487220D02*
G01*
X110101667Y-86516834D01*
X110067780Y-86572958D01*
X110038167Y-86580334D01*
X109982042Y-86546447D01*
X109974667Y-86516834D01*
X110008553Y-86460709D01*
X110038167Y-86453334D01*
X110094291Y-86487220D01*
X110094291Y-86487220D01*
G37*
X110094291Y-86487220D02*
X110101667Y-86516834D01*
X110067780Y-86572958D01*
X110038167Y-86580334D01*
X109982042Y-86546447D01*
X109974667Y-86516834D01*
X110008553Y-86460709D01*
X110038167Y-86453334D01*
X110094291Y-86487220D01*
G36*
X111702957Y-86783553D02*
G01*
X111710333Y-86813167D01*
X111676447Y-86869291D01*
X111646833Y-86876667D01*
X111590709Y-86842780D01*
X111583333Y-86813167D01*
X111617220Y-86757043D01*
X111646833Y-86749667D01*
X111702957Y-86783553D01*
X111702957Y-86783553D01*
G37*
X111702957Y-86783553D02*
X111710333Y-86813167D01*
X111676447Y-86869291D01*
X111646833Y-86876667D01*
X111590709Y-86842780D01*
X111583333Y-86813167D01*
X111617220Y-86757043D01*
X111646833Y-86749667D01*
X111702957Y-86783553D01*
G36*
X110390624Y-86783553D02*
G01*
X110398000Y-86813167D01*
X110364113Y-86869291D01*
X110334500Y-86876667D01*
X110278376Y-86842780D01*
X110271000Y-86813167D01*
X110304886Y-86757043D01*
X110334500Y-86749667D01*
X110390624Y-86783553D01*
X110390624Y-86783553D01*
G37*
X110390624Y-86783553D02*
X110398000Y-86813167D01*
X110364113Y-86869291D01*
X110334500Y-86876667D01*
X110278376Y-86842780D01*
X110271000Y-86813167D01*
X110304886Y-86757043D01*
X110334500Y-86749667D01*
X110390624Y-86783553D01*
G36*
X111091493Y-86895599D02*
G01*
X111117667Y-86940167D01*
X111079802Y-86990580D01*
X110990667Y-87003667D01*
X110889840Y-86984735D01*
X110863667Y-86940167D01*
X110901531Y-86889754D01*
X110990667Y-86876667D01*
X111091493Y-86895599D01*
X111091493Y-86895599D01*
G37*
X111091493Y-86895599D02*
X111117667Y-86940167D01*
X111079802Y-86990580D01*
X110990667Y-87003667D01*
X110889840Y-86984735D01*
X110863667Y-86940167D01*
X110901531Y-86889754D01*
X110990667Y-86876667D01*
X111091493Y-86895599D01*
G36*
X119753667Y-73795667D02*
G01*
X119023417Y-73786513D01*
X118731856Y-73782417D01*
X118421437Y-73777311D01*
X118122354Y-73771738D01*
X117864798Y-73766242D01*
X117774583Y-73764044D01*
X117256000Y-73750728D01*
X117256000Y-68758000D01*
X119753667Y-68758000D01*
X119753667Y-73795667D01*
X119753667Y-73795667D01*
G37*
X119753667Y-73795667D02*
X119023417Y-73786513D01*
X118731856Y-73782417D01*
X118421437Y-73777311D01*
X118122354Y-73771738D01*
X117864798Y-73766242D01*
X117774583Y-73764044D01*
X117256000Y-73750728D01*
X117256000Y-68758000D01*
X119753667Y-68758000D01*
X119753667Y-73795667D01*
G36*
X102227667Y-71255667D02*
G01*
X104725333Y-71255667D01*
X104725333Y-76251000D01*
X102227667Y-76251000D01*
X102227667Y-78748667D01*
X97274667Y-78748667D01*
X97274667Y-68758000D01*
X102227667Y-68758000D01*
X102227667Y-71255667D01*
X102227667Y-71255667D01*
G37*
X102227667Y-71255667D02*
X104725333Y-71255667D01*
X104725333Y-76251000D01*
X102227667Y-76251000D01*
X102227667Y-78748667D01*
X97274667Y-78748667D01*
X97274667Y-68758000D01*
X102227667Y-68758000D01*
X102227667Y-71255667D01*
G36*
X119753667Y-88739334D02*
G01*
X122251333Y-88739334D01*
X122251333Y-93777000D01*
X119753667Y-93777000D01*
X119753667Y-96288270D01*
X118603789Y-96260302D01*
X118244236Y-96252771D01*
X117825532Y-96246008D01*
X117373191Y-96240298D01*
X116912726Y-96235927D01*
X116469652Y-96233180D01*
X116106122Y-96232334D01*
X114758333Y-96232334D01*
X114758333Y-93734667D01*
X109763000Y-93734667D01*
X109763000Y-91235740D01*
X108503583Y-91246954D01*
X107244167Y-91258167D01*
X107232945Y-92495778D01*
X107221723Y-93733390D01*
X105984111Y-93744612D01*
X104746500Y-93755834D01*
X104746500Y-96253500D01*
X107232944Y-96264422D01*
X109719389Y-96275343D01*
X109741833Y-98751167D01*
X113498917Y-98761979D01*
X117256000Y-98772791D01*
X117256000Y-101227667D01*
X104768945Y-101227667D01*
X104757723Y-99989417D01*
X104746500Y-98751167D01*
X102260055Y-98740245D01*
X99773611Y-98729324D01*
X99751167Y-96253500D01*
X97264722Y-96242579D01*
X94778278Y-96231657D01*
X94767055Y-94993745D01*
X94755833Y-93755834D01*
X92279333Y-93733388D01*
X92279333Y-88739334D01*
X94777000Y-88739334D01*
X94777000Y-86241667D01*
X97231662Y-86241667D01*
X97253500Y-91258167D01*
X98491111Y-91269389D01*
X99728723Y-91280610D01*
X99751167Y-93755834D01*
X102248833Y-93755834D01*
X102271277Y-91280610D01*
X103508888Y-91269389D01*
X104746500Y-91258167D01*
X104757713Y-89998750D01*
X104768926Y-88739334D01*
X109719990Y-88739334D01*
X112260667Y-88739334D01*
X112260667Y-83744000D01*
X114758333Y-83744000D01*
X114758333Y-88739334D01*
X117256000Y-88739334D01*
X117256000Y-83744000D01*
X114758333Y-83744000D01*
X112260667Y-83744000D01*
X112260667Y-83742740D01*
X111001250Y-83753954D01*
X109741833Y-83765167D01*
X109730911Y-86252250D01*
X109719990Y-88739334D01*
X104768926Y-88739334D01*
X102270000Y-88739334D01*
X102270000Y-83744000D01*
X104767667Y-83744000D01*
X104767667Y-81246334D01*
X119753667Y-81246334D01*
X119753667Y-88739334D01*
X119753667Y-88739334D01*
G37*
X119753667Y-88739334D02*
X122251333Y-88739334D01*
X122251333Y-93777000D01*
X119753667Y-93777000D01*
X119753667Y-96288270D01*
X118603789Y-96260302D01*
X118244236Y-96252771D01*
X117825532Y-96246008D01*
X117373191Y-96240298D01*
X116912726Y-96235927D01*
X116469652Y-96233180D01*
X116106122Y-96232334D01*
X114758333Y-96232334D01*
X114758333Y-93734667D01*
X109763000Y-93734667D01*
X109763000Y-91235740D01*
X108503583Y-91246954D01*
X107244167Y-91258167D01*
X107232945Y-92495778D01*
X107221723Y-93733390D01*
X105984111Y-93744612D01*
X104746500Y-93755834D01*
X104746500Y-96253500D01*
X107232944Y-96264422D01*
X109719389Y-96275343D01*
X109741833Y-98751167D01*
X113498917Y-98761979D01*
X117256000Y-98772791D01*
X117256000Y-101227667D01*
X104768945Y-101227667D01*
X104757723Y-99989417D01*
X104746500Y-98751167D01*
X102260055Y-98740245D01*
X99773611Y-98729324D01*
X99751167Y-96253500D01*
X97264722Y-96242579D01*
X94778278Y-96231657D01*
X94767055Y-94993745D01*
X94755833Y-93755834D01*
X92279333Y-93733388D01*
X92279333Y-88739334D01*
X94777000Y-88739334D01*
X94777000Y-86241667D01*
X97231662Y-86241667D01*
X97253500Y-91258167D01*
X98491111Y-91269389D01*
X99728723Y-91280610D01*
X99751167Y-93755834D01*
X102248833Y-93755834D01*
X102271277Y-91280610D01*
X103508888Y-91269389D01*
X104746500Y-91258167D01*
X104757713Y-89998750D01*
X104768926Y-88739334D01*
X109719990Y-88739334D01*
X112260667Y-88739334D01*
X112260667Y-83744000D01*
X114758333Y-83744000D01*
X114758333Y-88739334D01*
X117256000Y-88739334D01*
X117256000Y-83744000D01*
X114758333Y-83744000D01*
X112260667Y-83744000D01*
X112260667Y-83742740D01*
X111001250Y-83753954D01*
X109741833Y-83765167D01*
X109730911Y-86252250D01*
X109719990Y-88739334D01*
X104768926Y-88739334D01*
X102270000Y-88739334D01*
X102270000Y-83744000D01*
X104767667Y-83744000D01*
X104767667Y-81246334D01*
X119753667Y-81246334D01*
X119753667Y-88739334D01*
G36*
X77740404Y-104799321D02*
G01*
X77765076Y-104836584D01*
X77791723Y-104929563D01*
X77809814Y-105078890D01*
X77819362Y-105262136D01*
X77820381Y-105456873D01*
X77812887Y-105640673D01*
X77796893Y-105791107D01*
X77772414Y-105885748D01*
X77764400Y-105898768D01*
X77675944Y-105962907D01*
X77587217Y-105942384D01*
X77541933Y-105899123D01*
X77513407Y-105823094D01*
X77490867Y-105685213D01*
X77475212Y-105508142D01*
X77467340Y-105314542D01*
X77468149Y-105127075D01*
X77478537Y-104968401D01*
X77499401Y-104861184D01*
X77500670Y-104857750D01*
X77567955Y-104764994D01*
X77655730Y-104744888D01*
X77740404Y-104799321D01*
X77740404Y-104799321D01*
G37*
X77740404Y-104799321D02*
X77765076Y-104836584D01*
X77791723Y-104929563D01*
X77809814Y-105078890D01*
X77819362Y-105262136D01*
X77820381Y-105456873D01*
X77812887Y-105640673D01*
X77796893Y-105791107D01*
X77772414Y-105885748D01*
X77764400Y-105898768D01*
X77675944Y-105962907D01*
X77587217Y-105942384D01*
X77541933Y-105899123D01*
X77513407Y-105823094D01*
X77490867Y-105685213D01*
X77475212Y-105508142D01*
X77467340Y-105314542D01*
X77468149Y-105127075D01*
X77478537Y-104968401D01*
X77499401Y-104861184D01*
X77500670Y-104857750D01*
X77567955Y-104764994D01*
X77655730Y-104744888D01*
X77740404Y-104799321D01*
G36*
X76685754Y-104816560D02*
G01*
X76701714Y-104849923D01*
X76724658Y-104958947D01*
X76737896Y-105122218D01*
X76741771Y-105314257D01*
X76736625Y-105509585D01*
X76722801Y-105682726D01*
X76700639Y-105808200D01*
X76688396Y-105841625D01*
X76611161Y-105937199D01*
X76523035Y-105955787D01*
X76442773Y-105900665D01*
X76417083Y-105826218D01*
X76399650Y-105689713D01*
X76390433Y-105513353D01*
X76389392Y-105319338D01*
X76396483Y-105129872D01*
X76411668Y-104967156D01*
X76434903Y-104853391D01*
X76444763Y-104829557D01*
X76520753Y-104753859D01*
X76610171Y-104750247D01*
X76685754Y-104816560D01*
X76685754Y-104816560D01*
G37*
X76685754Y-104816560D02*
X76701714Y-104849923D01*
X76724658Y-104958947D01*
X76737896Y-105122218D01*
X76741771Y-105314257D01*
X76736625Y-105509585D01*
X76722801Y-105682726D01*
X76700639Y-105808200D01*
X76688396Y-105841625D01*
X76611161Y-105937199D01*
X76523035Y-105955787D01*
X76442773Y-105900665D01*
X76417083Y-105826218D01*
X76399650Y-105689713D01*
X76390433Y-105513353D01*
X76389392Y-105319338D01*
X76396483Y-105129872D01*
X76411668Y-104967156D01*
X76434903Y-104853391D01*
X76444763Y-104829557D01*
X76520753Y-104753859D01*
X76610171Y-104750247D01*
X76685754Y-104816560D01*
G36*
X103497667Y-104995334D02*
G01*
X98502333Y-104995334D01*
X98502333Y-102497667D01*
X103497667Y-102497667D01*
X103497667Y-104995334D01*
X103497667Y-104995334D01*
G37*
X103497667Y-104995334D02*
X98502333Y-104995334D01*
X98502333Y-102497667D01*
X103497667Y-102497667D01*
X103497667Y-104995334D01*
G36*
X98502333Y-107493000D02*
G01*
X96004667Y-107493000D01*
X96004667Y-104995334D01*
X98502333Y-104995334D01*
X98502333Y-107493000D01*
X98502333Y-107493000D01*
G37*
X98502333Y-107493000D02*
X96004667Y-107493000D01*
X96004667Y-104995334D01*
X98502333Y-104995334D01*
X98502333Y-107493000D01*
G36*
X96004667Y-109990667D02*
G01*
X93507000Y-109990667D01*
X93507000Y-107493000D01*
X96004667Y-107493000D01*
X96004667Y-109990667D01*
X96004667Y-109990667D01*
G37*
X96004667Y-109990667D02*
X93507000Y-109990667D01*
X93507000Y-107493000D01*
X96004667Y-107493000D01*
X96004667Y-109990667D01*
G36*
X127246667Y-111260667D02*
G01*
X124706667Y-111260667D01*
X124706667Y-106265334D01*
X122209000Y-106265334D01*
X122209000Y-103725334D01*
X127246667Y-103725334D01*
X127246667Y-111260667D01*
X127246667Y-111260667D01*
G37*
X127246667Y-111260667D02*
X124706667Y-111260667D01*
X124706667Y-106265334D01*
X122209000Y-106265334D01*
X122209000Y-103725334D01*
X127246667Y-103725334D01*
X127246667Y-111260667D01*
G36*
X115986000Y-107493000D02*
G01*
X113488333Y-107493000D01*
X113488333Y-104995334D01*
X115986000Y-104995334D01*
X115986000Y-107493000D01*
X115986000Y-107493000D01*
G37*
X115986000Y-107493000D02*
X113488333Y-107493000D01*
X113488333Y-104995334D01*
X115986000Y-104995334D01*
X115986000Y-107493000D01*
G36*
X118526000Y-109990667D02*
G01*
X121023667Y-109990667D01*
X121023667Y-112530667D01*
X118483667Y-112530667D01*
X118483667Y-110044078D01*
X118324917Y-110017838D01*
X118239661Y-110010637D01*
X118083183Y-110004153D01*
X117868924Y-109998675D01*
X117610326Y-109994490D01*
X117320834Y-109991885D01*
X117076083Y-109991133D01*
X115986000Y-109990667D01*
X115986000Y-107493000D01*
X118526000Y-107493000D01*
X118526000Y-109990667D01*
X118526000Y-109990667D01*
G37*
X118526000Y-109990667D02*
X121023667Y-109990667D01*
X121023667Y-112530667D01*
X118483667Y-112530667D01*
X118483667Y-110044078D01*
X118324917Y-110017838D01*
X118239661Y-110010637D01*
X118083183Y-110004153D01*
X117868924Y-109998675D01*
X117610326Y-109994490D01*
X117320834Y-109991885D01*
X117076083Y-109991133D01*
X115986000Y-109990667D01*
X115986000Y-107493000D01*
X118526000Y-107493000D01*
X118526000Y-109990667D01*
G36*
X92880993Y-112142311D02*
G01*
X92909797Y-112169651D01*
X92945549Y-112227723D01*
X92966031Y-112324778D01*
X92973917Y-112478546D01*
X92973847Y-112594304D01*
X92960499Y-112829848D01*
X92927153Y-112988636D01*
X92874683Y-113068941D01*
X92803963Y-113069034D01*
X92753467Y-113030200D01*
X92722614Y-112955139D01*
X92704624Y-112821710D01*
X92698947Y-112655145D01*
X92705033Y-112480673D01*
X92722330Y-112323525D01*
X92750289Y-112208932D01*
X92772214Y-112170834D01*
X92831650Y-112124192D01*
X92880993Y-112142311D01*
X92880993Y-112142311D01*
G37*
X92880993Y-112142311D02*
X92909797Y-112169651D01*
X92945549Y-112227723D01*
X92966031Y-112324778D01*
X92973917Y-112478546D01*
X92973847Y-112594304D01*
X92960499Y-112829848D01*
X92927153Y-112988636D01*
X92874683Y-113068941D01*
X92803963Y-113069034D01*
X92753467Y-113030200D01*
X92722614Y-112955139D01*
X92704624Y-112821710D01*
X92698947Y-112655145D01*
X92705033Y-112480673D01*
X92722330Y-112323525D01*
X92750289Y-112208932D01*
X92772214Y-112170834D01*
X92831650Y-112124192D01*
X92880993Y-112142311D01*
G36*
X91716509Y-112213897D02*
G01*
X91727510Y-112231550D01*
X91749527Y-112313832D01*
X91765261Y-112451141D01*
X91771333Y-112613885D01*
X91771333Y-112615334D01*
X91759796Y-112845006D01*
X91724585Y-112995959D01*
X91664800Y-113071021D01*
X91623167Y-113081000D01*
X91556464Y-113047475D01*
X91518823Y-112999117D01*
X91497994Y-112917059D01*
X91483524Y-112778341D01*
X91476056Y-112610779D01*
X91476236Y-112442185D01*
X91484706Y-112300375D01*
X91500696Y-112216629D01*
X91558402Y-112159022D01*
X91641789Y-112158865D01*
X91716509Y-112213897D01*
X91716509Y-112213897D01*
G37*
X91716509Y-112213897D02*
X91727510Y-112231550D01*
X91749527Y-112313832D01*
X91765261Y-112451141D01*
X91771333Y-112613885D01*
X91771333Y-112615334D01*
X91759796Y-112845006D01*
X91724585Y-112995959D01*
X91664800Y-113071021D01*
X91623167Y-113081000D01*
X91556464Y-113047475D01*
X91518823Y-112999117D01*
X91497994Y-112917059D01*
X91483524Y-112778341D01*
X91476056Y-112610779D01*
X91476236Y-112442185D01*
X91484706Y-112300375D01*
X91500696Y-112216629D01*
X91558402Y-112159022D01*
X91641789Y-112158865D01*
X91716509Y-112213897D01*
G36*
X124749000Y-116256000D02*
G01*
X122209000Y-116256000D01*
X122209000Y-113716000D01*
X124749000Y-113716000D01*
X124749000Y-116256000D01*
X124749000Y-116256000D01*
G37*
X124749000Y-116256000D02*
X122209000Y-116256000D01*
X122209000Y-113716000D01*
X124749000Y-113716000D01*
X124749000Y-116256000D01*
G36*
X82246333Y-108763000D02*
G01*
X84744000Y-108763000D01*
X84744000Y-111260667D01*
X82246333Y-111260667D01*
X82246333Y-113758334D01*
X79748667Y-113758334D01*
X79748667Y-116256000D01*
X77251000Y-116256000D01*
X77251000Y-108763000D01*
X79748667Y-108763000D01*
X79748667Y-106265334D01*
X82246333Y-106265334D01*
X82246333Y-108763000D01*
X82246333Y-108763000D01*
G37*
X82246333Y-108763000D02*
X84744000Y-108763000D01*
X84744000Y-111260667D01*
X82246333Y-111260667D01*
X82246333Y-113758334D01*
X79748667Y-113758334D01*
X79748667Y-116256000D01*
X77251000Y-116256000D01*
X77251000Y-108763000D01*
X79748667Y-108763000D01*
X79748667Y-106265334D01*
X82246333Y-106265334D01*
X82246333Y-108763000D01*
G36*
X117234833Y-118732500D02*
G01*
X112260667Y-118754344D01*
X112260667Y-113758334D01*
X117256677Y-113758334D01*
X117234833Y-118732500D01*
X117234833Y-118732500D01*
G37*
X117234833Y-118732500D02*
X112260667Y-118754344D01*
X112260667Y-113758334D01*
X117256677Y-113758334D01*
X117234833Y-118732500D01*
G36*
X107244167Y-111239500D02*
G01*
X109720667Y-111261946D01*
X109720667Y-116256000D01*
X107223000Y-116256000D01*
X107223000Y-118753667D01*
X99772333Y-118753667D01*
X99772333Y-116256000D01*
X97274667Y-116256000D01*
X97274667Y-111261946D01*
X99751167Y-111239500D01*
X99762389Y-110001250D01*
X99773612Y-108763000D01*
X107221721Y-108763000D01*
X107244167Y-111239500D01*
X107244167Y-111239500D01*
G37*
X107244167Y-111239500D02*
X109720667Y-111261946D01*
X109720667Y-116256000D01*
X107223000Y-116256000D01*
X107223000Y-118753667D01*
X99772333Y-118753667D01*
X99772333Y-116256000D01*
X97274667Y-116256000D01*
X97274667Y-111261946D01*
X99751167Y-111239500D01*
X99762389Y-110001250D01*
X99773612Y-108763000D01*
X107221721Y-108763000D01*
X107244167Y-111239500D01*
G36*
X89739333Y-116256000D02*
G01*
X94734667Y-116256000D01*
X94734667Y-118753667D01*
X92224095Y-118753667D01*
X92254257Y-120002500D01*
X92284420Y-121251334D01*
X84744000Y-121251334D01*
X84744000Y-116256000D01*
X87241667Y-116256000D01*
X87241667Y-113758334D01*
X89739333Y-113758334D01*
X89739333Y-116256000D01*
X89739333Y-116256000D01*
G37*
X89739333Y-116256000D02*
X94734667Y-116256000D01*
X94734667Y-118753667D01*
X92224095Y-118753667D01*
X92254257Y-120002500D01*
X92284420Y-121251334D01*
X84744000Y-121251334D01*
X84744000Y-116256000D01*
X87241667Y-116256000D01*
X87241667Y-113758334D01*
X89739333Y-113758334D01*
X89739333Y-116256000D01*
G36*
X126019000Y-125019000D02*
G01*
X123521333Y-125019000D01*
X123521333Y-127516667D01*
X120981333Y-127516667D01*
X120981333Y-119981334D01*
X123479000Y-119981334D01*
X123479000Y-117483667D01*
X126019000Y-117483667D01*
X126019000Y-125019000D01*
X126019000Y-125019000D01*
G37*
X126019000Y-125019000D02*
X123521333Y-125019000D01*
X123521333Y-127516667D01*
X120981333Y-127516667D01*
X120981333Y-119981334D01*
X123479000Y-119981334D01*
X123479000Y-117483667D01*
X126019000Y-117483667D01*
X126019000Y-125019000D01*
G36*
X96004667Y-130014334D02*
G01*
X93464667Y-130014334D01*
X93464667Y-124976667D01*
X96004667Y-124976667D01*
X96004667Y-130014334D01*
X96004667Y-130014334D01*
G37*
X96004667Y-130014334D02*
X93464667Y-130014334D01*
X93464667Y-124976667D01*
X96004667Y-124976667D01*
X96004667Y-130014334D01*
D11*
G36*
X119950431Y-123199569D02*
G01*
X119951000Y-123205339D01*
X119951000Y-124294657D01*
X119950431Y-124300431D01*
X119944657Y-124301000D01*
X118955343Y-124301000D01*
X118949569Y-124300431D01*
X118949000Y-124294657D01*
X118949000Y-123205339D01*
X118949569Y-123199569D01*
X118955343Y-123199000D01*
X119944657Y-123199000D01*
X119950431Y-123199569D01*
X119950431Y-123199569D01*
G37*
G36*
X96800431Y-122699569D02*
G01*
X96801000Y-122705339D01*
X96801000Y-123694657D01*
X96800431Y-123700431D01*
X96794657Y-123701000D01*
X95705343Y-123701000D01*
X95699569Y-123700431D01*
X95699000Y-123694657D01*
X95699000Y-122705339D01*
X95699569Y-122699569D01*
X95705343Y-122699000D01*
X96794657Y-122699000D01*
X96800431Y-122699569D01*
X96800431Y-122699569D01*
G37*
G36*
X93800431Y-122699569D02*
G01*
X93801000Y-122705339D01*
X93801000Y-123694657D01*
X93800431Y-123700431D01*
X93794657Y-123701000D01*
X92705343Y-123701000D01*
X92699569Y-123700431D01*
X92699000Y-123694657D01*
X92699000Y-122705339D01*
X92699569Y-122699569D01*
X92705343Y-122699000D01*
X93794657Y-122699000D01*
X93800431Y-122699569D01*
X93800431Y-122699569D01*
G37*
G36*
X107184600Y-123454600D02*
G01*
X105355400Y-123454600D01*
X105355400Y-121625400D01*
X107184600Y-121625400D01*
X107184600Y-123454600D01*
X107184600Y-123454600D01*
G37*
G36*
X111616778Y-121660547D02*
G01*
X111783224Y-121729491D01*
X111933022Y-121829583D01*
X112060417Y-121956978D01*
X112160509Y-122106776D01*
X112229453Y-122273222D01*
X112264600Y-122449918D01*
X112264600Y-122630082D01*
X112229453Y-122806778D01*
X112160509Y-122973224D01*
X112060417Y-123123022D01*
X111933022Y-123250417D01*
X111783224Y-123350509D01*
X111616778Y-123419453D01*
X111440082Y-123454600D01*
X111259918Y-123454600D01*
X111083222Y-123419453D01*
X110916776Y-123350509D01*
X110766978Y-123250417D01*
X110639583Y-123123022D01*
X110539491Y-122973224D01*
X110470547Y-122806778D01*
X110435400Y-122630082D01*
X110435400Y-122449918D01*
X110470547Y-122273222D01*
X110539491Y-122106776D01*
X110639583Y-121956978D01*
X110766978Y-121829583D01*
X110916776Y-121729491D01*
X111083222Y-121660547D01*
X111259918Y-121625400D01*
X111440082Y-121625400D01*
X111616778Y-121660547D01*
X111616778Y-121660547D01*
G37*
G36*
X108989294Y-121638633D02*
G01*
X109161695Y-121690931D01*
X109320583Y-121775858D01*
X109459849Y-121890151D01*
X109574142Y-122029417D01*
X109659069Y-122188305D01*
X109711367Y-122360706D01*
X109729025Y-122540000D01*
X109711367Y-122719294D01*
X109659069Y-122891695D01*
X109574142Y-123050583D01*
X109459849Y-123189849D01*
X109320583Y-123304142D01*
X109161695Y-123389069D01*
X108989294Y-123441367D01*
X108854931Y-123454600D01*
X108765069Y-123454600D01*
X108630706Y-123441367D01*
X108458305Y-123389069D01*
X108299417Y-123304142D01*
X108160151Y-123189849D01*
X108045858Y-123050583D01*
X107960931Y-122891695D01*
X107908633Y-122719294D01*
X107890975Y-122540000D01*
X107908633Y-122360706D01*
X107960931Y-122188305D01*
X108045858Y-122029417D01*
X108160151Y-121890151D01*
X108299417Y-121775858D01*
X108458305Y-121690931D01*
X108630706Y-121638633D01*
X108765069Y-121625400D01*
X108854931Y-121625400D01*
X108989294Y-121638633D01*
X108989294Y-121638633D01*
G37*
G36*
X95201000Y-123401000D02*
G01*
X94299000Y-123401000D01*
X94299000Y-122699000D01*
X95201000Y-122699000D01*
X95201000Y-123401000D01*
X95201000Y-123401000D01*
G37*
G36*
X119651000Y-122701000D02*
G01*
X118949000Y-122701000D01*
X118949000Y-121799000D01*
X119651000Y-121799000D01*
X119651000Y-122701000D01*
X119651000Y-122701000D01*
G37*
G36*
X119950431Y-120199569D02*
G01*
X119951000Y-120205339D01*
X119951000Y-121294657D01*
X119950431Y-121300431D01*
X119944657Y-121301000D01*
X118955343Y-121301000D01*
X118949569Y-121300431D01*
X118949000Y-121294657D01*
X118949000Y-120205339D01*
X118949569Y-120199569D01*
X118955343Y-120199000D01*
X119944657Y-120199000D01*
X119950431Y-120199569D01*
X119950431Y-120199569D01*
G37*
G36*
X106449294Y-119098633D02*
G01*
X106621695Y-119150931D01*
X106780583Y-119235858D01*
X106919849Y-119350151D01*
X107034142Y-119489417D01*
X107119069Y-119648305D01*
X107171367Y-119820706D01*
X107189025Y-120000000D01*
X107171367Y-120179294D01*
X107119069Y-120351695D01*
X107034142Y-120510583D01*
X106919849Y-120649849D01*
X106780583Y-120764142D01*
X106621695Y-120849069D01*
X106449294Y-120901367D01*
X106314931Y-120914600D01*
X106225069Y-120914600D01*
X106090706Y-120901367D01*
X105918305Y-120849069D01*
X105759417Y-120764142D01*
X105620151Y-120649849D01*
X105505858Y-120510583D01*
X105420931Y-120351695D01*
X105368633Y-120179294D01*
X105350975Y-120000000D01*
X105368633Y-119820706D01*
X105420931Y-119648305D01*
X105505858Y-119489417D01*
X105620151Y-119350151D01*
X105759417Y-119235858D01*
X105918305Y-119150931D01*
X106090706Y-119098633D01*
X106225069Y-119085400D01*
X106314931Y-119085400D01*
X106449294Y-119098633D01*
X106449294Y-119098633D01*
G37*
G36*
X111616778Y-119120547D02*
G01*
X111783224Y-119189491D01*
X111933022Y-119289583D01*
X112060417Y-119416978D01*
X112160509Y-119566776D01*
X112229453Y-119733222D01*
X112264600Y-119909918D01*
X112264600Y-120090082D01*
X112229453Y-120266778D01*
X112160509Y-120433224D01*
X112060417Y-120583022D01*
X111933022Y-120710417D01*
X111783224Y-120810509D01*
X111616778Y-120879453D01*
X111440082Y-120914600D01*
X111259918Y-120914600D01*
X111083222Y-120879453D01*
X110916776Y-120810509D01*
X110766978Y-120710417D01*
X110639583Y-120583022D01*
X110539491Y-120433224D01*
X110470547Y-120266778D01*
X110435400Y-120090082D01*
X110435400Y-119909918D01*
X110470547Y-119733222D01*
X110539491Y-119566776D01*
X110639583Y-119416978D01*
X110766978Y-119289583D01*
X110916776Y-119189491D01*
X111083222Y-119120547D01*
X111259918Y-119085400D01*
X111440082Y-119085400D01*
X111616778Y-119120547D01*
X111616778Y-119120547D01*
G37*
G36*
X108989294Y-119098633D02*
G01*
X109161695Y-119150931D01*
X109320583Y-119235858D01*
X109459849Y-119350151D01*
X109574142Y-119489417D01*
X109659069Y-119648305D01*
X109711367Y-119820706D01*
X109729025Y-120000000D01*
X109711367Y-120179294D01*
X109659069Y-120351695D01*
X109574142Y-120510583D01*
X109459849Y-120649849D01*
X109320583Y-120764142D01*
X109161695Y-120849069D01*
X108989294Y-120901367D01*
X108854931Y-120914600D01*
X108765069Y-120914600D01*
X108630706Y-120901367D01*
X108458305Y-120849069D01*
X108299417Y-120764142D01*
X108160151Y-120649849D01*
X108045858Y-120510583D01*
X107960931Y-120351695D01*
X107908633Y-120179294D01*
X107890975Y-120000000D01*
X107908633Y-119820706D01*
X107960931Y-119648305D01*
X108045858Y-119489417D01*
X108160151Y-119350151D01*
X108299417Y-119235858D01*
X108458305Y-119150931D01*
X108630706Y-119098633D01*
X108765069Y-119085400D01*
X108854931Y-119085400D01*
X108989294Y-119098633D01*
X108989294Y-119098633D01*
G37*
G36*
X97338674Y-119153465D02*
G01*
X97376367Y-119164899D01*
X97411103Y-119183466D01*
X97441548Y-119208452D01*
X97466534Y-119238897D01*
X97485101Y-119273633D01*
X97496535Y-119311326D01*
X97501000Y-119356661D01*
X97501000Y-120193339D01*
X97496535Y-120238674D01*
X97485101Y-120276367D01*
X97466534Y-120311103D01*
X97441548Y-120341548D01*
X97411103Y-120366534D01*
X97376367Y-120385101D01*
X97338674Y-120396535D01*
X97293339Y-120401000D01*
X96206661Y-120401000D01*
X96161326Y-120396535D01*
X96123633Y-120385101D01*
X96088897Y-120366534D01*
X96058452Y-120341548D01*
X96033466Y-120311103D01*
X96014899Y-120276367D01*
X96003465Y-120238674D01*
X95999000Y-120193339D01*
X95999000Y-119356661D01*
X96003465Y-119311326D01*
X96014899Y-119273633D01*
X96033466Y-119238897D01*
X96058452Y-119208452D01*
X96088897Y-119183466D01*
X96123633Y-119164899D01*
X96161326Y-119153465D01*
X96206661Y-119149000D01*
X97293339Y-119149000D01*
X97338674Y-119153465D01*
X97338674Y-119153465D01*
G37*
G36*
X97338674Y-117103465D02*
G01*
X97376367Y-117114899D01*
X97411103Y-117133466D01*
X97441548Y-117158452D01*
X97466534Y-117188897D01*
X97485101Y-117223633D01*
X97496535Y-117261326D01*
X97501000Y-117306661D01*
X97501000Y-118143339D01*
X97496535Y-118188674D01*
X97485101Y-118226367D01*
X97466534Y-118261103D01*
X97441548Y-118291548D01*
X97411103Y-118316534D01*
X97376367Y-118335101D01*
X97338674Y-118346535D01*
X97293339Y-118351000D01*
X96206661Y-118351000D01*
X96161326Y-118346535D01*
X96123633Y-118335101D01*
X96088897Y-118316534D01*
X96058452Y-118291548D01*
X96033466Y-118261103D01*
X96014899Y-118226367D01*
X96003465Y-118188674D01*
X95999000Y-118143339D01*
X95999000Y-117306661D01*
X96003465Y-117261326D01*
X96014899Y-117223633D01*
X96033466Y-117188897D01*
X96058452Y-117158452D01*
X96088897Y-117133466D01*
X96123633Y-117114899D01*
X96161326Y-117103465D01*
X96206661Y-117099000D01*
X97293339Y-117099000D01*
X97338674Y-117103465D01*
X97338674Y-117103465D01*
G37*
G36*
X112950431Y-109449569D02*
G01*
X112951000Y-109455339D01*
X112951000Y-110544657D01*
X112950431Y-110550431D01*
X112944657Y-110551000D01*
X111955343Y-110551000D01*
X111949569Y-110550431D01*
X111949000Y-110544657D01*
X111949000Y-109455339D01*
X111949569Y-109449569D01*
X111955343Y-109449000D01*
X112944657Y-109449000D01*
X112950431Y-109449569D01*
X112950431Y-109449569D01*
G37*
G36*
X98914529Y-107856620D02*
G01*
X98980896Y-107922987D01*
X98980902Y-107922992D01*
X99547719Y-108489809D01*
X99547724Y-108489815D01*
X99614091Y-108556182D01*
X99617767Y-108560661D01*
X99614091Y-108565140D01*
X99547724Y-108631507D01*
X99547719Y-108631513D01*
X98910192Y-109269040D01*
X98910186Y-109269045D01*
X98843819Y-109335412D01*
X98839340Y-109339088D01*
X98834861Y-109335412D01*
X98768494Y-109269045D01*
X98768488Y-109269040D01*
X98201671Y-108702223D01*
X98201666Y-108702217D01*
X98135299Y-108635850D01*
X98131623Y-108631371D01*
X98135299Y-108626892D01*
X98201666Y-108560525D01*
X98201671Y-108560519D01*
X98839198Y-107922992D01*
X98839204Y-107922987D01*
X98905571Y-107856620D01*
X98910050Y-107852944D01*
X98914529Y-107856620D01*
X98914529Y-107856620D01*
G37*
G36*
X112651000Y-108951000D02*
G01*
X111949000Y-108951000D01*
X111949000Y-108049000D01*
X112651000Y-108049000D01*
X112651000Y-108951000D01*
X112651000Y-108951000D01*
G37*
G36*
X100161765Y-107123955D02*
G01*
X100161771Y-107123960D01*
X100558882Y-107521071D01*
X100558887Y-107521077D01*
X100608520Y-107570710D01*
X100558887Y-107620343D01*
X100558882Y-107620349D01*
X100020349Y-108158882D01*
X100020343Y-108158887D01*
X99970710Y-108208520D01*
X99921077Y-108158887D01*
X99921071Y-108158882D01*
X99523960Y-107761771D01*
X99523955Y-107761765D01*
X99474322Y-107712132D01*
X99523955Y-107662499D01*
X99523960Y-107662493D01*
X100062493Y-107123960D01*
X100062499Y-107123955D01*
X100112132Y-107074322D01*
X100161765Y-107123955D01*
X100161765Y-107123955D01*
G37*
G36*
X106638674Y-106253465D02*
G01*
X106676367Y-106264899D01*
X106711103Y-106283466D01*
X106741548Y-106308452D01*
X106766534Y-106338897D01*
X106785101Y-106373633D01*
X106796535Y-106411326D01*
X106801000Y-106456661D01*
X106801000Y-107543339D01*
X106796535Y-107588674D01*
X106785101Y-107626367D01*
X106766534Y-107661103D01*
X106741548Y-107691548D01*
X106711103Y-107716534D01*
X106676367Y-107735101D01*
X106638674Y-107746535D01*
X106593339Y-107751000D01*
X105756661Y-107751000D01*
X105711326Y-107746535D01*
X105673633Y-107735101D01*
X105638897Y-107716534D01*
X105608452Y-107691548D01*
X105583466Y-107661103D01*
X105564899Y-107626367D01*
X105553465Y-107588674D01*
X105549000Y-107543339D01*
X105549000Y-106456661D01*
X105553465Y-106411326D01*
X105564899Y-106373633D01*
X105583466Y-106338897D01*
X105608452Y-106308452D01*
X105638897Y-106283466D01*
X105673633Y-106264899D01*
X105711326Y-106253465D01*
X105756661Y-106249000D01*
X106593339Y-106249000D01*
X106638674Y-106253465D01*
X106638674Y-106253465D01*
G37*
G36*
X108688674Y-106253465D02*
G01*
X108726367Y-106264899D01*
X108761103Y-106283466D01*
X108791548Y-106308452D01*
X108816534Y-106338897D01*
X108835101Y-106373633D01*
X108846535Y-106411326D01*
X108851000Y-106456661D01*
X108851000Y-107543339D01*
X108846535Y-107588674D01*
X108835101Y-107626367D01*
X108816534Y-107661103D01*
X108791548Y-107691548D01*
X108761103Y-107716534D01*
X108726367Y-107735101D01*
X108688674Y-107746535D01*
X108643339Y-107751000D01*
X107806661Y-107751000D01*
X107761326Y-107746535D01*
X107723633Y-107735101D01*
X107688897Y-107716534D01*
X107658452Y-107691548D01*
X107633466Y-107661103D01*
X107614899Y-107626367D01*
X107603465Y-107588674D01*
X107599000Y-107543339D01*
X107599000Y-106456661D01*
X107603465Y-106411326D01*
X107614899Y-106373633D01*
X107633466Y-106338897D01*
X107658452Y-106308452D01*
X107688897Y-106283466D01*
X107723633Y-106264899D01*
X107761326Y-106253465D01*
X107806661Y-106249000D01*
X108643339Y-106249000D01*
X108688674Y-106253465D01*
X108688674Y-106253465D01*
G37*
G36*
X112950431Y-106449569D02*
G01*
X112951000Y-106455339D01*
X112951000Y-107544657D01*
X112950431Y-107550431D01*
X112944657Y-107551000D01*
X111955343Y-107551000D01*
X111949569Y-107550431D01*
X111949000Y-107544657D01*
X111949000Y-106455339D01*
X111949569Y-106449569D01*
X111955343Y-106449000D01*
X112944657Y-106449000D01*
X112950431Y-106449569D01*
X112950431Y-106449569D01*
G37*
G36*
X101035850Y-105735299D02*
G01*
X101102217Y-105801666D01*
X101102223Y-105801671D01*
X101669040Y-106368488D01*
X101669045Y-106368494D01*
X101735412Y-106434861D01*
X101739088Y-106439340D01*
X101735412Y-106443819D01*
X101669045Y-106510186D01*
X101669040Y-106510192D01*
X101031513Y-107147719D01*
X101031507Y-107147724D01*
X100965140Y-107214091D01*
X100960661Y-107217767D01*
X100956182Y-107214091D01*
X100889815Y-107147724D01*
X100889809Y-107147719D01*
X100322992Y-106580902D01*
X100322987Y-106580896D01*
X100256620Y-106514529D01*
X100252944Y-106510050D01*
X100256620Y-106505571D01*
X100322987Y-106439204D01*
X100322992Y-106439198D01*
X100960519Y-105801671D01*
X100960525Y-105801666D01*
X101026892Y-105735299D01*
X101031371Y-105731623D01*
X101035850Y-105735299D01*
X101035850Y-105735299D01*
G37*
M02*
