G04 #@! TF.GenerationSoftware,KiCad,Pcbnew,5.1.2*
G04 #@! TF.CreationDate,2019-06-30T01:50:48-07:00*
G04 #@! TF.ProjectId,Mario_SAO,4d617269-6f5f-4534-914f-2e6b69636164,rev?*
G04 #@! TF.SameCoordinates,Original*
G04 #@! TF.FileFunction,Legend,Top*
G04 #@! TF.FilePolarity,Positive*
%FSLAX46Y46*%
G04 Gerber Fmt 4.6, Leading zero omitted, Abs format (unit mm)*
G04 Created by KiCad (PCBNEW 5.1.2) date 2019-06-30 01:50:48*
%MOMM*%
%LPD*%
G04 APERTURE LIST*
%ADD10C,0.010000*%
%ADD11R,1.829200X1.829200*%
%ADD12O,1.829200X1.829200*%
%ADD13C,1.829200*%
G04 APERTURE END LIST*
D10*
G36*
X117266583Y-83754584D02*
G01*
X117271962Y-86257542D01*
X117277340Y-88760500D01*
X114758333Y-88760500D01*
X114758333Y-83743664D01*
X117266583Y-83754584D01*
X117266583Y-83754584D01*
G37*
X117266583Y-83754584D02*
X117271962Y-86257542D01*
X117277340Y-88760500D01*
X114758333Y-88760500D01*
X114758333Y-83743664D01*
X117266583Y-83754584D01*
G36*
X112260667Y-88760500D02*
G01*
X109763000Y-88760500D01*
X109763000Y-83744000D01*
X112260667Y-83744000D01*
X112260667Y-88760500D01*
X112260667Y-88760500D01*
G37*
X112260667Y-88760500D02*
X109763000Y-88760500D01*
X109763000Y-83744000D01*
X112260667Y-83744000D01*
X112260667Y-88760500D01*
G36*
X102270000Y-68758000D02*
G01*
X104767667Y-68758000D01*
X104767667Y-71255667D01*
X107244167Y-71255667D01*
X107244167Y-68758000D01*
X117256000Y-68758000D01*
X117256000Y-66260334D01*
X122272500Y-66260334D01*
X122272500Y-73774500D01*
X119774833Y-73774500D01*
X119774833Y-76251000D01*
X124770167Y-76251000D01*
X124770167Y-78748667D01*
X127267833Y-78748667D01*
X127267833Y-81267500D01*
X124770167Y-81267500D01*
X124770167Y-83765167D01*
X122272500Y-83765167D01*
X122272500Y-88760500D01*
X124770167Y-88760500D01*
X124770167Y-93755834D01*
X127267833Y-93755834D01*
X127267833Y-96274667D01*
X122272500Y-96274667D01*
X122272500Y-98772334D01*
X119774833Y-98772334D01*
X119774833Y-103746500D01*
X122251333Y-103746500D01*
X122251333Y-101248834D01*
X127267833Y-101248834D01*
X127267833Y-103746500D01*
X129765500Y-103746500D01*
X129765500Y-111260667D01*
X127267833Y-111260667D01*
X127267833Y-116256000D01*
X129765500Y-116256000D01*
X129765500Y-128765500D01*
X127267833Y-128765500D01*
X127267833Y-131263167D01*
X119753667Y-131263167D01*
X119753667Y-128765500D01*
X117256000Y-128765500D01*
X117256000Y-126267834D01*
X109763000Y-126267834D01*
X109763000Y-128765500D01*
X102270000Y-128765500D01*
X102270000Y-131263167D01*
X97274667Y-131263167D01*
X97274667Y-133760834D01*
X92258167Y-133760834D01*
X92258167Y-131263167D01*
X89739333Y-131263167D01*
X89739333Y-123770167D01*
X92279333Y-123770167D01*
X92279333Y-131242000D01*
X97253500Y-131242000D01*
X97253500Y-121251334D01*
X99751167Y-121251334D01*
X99751167Y-118774834D01*
X119774833Y-118774834D01*
X119774833Y-128744334D01*
X124749000Y-128744334D01*
X124749000Y-126246667D01*
X127246667Y-126246667D01*
X127246667Y-116277167D01*
X124749000Y-116277167D01*
X124749000Y-113779500D01*
X122272500Y-113779500D01*
X122272500Y-118774834D01*
X119774833Y-118774834D01*
X99751167Y-118774834D01*
X94777000Y-118774834D01*
X94777000Y-123770167D01*
X92279333Y-123770167D01*
X89739333Y-123770167D01*
X84744000Y-123770167D01*
X84744000Y-121272500D01*
X79748667Y-121272500D01*
X79748667Y-118774834D01*
X77251000Y-118774834D01*
X77251000Y-116277167D01*
X74753333Y-116277167D01*
X74753333Y-111260667D01*
X72255667Y-111260667D01*
X72255667Y-106265334D01*
X74753333Y-106265334D01*
X74753333Y-111260667D01*
X77272167Y-111260667D01*
X77272167Y-116256000D01*
X79769833Y-116256000D01*
X79769833Y-118753667D01*
X84765167Y-118753667D01*
X84765167Y-121251334D01*
X92258167Y-121251334D01*
X92258167Y-118753667D01*
X94755833Y-118753667D01*
X94755833Y-116277167D01*
X89760500Y-116277167D01*
X89760500Y-111260667D01*
X84744000Y-111260667D01*
X84744000Y-108763000D01*
X82246333Y-108763000D01*
X82246333Y-103767667D01*
X77272167Y-103767667D01*
X77272167Y-106265334D01*
X74753333Y-106265334D01*
X72255667Y-106265334D01*
X72255667Y-103746500D01*
X74753333Y-103746500D01*
X74753333Y-101248834D01*
X82267500Y-101248834D01*
X82267500Y-103746500D01*
X84765167Y-103746500D01*
X84765167Y-106244167D01*
X87262833Y-106244167D01*
X87262833Y-108741834D01*
X89760500Y-108741834D01*
X89760500Y-106265334D01*
X92258167Y-106265334D01*
X92258167Y-113758334D01*
X94755833Y-113758334D01*
X94755833Y-111260667D01*
X97253164Y-111260667D01*
X97274667Y-111260667D01*
X97274667Y-116256000D01*
X99772333Y-116256000D01*
X99772333Y-118753667D01*
X107243828Y-118753667D01*
X107249289Y-117510125D01*
X107254750Y-116266584D01*
X109763000Y-116255664D01*
X109763000Y-113779500D01*
X112260667Y-113779500D01*
X112260667Y-118753667D01*
X117256000Y-118753667D01*
X117256000Y-113779500D01*
X112260667Y-113779500D01*
X109763000Y-113779500D01*
X109763000Y-111260667D01*
X107244167Y-111260667D01*
X107244167Y-108763000D01*
X99772333Y-108763000D01*
X99772333Y-111260667D01*
X97274667Y-111260667D01*
X97253164Y-111260667D01*
X97258624Y-110006542D01*
X97264083Y-108752417D01*
X98507456Y-108746956D01*
X99750828Y-108741495D01*
X99756289Y-107498123D01*
X99761703Y-106265334D01*
X107265333Y-106265334D01*
X107265333Y-108741834D01*
X109763000Y-108741834D01*
X109763000Y-106265334D01*
X107265333Y-106265334D01*
X99761703Y-106265334D01*
X99761750Y-106254750D01*
X103502958Y-106249400D01*
X107244167Y-106244050D01*
X107244167Y-103767667D01*
X112260667Y-103767667D01*
X112260667Y-108741498D01*
X113514792Y-108746957D01*
X114768917Y-108752417D01*
X114774376Y-110006542D01*
X114779836Y-111260667D01*
X117277167Y-111260667D01*
X117277167Y-113758334D01*
X122251333Y-113758334D01*
X122251333Y-108763000D01*
X119753667Y-108763000D01*
X119753667Y-106265334D01*
X117256000Y-106265334D01*
X117256000Y-103767667D01*
X122272500Y-103767667D01*
X122272500Y-106244167D01*
X124770167Y-106244167D01*
X124770167Y-111260667D01*
X127246667Y-111260667D01*
X127246667Y-103767667D01*
X122272500Y-103767667D01*
X117256000Y-103767667D01*
X112260667Y-103767667D01*
X107244167Y-103767667D01*
X104746500Y-103767667D01*
X104746500Y-101270000D01*
X97274667Y-101270000D01*
X97274667Y-103767667D01*
X94777000Y-103767667D01*
X94777000Y-106265334D01*
X92258167Y-106265334D01*
X89760500Y-106265334D01*
X89760500Y-106244167D01*
X92258167Y-106244167D01*
X92258167Y-103746500D01*
X94755833Y-103746500D01*
X94755833Y-101248834D01*
X97253500Y-101248834D01*
X97253500Y-98772334D01*
X94755833Y-98772334D01*
X94755833Y-96274667D01*
X92258167Y-96274667D01*
X92258167Y-93777000D01*
X89760500Y-93777000D01*
X89760500Y-88760500D01*
X92258167Y-88760500D01*
X92258167Y-93755498D01*
X93512292Y-93760957D01*
X94766417Y-93766417D01*
X94771877Y-95009959D01*
X94777338Y-96253500D01*
X99772333Y-96253500D01*
X99772333Y-98751167D01*
X104767667Y-98751167D01*
X104767667Y-101248834D01*
X117256000Y-101248834D01*
X117256000Y-98772334D01*
X109763000Y-98772334D01*
X109763000Y-96274840D01*
X107260042Y-96269462D01*
X104757083Y-96264084D01*
X104751624Y-95009959D01*
X104746164Y-93755834D01*
X107244167Y-93755834D01*
X107244167Y-91258167D01*
X109763000Y-91258167D01*
X109763000Y-93755834D01*
X114779500Y-93755834D01*
X114779500Y-96253500D01*
X119753667Y-96253500D01*
X119753667Y-93755834D01*
X122251333Y-93755834D01*
X122251333Y-88760500D01*
X119753667Y-88760500D01*
X119753667Y-81267500D01*
X104767667Y-81267500D01*
X104767667Y-83765167D01*
X102270000Y-83765167D01*
X102270000Y-88760500D01*
X104768002Y-88760500D01*
X104762543Y-90014625D01*
X104757083Y-91268750D01*
X103513542Y-91274211D01*
X102270000Y-91279672D01*
X102270000Y-93777000D01*
X99751167Y-93777000D01*
X99751167Y-91279672D01*
X97264083Y-91268750D01*
X97258705Y-88765792D01*
X97253326Y-86262834D01*
X94777000Y-86262834D01*
X94777000Y-88760500D01*
X92258167Y-88760500D01*
X92258167Y-83744000D01*
X94755833Y-83744000D01*
X94755833Y-68779167D01*
X97274667Y-68779167D01*
X97274667Y-83744000D01*
X99751167Y-83744000D01*
X99751167Y-81246334D01*
X104746500Y-81246334D01*
X104746500Y-78748667D01*
X109763000Y-78748667D01*
X109763000Y-76251000D01*
X117256000Y-76251000D01*
X117256000Y-73753334D01*
X119753667Y-73753334D01*
X119753667Y-68779167D01*
X117277505Y-68779167D01*
X117272044Y-70022709D01*
X117266583Y-71266250D01*
X107265333Y-71276922D01*
X107265333Y-73774836D01*
X106011208Y-73769376D01*
X104757083Y-73763917D01*
X104751622Y-72520544D01*
X104746162Y-71277172D01*
X103502789Y-71271711D01*
X102259417Y-71266250D01*
X102253956Y-70022709D01*
X102248495Y-68779167D01*
X97274667Y-68779167D01*
X94755833Y-68779167D01*
X94755833Y-66260334D01*
X102270000Y-66260334D01*
X102270000Y-68758000D01*
X102270000Y-68758000D01*
G37*
X102270000Y-68758000D02*
X104767667Y-68758000D01*
X104767667Y-71255667D01*
X107244167Y-71255667D01*
X107244167Y-68758000D01*
X117256000Y-68758000D01*
X117256000Y-66260334D01*
X122272500Y-66260334D01*
X122272500Y-73774500D01*
X119774833Y-73774500D01*
X119774833Y-76251000D01*
X124770167Y-76251000D01*
X124770167Y-78748667D01*
X127267833Y-78748667D01*
X127267833Y-81267500D01*
X124770167Y-81267500D01*
X124770167Y-83765167D01*
X122272500Y-83765167D01*
X122272500Y-88760500D01*
X124770167Y-88760500D01*
X124770167Y-93755834D01*
X127267833Y-93755834D01*
X127267833Y-96274667D01*
X122272500Y-96274667D01*
X122272500Y-98772334D01*
X119774833Y-98772334D01*
X119774833Y-103746500D01*
X122251333Y-103746500D01*
X122251333Y-101248834D01*
X127267833Y-101248834D01*
X127267833Y-103746500D01*
X129765500Y-103746500D01*
X129765500Y-111260667D01*
X127267833Y-111260667D01*
X127267833Y-116256000D01*
X129765500Y-116256000D01*
X129765500Y-128765500D01*
X127267833Y-128765500D01*
X127267833Y-131263167D01*
X119753667Y-131263167D01*
X119753667Y-128765500D01*
X117256000Y-128765500D01*
X117256000Y-126267834D01*
X109763000Y-126267834D01*
X109763000Y-128765500D01*
X102270000Y-128765500D01*
X102270000Y-131263167D01*
X97274667Y-131263167D01*
X97274667Y-133760834D01*
X92258167Y-133760834D01*
X92258167Y-131263167D01*
X89739333Y-131263167D01*
X89739333Y-123770167D01*
X92279333Y-123770167D01*
X92279333Y-131242000D01*
X97253500Y-131242000D01*
X97253500Y-121251334D01*
X99751167Y-121251334D01*
X99751167Y-118774834D01*
X119774833Y-118774834D01*
X119774833Y-128744334D01*
X124749000Y-128744334D01*
X124749000Y-126246667D01*
X127246667Y-126246667D01*
X127246667Y-116277167D01*
X124749000Y-116277167D01*
X124749000Y-113779500D01*
X122272500Y-113779500D01*
X122272500Y-118774834D01*
X119774833Y-118774834D01*
X99751167Y-118774834D01*
X94777000Y-118774834D01*
X94777000Y-123770167D01*
X92279333Y-123770167D01*
X89739333Y-123770167D01*
X84744000Y-123770167D01*
X84744000Y-121272500D01*
X79748667Y-121272500D01*
X79748667Y-118774834D01*
X77251000Y-118774834D01*
X77251000Y-116277167D01*
X74753333Y-116277167D01*
X74753333Y-111260667D01*
X72255667Y-111260667D01*
X72255667Y-106265334D01*
X74753333Y-106265334D01*
X74753333Y-111260667D01*
X77272167Y-111260667D01*
X77272167Y-116256000D01*
X79769833Y-116256000D01*
X79769833Y-118753667D01*
X84765167Y-118753667D01*
X84765167Y-121251334D01*
X92258167Y-121251334D01*
X92258167Y-118753667D01*
X94755833Y-118753667D01*
X94755833Y-116277167D01*
X89760500Y-116277167D01*
X89760500Y-111260667D01*
X84744000Y-111260667D01*
X84744000Y-108763000D01*
X82246333Y-108763000D01*
X82246333Y-103767667D01*
X77272167Y-103767667D01*
X77272167Y-106265334D01*
X74753333Y-106265334D01*
X72255667Y-106265334D01*
X72255667Y-103746500D01*
X74753333Y-103746500D01*
X74753333Y-101248834D01*
X82267500Y-101248834D01*
X82267500Y-103746500D01*
X84765167Y-103746500D01*
X84765167Y-106244167D01*
X87262833Y-106244167D01*
X87262833Y-108741834D01*
X89760500Y-108741834D01*
X89760500Y-106265334D01*
X92258167Y-106265334D01*
X92258167Y-113758334D01*
X94755833Y-113758334D01*
X94755833Y-111260667D01*
X97253164Y-111260667D01*
X97274667Y-111260667D01*
X97274667Y-116256000D01*
X99772333Y-116256000D01*
X99772333Y-118753667D01*
X107243828Y-118753667D01*
X107249289Y-117510125D01*
X107254750Y-116266584D01*
X109763000Y-116255664D01*
X109763000Y-113779500D01*
X112260667Y-113779500D01*
X112260667Y-118753667D01*
X117256000Y-118753667D01*
X117256000Y-113779500D01*
X112260667Y-113779500D01*
X109763000Y-113779500D01*
X109763000Y-111260667D01*
X107244167Y-111260667D01*
X107244167Y-108763000D01*
X99772333Y-108763000D01*
X99772333Y-111260667D01*
X97274667Y-111260667D01*
X97253164Y-111260667D01*
X97258624Y-110006542D01*
X97264083Y-108752417D01*
X98507456Y-108746956D01*
X99750828Y-108741495D01*
X99756289Y-107498123D01*
X99761703Y-106265334D01*
X107265333Y-106265334D01*
X107265333Y-108741834D01*
X109763000Y-108741834D01*
X109763000Y-106265334D01*
X107265333Y-106265334D01*
X99761703Y-106265334D01*
X99761750Y-106254750D01*
X103502958Y-106249400D01*
X107244167Y-106244050D01*
X107244167Y-103767667D01*
X112260667Y-103767667D01*
X112260667Y-108741498D01*
X113514792Y-108746957D01*
X114768917Y-108752417D01*
X114774376Y-110006542D01*
X114779836Y-111260667D01*
X117277167Y-111260667D01*
X117277167Y-113758334D01*
X122251333Y-113758334D01*
X122251333Y-108763000D01*
X119753667Y-108763000D01*
X119753667Y-106265334D01*
X117256000Y-106265334D01*
X117256000Y-103767667D01*
X122272500Y-103767667D01*
X122272500Y-106244167D01*
X124770167Y-106244167D01*
X124770167Y-111260667D01*
X127246667Y-111260667D01*
X127246667Y-103767667D01*
X122272500Y-103767667D01*
X117256000Y-103767667D01*
X112260667Y-103767667D01*
X107244167Y-103767667D01*
X104746500Y-103767667D01*
X104746500Y-101270000D01*
X97274667Y-101270000D01*
X97274667Y-103767667D01*
X94777000Y-103767667D01*
X94777000Y-106265334D01*
X92258167Y-106265334D01*
X89760500Y-106265334D01*
X89760500Y-106244167D01*
X92258167Y-106244167D01*
X92258167Y-103746500D01*
X94755833Y-103746500D01*
X94755833Y-101248834D01*
X97253500Y-101248834D01*
X97253500Y-98772334D01*
X94755833Y-98772334D01*
X94755833Y-96274667D01*
X92258167Y-96274667D01*
X92258167Y-93777000D01*
X89760500Y-93777000D01*
X89760500Y-88760500D01*
X92258167Y-88760500D01*
X92258167Y-93755498D01*
X93512292Y-93760957D01*
X94766417Y-93766417D01*
X94771877Y-95009959D01*
X94777338Y-96253500D01*
X99772333Y-96253500D01*
X99772333Y-98751167D01*
X104767667Y-98751167D01*
X104767667Y-101248834D01*
X117256000Y-101248834D01*
X117256000Y-98772334D01*
X109763000Y-98772334D01*
X109763000Y-96274840D01*
X107260042Y-96269462D01*
X104757083Y-96264084D01*
X104751624Y-95009959D01*
X104746164Y-93755834D01*
X107244167Y-93755834D01*
X107244167Y-91258167D01*
X109763000Y-91258167D01*
X109763000Y-93755834D01*
X114779500Y-93755834D01*
X114779500Y-96253500D01*
X119753667Y-96253500D01*
X119753667Y-93755834D01*
X122251333Y-93755834D01*
X122251333Y-88760500D01*
X119753667Y-88760500D01*
X119753667Y-81267500D01*
X104767667Y-81267500D01*
X104767667Y-83765167D01*
X102270000Y-83765167D01*
X102270000Y-88760500D01*
X104768002Y-88760500D01*
X104762543Y-90014625D01*
X104757083Y-91268750D01*
X103513542Y-91274211D01*
X102270000Y-91279672D01*
X102270000Y-93777000D01*
X99751167Y-93777000D01*
X99751167Y-91279672D01*
X97264083Y-91268750D01*
X97258705Y-88765792D01*
X97253326Y-86262834D01*
X94777000Y-86262834D01*
X94777000Y-88760500D01*
X92258167Y-88760500D01*
X92258167Y-83744000D01*
X94755833Y-83744000D01*
X94755833Y-68779167D01*
X97274667Y-68779167D01*
X97274667Y-83744000D01*
X99751167Y-83744000D01*
X99751167Y-81246334D01*
X104746500Y-81246334D01*
X104746500Y-78748667D01*
X109763000Y-78748667D01*
X109763000Y-76251000D01*
X117256000Y-76251000D01*
X117256000Y-73753334D01*
X119753667Y-73753334D01*
X119753667Y-68779167D01*
X117277505Y-68779167D01*
X117272044Y-70022709D01*
X117266583Y-71266250D01*
X107265333Y-71276922D01*
X107265333Y-73774836D01*
X106011208Y-73769376D01*
X104757083Y-73763917D01*
X104751622Y-72520544D01*
X104746162Y-71277172D01*
X103502789Y-71271711D01*
X102259417Y-71266250D01*
X102253956Y-70022709D01*
X102248495Y-68779167D01*
X97274667Y-68779167D01*
X94755833Y-68779167D01*
X94755833Y-66260334D01*
X102270000Y-66260334D01*
X102270000Y-68758000D01*
%LPC*%
G36*
X119774833Y-73774500D02*
G01*
X119028708Y-73769603D01*
X118824890Y-73768179D01*
X118608127Y-73766511D01*
X118388751Y-73764690D01*
X118177098Y-73762806D01*
X117983502Y-73760948D01*
X117818296Y-73759207D01*
X117769204Y-73758643D01*
X117255826Y-73752580D01*
X117261204Y-71260582D01*
X117266583Y-68768584D01*
X119774833Y-68757664D01*
X119774833Y-73774500D01*
X119774833Y-73774500D01*
G37*
X119774833Y-73774500D02*
X119028708Y-73769603D01*
X118824890Y-73768179D01*
X118608127Y-73766511D01*
X118388751Y-73764690D01*
X118177098Y-73762806D01*
X117983502Y-73760948D01*
X117818296Y-73759207D01*
X117769204Y-73758643D01*
X117255826Y-73752580D01*
X117261204Y-71260582D01*
X117266583Y-68768584D01*
X119774833Y-68757664D01*
X119774833Y-73774500D01*
G36*
X102248833Y-71255331D02*
G01*
X103502958Y-71260791D01*
X104757083Y-71266250D01*
X104767841Y-76250664D01*
X102259417Y-76261584D01*
X102253956Y-77505125D01*
X102248495Y-78748667D01*
X97253500Y-78748667D01*
X97253500Y-68758000D01*
X102248833Y-68758000D01*
X102248833Y-71255331D01*
X102248833Y-71255331D01*
G37*
X102248833Y-71255331D02*
X103502958Y-71260791D01*
X104757083Y-71266250D01*
X104767841Y-76250664D01*
X102259417Y-76261584D01*
X102253956Y-77505125D01*
X102248495Y-78748667D01*
X97253500Y-78748667D01*
X97253500Y-68758000D01*
X102248833Y-68758000D01*
X102248833Y-71255331D01*
G36*
X119774833Y-88738995D02*
G01*
X122261917Y-88749917D01*
X122267295Y-91263459D01*
X122272673Y-93777000D01*
X119774833Y-93777000D01*
X119774833Y-96281592D01*
X118647708Y-96267568D01*
X118408972Y-96264909D01*
X118136505Y-96262414D01*
X117838907Y-96260131D01*
X117524780Y-96258109D01*
X117202726Y-96256395D01*
X116881346Y-96255038D01*
X116569241Y-96254086D01*
X116275014Y-96253587D01*
X116139458Y-96253522D01*
X114758333Y-96253500D01*
X114758333Y-93755834D01*
X109763000Y-93755834D01*
X109763000Y-91258167D01*
X107265333Y-91258167D01*
X107265333Y-93755834D01*
X104767667Y-93755834D01*
X104767667Y-96253326D01*
X109752417Y-96264084D01*
X109757876Y-97518209D01*
X109763336Y-98772334D01*
X117256000Y-98772334D01*
X117256000Y-101248834D01*
X104767667Y-101248834D01*
X104767667Y-98751167D01*
X99772672Y-98751167D01*
X99767211Y-97507625D01*
X99761750Y-96264084D01*
X97258792Y-96258705D01*
X94755833Y-96253327D01*
X94755833Y-93755834D01*
X92258167Y-93755834D01*
X92258167Y-88760500D01*
X94755833Y-88760500D01*
X94755833Y-86262834D01*
X97253500Y-86262834D01*
X97253500Y-91258167D01*
X99751167Y-91258167D01*
X99751167Y-93755834D01*
X102270000Y-93755834D01*
X102270000Y-91258167D01*
X104767667Y-91258167D01*
X104767667Y-88760500D01*
X102270000Y-88760500D01*
X102270000Y-83765167D01*
X104767667Y-83765167D01*
X109763000Y-83765167D01*
X109763000Y-88760500D01*
X112260667Y-88760500D01*
X112260667Y-83765167D01*
X114758333Y-83765167D01*
X114758333Y-88760500D01*
X117256000Y-88760500D01*
X117256000Y-83765167D01*
X114758333Y-83765167D01*
X112260667Y-83765167D01*
X109763000Y-83765167D01*
X104767667Y-83765167D01*
X104767667Y-81267500D01*
X111144125Y-81267478D01*
X111675057Y-81267429D01*
X112201945Y-81267286D01*
X112722750Y-81267054D01*
X113235430Y-81266737D01*
X113737946Y-81266338D01*
X114228257Y-81265861D01*
X114704324Y-81265311D01*
X115164104Y-81264690D01*
X115605559Y-81264003D01*
X116026648Y-81263253D01*
X116425330Y-81262445D01*
X116799565Y-81261581D01*
X117147314Y-81260667D01*
X117466535Y-81259706D01*
X117755188Y-81258701D01*
X118011232Y-81257656D01*
X118232629Y-81256576D01*
X118417336Y-81255464D01*
X118563314Y-81254323D01*
X118647708Y-81253433D01*
X119774833Y-81239409D01*
X119774833Y-88738995D01*
X119774833Y-88738995D01*
G37*
X119774833Y-88738995D02*
X122261917Y-88749917D01*
X122267295Y-91263459D01*
X122272673Y-93777000D01*
X119774833Y-93777000D01*
X119774833Y-96281592D01*
X118647708Y-96267568D01*
X118408972Y-96264909D01*
X118136505Y-96262414D01*
X117838907Y-96260131D01*
X117524780Y-96258109D01*
X117202726Y-96256395D01*
X116881346Y-96255038D01*
X116569241Y-96254086D01*
X116275014Y-96253587D01*
X116139458Y-96253522D01*
X114758333Y-96253500D01*
X114758333Y-93755834D01*
X109763000Y-93755834D01*
X109763000Y-91258167D01*
X107265333Y-91258167D01*
X107265333Y-93755834D01*
X104767667Y-93755834D01*
X104767667Y-96253326D01*
X109752417Y-96264084D01*
X109757876Y-97518209D01*
X109763336Y-98772334D01*
X117256000Y-98772334D01*
X117256000Y-101248834D01*
X104767667Y-101248834D01*
X104767667Y-98751167D01*
X99772672Y-98751167D01*
X99767211Y-97507625D01*
X99761750Y-96264084D01*
X97258792Y-96258705D01*
X94755833Y-96253327D01*
X94755833Y-93755834D01*
X92258167Y-93755834D01*
X92258167Y-88760500D01*
X94755833Y-88760500D01*
X94755833Y-86262834D01*
X97253500Y-86262834D01*
X97253500Y-91258167D01*
X99751167Y-91258167D01*
X99751167Y-93755834D01*
X102270000Y-93755834D01*
X102270000Y-91258167D01*
X104767667Y-91258167D01*
X104767667Y-88760500D01*
X102270000Y-88760500D01*
X102270000Y-83765167D01*
X104767667Y-83765167D01*
X109763000Y-83765167D01*
X109763000Y-88760500D01*
X112260667Y-88760500D01*
X112260667Y-83765167D01*
X114758333Y-83765167D01*
X114758333Y-88760500D01*
X117256000Y-88760500D01*
X117256000Y-83765167D01*
X114758333Y-83765167D01*
X112260667Y-83765167D01*
X109763000Y-83765167D01*
X104767667Y-83765167D01*
X104767667Y-81267500D01*
X111144125Y-81267478D01*
X111675057Y-81267429D01*
X112201945Y-81267286D01*
X112722750Y-81267054D01*
X113235430Y-81266737D01*
X113737946Y-81266338D01*
X114228257Y-81265861D01*
X114704324Y-81265311D01*
X115164104Y-81264690D01*
X115605559Y-81264003D01*
X116026648Y-81263253D01*
X116425330Y-81262445D01*
X116799565Y-81261581D01*
X117147314Y-81260667D01*
X117466535Y-81259706D01*
X117755188Y-81258701D01*
X118011232Y-81257656D01*
X118232629Y-81256576D01*
X118417336Y-81255464D01*
X118563314Y-81254323D01*
X118647708Y-81253433D01*
X119774833Y-81239409D01*
X119774833Y-88738995D01*
G36*
X103497667Y-105016500D02*
G01*
X98523500Y-105016500D01*
X98523500Y-102518834D01*
X103497667Y-102518834D01*
X103497667Y-105016500D01*
X103497667Y-105016500D01*
G37*
X103497667Y-105016500D02*
X98523500Y-105016500D01*
X98523500Y-102518834D01*
X103497667Y-102518834D01*
X103497667Y-105016500D01*
G36*
X98502333Y-107514167D02*
G01*
X96004667Y-107514167D01*
X96004667Y-105016500D01*
X98502333Y-105016500D01*
X98502333Y-107514167D01*
X98502333Y-107514167D01*
G37*
X98502333Y-107514167D02*
X96004667Y-107514167D01*
X96004667Y-105016500D01*
X98502333Y-105016500D01*
X98502333Y-107514167D01*
G36*
X96004667Y-110011834D02*
G01*
X93507000Y-110011834D01*
X93507000Y-107514167D01*
X96004667Y-107514167D01*
X96004667Y-110011834D01*
X96004667Y-110011834D01*
G37*
X96004667Y-110011834D02*
X93507000Y-110011834D01*
X93507000Y-107514167D01*
X96004667Y-107514167D01*
X96004667Y-110011834D01*
G36*
X127267833Y-111260667D02*
G01*
X124749000Y-111260667D01*
X124749000Y-106265334D01*
X122251333Y-106265334D01*
X122251333Y-103746500D01*
X127267833Y-103746500D01*
X127267833Y-111260667D01*
X127267833Y-111260667D01*
G37*
X127267833Y-111260667D02*
X124749000Y-111260667D01*
X124749000Y-106265334D01*
X122251333Y-106265334D01*
X122251333Y-103746500D01*
X127267833Y-103746500D01*
X127267833Y-111260667D01*
G36*
X116007167Y-107514167D02*
G01*
X113509500Y-107514167D01*
X113509500Y-105016500D01*
X116007167Y-105016500D01*
X116007167Y-107514167D01*
X116007167Y-107514167D01*
G37*
X116007167Y-107514167D02*
X113509500Y-107514167D01*
X113509500Y-105016500D01*
X116007167Y-105016500D01*
X116007167Y-107514167D01*
G36*
X118526006Y-108747125D02*
G01*
X118526000Y-109990667D01*
X121023667Y-109990667D01*
X121023667Y-112530667D01*
X118504833Y-112530667D01*
X118504833Y-110011834D01*
X116007167Y-110011834D01*
X116007167Y-107517878D01*
X118526011Y-107503584D01*
X118526006Y-108747125D01*
X118526006Y-108747125D01*
G37*
X118526006Y-108747125D02*
X118526000Y-109990667D01*
X121023667Y-109990667D01*
X121023667Y-112530667D01*
X118504833Y-112530667D01*
X118504833Y-110011834D01*
X116007167Y-110011834D01*
X116007167Y-107517878D01*
X118526011Y-107503584D01*
X118526006Y-108747125D01*
G36*
X82246333Y-108763000D02*
G01*
X84744000Y-108763000D01*
X84744000Y-111260667D01*
X82246333Y-111260667D01*
X82246333Y-113758334D01*
X79748667Y-113758334D01*
X79748667Y-116256000D01*
X77251000Y-116256000D01*
X77251000Y-108763336D01*
X78505125Y-108757876D01*
X79759250Y-108752417D01*
X79764711Y-107508875D01*
X79770172Y-106265334D01*
X82246333Y-106265334D01*
X82246333Y-108763000D01*
X82246333Y-108763000D01*
G37*
X82246333Y-108763000D02*
X84744000Y-108763000D01*
X84744000Y-111260667D01*
X82246333Y-111260667D01*
X82246333Y-113758334D01*
X79748667Y-113758334D01*
X79748667Y-116256000D01*
X77251000Y-116256000D01*
X77251000Y-108763336D01*
X78505125Y-108757876D01*
X79759250Y-108752417D01*
X79764711Y-107508875D01*
X79770172Y-106265334D01*
X82246333Y-106265334D01*
X82246333Y-108763000D01*
G36*
X124770167Y-116277167D02*
G01*
X122251333Y-116277167D01*
X122251333Y-113758334D01*
X124770167Y-113758334D01*
X124770167Y-116277167D01*
X124770167Y-116277167D01*
G37*
X124770167Y-116277167D02*
X122251333Y-116277167D01*
X122251333Y-113758334D01*
X124770167Y-113758334D01*
X124770167Y-116277167D01*
G36*
X117256000Y-118753667D02*
G01*
X112260667Y-118753667D01*
X112260667Y-113758334D01*
X117256000Y-113758334D01*
X117256000Y-118753667D01*
X117256000Y-118753667D01*
G37*
X117256000Y-118753667D02*
X112260667Y-118753667D01*
X112260667Y-113758334D01*
X117256000Y-113758334D01*
X117256000Y-118753667D01*
G36*
X107265333Y-111260667D02*
G01*
X109763000Y-111260667D01*
X109763000Y-116256000D01*
X107265333Y-116256000D01*
X107265333Y-118753667D01*
X99772672Y-118753667D01*
X99767211Y-117510125D01*
X99761750Y-116266584D01*
X97253500Y-116255664D01*
X97253500Y-111260667D01*
X99772333Y-111260667D01*
X99772333Y-108763000D01*
X107265333Y-108763000D01*
X107265333Y-111260667D01*
X107265333Y-111260667D01*
G37*
X107265333Y-111260667D02*
X109763000Y-111260667D01*
X109763000Y-116256000D01*
X107265333Y-116256000D01*
X107265333Y-118753667D01*
X99772672Y-118753667D01*
X99767211Y-117510125D01*
X99761750Y-116266584D01*
X97253500Y-116255664D01*
X97253500Y-111260667D01*
X99772333Y-111260667D01*
X99772333Y-108763000D01*
X107265333Y-108763000D01*
X107265333Y-111260667D01*
G36*
X89760500Y-116256000D02*
G01*
X94755833Y-116256000D01*
X94755833Y-118753667D01*
X92251482Y-118753667D01*
X92266537Y-120013084D01*
X92281592Y-121272500D01*
X84737136Y-121272500D01*
X84751151Y-120507039D01*
X84753413Y-120360637D01*
X84755563Y-120177146D01*
X84757569Y-119961808D01*
X84759404Y-119719866D01*
X84761038Y-119456565D01*
X84762441Y-119177146D01*
X84763585Y-118886854D01*
X84764440Y-118590932D01*
X84764977Y-118294623D01*
X84765166Y-118003170D01*
X84765167Y-117998789D01*
X84765167Y-116256000D01*
X87262833Y-116256000D01*
X87262833Y-113758334D01*
X89760500Y-113758334D01*
X89760500Y-116256000D01*
X89760500Y-116256000D01*
G37*
X89760500Y-116256000D02*
X94755833Y-116256000D01*
X94755833Y-118753667D01*
X92251482Y-118753667D01*
X92266537Y-120013084D01*
X92281592Y-121272500D01*
X84737136Y-121272500D01*
X84751151Y-120507039D01*
X84753413Y-120360637D01*
X84755563Y-120177146D01*
X84757569Y-119961808D01*
X84759404Y-119719866D01*
X84761038Y-119456565D01*
X84762441Y-119177146D01*
X84763585Y-118886854D01*
X84764440Y-118590932D01*
X84764977Y-118294623D01*
X84765166Y-118003170D01*
X84765167Y-117998789D01*
X84765167Y-116256000D01*
X87262833Y-116256000D01*
X87262833Y-113758334D01*
X89760500Y-113758334D01*
X89760500Y-116256000D01*
G36*
X126019000Y-125019000D02*
G01*
X123521333Y-125019000D01*
X123521333Y-127516667D01*
X121002500Y-127516667D01*
X121002500Y-120002500D01*
X123500167Y-120002500D01*
X123500167Y-117504834D01*
X126019000Y-117504834D01*
X126019000Y-125019000D01*
X126019000Y-125019000D01*
G37*
X126019000Y-125019000D02*
X123521333Y-125019000D01*
X123521333Y-127516667D01*
X121002500Y-127516667D01*
X121002500Y-120002500D01*
X123500167Y-120002500D01*
X123500167Y-117504834D01*
X126019000Y-117504834D01*
X126019000Y-125019000D01*
G36*
X96025833Y-130014334D02*
G01*
X93507000Y-130014334D01*
X93507000Y-124997834D01*
X96025833Y-124997834D01*
X96025833Y-130014334D01*
X96025833Y-130014334D01*
G37*
X96025833Y-130014334D02*
X93507000Y-130014334D01*
X93507000Y-124997834D01*
X96025833Y-124997834D01*
X96025833Y-130014334D01*
D11*
X106270000Y-122540000D03*
D12*
X106270000Y-120000000D03*
X108810000Y-122540000D03*
X108810000Y-120000000D03*
D13*
X111350000Y-122540000D03*
X111350000Y-120000000D03*
M02*
