G04 #@! TF.GenerationSoftware,KiCad,Pcbnew,5.1.2*
G04 #@! TF.CreationDate,2019-06-30T01:50:48-07:00*
G04 #@! TF.ProjectId,Mario_SAO,4d617269-6f5f-4534-914f-2e6b69636164,rev?*
G04 #@! TF.SameCoordinates,Original*
G04 #@! TF.FileFunction,Profile,NP*
%FSLAX46Y46*%
G04 Gerber Fmt 4.6, Leading zero omitted, Abs format (unit mm)*
G04 Created by KiCad (PCBNEW 5.1.2) date 2019-06-30 01:50:48*
%MOMM*%
%LPD*%
G04 APERTURE LIST*
%ADD10C,0.100000*%
G04 APERTURE END LIST*
D10*
X94751916Y-75006531D02*
X94751916Y-66258817D01*
X92252684Y-86253591D02*
X92252684Y-83754246D01*
X92252684Y-83754246D02*
X93502300Y-83754246D01*
X93502300Y-83754246D02*
X94751916Y-83754246D01*
X94751916Y-83754246D02*
X94751916Y-75006531D01*
X89753450Y-91252285D02*
X89753450Y-88752937D01*
X89753450Y-88752937D02*
X91003066Y-88752937D01*
X91003066Y-88752937D02*
X92252684Y-88752937D01*
X92252684Y-88752937D02*
X92252684Y-86253591D01*
X92252684Y-95001306D02*
X92252684Y-93751632D01*
X92252684Y-93751632D02*
X91003066Y-93751632D01*
X91003066Y-93751632D02*
X89753450Y-93751632D01*
X89753450Y-93751632D02*
X89753450Y-91252285D01*
X92252684Y-132491508D02*
X92252684Y-131241838D01*
X92252684Y-131241838D02*
X91003066Y-131241838D01*
X91003066Y-131241838D02*
X89753450Y-131241838D01*
X89753450Y-131241838D02*
X89753450Y-127492817D01*
X89753450Y-127492817D02*
X89753450Y-123743797D01*
X89753450Y-123743797D02*
X87254216Y-123743797D01*
X87254216Y-123743797D02*
X84754984Y-123743797D01*
X84754984Y-123743797D02*
X84754984Y-122494123D01*
X84754984Y-122494123D02*
X84754984Y-121250000D01*
X84750000Y-121250000D02*
X82255749Y-121244449D01*
X82255749Y-121244449D02*
X79756517Y-121244449D01*
X79756517Y-121244449D02*
X79756517Y-119994774D01*
X79756517Y-119994774D02*
X79756517Y-118745103D01*
X79756517Y-118745103D02*
X78506899Y-118745103D01*
X78506899Y-118745103D02*
X77257284Y-118745103D01*
X77257284Y-118745103D02*
X77257284Y-117495428D01*
X77257284Y-117495428D02*
X77257284Y-116245753D01*
X77257284Y-116245753D02*
X76007667Y-116245753D01*
X76007667Y-116245753D02*
X74758049Y-116245753D01*
X74758049Y-116245753D02*
X74758049Y-113746408D01*
X74758049Y-113746408D02*
X74758049Y-111247063D01*
X74758049Y-111247063D02*
X73508434Y-111247063D01*
X73508434Y-111247063D02*
X72258817Y-111247063D01*
X72258817Y-111247063D02*
X72258817Y-107498043D01*
X72258817Y-107498043D02*
X72258817Y-103749019D01*
X72258817Y-103749019D02*
X73508434Y-103749019D01*
X73508434Y-103749019D02*
X74758049Y-103749019D01*
X74758049Y-103749019D02*
X74758049Y-102499348D01*
X74758049Y-102499348D02*
X74758049Y-101249672D01*
X74758049Y-101249672D02*
X78506899Y-101249672D01*
X78506899Y-101249672D02*
X82255749Y-101249672D01*
X82255749Y-101249672D02*
X82255749Y-102499348D01*
X82255749Y-102499348D02*
X82255749Y-103749019D01*
X82255749Y-103749019D02*
X83505366Y-103749019D01*
X83505366Y-103749019D02*
X84754984Y-103749019D01*
X84754984Y-103749019D02*
X84754984Y-104998693D01*
X84754984Y-104998693D02*
X84754984Y-106248368D01*
X84754984Y-106248368D02*
X86004599Y-106248368D01*
X86004599Y-106248368D02*
X87254216Y-106248368D01*
X87254216Y-106248368D02*
X87254216Y-107498043D01*
X87254216Y-107498043D02*
X87254216Y-108747714D01*
X87254216Y-108747714D02*
X88503834Y-108747714D01*
X88503834Y-108747714D02*
X89753450Y-108747714D01*
X89753450Y-108747714D02*
X89753450Y-107498043D01*
X89753450Y-107498043D02*
X89753450Y-106248368D01*
X89753450Y-106248368D02*
X91003066Y-106248368D01*
X91003066Y-106248368D02*
X92252684Y-106248368D01*
X92252684Y-106248368D02*
X92252684Y-104998693D01*
X92252684Y-104998693D02*
X92252684Y-103749019D01*
X92252684Y-103749019D02*
X93502300Y-103749019D01*
X93502300Y-103749019D02*
X94751916Y-103749019D01*
X94751916Y-103749019D02*
X94751916Y-102499348D01*
X94751916Y-102499348D02*
X94751916Y-101249672D01*
X94751916Y-101249672D02*
X96001534Y-101249672D01*
X96001534Y-101249672D02*
X97251149Y-101249672D01*
X97251149Y-101249672D02*
X97251149Y-99999998D01*
X97251149Y-99999998D02*
X97251149Y-98750326D01*
X97251149Y-98750326D02*
X96001534Y-98750326D01*
X96001534Y-98750326D02*
X94751916Y-98750326D01*
X94751916Y-98750326D02*
X94751916Y-97500653D01*
X94751916Y-97500653D02*
X94751916Y-96250978D01*
X94751916Y-96250978D02*
X93502300Y-96250978D01*
X93502300Y-96250978D02*
X92252684Y-96250978D01*
X92252684Y-96250978D02*
X92252684Y-95001306D01*
X94751916Y-66258817D02*
X98500766Y-66258817D01*
X98500766Y-66258817D02*
X102249617Y-66258817D01*
X102249617Y-66258817D02*
X102249617Y-67508491D01*
X102249617Y-67508491D02*
X102249617Y-68758163D01*
X102249617Y-68758163D02*
X103499234Y-68758163D01*
X103499234Y-68758163D02*
X104748851Y-68758163D01*
X104748851Y-68758163D02*
X104748851Y-70007838D01*
X104748851Y-70007838D02*
X104748851Y-71257511D01*
X104748851Y-71257511D02*
X105998467Y-71257511D01*
X105998467Y-71257511D02*
X107248083Y-71257511D01*
X107248083Y-71257511D02*
X107248083Y-70007838D01*
X107248083Y-70007838D02*
X107248083Y-68758163D01*
X107248083Y-68758163D02*
X112246553Y-68758163D01*
X112246553Y-68758163D02*
X117245017Y-68758163D01*
X117245017Y-68758163D02*
X117245017Y-67508491D01*
X117245017Y-67508491D02*
X117245017Y-66258817D01*
X117245017Y-66258817D02*
X119744251Y-66258817D01*
X119744251Y-66258817D02*
X122243484Y-66258817D01*
X122243484Y-66258817D02*
X122243484Y-70007838D01*
X122243484Y-70007838D02*
X122243484Y-73756858D01*
X122243484Y-73756858D02*
X120993866Y-73756858D01*
X120993866Y-73756858D02*
X119744251Y-73756858D01*
X119744251Y-73756858D02*
X119744251Y-75006531D01*
X119744251Y-75006531D02*
X119744251Y-76256204D01*
X119744251Y-76256204D02*
X122243484Y-76256204D01*
X122243484Y-76256204D02*
X124742716Y-76256204D01*
X124742716Y-76256204D02*
X124742716Y-77505877D01*
X124742716Y-77505877D02*
X124742716Y-78755552D01*
X124742716Y-78755552D02*
X125992334Y-78755552D01*
X125992334Y-78755552D02*
X127241952Y-78755552D01*
X127241952Y-78755552D02*
X127241952Y-80005226D01*
X127241952Y-80005226D02*
X127241952Y-81254897D01*
X127241952Y-81254897D02*
X125992334Y-81254897D01*
X125992334Y-81254897D02*
X124742716Y-81254897D01*
X124742716Y-81254897D02*
X124742716Y-82504572D01*
X124742716Y-82504572D02*
X124742716Y-83754246D01*
X124742716Y-83754246D02*
X123493102Y-83754246D01*
X123493102Y-83754246D02*
X122243484Y-83754246D01*
X122243484Y-83754246D02*
X122243484Y-86253591D01*
X122243484Y-86253591D02*
X122243484Y-88752937D01*
X122243484Y-88752937D02*
X123493102Y-88752937D01*
X123493102Y-88752937D02*
X124742716Y-88752937D01*
X124742716Y-88752937D02*
X124742716Y-91252285D01*
X124742716Y-91252285D02*
X124742716Y-93751632D01*
X124742716Y-93751632D02*
X125992334Y-93751632D01*
X125992334Y-93751632D02*
X127241952Y-93751632D01*
X127241952Y-93751632D02*
X127241952Y-95001306D01*
X127241952Y-95001306D02*
X127241952Y-96250978D01*
X127241952Y-96250978D02*
X124742716Y-96250978D01*
X124742716Y-96250978D02*
X122243484Y-96250978D01*
X122243484Y-96250978D02*
X122243484Y-97500653D01*
X122243484Y-97500653D02*
X122243484Y-98750326D01*
X122243484Y-98750326D02*
X120993866Y-98750326D01*
X120993866Y-98750326D02*
X119744251Y-98750326D01*
X119744251Y-98750326D02*
X119744251Y-101249672D01*
X119744251Y-101249672D02*
X119744251Y-103749019D01*
X119744251Y-103749019D02*
X120993866Y-103749019D01*
X120993866Y-103749019D02*
X122243484Y-103749019D01*
X122243484Y-103749019D02*
X122243484Y-102499348D01*
X122243484Y-102499348D02*
X122243484Y-101249672D01*
X122243484Y-101249672D02*
X124742716Y-101249672D01*
X124742716Y-101249672D02*
X127241952Y-101249672D01*
X127241952Y-101249672D02*
X127241952Y-102499348D01*
X127241952Y-102499348D02*
X127241952Y-103749019D01*
X127241952Y-103749019D02*
X128491566Y-103749019D01*
X128491566Y-103749019D02*
X129741184Y-103749019D01*
X129741184Y-103749019D02*
X129741184Y-107498043D01*
X129741184Y-107498043D02*
X129741184Y-111247063D01*
X129741184Y-111247063D02*
X128491566Y-111247063D01*
X128491566Y-111247063D02*
X127241952Y-111247063D01*
X127241952Y-111247063D02*
X127241952Y-113746408D01*
X127241952Y-113746408D02*
X127241952Y-116245753D01*
X127241952Y-116245753D02*
X128491566Y-116245753D01*
X128491566Y-116245753D02*
X129741184Y-116245753D01*
X129741184Y-116245753D02*
X129741184Y-122494123D01*
X129741184Y-122494123D02*
X129741184Y-128742487D01*
X129741184Y-128742487D02*
X128491566Y-128742487D01*
X128491566Y-128742487D02*
X127241952Y-128742487D01*
X127241952Y-128742487D02*
X127241952Y-129992163D01*
X127241952Y-129992163D02*
X127241952Y-131241838D01*
X127241952Y-131241838D02*
X123493102Y-131241838D01*
X123493102Y-131241838D02*
X119744251Y-131241838D01*
X119744251Y-131241838D02*
X119744251Y-129992163D01*
X119744251Y-129992163D02*
X119744251Y-128742487D01*
X119744251Y-128742487D02*
X118494635Y-128742487D01*
X118494635Y-128742487D02*
X117245017Y-128742487D01*
X117245017Y-128742487D02*
X117245017Y-127492817D01*
X117245017Y-127492817D02*
X117245017Y-126243142D01*
X117245017Y-126243142D02*
X113496167Y-126243142D01*
X113496167Y-126243142D02*
X109747317Y-126243142D01*
X109747317Y-126243142D02*
X109747317Y-127492817D01*
X109747317Y-127492817D02*
X109747317Y-128742487D01*
X109747317Y-128742487D02*
X105998467Y-128742487D01*
X105998467Y-128742487D02*
X102249617Y-128742487D01*
X102249617Y-128742487D02*
X102249617Y-129992163D01*
X102249617Y-129992163D02*
X102249617Y-131241838D01*
X102249617Y-131241838D02*
X99750384Y-131241838D01*
X99750384Y-131241838D02*
X97251149Y-131241838D01*
X97251149Y-131241838D02*
X97251149Y-132491508D01*
X97251149Y-132491508D02*
X97251149Y-133741183D01*
X97251149Y-133741183D02*
X94751916Y-133741183D01*
X94751916Y-133741183D02*
X92252684Y-133741183D01*
X92252684Y-133741183D02*
X92252684Y-132491508D01*
X92252684Y-132491508D02*
X92252684Y-132491508D01*
X92252684Y-132491508D02*
X92252684Y-132491508D01*
M02*
