G04 #@! TF.GenerationSoftware,KiCad,Pcbnew,5.1.2*
G04 #@! TF.CreationDate,2019-06-30T01:50:48-07:00*
G04 #@! TF.ProjectId,Mario_SAO,4d617269-6f5f-4534-914f-2e6b69636164,rev?*
G04 #@! TF.SameCoordinates,Original*
G04 #@! TF.FileFunction,Copper,L2,Bot*
G04 #@! TF.FilePolarity,Positive*
%FSLAX46Y46*%
G04 Gerber Fmt 4.6, Leading zero omitted, Abs format (unit mm)*
G04 Created by KiCad (PCBNEW 5.1.2) date 2019-06-30 01:50:48*
%MOMM*%
%LPD*%
G04 APERTURE LIST*
%ADD10C,0.010000*%
%ADD11R,1.727200X1.727200*%
%ADD12O,1.727200X1.727200*%
%ADD13C,1.727200*%
%ADD14C,0.100000*%
%ADD15C,0.600000*%
%ADD16C,0.900000*%
%ADD17C,1.150000*%
%ADD18C,0.254000*%
%ADD19C,0.025400*%
G04 APERTURE END LIST*
D10*
G36*
X117256000Y-88781667D02*
G01*
X116014222Y-88781667D01*
X115698087Y-88780740D01*
X115409712Y-88778118D01*
X115159881Y-88774042D01*
X114959377Y-88768751D01*
X114818984Y-88762485D01*
X114749486Y-88755482D01*
X114744222Y-88753445D01*
X114739111Y-88707130D01*
X114734298Y-88583650D01*
X114729867Y-88390506D01*
X114725902Y-88135198D01*
X114722486Y-87825228D01*
X114719705Y-87468098D01*
X114717641Y-87071307D01*
X114716380Y-86642358D01*
X114716000Y-86234611D01*
X114716000Y-83744000D01*
X117256000Y-83744000D01*
X117256000Y-88781667D01*
X117256000Y-88781667D01*
G37*
X117256000Y-88781667D02*
X116014222Y-88781667D01*
X115698087Y-88780740D01*
X115409712Y-88778118D01*
X115159881Y-88774042D01*
X114959377Y-88768751D01*
X114818984Y-88762485D01*
X114749486Y-88755482D01*
X114744222Y-88753445D01*
X114739111Y-88707130D01*
X114734298Y-88583650D01*
X114729867Y-88390506D01*
X114725902Y-88135198D01*
X114722486Y-87825228D01*
X114719705Y-87468098D01*
X114717641Y-87071307D01*
X114716380Y-86642358D01*
X114716000Y-86234611D01*
X114716000Y-83744000D01*
X117256000Y-83744000D01*
X117256000Y-88781667D01*
G36*
X112260667Y-88781667D02*
G01*
X111018889Y-88781667D01*
X110702754Y-88780740D01*
X110414379Y-88778118D01*
X110164548Y-88774042D01*
X109964044Y-88768751D01*
X109823651Y-88762485D01*
X109754153Y-88755482D01*
X109748889Y-88753445D01*
X109743778Y-88707130D01*
X109738965Y-88583650D01*
X109734534Y-88390506D01*
X109730568Y-88135198D01*
X109727153Y-87825228D01*
X109724371Y-87468098D01*
X109722308Y-87071307D01*
X109721047Y-86642358D01*
X109720667Y-86234611D01*
X109720667Y-83744000D01*
X112260667Y-83744000D01*
X112260667Y-88781667D01*
X112260667Y-88781667D01*
G37*
X112260667Y-88781667D02*
X111018889Y-88781667D01*
X110702754Y-88780740D01*
X110414379Y-88778118D01*
X110164548Y-88774042D01*
X109964044Y-88768751D01*
X109823651Y-88762485D01*
X109754153Y-88755482D01*
X109748889Y-88753445D01*
X109743778Y-88707130D01*
X109738965Y-88583650D01*
X109734534Y-88390506D01*
X109730568Y-88135198D01*
X109727153Y-87825228D01*
X109724371Y-87468098D01*
X109722308Y-87071307D01*
X109721047Y-86642358D01*
X109720667Y-86234611D01*
X109720667Y-83744000D01*
X112260667Y-83744000D01*
X112260667Y-88781667D01*
G36*
X77698019Y-104752744D02*
G01*
X77778453Y-104832487D01*
X77797192Y-104874651D01*
X77819804Y-104984620D01*
X77834688Y-105146732D01*
X77841781Y-105336955D01*
X77841020Y-105531259D01*
X77832342Y-105705614D01*
X77815684Y-105835989D01*
X77799844Y-105887117D01*
X77723292Y-105955597D01*
X77621686Y-105964089D01*
X77528206Y-105914063D01*
X77498121Y-105873750D01*
X77471828Y-105782067D01*
X77454111Y-105633639D01*
X77444911Y-105450866D01*
X77444171Y-105256151D01*
X77451832Y-105071892D01*
X77467837Y-104920490D01*
X77492128Y-104824346D01*
X77500870Y-104809810D01*
X77597852Y-104743513D01*
X77698019Y-104752744D01*
X77698019Y-104752744D01*
G37*
X77698019Y-104752744D02*
X77778453Y-104832487D01*
X77797192Y-104874651D01*
X77819804Y-104984620D01*
X77834688Y-105146732D01*
X77841781Y-105336955D01*
X77841020Y-105531259D01*
X77832342Y-105705614D01*
X77815684Y-105835989D01*
X77799844Y-105887117D01*
X77723292Y-105955597D01*
X77621686Y-105964089D01*
X77528206Y-105914063D01*
X77498121Y-105873750D01*
X77471828Y-105782067D01*
X77454111Y-105633639D01*
X77444911Y-105450866D01*
X77444171Y-105256151D01*
X77451832Y-105071892D01*
X77467837Y-104920490D01*
X77492128Y-104824346D01*
X77500870Y-104809810D01*
X77597852Y-104743513D01*
X77698019Y-104752744D01*
G36*
X76691523Y-104791460D02*
G01*
X76692200Y-104792134D01*
X76713999Y-104855570D01*
X76729880Y-104982413D01*
X76739708Y-105151598D01*
X76743351Y-105342063D01*
X76740673Y-105532744D01*
X76731540Y-105702578D01*
X76715818Y-105830502D01*
X76699177Y-105887117D01*
X76623347Y-105953040D01*
X76552500Y-105969000D01*
X76452416Y-105936719D01*
X76405823Y-105887117D01*
X76384033Y-105800892D01*
X76370008Y-105654186D01*
X76363627Y-105470818D01*
X76364768Y-105274606D01*
X76373308Y-105089368D01*
X76389127Y-104938922D01*
X76411128Y-104849159D01*
X76487795Y-104763489D01*
X76591617Y-104742155D01*
X76691523Y-104791460D01*
X76691523Y-104791460D01*
G37*
X76691523Y-104791460D02*
X76692200Y-104792134D01*
X76713999Y-104855570D01*
X76729880Y-104982413D01*
X76739708Y-105151598D01*
X76743351Y-105342063D01*
X76740673Y-105532744D01*
X76731540Y-105702578D01*
X76715818Y-105830502D01*
X76699177Y-105887117D01*
X76623347Y-105953040D01*
X76552500Y-105969000D01*
X76452416Y-105936719D01*
X76405823Y-105887117D01*
X76384033Y-105800892D01*
X76370008Y-105654186D01*
X76363627Y-105470818D01*
X76364768Y-105274606D01*
X76373308Y-105089368D01*
X76389127Y-104938922D01*
X76411128Y-104849159D01*
X76487795Y-104763489D01*
X76591617Y-104742155D01*
X76691523Y-104791460D01*
G36*
X92901098Y-112132984D02*
G01*
X92938864Y-112169742D01*
X92963703Y-112236094D01*
X92979108Y-112349241D01*
X92988570Y-112526384D01*
X92990062Y-112571164D01*
X92990943Y-112794115D01*
X92978001Y-112947164D01*
X92953128Y-113021764D01*
X92863784Y-113077734D01*
X92771051Y-113060542D01*
X92702889Y-112975674D01*
X92701619Y-112972411D01*
X92680236Y-112874124D01*
X92665317Y-112725215D01*
X92660333Y-112574934D01*
X92667013Y-112397076D01*
X92690532Y-112278327D01*
X92736113Y-112193930D01*
X92742348Y-112186107D01*
X92811758Y-112119807D01*
X92872914Y-112118295D01*
X92901098Y-112132984D01*
X92901098Y-112132984D01*
G37*
X92901098Y-112132984D02*
X92938864Y-112169742D01*
X92963703Y-112236094D01*
X92979108Y-112349241D01*
X92988570Y-112526384D01*
X92990062Y-112571164D01*
X92990943Y-112794115D01*
X92978001Y-112947164D01*
X92953128Y-113021764D01*
X92863784Y-113077734D01*
X92771051Y-113060542D01*
X92702889Y-112975674D01*
X92701619Y-112972411D01*
X92680236Y-112874124D01*
X92665317Y-112725215D01*
X92660333Y-112574934D01*
X92667013Y-112397076D01*
X92690532Y-112278327D01*
X92736113Y-112193930D01*
X92742348Y-112186107D01*
X92811758Y-112119807D01*
X92872914Y-112118295D01*
X92901098Y-112132984D01*
G36*
X91675561Y-112133006D02*
G01*
X91676877Y-112133832D01*
X91710610Y-112167410D01*
X91732340Y-112227775D01*
X91744506Y-112331101D01*
X91749547Y-112493563D01*
X91750167Y-112619947D01*
X91750167Y-113059834D01*
X91635226Y-113073086D01*
X91547140Y-113067709D01*
X91501192Y-113008945D01*
X91488072Y-112967253D01*
X91471623Y-112864654D01*
X91459668Y-112710998D01*
X91454845Y-112542762D01*
X91459662Y-112365006D01*
X91478256Y-112250423D01*
X91514693Y-112178081D01*
X91528711Y-112162480D01*
X91602729Y-112113029D01*
X91675561Y-112133006D01*
X91675561Y-112133006D01*
G37*
X91675561Y-112133006D02*
X91676877Y-112133832D01*
X91710610Y-112167410D01*
X91732340Y-112227775D01*
X91744506Y-112331101D01*
X91749547Y-112493563D01*
X91750167Y-112619947D01*
X91750167Y-113059834D01*
X91635226Y-113073086D01*
X91547140Y-113067709D01*
X91501192Y-113008945D01*
X91488072Y-112967253D01*
X91471623Y-112864654D01*
X91459668Y-112710998D01*
X91454845Y-112542762D01*
X91459662Y-112365006D01*
X91478256Y-112250423D01*
X91514693Y-112178081D01*
X91528711Y-112162480D01*
X91602729Y-112113029D01*
X91675561Y-112133006D01*
G36*
X82437602Y-115182772D02*
G01*
X82716604Y-115289854D01*
X82962675Y-115472641D01*
X83020878Y-115531496D01*
X83201118Y-115764385D01*
X83305504Y-116005575D01*
X83341774Y-116276831D01*
X83337410Y-116422027D01*
X83275027Y-116732852D01*
X83138333Y-117007990D01*
X82933037Y-117239416D01*
X82664850Y-117419104D01*
X82608934Y-117445973D01*
X82427973Y-117497904D01*
X82199985Y-117520341D01*
X81957389Y-117513062D01*
X81732603Y-117475847D01*
X81654817Y-117452486D01*
X81466243Y-117352563D01*
X81276539Y-117196151D01*
X81109590Y-117007647D01*
X80989283Y-116811447D01*
X80962630Y-116745516D01*
X80896495Y-116431439D01*
X80910887Y-116125974D01*
X81003157Y-115839731D01*
X81170662Y-115583321D01*
X81280491Y-115470801D01*
X81527167Y-115289581D01*
X81789548Y-115184723D01*
X82088712Y-115148091D01*
X82117352Y-115147863D01*
X82437602Y-115182772D01*
X82437602Y-115182772D01*
G37*
X82437602Y-115182772D02*
X82716604Y-115289854D01*
X82962675Y-115472641D01*
X83020878Y-115531496D01*
X83201118Y-115764385D01*
X83305504Y-116005575D01*
X83341774Y-116276831D01*
X83337410Y-116422027D01*
X83275027Y-116732852D01*
X83138333Y-117007990D01*
X82933037Y-117239416D01*
X82664850Y-117419104D01*
X82608934Y-117445973D01*
X82427973Y-117497904D01*
X82199985Y-117520341D01*
X81957389Y-117513062D01*
X81732603Y-117475847D01*
X81654817Y-117452486D01*
X81466243Y-117352563D01*
X81276539Y-117196151D01*
X81109590Y-117007647D01*
X80989283Y-116811447D01*
X80962630Y-116745516D01*
X80896495Y-116431439D01*
X80910887Y-116125974D01*
X81003157Y-115839731D01*
X81170662Y-115583321D01*
X81280491Y-115470801D01*
X81527167Y-115289581D01*
X81789548Y-115184723D01*
X82088712Y-115148091D01*
X82117352Y-115147863D01*
X82437602Y-115182772D01*
G36*
X84064509Y-116173508D02*
G01*
X84127018Y-116262450D01*
X84193417Y-116396832D01*
X84311638Y-116702375D01*
X84395433Y-117013223D01*
X84441342Y-117309151D01*
X84445906Y-117569936D01*
X84420984Y-117727084D01*
X84387341Y-117803617D01*
X84340536Y-117809544D01*
X84272541Y-117742280D01*
X84214973Y-117660804D01*
X84061898Y-117373946D01*
X83973410Y-117065625D01*
X83944548Y-116716401D01*
X83946492Y-116608245D01*
X83960342Y-116377433D01*
X83983246Y-116229224D01*
X84017277Y-116161841D01*
X84064509Y-116173508D01*
X84064509Y-116173508D01*
G37*
X84064509Y-116173508D02*
X84127018Y-116262450D01*
X84193417Y-116396832D01*
X84311638Y-116702375D01*
X84395433Y-117013223D01*
X84441342Y-117309151D01*
X84445906Y-117569936D01*
X84420984Y-117727084D01*
X84387341Y-117803617D01*
X84340536Y-117809544D01*
X84272541Y-117742280D01*
X84214973Y-117660804D01*
X84061898Y-117373946D01*
X83973410Y-117065625D01*
X83944548Y-116716401D01*
X83946492Y-116608245D01*
X83960342Y-116377433D01*
X83983246Y-116229224D01*
X84017277Y-116161841D01*
X84064509Y-116173508D01*
G36*
X80232110Y-116166135D02*
G01*
X80235102Y-116170690D01*
X80261957Y-116258919D01*
X80279965Y-116406283D01*
X80288523Y-116587654D01*
X80287031Y-116777903D01*
X80274884Y-116951901D01*
X80256528Y-117064933D01*
X80206059Y-117233487D01*
X80135889Y-117409410D01*
X80055625Y-117574395D01*
X79974872Y-117710135D01*
X79903239Y-117798323D01*
X79859088Y-117822334D01*
X79821529Y-117788766D01*
X79805218Y-117755992D01*
X79796138Y-117685964D01*
X79793338Y-117554599D01*
X79797034Y-117385011D01*
X79800954Y-117300909D01*
X79824345Y-117044073D01*
X79869481Y-116823759D01*
X79946377Y-116592639D01*
X79956326Y-116566784D01*
X80049098Y-116346635D01*
X80125205Y-116207587D01*
X80185818Y-116147975D01*
X80232110Y-116166135D01*
X80232110Y-116166135D01*
G37*
X80232110Y-116166135D02*
X80235102Y-116170690D01*
X80261957Y-116258919D01*
X80279965Y-116406283D01*
X80288523Y-116587654D01*
X80287031Y-116777903D01*
X80274884Y-116951901D01*
X80256528Y-117064933D01*
X80206059Y-117233487D01*
X80135889Y-117409410D01*
X80055625Y-117574395D01*
X79974872Y-117710135D01*
X79903239Y-117798323D01*
X79859088Y-117822334D01*
X79821529Y-117788766D01*
X79805218Y-117755992D01*
X79796138Y-117685964D01*
X79793338Y-117554599D01*
X79797034Y-117385011D01*
X79800954Y-117300909D01*
X79824345Y-117044073D01*
X79869481Y-116823759D01*
X79946377Y-116592639D01*
X79956326Y-116566784D01*
X80049098Y-116346635D01*
X80125205Y-116207587D01*
X80185818Y-116147975D01*
X80232110Y-116166135D01*
G36*
X82311662Y-118101236D02*
G01*
X82655825Y-118149820D01*
X82973136Y-118238679D01*
X83246820Y-118367610D01*
X83425084Y-118501356D01*
X83485925Y-118572256D01*
X83507783Y-118651151D01*
X83499382Y-118773170D01*
X83496977Y-118790793D01*
X83459267Y-118954712D01*
X83398074Y-119127765D01*
X83375660Y-119177000D01*
X83250622Y-119348110D01*
X83061667Y-119478337D01*
X82802833Y-119571275D01*
X82674472Y-119599560D01*
X82458766Y-119625990D01*
X82194899Y-119637252D01*
X81915751Y-119633763D01*
X81654207Y-119615938D01*
X81443147Y-119584196D01*
X81442000Y-119583943D01*
X81174236Y-119503845D01*
X80976490Y-119392888D01*
X80836702Y-119240989D01*
X80742811Y-119038064D01*
X80727374Y-118986500D01*
X80684273Y-118766364D01*
X80687386Y-118718454D01*
X81484981Y-118718454D01*
X81490993Y-118932048D01*
X81511583Y-119066636D01*
X81548826Y-119126956D01*
X81604798Y-119117739D01*
X81645200Y-119083867D01*
X81672761Y-119012666D01*
X81690406Y-118873628D01*
X81696000Y-118701538D01*
X81695320Y-118667543D01*
X82543295Y-118667543D01*
X82547230Y-118822625D01*
X82561369Y-118959122D01*
X82585840Y-119051363D01*
X82587866Y-119055356D01*
X82643125Y-119125395D01*
X82688282Y-119113788D01*
X82721789Y-119023121D01*
X82742096Y-118855981D01*
X82745346Y-118792293D01*
X82741851Y-118587390D01*
X82715612Y-118437769D01*
X82669682Y-118352248D01*
X82607112Y-118339646D01*
X82591422Y-118347531D01*
X82565520Y-118404323D01*
X82549435Y-118519551D01*
X82543295Y-118667543D01*
X81695320Y-118667543D01*
X81692493Y-118526387D01*
X81679851Y-118418918D01*
X81654895Y-118362356D01*
X81628227Y-118344003D01*
X81560614Y-118343116D01*
X81515920Y-118406259D01*
X81491585Y-118540128D01*
X81484981Y-118718454D01*
X80687386Y-118718454D01*
X80694935Y-118602298D01*
X80760293Y-118484209D01*
X80775250Y-118469490D01*
X81002024Y-118313677D01*
X81285829Y-118199146D01*
X81609887Y-118125697D01*
X81957424Y-118093127D01*
X82311662Y-118101236D01*
X82311662Y-118101236D01*
G37*
X82311662Y-118101236D02*
X82655825Y-118149820D01*
X82973136Y-118238679D01*
X83246820Y-118367610D01*
X83425084Y-118501356D01*
X83485925Y-118572256D01*
X83507783Y-118651151D01*
X83499382Y-118773170D01*
X83496977Y-118790793D01*
X83459267Y-118954712D01*
X83398074Y-119127765D01*
X83375660Y-119177000D01*
X83250622Y-119348110D01*
X83061667Y-119478337D01*
X82802833Y-119571275D01*
X82674472Y-119599560D01*
X82458766Y-119625990D01*
X82194899Y-119637252D01*
X81915751Y-119633763D01*
X81654207Y-119615938D01*
X81443147Y-119584196D01*
X81442000Y-119583943D01*
X81174236Y-119503845D01*
X80976490Y-119392888D01*
X80836702Y-119240989D01*
X80742811Y-119038064D01*
X80727374Y-118986500D01*
X80684273Y-118766364D01*
X80687386Y-118718454D01*
X81484981Y-118718454D01*
X81490993Y-118932048D01*
X81511583Y-119066636D01*
X81548826Y-119126956D01*
X81604798Y-119117739D01*
X81645200Y-119083867D01*
X81672761Y-119012666D01*
X81690406Y-118873628D01*
X81696000Y-118701538D01*
X81695320Y-118667543D01*
X82543295Y-118667543D01*
X82547230Y-118822625D01*
X82561369Y-118959122D01*
X82585840Y-119051363D01*
X82587866Y-119055356D01*
X82643125Y-119125395D01*
X82688282Y-119113788D01*
X82721789Y-119023121D01*
X82742096Y-118855981D01*
X82745346Y-118792293D01*
X82741851Y-118587390D01*
X82715612Y-118437769D01*
X82669682Y-118352248D01*
X82607112Y-118339646D01*
X82591422Y-118347531D01*
X82565520Y-118404323D01*
X82549435Y-118519551D01*
X82543295Y-118667543D01*
X81695320Y-118667543D01*
X81692493Y-118526387D01*
X81679851Y-118418918D01*
X81654895Y-118362356D01*
X81628227Y-118344003D01*
X81560614Y-118343116D01*
X81515920Y-118406259D01*
X81491585Y-118540128D01*
X81484981Y-118718454D01*
X80687386Y-118718454D01*
X80694935Y-118602298D01*
X80760293Y-118484209D01*
X80775250Y-118469490D01*
X81002024Y-118313677D01*
X81285829Y-118199146D01*
X81609887Y-118125697D01*
X81957424Y-118093127D01*
X82311662Y-118101236D01*
G36*
X99393030Y-125675821D02*
G01*
X99565030Y-125679900D01*
X99692245Y-125690585D01*
X99794617Y-125711053D01*
X99892087Y-125744482D01*
X100004595Y-125794051D01*
X100057704Y-125818842D01*
X100351239Y-125992042D01*
X100591866Y-126206967D01*
X100771448Y-126452728D01*
X100881849Y-126718438D01*
X100915333Y-126966334D01*
X100874426Y-127241144D01*
X100757275Y-127502733D01*
X100572241Y-127741208D01*
X100327681Y-127946674D01*
X100031954Y-128109239D01*
X99909200Y-128157251D01*
X99721040Y-128205085D01*
X99481729Y-128240189D01*
X99221510Y-128260568D01*
X98970629Y-128264225D01*
X98759329Y-128249167D01*
X98692833Y-128237493D01*
X98326055Y-128125330D01*
X98014534Y-127967010D01*
X97762980Y-127768607D01*
X97576102Y-127536196D01*
X97458609Y-127275851D01*
X97415210Y-126993648D01*
X97433109Y-126842994D01*
X98523500Y-126842994D01*
X98528217Y-127030300D01*
X98543931Y-127147612D01*
X98572990Y-127209159D01*
X98585580Y-127219456D01*
X98659516Y-127241202D01*
X98711044Y-127196852D01*
X98742336Y-127081221D01*
X98755562Y-126889123D01*
X98756333Y-126811655D01*
X98753140Y-126628997D01*
X98752396Y-126621559D01*
X99524946Y-126621559D01*
X99525373Y-126765856D01*
X99534564Y-126927770D01*
X99550515Y-127078645D01*
X99571218Y-127189824D01*
X99584349Y-127224403D01*
X99642091Y-127262414D01*
X99709404Y-127232639D01*
X99768324Y-127147356D01*
X99790003Y-127083855D01*
X99807550Y-126920445D01*
X99795411Y-126719512D01*
X99790003Y-126682137D01*
X99762655Y-126540502D01*
X99730916Y-126463095D01*
X99684406Y-126429689D01*
X99657413Y-126423835D01*
X99580738Y-126435155D01*
X99538842Y-126510193D01*
X99535290Y-126523535D01*
X99524946Y-126621559D01*
X98752396Y-126621559D01*
X98741705Y-126514824D01*
X98719244Y-126453130D01*
X98689988Y-126430217D01*
X98614826Y-126424943D01*
X98563892Y-126481369D01*
X98534426Y-126606334D01*
X98523670Y-126806679D01*
X98523500Y-126842994D01*
X97433109Y-126842994D01*
X97450615Y-126695660D01*
X97462774Y-126650797D01*
X97584813Y-126381744D01*
X97785193Y-126141537D01*
X98061932Y-125932255D01*
X98242305Y-125832893D01*
X98561442Y-125675167D01*
X99156304Y-125675167D01*
X99393030Y-125675821D01*
X99393030Y-125675821D01*
G37*
X99393030Y-125675821D02*
X99565030Y-125679900D01*
X99692245Y-125690585D01*
X99794617Y-125711053D01*
X99892087Y-125744482D01*
X100004595Y-125794051D01*
X100057704Y-125818842D01*
X100351239Y-125992042D01*
X100591866Y-126206967D01*
X100771448Y-126452728D01*
X100881849Y-126718438D01*
X100915333Y-126966334D01*
X100874426Y-127241144D01*
X100757275Y-127502733D01*
X100572241Y-127741208D01*
X100327681Y-127946674D01*
X100031954Y-128109239D01*
X99909200Y-128157251D01*
X99721040Y-128205085D01*
X99481729Y-128240189D01*
X99221510Y-128260568D01*
X98970629Y-128264225D01*
X98759329Y-128249167D01*
X98692833Y-128237493D01*
X98326055Y-128125330D01*
X98014534Y-127967010D01*
X97762980Y-127768607D01*
X97576102Y-127536196D01*
X97458609Y-127275851D01*
X97415210Y-126993648D01*
X97433109Y-126842994D01*
X98523500Y-126842994D01*
X98528217Y-127030300D01*
X98543931Y-127147612D01*
X98572990Y-127209159D01*
X98585580Y-127219456D01*
X98659516Y-127241202D01*
X98711044Y-127196852D01*
X98742336Y-127081221D01*
X98755562Y-126889123D01*
X98756333Y-126811655D01*
X98753140Y-126628997D01*
X98752396Y-126621559D01*
X99524946Y-126621559D01*
X99525373Y-126765856D01*
X99534564Y-126927770D01*
X99550515Y-127078645D01*
X99571218Y-127189824D01*
X99584349Y-127224403D01*
X99642091Y-127262414D01*
X99709404Y-127232639D01*
X99768324Y-127147356D01*
X99790003Y-127083855D01*
X99807550Y-126920445D01*
X99795411Y-126719512D01*
X99790003Y-126682137D01*
X99762655Y-126540502D01*
X99730916Y-126463095D01*
X99684406Y-126429689D01*
X99657413Y-126423835D01*
X99580738Y-126435155D01*
X99538842Y-126510193D01*
X99535290Y-126523535D01*
X99524946Y-126621559D01*
X98752396Y-126621559D01*
X98741705Y-126514824D01*
X98719244Y-126453130D01*
X98689988Y-126430217D01*
X98614826Y-126424943D01*
X98563892Y-126481369D01*
X98534426Y-126606334D01*
X98523670Y-126806679D01*
X98523500Y-126842994D01*
X97433109Y-126842994D01*
X97450615Y-126695660D01*
X97462774Y-126650797D01*
X97584813Y-126381744D01*
X97785193Y-126141537D01*
X98061932Y-125932255D01*
X98242305Y-125832893D01*
X98561442Y-125675167D01*
X99156304Y-125675167D01*
X99393030Y-125675821D01*
G36*
X102270000Y-68758000D02*
G01*
X104767667Y-68758000D01*
X104767667Y-71255667D01*
X107223000Y-71255667D01*
X107223000Y-68758000D01*
X117213667Y-68758000D01*
X117256000Y-68758000D01*
X117256000Y-73753334D01*
X119711333Y-73753334D01*
X119711333Y-68758000D01*
X117256000Y-68758000D01*
X117213667Y-68758000D01*
X117213667Y-66260334D01*
X122251333Y-66260334D01*
X122251333Y-73795667D01*
X119753667Y-73795667D01*
X119753667Y-76251000D01*
X124749000Y-76251000D01*
X124749000Y-78748667D01*
X127246667Y-78748667D01*
X127246667Y-81288667D01*
X124749000Y-81288667D01*
X124749000Y-83786334D01*
X122251333Y-83786334D01*
X122251333Y-88739334D01*
X124749000Y-88739334D01*
X124749000Y-93734667D01*
X127246667Y-93734667D01*
X127246667Y-96274667D01*
X122251333Y-96274667D01*
X122251333Y-98772334D01*
X119753667Y-98772334D01*
X119753667Y-103725334D01*
X122209000Y-103725334D01*
X122209000Y-101227667D01*
X127246667Y-101227667D01*
X127246667Y-103725334D01*
X129744333Y-103725334D01*
X129744333Y-111260667D01*
X127246667Y-111260667D01*
X127246667Y-116213667D01*
X129744333Y-116213667D01*
X129744333Y-128744334D01*
X127246667Y-128744334D01*
X127246667Y-131242000D01*
X119711333Y-131242000D01*
X119711333Y-128744334D01*
X117213667Y-128744334D01*
X117213667Y-126246667D01*
X109763000Y-126246667D01*
X109763000Y-128744334D01*
X102270000Y-128744334D01*
X102270000Y-131242000D01*
X97274667Y-131242000D01*
X97274667Y-133739667D01*
X92237000Y-133739667D01*
X92237000Y-131242000D01*
X89739333Y-131242000D01*
X89739333Y-123749000D01*
X84744000Y-123749000D01*
X84744000Y-121251334D01*
X79748667Y-121251334D01*
X79748667Y-118753667D01*
X77251000Y-118753667D01*
X77251000Y-117272000D01*
X79635819Y-117272000D01*
X79636289Y-117656881D01*
X79703582Y-117992126D01*
X79840058Y-118282986D01*
X80048072Y-118534713D01*
X80288417Y-118725532D01*
X80466796Y-118854561D01*
X80568342Y-118952723D01*
X80595333Y-119012968D01*
X80621465Y-119128286D01*
X80688313Y-119272771D01*
X80778558Y-119413947D01*
X80857002Y-119503653D01*
X81021697Y-119611049D01*
X81253580Y-119696536D01*
X81537467Y-119757777D01*
X81858173Y-119792437D01*
X82200514Y-119798178D01*
X82549305Y-119772665D01*
X82580263Y-119768786D01*
X82906410Y-119705153D01*
X83161138Y-119605307D01*
X83351847Y-119463954D01*
X83485937Y-119275799D01*
X83563503Y-119065280D01*
X83608112Y-118942837D01*
X83681191Y-118865507D01*
X83781213Y-118812261D01*
X83957483Y-118704783D01*
X84143574Y-118546020D01*
X84313470Y-118361396D01*
X84441153Y-118176333D01*
X84451241Y-118157546D01*
X84508330Y-117995273D01*
X84548755Y-117774844D01*
X84570894Y-117521420D01*
X84573127Y-117260163D01*
X84553832Y-117016236D01*
X84532606Y-116894716D01*
X84398557Y-116471488D01*
X84288078Y-116256000D01*
X84786333Y-116256000D01*
X84786333Y-121209000D01*
X90628333Y-121209000D01*
X90628333Y-124934334D01*
X93422333Y-124934334D01*
X93422333Y-130141334D01*
X96174000Y-130141334D01*
X96174000Y-129411946D01*
X96463183Y-129411946D01*
X96486984Y-129492531D01*
X96495208Y-129516338D01*
X96619460Y-129769805D01*
X96804246Y-130011501D01*
X97027067Y-130213103D01*
X97075690Y-130247100D01*
X97277854Y-130353385D01*
X97543024Y-130451278D01*
X97849574Y-130534914D01*
X98175881Y-130598429D01*
X98500322Y-130635960D01*
X98512917Y-130636835D01*
X98692426Y-130651052D01*
X98803173Y-130667034D01*
X98861018Y-130689210D01*
X98881824Y-130722009D01*
X98883333Y-130740266D01*
X98893758Y-130782917D01*
X98937268Y-130806702D01*
X99032215Y-130816852D01*
X99158500Y-130818667D01*
X99308192Y-130815696D01*
X99391674Y-130803300D01*
X99427295Y-130776248D01*
X99433667Y-130740266D01*
X99443525Y-130701606D01*
X99483677Y-130675453D01*
X99569982Y-130657378D01*
X99718303Y-130642951D01*
X99804083Y-130636835D01*
X100101319Y-130603703D01*
X100409105Y-130546670D01*
X100705209Y-130471598D01*
X100967398Y-130384346D01*
X101173440Y-130290775D01*
X101218405Y-130264010D01*
X101472982Y-130057050D01*
X101679571Y-129801025D01*
X101807073Y-129551707D01*
X101888130Y-129338382D01*
X101793315Y-129276614D01*
X101708823Y-129228594D01*
X101574769Y-129159764D01*
X101418723Y-129084236D01*
X101403506Y-129077108D01*
X101091314Y-128968849D01*
X100784047Y-128933324D01*
X100493451Y-128969136D01*
X100231274Y-129074886D01*
X100016066Y-129242101D01*
X99894862Y-129385042D01*
X99770706Y-129561041D01*
X99659098Y-129744913D01*
X99575535Y-129911470D01*
X99538740Y-130017795D01*
X99506812Y-130133058D01*
X99480311Y-130165002D01*
X99459494Y-130114818D01*
X99444624Y-129983695D01*
X99435959Y-129772823D01*
X99433667Y-129537208D01*
X99433667Y-128885752D01*
X99782917Y-128811715D01*
X100210460Y-128686817D01*
X100591218Y-128505829D01*
X100917441Y-128274169D01*
X101181381Y-127997255D01*
X101362544Y-127707167D01*
X101422708Y-127574955D01*
X101459722Y-127459756D01*
X101479044Y-127332756D01*
X101486128Y-127165141D01*
X101486787Y-127051000D01*
X101484053Y-126851878D01*
X101472269Y-126709082D01*
X101445979Y-126594350D01*
X101399729Y-126479419D01*
X101361326Y-126400973D01*
X101152033Y-126080462D01*
X100872006Y-125804499D01*
X100523581Y-125574863D01*
X100109095Y-125393332D01*
X99984000Y-125352130D01*
X99736100Y-125296956D01*
X99436487Y-125262657D01*
X99115716Y-125250091D01*
X98804340Y-125260117D01*
X98532915Y-125293595D01*
X98460000Y-125309276D01*
X98066378Y-125439282D01*
X97705638Y-125624304D01*
X97390404Y-125855208D01*
X97133299Y-126122860D01*
X96957633Y-126396333D01*
X96896603Y-126526853D01*
X96858939Y-126639875D01*
X96839104Y-126763945D01*
X96831559Y-126927614D01*
X96830633Y-127051000D01*
X96833772Y-127256535D01*
X96847014Y-127405938D01*
X96875251Y-127527581D01*
X96923375Y-127649839D01*
X96940113Y-127686000D01*
X97130126Y-127992779D01*
X97389316Y-128265788D01*
X97706356Y-128497478D01*
X98069919Y-128680299D01*
X98468677Y-128806702D01*
X98682250Y-128847057D01*
X98883333Y-128876521D01*
X98883333Y-129532592D01*
X98880056Y-129810431D01*
X98870390Y-130009283D01*
X98854581Y-130128010D01*
X98832876Y-130165471D01*
X98805522Y-130120525D01*
X98778260Y-130017795D01*
X98729413Y-129884389D01*
X98639763Y-129712936D01*
X98524807Y-129528623D01*
X98400045Y-129356637D01*
X98300934Y-129242101D01*
X98077356Y-129070130D01*
X97814013Y-128966748D01*
X97522653Y-128933353D01*
X97215023Y-128971343D01*
X96913494Y-129077108D01*
X96712382Y-129171896D01*
X96577337Y-129241704D01*
X96497817Y-129297602D01*
X96463280Y-129350659D01*
X96463183Y-129411946D01*
X96174000Y-129411946D01*
X96174000Y-124934334D01*
X102227667Y-124934334D01*
X102227667Y-128617334D01*
X109634721Y-128617334D01*
X109657167Y-126140834D01*
X117319500Y-126140834D01*
X117330723Y-127379084D01*
X117341945Y-128617334D01*
X118523177Y-128617334D01*
X118833732Y-128618226D01*
X119118537Y-128620747D01*
X119366039Y-128624657D01*
X119564682Y-128629718D01*
X119702911Y-128635694D01*
X119769170Y-128642345D01*
X119771371Y-128643029D01*
X119790943Y-128658722D01*
X119806348Y-128695063D01*
X119818069Y-128761067D01*
X119826589Y-128865747D01*
X119832392Y-129018115D01*
X119835961Y-129227184D01*
X119837779Y-129501967D01*
X119838329Y-129851477D01*
X119838333Y-129891863D01*
X119838333Y-131115000D01*
X121150667Y-131115000D01*
X121150667Y-129509796D01*
X121151326Y-129147214D01*
X121153203Y-128809780D01*
X121156150Y-128507217D01*
X121160017Y-128249249D01*
X121164654Y-128045597D01*
X121169912Y-127905985D01*
X121175641Y-127840136D01*
X121176362Y-127837629D01*
X121191836Y-127818357D01*
X121227708Y-127803119D01*
X121292837Y-127791456D01*
X121396084Y-127782910D01*
X121546307Y-127777019D01*
X121752368Y-127773326D01*
X122023125Y-127771369D01*
X122367439Y-127770691D01*
X122467529Y-127770667D01*
X123733000Y-127770667D01*
X123733000Y-125146000D01*
X126146000Y-125146000D01*
X126146000Y-113335000D01*
X121272053Y-113335000D01*
X121296452Y-112308417D01*
X121305027Y-111955429D01*
X121314719Y-111569399D01*
X121324800Y-111178491D01*
X121334542Y-110810867D01*
X121343217Y-110494691D01*
X121344599Y-110445750D01*
X121368347Y-109609667D01*
X118653000Y-109609667D01*
X118653000Y-107240319D01*
X117457083Y-107229076D01*
X116261167Y-107217834D01*
X116238721Y-104741334D01*
X113403667Y-104741334D01*
X113403667Y-105630334D01*
X104767667Y-105630334D01*
X104767667Y-103767667D01*
X122251333Y-103767667D01*
X122251333Y-106223000D01*
X124749000Y-106223000D01*
X124749000Y-111218334D01*
X127204333Y-111218334D01*
X127204333Y-103767667D01*
X122251333Y-103767667D01*
X104767667Y-103767667D01*
X104767667Y-101312334D01*
X101603250Y-101312387D01*
X101032083Y-101312814D01*
X100439634Y-101314027D01*
X99838538Y-101315956D01*
X99241428Y-101318529D01*
X98660941Y-101321676D01*
X98109710Y-101325323D01*
X97600371Y-101329402D01*
X97145558Y-101333839D01*
X96757906Y-101338564D01*
X96629083Y-101340447D01*
X94819333Y-101368453D01*
X94819333Y-107239000D01*
X93210667Y-107239000D01*
X93210667Y-110244667D01*
X94819333Y-110244667D01*
X94819333Y-116256000D01*
X89739333Y-116256000D01*
X89739333Y-113758334D01*
X87284000Y-113758334D01*
X87284000Y-116256000D01*
X84786333Y-116256000D01*
X84288078Y-116256000D01*
X84194315Y-116073117D01*
X83929780Y-115712598D01*
X83614849Y-115402925D01*
X83259422Y-115157090D01*
X83174281Y-115111600D01*
X82807061Y-114966609D01*
X82411819Y-114882997D01*
X82009633Y-114862189D01*
X81621581Y-114905611D01*
X81336167Y-114987291D01*
X80917766Y-115190026D01*
X80547382Y-115458165D01*
X80231065Y-115783576D01*
X79974867Y-116158130D01*
X79784839Y-116573694D01*
X79667033Y-117022138D01*
X79635819Y-117272000D01*
X77251000Y-117272000D01*
X77251000Y-116256000D01*
X74753333Y-116256000D01*
X74753333Y-111260667D01*
X72255667Y-111260667D01*
X72255667Y-108764260D01*
X77251000Y-108764260D01*
X77251000Y-116213667D01*
X79748667Y-116213667D01*
X79748667Y-113716000D01*
X82246333Y-113716000D01*
X82246333Y-113097444D01*
X89750944Y-113097444D01*
X89798724Y-113506759D01*
X89919286Y-113893282D01*
X90111714Y-114248521D01*
X90346647Y-114535552D01*
X90612783Y-114761611D01*
X90899025Y-114913428D01*
X91214257Y-114993422D01*
X91567365Y-115004012D01*
X91905565Y-114959940D01*
X92018630Y-114938412D01*
X91994819Y-115421877D01*
X91985515Y-115632171D01*
X91983541Y-115775309D01*
X91990916Y-115868634D01*
X92009659Y-115929491D01*
X92041790Y-115975223D01*
X92061671Y-115996005D01*
X92193446Y-116072657D01*
X92352761Y-116073573D01*
X92522750Y-116002464D01*
X92611259Y-115943569D01*
X92658104Y-115902785D01*
X92660333Y-115897680D01*
X92648055Y-115850247D01*
X92615563Y-115743700D01*
X92569369Y-115599265D01*
X92559477Y-115568975D01*
X92505951Y-115393771D01*
X92461396Y-115226688D01*
X92435206Y-115103035D01*
X92434773Y-115100167D01*
X92410926Y-114939168D01*
X92609713Y-114973167D01*
X92973643Y-115004564D01*
X93316456Y-114974138D01*
X93618313Y-114883727D01*
X93629550Y-114878757D01*
X93890201Y-114721252D01*
X94135748Y-114497432D01*
X94351947Y-114225644D01*
X94524555Y-113924236D01*
X94639328Y-113611556D01*
X94651115Y-113562857D01*
X94671812Y-113426459D01*
X94687499Y-113239219D01*
X94695607Y-113034926D01*
X94696182Y-112969994D01*
X94656965Y-112526848D01*
X94538646Y-112110553D01*
X94340220Y-111718800D01*
X94060683Y-111349279D01*
X93932745Y-111213972D01*
X93744964Y-111041188D01*
X93533376Y-110877911D01*
X93283100Y-110714238D01*
X92979255Y-110540266D01*
X92698261Y-110392462D01*
X92237394Y-110156723D01*
X91697447Y-110431473D01*
X91496052Y-110535394D01*
X91316169Y-110630886D01*
X91174178Y-110709059D01*
X91086458Y-110761025D01*
X91072833Y-110770432D01*
X91021633Y-110813984D01*
X91034245Y-110831781D01*
X91120817Y-110835916D01*
X91127852Y-110835987D01*
X91337126Y-110876968D01*
X91515140Y-110986490D01*
X91643505Y-111150753D01*
X91684761Y-111254021D01*
X91698742Y-111442755D01*
X91640167Y-111623427D01*
X91521113Y-111785588D01*
X91353656Y-111918789D01*
X91149874Y-112012580D01*
X90921842Y-112056512D01*
X90761522Y-112052851D01*
X90546304Y-111992758D01*
X90366190Y-111861197D01*
X90260134Y-111730055D01*
X90167102Y-111593395D01*
X90053457Y-111817663D01*
X89877395Y-112244405D01*
X89776863Y-112673829D01*
X89750944Y-113097444D01*
X82246333Y-113097444D01*
X82246333Y-111218334D01*
X84744000Y-111218334D01*
X84744000Y-108763000D01*
X82246333Y-108763000D01*
X82246333Y-106265334D01*
X79792279Y-106265334D01*
X79769833Y-108741834D01*
X78510417Y-108753047D01*
X77251000Y-108764260D01*
X72255667Y-108764260D01*
X72255667Y-104605856D01*
X73790106Y-104605856D01*
X73812386Y-104654971D01*
X73892758Y-104757562D01*
X74027396Y-104909360D01*
X74212474Y-105106092D01*
X74444166Y-105343489D01*
X74512365Y-105412143D01*
X74720243Y-105623528D01*
X74909242Y-105821062D01*
X75070586Y-105995141D01*
X75195496Y-106136159D01*
X75275194Y-106234509D01*
X75299815Y-106273930D01*
X75307311Y-106354910D01*
X75300020Y-106507283D01*
X75279476Y-106719365D01*
X75247215Y-106979468D01*
X75204770Y-107275909D01*
X75153675Y-107597002D01*
X75095464Y-107931061D01*
X75051465Y-108165528D01*
X75021076Y-108334372D01*
X75011307Y-108436870D01*
X75023836Y-108489197D01*
X75060339Y-108507528D01*
X75087070Y-108509000D01*
X75145918Y-108490289D01*
X75268367Y-108437746D01*
X75442982Y-108356760D01*
X75658329Y-108252717D01*
X75902971Y-108131005D01*
X76075475Y-108043334D01*
X76382528Y-107888764D01*
X76646400Y-107761584D01*
X76859627Y-107665153D01*
X77014745Y-107602830D01*
X77104290Y-107577973D01*
X77110364Y-107577667D01*
X77192351Y-107598052D01*
X77341006Y-107657102D01*
X77549384Y-107751657D01*
X77810536Y-107878558D01*
X78117516Y-108034645D01*
X78134279Y-108043334D01*
X78464584Y-108212545D01*
X78726603Y-108341730D01*
X78925468Y-108433031D01*
X79066310Y-108488591D01*
X79154262Y-108510554D01*
X79194455Y-108501062D01*
X79198333Y-108487689D01*
X79191614Y-108441376D01*
X79172853Y-108324330D01*
X79144144Y-108149292D01*
X79107580Y-107929006D01*
X79065257Y-107676217D01*
X79053994Y-107609272D01*
X79007811Y-107331736D01*
X78964592Y-107065918D01*
X78927108Y-106829334D01*
X78898130Y-106639498D01*
X78880430Y-106513926D01*
X78879434Y-106505955D01*
X78849212Y-106259743D01*
X79643413Y-105461534D01*
X79890404Y-105210299D01*
X80094944Y-104996026D01*
X80252790Y-104823424D01*
X80359700Y-104697201D01*
X80411431Y-104622063D01*
X80415280Y-104605126D01*
X80372570Y-104579140D01*
X80259625Y-104545800D01*
X80073277Y-104504426D01*
X79810360Y-104454339D01*
X79467706Y-104394857D01*
X79325160Y-104371168D01*
X78964786Y-104310373D01*
X78681141Y-104258993D01*
X78467006Y-104215450D01*
X78315161Y-104178162D01*
X78218384Y-104145553D01*
X78172649Y-104119122D01*
X78130452Y-104060825D01*
X78057338Y-103937974D01*
X77959600Y-103762068D01*
X77843530Y-103544606D01*
X77715419Y-103297087D01*
X77625544Y-103119285D01*
X77472831Y-102817101D01*
X77351737Y-102584578D01*
X77258102Y-102414641D01*
X77187769Y-102300216D01*
X77136577Y-102234227D01*
X77100368Y-102209599D01*
X77090665Y-102209403D01*
X77045700Y-102252753D01*
X76967742Y-102370259D01*
X76858555Y-102558870D01*
X76719903Y-102815539D01*
X76553548Y-103137216D01*
X76549659Y-103144864D01*
X76416465Y-103404461D01*
X76292693Y-103641063D01*
X76184414Y-103843429D01*
X76097703Y-104000316D01*
X76038632Y-104100481D01*
X76017180Y-104130629D01*
X75950256Y-104160678D01*
X75801123Y-104200175D01*
X75571665Y-104248721D01*
X75263766Y-104305917D01*
X74882964Y-104370764D01*
X74514146Y-104433168D01*
X74225454Y-104485910D01*
X74012999Y-104529826D01*
X73872894Y-104565751D01*
X73801251Y-104594523D01*
X73790106Y-104605856D01*
X72255667Y-104605856D01*
X72255667Y-103725334D01*
X74753333Y-103725334D01*
X74753333Y-101227209D01*
X78510417Y-101238021D01*
X82267500Y-101248834D01*
X82278722Y-102486445D01*
X82289943Y-103724057D01*
X83527555Y-103735278D01*
X84765167Y-103746500D01*
X84776388Y-104984112D01*
X84787610Y-106221723D01*
X86025222Y-106232945D01*
X87262833Y-106244167D01*
X87285279Y-108720667D01*
X89739333Y-108720667D01*
X89739333Y-106223000D01*
X92237000Y-106223000D01*
X92237000Y-103725334D01*
X94734667Y-103725334D01*
X94734667Y-101227667D01*
X97232333Y-101227667D01*
X97232333Y-98772334D01*
X94734667Y-98772334D01*
X94734667Y-96274667D01*
X92237000Y-96274667D01*
X92237000Y-93777000D01*
X89739333Y-93777000D01*
X89739333Y-88781667D01*
X92279333Y-88781667D01*
X92279333Y-93734667D01*
X94777000Y-93734667D01*
X94777000Y-96232334D01*
X99772333Y-96232334D01*
X99772333Y-98730000D01*
X104767667Y-98730000D01*
X104767667Y-101227667D01*
X117213667Y-101227667D01*
X117213667Y-98772334D01*
X109720667Y-98772334D01*
X109720667Y-96274667D01*
X104725333Y-96274667D01*
X104725333Y-93734667D01*
X107223000Y-93734667D01*
X107223000Y-91237000D01*
X109763000Y-91237000D01*
X109763000Y-93734667D01*
X114758333Y-93734667D01*
X114758333Y-96232334D01*
X119711333Y-96232334D01*
X119711333Y-93734667D01*
X122209000Y-93734667D01*
X122209000Y-88781667D01*
X119711333Y-88781667D01*
X119711333Y-81288667D01*
X104767667Y-81288667D01*
X104767667Y-83786334D01*
X102270000Y-83786334D01*
X102270000Y-88739334D01*
X104767667Y-88739334D01*
X104767667Y-91279334D01*
X102270000Y-91279334D01*
X102270000Y-93777000D01*
X99730000Y-93777000D01*
X99730000Y-91279334D01*
X97232333Y-91279334D01*
X97232333Y-86284000D01*
X94777000Y-86284000D01*
X94777000Y-88781667D01*
X92279333Y-88781667D01*
X89739333Y-88781667D01*
X89739333Y-88739334D01*
X92237000Y-88739334D01*
X92237000Y-83744000D01*
X94734667Y-83744000D01*
X94734667Y-68758000D01*
X97274667Y-68758000D01*
X97274667Y-78748667D01*
X102227667Y-78748667D01*
X102227667Y-76251000D01*
X104725333Y-76251000D01*
X104725333Y-71255667D01*
X102227667Y-71255667D01*
X102227667Y-68758000D01*
X97274667Y-68758000D01*
X94734667Y-68758000D01*
X94734667Y-66260334D01*
X102270000Y-66260334D01*
X102270000Y-68758000D01*
X102270000Y-68758000D01*
G37*
X102270000Y-68758000D02*
X104767667Y-68758000D01*
X104767667Y-71255667D01*
X107223000Y-71255667D01*
X107223000Y-68758000D01*
X117213667Y-68758000D01*
X117256000Y-68758000D01*
X117256000Y-73753334D01*
X119711333Y-73753334D01*
X119711333Y-68758000D01*
X117256000Y-68758000D01*
X117213667Y-68758000D01*
X117213667Y-66260334D01*
X122251333Y-66260334D01*
X122251333Y-73795667D01*
X119753667Y-73795667D01*
X119753667Y-76251000D01*
X124749000Y-76251000D01*
X124749000Y-78748667D01*
X127246667Y-78748667D01*
X127246667Y-81288667D01*
X124749000Y-81288667D01*
X124749000Y-83786334D01*
X122251333Y-83786334D01*
X122251333Y-88739334D01*
X124749000Y-88739334D01*
X124749000Y-93734667D01*
X127246667Y-93734667D01*
X127246667Y-96274667D01*
X122251333Y-96274667D01*
X122251333Y-98772334D01*
X119753667Y-98772334D01*
X119753667Y-103725334D01*
X122209000Y-103725334D01*
X122209000Y-101227667D01*
X127246667Y-101227667D01*
X127246667Y-103725334D01*
X129744333Y-103725334D01*
X129744333Y-111260667D01*
X127246667Y-111260667D01*
X127246667Y-116213667D01*
X129744333Y-116213667D01*
X129744333Y-128744334D01*
X127246667Y-128744334D01*
X127246667Y-131242000D01*
X119711333Y-131242000D01*
X119711333Y-128744334D01*
X117213667Y-128744334D01*
X117213667Y-126246667D01*
X109763000Y-126246667D01*
X109763000Y-128744334D01*
X102270000Y-128744334D01*
X102270000Y-131242000D01*
X97274667Y-131242000D01*
X97274667Y-133739667D01*
X92237000Y-133739667D01*
X92237000Y-131242000D01*
X89739333Y-131242000D01*
X89739333Y-123749000D01*
X84744000Y-123749000D01*
X84744000Y-121251334D01*
X79748667Y-121251334D01*
X79748667Y-118753667D01*
X77251000Y-118753667D01*
X77251000Y-117272000D01*
X79635819Y-117272000D01*
X79636289Y-117656881D01*
X79703582Y-117992126D01*
X79840058Y-118282986D01*
X80048072Y-118534713D01*
X80288417Y-118725532D01*
X80466796Y-118854561D01*
X80568342Y-118952723D01*
X80595333Y-119012968D01*
X80621465Y-119128286D01*
X80688313Y-119272771D01*
X80778558Y-119413947D01*
X80857002Y-119503653D01*
X81021697Y-119611049D01*
X81253580Y-119696536D01*
X81537467Y-119757777D01*
X81858173Y-119792437D01*
X82200514Y-119798178D01*
X82549305Y-119772665D01*
X82580263Y-119768786D01*
X82906410Y-119705153D01*
X83161138Y-119605307D01*
X83351847Y-119463954D01*
X83485937Y-119275799D01*
X83563503Y-119065280D01*
X83608112Y-118942837D01*
X83681191Y-118865507D01*
X83781213Y-118812261D01*
X83957483Y-118704783D01*
X84143574Y-118546020D01*
X84313470Y-118361396D01*
X84441153Y-118176333D01*
X84451241Y-118157546D01*
X84508330Y-117995273D01*
X84548755Y-117774844D01*
X84570894Y-117521420D01*
X84573127Y-117260163D01*
X84553832Y-117016236D01*
X84532606Y-116894716D01*
X84398557Y-116471488D01*
X84288078Y-116256000D01*
X84786333Y-116256000D01*
X84786333Y-121209000D01*
X90628333Y-121209000D01*
X90628333Y-124934334D01*
X93422333Y-124934334D01*
X93422333Y-130141334D01*
X96174000Y-130141334D01*
X96174000Y-129411946D01*
X96463183Y-129411946D01*
X96486984Y-129492531D01*
X96495208Y-129516338D01*
X96619460Y-129769805D01*
X96804246Y-130011501D01*
X97027067Y-130213103D01*
X97075690Y-130247100D01*
X97277854Y-130353385D01*
X97543024Y-130451278D01*
X97849574Y-130534914D01*
X98175881Y-130598429D01*
X98500322Y-130635960D01*
X98512917Y-130636835D01*
X98692426Y-130651052D01*
X98803173Y-130667034D01*
X98861018Y-130689210D01*
X98881824Y-130722009D01*
X98883333Y-130740266D01*
X98893758Y-130782917D01*
X98937268Y-130806702D01*
X99032215Y-130816852D01*
X99158500Y-130818667D01*
X99308192Y-130815696D01*
X99391674Y-130803300D01*
X99427295Y-130776248D01*
X99433667Y-130740266D01*
X99443525Y-130701606D01*
X99483677Y-130675453D01*
X99569982Y-130657378D01*
X99718303Y-130642951D01*
X99804083Y-130636835D01*
X100101319Y-130603703D01*
X100409105Y-130546670D01*
X100705209Y-130471598D01*
X100967398Y-130384346D01*
X101173440Y-130290775D01*
X101218405Y-130264010D01*
X101472982Y-130057050D01*
X101679571Y-129801025D01*
X101807073Y-129551707D01*
X101888130Y-129338382D01*
X101793315Y-129276614D01*
X101708823Y-129228594D01*
X101574769Y-129159764D01*
X101418723Y-129084236D01*
X101403506Y-129077108D01*
X101091314Y-128968849D01*
X100784047Y-128933324D01*
X100493451Y-128969136D01*
X100231274Y-129074886D01*
X100016066Y-129242101D01*
X99894862Y-129385042D01*
X99770706Y-129561041D01*
X99659098Y-129744913D01*
X99575535Y-129911470D01*
X99538740Y-130017795D01*
X99506812Y-130133058D01*
X99480311Y-130165002D01*
X99459494Y-130114818D01*
X99444624Y-129983695D01*
X99435959Y-129772823D01*
X99433667Y-129537208D01*
X99433667Y-128885752D01*
X99782917Y-128811715D01*
X100210460Y-128686817D01*
X100591218Y-128505829D01*
X100917441Y-128274169D01*
X101181381Y-127997255D01*
X101362544Y-127707167D01*
X101422708Y-127574955D01*
X101459722Y-127459756D01*
X101479044Y-127332756D01*
X101486128Y-127165141D01*
X101486787Y-127051000D01*
X101484053Y-126851878D01*
X101472269Y-126709082D01*
X101445979Y-126594350D01*
X101399729Y-126479419D01*
X101361326Y-126400973D01*
X101152033Y-126080462D01*
X100872006Y-125804499D01*
X100523581Y-125574863D01*
X100109095Y-125393332D01*
X99984000Y-125352130D01*
X99736100Y-125296956D01*
X99436487Y-125262657D01*
X99115716Y-125250091D01*
X98804340Y-125260117D01*
X98532915Y-125293595D01*
X98460000Y-125309276D01*
X98066378Y-125439282D01*
X97705638Y-125624304D01*
X97390404Y-125855208D01*
X97133299Y-126122860D01*
X96957633Y-126396333D01*
X96896603Y-126526853D01*
X96858939Y-126639875D01*
X96839104Y-126763945D01*
X96831559Y-126927614D01*
X96830633Y-127051000D01*
X96833772Y-127256535D01*
X96847014Y-127405938D01*
X96875251Y-127527581D01*
X96923375Y-127649839D01*
X96940113Y-127686000D01*
X97130126Y-127992779D01*
X97389316Y-128265788D01*
X97706356Y-128497478D01*
X98069919Y-128680299D01*
X98468677Y-128806702D01*
X98682250Y-128847057D01*
X98883333Y-128876521D01*
X98883333Y-129532592D01*
X98880056Y-129810431D01*
X98870390Y-130009283D01*
X98854581Y-130128010D01*
X98832876Y-130165471D01*
X98805522Y-130120525D01*
X98778260Y-130017795D01*
X98729413Y-129884389D01*
X98639763Y-129712936D01*
X98524807Y-129528623D01*
X98400045Y-129356637D01*
X98300934Y-129242101D01*
X98077356Y-129070130D01*
X97814013Y-128966748D01*
X97522653Y-128933353D01*
X97215023Y-128971343D01*
X96913494Y-129077108D01*
X96712382Y-129171896D01*
X96577337Y-129241704D01*
X96497817Y-129297602D01*
X96463280Y-129350659D01*
X96463183Y-129411946D01*
X96174000Y-129411946D01*
X96174000Y-124934334D01*
X102227667Y-124934334D01*
X102227667Y-128617334D01*
X109634721Y-128617334D01*
X109657167Y-126140834D01*
X117319500Y-126140834D01*
X117330723Y-127379084D01*
X117341945Y-128617334D01*
X118523177Y-128617334D01*
X118833732Y-128618226D01*
X119118537Y-128620747D01*
X119366039Y-128624657D01*
X119564682Y-128629718D01*
X119702911Y-128635694D01*
X119769170Y-128642345D01*
X119771371Y-128643029D01*
X119790943Y-128658722D01*
X119806348Y-128695063D01*
X119818069Y-128761067D01*
X119826589Y-128865747D01*
X119832392Y-129018115D01*
X119835961Y-129227184D01*
X119837779Y-129501967D01*
X119838329Y-129851477D01*
X119838333Y-129891863D01*
X119838333Y-131115000D01*
X121150667Y-131115000D01*
X121150667Y-129509796D01*
X121151326Y-129147214D01*
X121153203Y-128809780D01*
X121156150Y-128507217D01*
X121160017Y-128249249D01*
X121164654Y-128045597D01*
X121169912Y-127905985D01*
X121175641Y-127840136D01*
X121176362Y-127837629D01*
X121191836Y-127818357D01*
X121227708Y-127803119D01*
X121292837Y-127791456D01*
X121396084Y-127782910D01*
X121546307Y-127777019D01*
X121752368Y-127773326D01*
X122023125Y-127771369D01*
X122367439Y-127770691D01*
X122467529Y-127770667D01*
X123733000Y-127770667D01*
X123733000Y-125146000D01*
X126146000Y-125146000D01*
X126146000Y-113335000D01*
X121272053Y-113335000D01*
X121296452Y-112308417D01*
X121305027Y-111955429D01*
X121314719Y-111569399D01*
X121324800Y-111178491D01*
X121334542Y-110810867D01*
X121343217Y-110494691D01*
X121344599Y-110445750D01*
X121368347Y-109609667D01*
X118653000Y-109609667D01*
X118653000Y-107240319D01*
X117457083Y-107229076D01*
X116261167Y-107217834D01*
X116238721Y-104741334D01*
X113403667Y-104741334D01*
X113403667Y-105630334D01*
X104767667Y-105630334D01*
X104767667Y-103767667D01*
X122251333Y-103767667D01*
X122251333Y-106223000D01*
X124749000Y-106223000D01*
X124749000Y-111218334D01*
X127204333Y-111218334D01*
X127204333Y-103767667D01*
X122251333Y-103767667D01*
X104767667Y-103767667D01*
X104767667Y-101312334D01*
X101603250Y-101312387D01*
X101032083Y-101312814D01*
X100439634Y-101314027D01*
X99838538Y-101315956D01*
X99241428Y-101318529D01*
X98660941Y-101321676D01*
X98109710Y-101325323D01*
X97600371Y-101329402D01*
X97145558Y-101333839D01*
X96757906Y-101338564D01*
X96629083Y-101340447D01*
X94819333Y-101368453D01*
X94819333Y-107239000D01*
X93210667Y-107239000D01*
X93210667Y-110244667D01*
X94819333Y-110244667D01*
X94819333Y-116256000D01*
X89739333Y-116256000D01*
X89739333Y-113758334D01*
X87284000Y-113758334D01*
X87284000Y-116256000D01*
X84786333Y-116256000D01*
X84288078Y-116256000D01*
X84194315Y-116073117D01*
X83929780Y-115712598D01*
X83614849Y-115402925D01*
X83259422Y-115157090D01*
X83174281Y-115111600D01*
X82807061Y-114966609D01*
X82411819Y-114882997D01*
X82009633Y-114862189D01*
X81621581Y-114905611D01*
X81336167Y-114987291D01*
X80917766Y-115190026D01*
X80547382Y-115458165D01*
X80231065Y-115783576D01*
X79974867Y-116158130D01*
X79784839Y-116573694D01*
X79667033Y-117022138D01*
X79635819Y-117272000D01*
X77251000Y-117272000D01*
X77251000Y-116256000D01*
X74753333Y-116256000D01*
X74753333Y-111260667D01*
X72255667Y-111260667D01*
X72255667Y-108764260D01*
X77251000Y-108764260D01*
X77251000Y-116213667D01*
X79748667Y-116213667D01*
X79748667Y-113716000D01*
X82246333Y-113716000D01*
X82246333Y-113097444D01*
X89750944Y-113097444D01*
X89798724Y-113506759D01*
X89919286Y-113893282D01*
X90111714Y-114248521D01*
X90346647Y-114535552D01*
X90612783Y-114761611D01*
X90899025Y-114913428D01*
X91214257Y-114993422D01*
X91567365Y-115004012D01*
X91905565Y-114959940D01*
X92018630Y-114938412D01*
X91994819Y-115421877D01*
X91985515Y-115632171D01*
X91983541Y-115775309D01*
X91990916Y-115868634D01*
X92009659Y-115929491D01*
X92041790Y-115975223D01*
X92061671Y-115996005D01*
X92193446Y-116072657D01*
X92352761Y-116073573D01*
X92522750Y-116002464D01*
X92611259Y-115943569D01*
X92658104Y-115902785D01*
X92660333Y-115897680D01*
X92648055Y-115850247D01*
X92615563Y-115743700D01*
X92569369Y-115599265D01*
X92559477Y-115568975D01*
X92505951Y-115393771D01*
X92461396Y-115226688D01*
X92435206Y-115103035D01*
X92434773Y-115100167D01*
X92410926Y-114939168D01*
X92609713Y-114973167D01*
X92973643Y-115004564D01*
X93316456Y-114974138D01*
X93618313Y-114883727D01*
X93629550Y-114878757D01*
X93890201Y-114721252D01*
X94135748Y-114497432D01*
X94351947Y-114225644D01*
X94524555Y-113924236D01*
X94639328Y-113611556D01*
X94651115Y-113562857D01*
X94671812Y-113426459D01*
X94687499Y-113239219D01*
X94695607Y-113034926D01*
X94696182Y-112969994D01*
X94656965Y-112526848D01*
X94538646Y-112110553D01*
X94340220Y-111718800D01*
X94060683Y-111349279D01*
X93932745Y-111213972D01*
X93744964Y-111041188D01*
X93533376Y-110877911D01*
X93283100Y-110714238D01*
X92979255Y-110540266D01*
X92698261Y-110392462D01*
X92237394Y-110156723D01*
X91697447Y-110431473D01*
X91496052Y-110535394D01*
X91316169Y-110630886D01*
X91174178Y-110709059D01*
X91086458Y-110761025D01*
X91072833Y-110770432D01*
X91021633Y-110813984D01*
X91034245Y-110831781D01*
X91120817Y-110835916D01*
X91127852Y-110835987D01*
X91337126Y-110876968D01*
X91515140Y-110986490D01*
X91643505Y-111150753D01*
X91684761Y-111254021D01*
X91698742Y-111442755D01*
X91640167Y-111623427D01*
X91521113Y-111785588D01*
X91353656Y-111918789D01*
X91149874Y-112012580D01*
X90921842Y-112056512D01*
X90761522Y-112052851D01*
X90546304Y-111992758D01*
X90366190Y-111861197D01*
X90260134Y-111730055D01*
X90167102Y-111593395D01*
X90053457Y-111817663D01*
X89877395Y-112244405D01*
X89776863Y-112673829D01*
X89750944Y-113097444D01*
X82246333Y-113097444D01*
X82246333Y-111218334D01*
X84744000Y-111218334D01*
X84744000Y-108763000D01*
X82246333Y-108763000D01*
X82246333Y-106265334D01*
X79792279Y-106265334D01*
X79769833Y-108741834D01*
X78510417Y-108753047D01*
X77251000Y-108764260D01*
X72255667Y-108764260D01*
X72255667Y-104605856D01*
X73790106Y-104605856D01*
X73812386Y-104654971D01*
X73892758Y-104757562D01*
X74027396Y-104909360D01*
X74212474Y-105106092D01*
X74444166Y-105343489D01*
X74512365Y-105412143D01*
X74720243Y-105623528D01*
X74909242Y-105821062D01*
X75070586Y-105995141D01*
X75195496Y-106136159D01*
X75275194Y-106234509D01*
X75299815Y-106273930D01*
X75307311Y-106354910D01*
X75300020Y-106507283D01*
X75279476Y-106719365D01*
X75247215Y-106979468D01*
X75204770Y-107275909D01*
X75153675Y-107597002D01*
X75095464Y-107931061D01*
X75051465Y-108165528D01*
X75021076Y-108334372D01*
X75011307Y-108436870D01*
X75023836Y-108489197D01*
X75060339Y-108507528D01*
X75087070Y-108509000D01*
X75145918Y-108490289D01*
X75268367Y-108437746D01*
X75442982Y-108356760D01*
X75658329Y-108252717D01*
X75902971Y-108131005D01*
X76075475Y-108043334D01*
X76382528Y-107888764D01*
X76646400Y-107761584D01*
X76859627Y-107665153D01*
X77014745Y-107602830D01*
X77104290Y-107577973D01*
X77110364Y-107577667D01*
X77192351Y-107598052D01*
X77341006Y-107657102D01*
X77549384Y-107751657D01*
X77810536Y-107878558D01*
X78117516Y-108034645D01*
X78134279Y-108043334D01*
X78464584Y-108212545D01*
X78726603Y-108341730D01*
X78925468Y-108433031D01*
X79066310Y-108488591D01*
X79154262Y-108510554D01*
X79194455Y-108501062D01*
X79198333Y-108487689D01*
X79191614Y-108441376D01*
X79172853Y-108324330D01*
X79144144Y-108149292D01*
X79107580Y-107929006D01*
X79065257Y-107676217D01*
X79053994Y-107609272D01*
X79007811Y-107331736D01*
X78964592Y-107065918D01*
X78927108Y-106829334D01*
X78898130Y-106639498D01*
X78880430Y-106513926D01*
X78879434Y-106505955D01*
X78849212Y-106259743D01*
X79643413Y-105461534D01*
X79890404Y-105210299D01*
X80094944Y-104996026D01*
X80252790Y-104823424D01*
X80359700Y-104697201D01*
X80411431Y-104622063D01*
X80415280Y-104605126D01*
X80372570Y-104579140D01*
X80259625Y-104545800D01*
X80073277Y-104504426D01*
X79810360Y-104454339D01*
X79467706Y-104394857D01*
X79325160Y-104371168D01*
X78964786Y-104310373D01*
X78681141Y-104258993D01*
X78467006Y-104215450D01*
X78315161Y-104178162D01*
X78218384Y-104145553D01*
X78172649Y-104119122D01*
X78130452Y-104060825D01*
X78057338Y-103937974D01*
X77959600Y-103762068D01*
X77843530Y-103544606D01*
X77715419Y-103297087D01*
X77625544Y-103119285D01*
X77472831Y-102817101D01*
X77351737Y-102584578D01*
X77258102Y-102414641D01*
X77187769Y-102300216D01*
X77136577Y-102234227D01*
X77100368Y-102209599D01*
X77090665Y-102209403D01*
X77045700Y-102252753D01*
X76967742Y-102370259D01*
X76858555Y-102558870D01*
X76719903Y-102815539D01*
X76553548Y-103137216D01*
X76549659Y-103144864D01*
X76416465Y-103404461D01*
X76292693Y-103641063D01*
X76184414Y-103843429D01*
X76097703Y-104000316D01*
X76038632Y-104100481D01*
X76017180Y-104130629D01*
X75950256Y-104160678D01*
X75801123Y-104200175D01*
X75571665Y-104248721D01*
X75263766Y-104305917D01*
X74882964Y-104370764D01*
X74514146Y-104433168D01*
X74225454Y-104485910D01*
X74012999Y-104529826D01*
X73872894Y-104565751D01*
X73801251Y-104594523D01*
X73790106Y-104605856D01*
X72255667Y-104605856D01*
X72255667Y-103725334D01*
X74753333Y-103725334D01*
X74753333Y-101227209D01*
X78510417Y-101238021D01*
X82267500Y-101248834D01*
X82278722Y-102486445D01*
X82289943Y-103724057D01*
X83527555Y-103735278D01*
X84765167Y-103746500D01*
X84776388Y-104984112D01*
X84787610Y-106221723D01*
X86025222Y-106232945D01*
X87262833Y-106244167D01*
X87285279Y-108720667D01*
X89739333Y-108720667D01*
X89739333Y-106223000D01*
X92237000Y-106223000D01*
X92237000Y-103725334D01*
X94734667Y-103725334D01*
X94734667Y-101227667D01*
X97232333Y-101227667D01*
X97232333Y-98772334D01*
X94734667Y-98772334D01*
X94734667Y-96274667D01*
X92237000Y-96274667D01*
X92237000Y-93777000D01*
X89739333Y-93777000D01*
X89739333Y-88781667D01*
X92279333Y-88781667D01*
X92279333Y-93734667D01*
X94777000Y-93734667D01*
X94777000Y-96232334D01*
X99772333Y-96232334D01*
X99772333Y-98730000D01*
X104767667Y-98730000D01*
X104767667Y-101227667D01*
X117213667Y-101227667D01*
X117213667Y-98772334D01*
X109720667Y-98772334D01*
X109720667Y-96274667D01*
X104725333Y-96274667D01*
X104725333Y-93734667D01*
X107223000Y-93734667D01*
X107223000Y-91237000D01*
X109763000Y-91237000D01*
X109763000Y-93734667D01*
X114758333Y-93734667D01*
X114758333Y-96232334D01*
X119711333Y-96232334D01*
X119711333Y-93734667D01*
X122209000Y-93734667D01*
X122209000Y-88781667D01*
X119711333Y-88781667D01*
X119711333Y-81288667D01*
X104767667Y-81288667D01*
X104767667Y-83786334D01*
X102270000Y-83786334D01*
X102270000Y-88739334D01*
X104767667Y-88739334D01*
X104767667Y-91279334D01*
X102270000Y-91279334D01*
X102270000Y-93777000D01*
X99730000Y-93777000D01*
X99730000Y-91279334D01*
X97232333Y-91279334D01*
X97232333Y-86284000D01*
X94777000Y-86284000D01*
X94777000Y-88781667D01*
X92279333Y-88781667D01*
X89739333Y-88781667D01*
X89739333Y-88739334D01*
X92237000Y-88739334D01*
X92237000Y-83744000D01*
X94734667Y-83744000D01*
X94734667Y-68758000D01*
X97274667Y-68758000D01*
X97274667Y-78748667D01*
X102227667Y-78748667D01*
X102227667Y-76251000D01*
X104725333Y-76251000D01*
X104725333Y-71255667D01*
X102227667Y-71255667D01*
X102227667Y-68758000D01*
X97274667Y-68758000D01*
X94734667Y-68758000D01*
X94734667Y-66260334D01*
X102270000Y-66260334D01*
X102270000Y-68758000D01*
D11*
X106270000Y-122540000D03*
D12*
X106270000Y-120000000D03*
X108810000Y-122540000D03*
X108810000Y-120000000D03*
D13*
X111350000Y-122540000D03*
X111350000Y-120000000D03*
D14*
G36*
X95095881Y-122750289D02*
G01*
X95101705Y-122751153D01*
X95107417Y-122752584D01*
X95112961Y-122754567D01*
X95118284Y-122757085D01*
X95123334Y-122760112D01*
X95128064Y-122763619D01*
X95132426Y-122767574D01*
X95136381Y-122771936D01*
X95139888Y-122776666D01*
X95142915Y-122781716D01*
X95145433Y-122787039D01*
X95147416Y-122792583D01*
X95148847Y-122798295D01*
X95149711Y-122804119D01*
X95150000Y-122810000D01*
X95150000Y-123290000D01*
X95149711Y-123295881D01*
X95148847Y-123301705D01*
X95147416Y-123307417D01*
X95145433Y-123312961D01*
X95142915Y-123318284D01*
X95139888Y-123323334D01*
X95136381Y-123328064D01*
X95132426Y-123332426D01*
X95128064Y-123336381D01*
X95123334Y-123339888D01*
X95118284Y-123342915D01*
X95112961Y-123345433D01*
X95107417Y-123347416D01*
X95101705Y-123348847D01*
X95095881Y-123349711D01*
X95090000Y-123350000D01*
X94410000Y-123350000D01*
X94404119Y-123349711D01*
X94398295Y-123348847D01*
X94392583Y-123347416D01*
X94387039Y-123345433D01*
X94381716Y-123342915D01*
X94376666Y-123339888D01*
X94371936Y-123336381D01*
X94367574Y-123332426D01*
X94363619Y-123328064D01*
X94360112Y-123323334D01*
X94357085Y-123318284D01*
X94354567Y-123312961D01*
X94352584Y-123307417D01*
X94351153Y-123301705D01*
X94350289Y-123295881D01*
X94350000Y-123290000D01*
X94350000Y-122810000D01*
X94350289Y-122804119D01*
X94351153Y-122798295D01*
X94352584Y-122792583D01*
X94354567Y-122787039D01*
X94357085Y-122781716D01*
X94360112Y-122776666D01*
X94363619Y-122771936D01*
X94367574Y-122767574D01*
X94371936Y-122763619D01*
X94376666Y-122760112D01*
X94381716Y-122757085D01*
X94387039Y-122754567D01*
X94392583Y-122752584D01*
X94398295Y-122751153D01*
X94404119Y-122750289D01*
X94410000Y-122750000D01*
X95090000Y-122750000D01*
X95095881Y-122750289D01*
X95095881Y-122750289D01*
G37*
D15*
X94750000Y-123050000D03*
D14*
G36*
X96668822Y-122750433D02*
G01*
X96677558Y-122751729D01*
X96686126Y-122753875D01*
X96694442Y-122756851D01*
X96702426Y-122760627D01*
X96710001Y-122765168D01*
X96717095Y-122770429D01*
X96723640Y-122776360D01*
X96729571Y-122782905D01*
X96734832Y-122789999D01*
X96739373Y-122797574D01*
X96743149Y-122805558D01*
X96746125Y-122813874D01*
X96748271Y-122822442D01*
X96749567Y-122831178D01*
X96750000Y-122840000D01*
X96750000Y-123560000D01*
X96749567Y-123568822D01*
X96748271Y-123577558D01*
X96746125Y-123586126D01*
X96743149Y-123594442D01*
X96739373Y-123602426D01*
X96734832Y-123610001D01*
X96729571Y-123617095D01*
X96723640Y-123623640D01*
X96717095Y-123629571D01*
X96710001Y-123634832D01*
X96702426Y-123639373D01*
X96694442Y-123643149D01*
X96686126Y-123646125D01*
X96677558Y-123648271D01*
X96668822Y-123649567D01*
X96660000Y-123650000D01*
X95840000Y-123650000D01*
X95831178Y-123649567D01*
X95822442Y-123648271D01*
X95813874Y-123646125D01*
X95805558Y-123643149D01*
X95797574Y-123639373D01*
X95789999Y-123634832D01*
X95782905Y-123629571D01*
X95776360Y-123623640D01*
X95770429Y-123617095D01*
X95765168Y-123610001D01*
X95760627Y-123602426D01*
X95756851Y-123594442D01*
X95753875Y-123586126D01*
X95751729Y-123577558D01*
X95750433Y-123568822D01*
X95750000Y-123560000D01*
X95750000Y-122840000D01*
X95750433Y-122831178D01*
X95751729Y-122822442D01*
X95753875Y-122813874D01*
X95756851Y-122805558D01*
X95760627Y-122797574D01*
X95765168Y-122789999D01*
X95770429Y-122782905D01*
X95776360Y-122776360D01*
X95782905Y-122770429D01*
X95789999Y-122765168D01*
X95797574Y-122760627D01*
X95805558Y-122756851D01*
X95813874Y-122753875D01*
X95822442Y-122751729D01*
X95831178Y-122750433D01*
X95840000Y-122750000D01*
X96660000Y-122750000D01*
X96668822Y-122750433D01*
X96668822Y-122750433D01*
G37*
D16*
X96250000Y-123200000D03*
D14*
G36*
X93668822Y-122750433D02*
G01*
X93677558Y-122751729D01*
X93686126Y-122753875D01*
X93694442Y-122756851D01*
X93702426Y-122760627D01*
X93710001Y-122765168D01*
X93717095Y-122770429D01*
X93723640Y-122776360D01*
X93729571Y-122782905D01*
X93734832Y-122789999D01*
X93739373Y-122797574D01*
X93743149Y-122805558D01*
X93746125Y-122813874D01*
X93748271Y-122822442D01*
X93749567Y-122831178D01*
X93750000Y-122840000D01*
X93750000Y-123560000D01*
X93749567Y-123568822D01*
X93748271Y-123577558D01*
X93746125Y-123586126D01*
X93743149Y-123594442D01*
X93739373Y-123602426D01*
X93734832Y-123610001D01*
X93729571Y-123617095D01*
X93723640Y-123623640D01*
X93717095Y-123629571D01*
X93710001Y-123634832D01*
X93702426Y-123639373D01*
X93694442Y-123643149D01*
X93686126Y-123646125D01*
X93677558Y-123648271D01*
X93668822Y-123649567D01*
X93660000Y-123650000D01*
X92840000Y-123650000D01*
X92831178Y-123649567D01*
X92822442Y-123648271D01*
X92813874Y-123646125D01*
X92805558Y-123643149D01*
X92797574Y-123639373D01*
X92789999Y-123634832D01*
X92782905Y-123629571D01*
X92776360Y-123623640D01*
X92770429Y-123617095D01*
X92765168Y-123610001D01*
X92760627Y-123602426D01*
X92756851Y-123594442D01*
X92753875Y-123586126D01*
X92751729Y-123577558D01*
X92750433Y-123568822D01*
X92750000Y-123560000D01*
X92750000Y-122840000D01*
X92750433Y-122831178D01*
X92751729Y-122822442D01*
X92753875Y-122813874D01*
X92756851Y-122805558D01*
X92760627Y-122797574D01*
X92765168Y-122789999D01*
X92770429Y-122782905D01*
X92776360Y-122776360D01*
X92782905Y-122770429D01*
X92789999Y-122765168D01*
X92797574Y-122760627D01*
X92805558Y-122756851D01*
X92813874Y-122753875D01*
X92822442Y-122751729D01*
X92831178Y-122750433D01*
X92840000Y-122750000D01*
X93660000Y-122750000D01*
X93668822Y-122750433D01*
X93668822Y-122750433D01*
G37*
D16*
X93250000Y-123200000D03*
D14*
G36*
X101040193Y-105840656D02*
G01*
X101048929Y-105841952D01*
X101057497Y-105844098D01*
X101065813Y-105847074D01*
X101073797Y-105850850D01*
X101081372Y-105855391D01*
X101088466Y-105860652D01*
X101095011Y-105866583D01*
X101604128Y-106375700D01*
X101610059Y-106382245D01*
X101615320Y-106389339D01*
X101619861Y-106396914D01*
X101623637Y-106404898D01*
X101626613Y-106413214D01*
X101628759Y-106421782D01*
X101630055Y-106430518D01*
X101630488Y-106439340D01*
X101630055Y-106448162D01*
X101628759Y-106456898D01*
X101626613Y-106465466D01*
X101623637Y-106473782D01*
X101619861Y-106481766D01*
X101615320Y-106489341D01*
X101610059Y-106496435D01*
X101604128Y-106502980D01*
X101024301Y-107082807D01*
X101017756Y-107088738D01*
X101010662Y-107093999D01*
X101003087Y-107098540D01*
X100995103Y-107102316D01*
X100986787Y-107105292D01*
X100978219Y-107107438D01*
X100969483Y-107108734D01*
X100960661Y-107109167D01*
X100951839Y-107108734D01*
X100943103Y-107107438D01*
X100934535Y-107105292D01*
X100926219Y-107102316D01*
X100918235Y-107098540D01*
X100910660Y-107093999D01*
X100903566Y-107088738D01*
X100897021Y-107082807D01*
X100387904Y-106573690D01*
X100381973Y-106567145D01*
X100376712Y-106560051D01*
X100372171Y-106552476D01*
X100368395Y-106544492D01*
X100365419Y-106536176D01*
X100363273Y-106527608D01*
X100361977Y-106518872D01*
X100361544Y-106510050D01*
X100361977Y-106501228D01*
X100363273Y-106492492D01*
X100365419Y-106483924D01*
X100368395Y-106475608D01*
X100372171Y-106467624D01*
X100376712Y-106460049D01*
X100381973Y-106452955D01*
X100387904Y-106446410D01*
X100967731Y-105866583D01*
X100974276Y-105860652D01*
X100981370Y-105855391D01*
X100988945Y-105850850D01*
X100996929Y-105847074D01*
X101005245Y-105844098D01*
X101013813Y-105841952D01*
X101022549Y-105840656D01*
X101031371Y-105840223D01*
X101040193Y-105840656D01*
X101040193Y-105840656D01*
G37*
D16*
X100996016Y-106474695D03*
D14*
G36*
X98918872Y-107961977D02*
G01*
X98927608Y-107963273D01*
X98936176Y-107965419D01*
X98944492Y-107968395D01*
X98952476Y-107972171D01*
X98960051Y-107976712D01*
X98967145Y-107981973D01*
X98973690Y-107987904D01*
X99482807Y-108497021D01*
X99488738Y-108503566D01*
X99493999Y-108510660D01*
X99498540Y-108518235D01*
X99502316Y-108526219D01*
X99505292Y-108534535D01*
X99507438Y-108543103D01*
X99508734Y-108551839D01*
X99509167Y-108560661D01*
X99508734Y-108569483D01*
X99507438Y-108578219D01*
X99505292Y-108586787D01*
X99502316Y-108595103D01*
X99498540Y-108603087D01*
X99493999Y-108610662D01*
X99488738Y-108617756D01*
X99482807Y-108624301D01*
X98902980Y-109204128D01*
X98896435Y-109210059D01*
X98889341Y-109215320D01*
X98881766Y-109219861D01*
X98873782Y-109223637D01*
X98865466Y-109226613D01*
X98856898Y-109228759D01*
X98848162Y-109230055D01*
X98839340Y-109230488D01*
X98830518Y-109230055D01*
X98821782Y-109228759D01*
X98813214Y-109226613D01*
X98804898Y-109223637D01*
X98796914Y-109219861D01*
X98789339Y-109215320D01*
X98782245Y-109210059D01*
X98775700Y-109204128D01*
X98266583Y-108695011D01*
X98260652Y-108688466D01*
X98255391Y-108681372D01*
X98250850Y-108673797D01*
X98247074Y-108665813D01*
X98244098Y-108657497D01*
X98241952Y-108648929D01*
X98240656Y-108640193D01*
X98240223Y-108631371D01*
X98240656Y-108622549D01*
X98241952Y-108613813D01*
X98244098Y-108605245D01*
X98247074Y-108596929D01*
X98250850Y-108588945D01*
X98255391Y-108581370D01*
X98260652Y-108574276D01*
X98266583Y-108567731D01*
X98846410Y-107987904D01*
X98852955Y-107981973D01*
X98860049Y-107976712D01*
X98867624Y-107972171D01*
X98875608Y-107968395D01*
X98883924Y-107965419D01*
X98892492Y-107963273D01*
X98901228Y-107961977D01*
X98910050Y-107961544D01*
X98918872Y-107961977D01*
X98918872Y-107961977D01*
G37*
D16*
X98874695Y-108596016D03*
D14*
G36*
X100118013Y-107171588D02*
G01*
X100123837Y-107172452D01*
X100129549Y-107173883D01*
X100135093Y-107175866D01*
X100140416Y-107178384D01*
X100145466Y-107181411D01*
X100150196Y-107184918D01*
X100154558Y-107188873D01*
X100493969Y-107528284D01*
X100497924Y-107532646D01*
X100501431Y-107537376D01*
X100504458Y-107542426D01*
X100506976Y-107547749D01*
X100508959Y-107553293D01*
X100510390Y-107559005D01*
X100511254Y-107564829D01*
X100511543Y-107570710D01*
X100511254Y-107576591D01*
X100510390Y-107582415D01*
X100508959Y-107588127D01*
X100506976Y-107593671D01*
X100504458Y-107598994D01*
X100501431Y-107604044D01*
X100497924Y-107608774D01*
X100493969Y-107613136D01*
X100013136Y-108093969D01*
X100008774Y-108097924D01*
X100004044Y-108101431D01*
X99998994Y-108104458D01*
X99993671Y-108106976D01*
X99988127Y-108108959D01*
X99982415Y-108110390D01*
X99976591Y-108111254D01*
X99970710Y-108111543D01*
X99964829Y-108111254D01*
X99959005Y-108110390D01*
X99953293Y-108108959D01*
X99947749Y-108106976D01*
X99942426Y-108104458D01*
X99937376Y-108101431D01*
X99932646Y-108097924D01*
X99928284Y-108093969D01*
X99588873Y-107754558D01*
X99584918Y-107750196D01*
X99581411Y-107745466D01*
X99578384Y-107740416D01*
X99575866Y-107735093D01*
X99573883Y-107729549D01*
X99572452Y-107723837D01*
X99571588Y-107718013D01*
X99571299Y-107712132D01*
X99571588Y-107706251D01*
X99572452Y-107700427D01*
X99573883Y-107694715D01*
X99575866Y-107689171D01*
X99578384Y-107683848D01*
X99581411Y-107678798D01*
X99584918Y-107674068D01*
X99588873Y-107669706D01*
X100069706Y-107188873D01*
X100074068Y-107184918D01*
X100078798Y-107181411D01*
X100083848Y-107178384D01*
X100089171Y-107175866D01*
X100094715Y-107173883D01*
X100100427Y-107172452D01*
X100106251Y-107171588D01*
X100112132Y-107171299D01*
X100118013Y-107171588D01*
X100118013Y-107171588D01*
G37*
D15*
X100041421Y-107641421D03*
D14*
G36*
X119545881Y-121850289D02*
G01*
X119551705Y-121851153D01*
X119557417Y-121852584D01*
X119562961Y-121854567D01*
X119568284Y-121857085D01*
X119573334Y-121860112D01*
X119578064Y-121863619D01*
X119582426Y-121867574D01*
X119586381Y-121871936D01*
X119589888Y-121876666D01*
X119592915Y-121881716D01*
X119595433Y-121887039D01*
X119597416Y-121892583D01*
X119598847Y-121898295D01*
X119599711Y-121904119D01*
X119600000Y-121910000D01*
X119600000Y-122590000D01*
X119599711Y-122595881D01*
X119598847Y-122601705D01*
X119597416Y-122607417D01*
X119595433Y-122612961D01*
X119592915Y-122618284D01*
X119589888Y-122623334D01*
X119586381Y-122628064D01*
X119582426Y-122632426D01*
X119578064Y-122636381D01*
X119573334Y-122639888D01*
X119568284Y-122642915D01*
X119562961Y-122645433D01*
X119557417Y-122647416D01*
X119551705Y-122648847D01*
X119545881Y-122649711D01*
X119540000Y-122650000D01*
X119060000Y-122650000D01*
X119054119Y-122649711D01*
X119048295Y-122648847D01*
X119042583Y-122647416D01*
X119037039Y-122645433D01*
X119031716Y-122642915D01*
X119026666Y-122639888D01*
X119021936Y-122636381D01*
X119017574Y-122632426D01*
X119013619Y-122628064D01*
X119010112Y-122623334D01*
X119007085Y-122618284D01*
X119004567Y-122612961D01*
X119002584Y-122607417D01*
X119001153Y-122601705D01*
X119000289Y-122595881D01*
X119000000Y-122590000D01*
X119000000Y-121910000D01*
X119000289Y-121904119D01*
X119001153Y-121898295D01*
X119002584Y-121892583D01*
X119004567Y-121887039D01*
X119007085Y-121881716D01*
X119010112Y-121876666D01*
X119013619Y-121871936D01*
X119017574Y-121867574D01*
X119021936Y-121863619D01*
X119026666Y-121860112D01*
X119031716Y-121857085D01*
X119037039Y-121854567D01*
X119042583Y-121852584D01*
X119048295Y-121851153D01*
X119054119Y-121850289D01*
X119060000Y-121850000D01*
X119540000Y-121850000D01*
X119545881Y-121850289D01*
X119545881Y-121850289D01*
G37*
D15*
X119300000Y-122250000D03*
D14*
G36*
X119818822Y-120250433D02*
G01*
X119827558Y-120251729D01*
X119836126Y-120253875D01*
X119844442Y-120256851D01*
X119852426Y-120260627D01*
X119860001Y-120265168D01*
X119867095Y-120270429D01*
X119873640Y-120276360D01*
X119879571Y-120282905D01*
X119884832Y-120289999D01*
X119889373Y-120297574D01*
X119893149Y-120305558D01*
X119896125Y-120313874D01*
X119898271Y-120322442D01*
X119899567Y-120331178D01*
X119900000Y-120340000D01*
X119900000Y-121160000D01*
X119899567Y-121168822D01*
X119898271Y-121177558D01*
X119896125Y-121186126D01*
X119893149Y-121194442D01*
X119889373Y-121202426D01*
X119884832Y-121210001D01*
X119879571Y-121217095D01*
X119873640Y-121223640D01*
X119867095Y-121229571D01*
X119860001Y-121234832D01*
X119852426Y-121239373D01*
X119844442Y-121243149D01*
X119836126Y-121246125D01*
X119827558Y-121248271D01*
X119818822Y-121249567D01*
X119810000Y-121250000D01*
X119090000Y-121250000D01*
X119081178Y-121249567D01*
X119072442Y-121248271D01*
X119063874Y-121246125D01*
X119055558Y-121243149D01*
X119047574Y-121239373D01*
X119039999Y-121234832D01*
X119032905Y-121229571D01*
X119026360Y-121223640D01*
X119020429Y-121217095D01*
X119015168Y-121210001D01*
X119010627Y-121202426D01*
X119006851Y-121194442D01*
X119003875Y-121186126D01*
X119001729Y-121177558D01*
X119000433Y-121168822D01*
X119000000Y-121160000D01*
X119000000Y-120340000D01*
X119000433Y-120331178D01*
X119001729Y-120322442D01*
X119003875Y-120313874D01*
X119006851Y-120305558D01*
X119010627Y-120297574D01*
X119015168Y-120289999D01*
X119020429Y-120282905D01*
X119026360Y-120276360D01*
X119032905Y-120270429D01*
X119039999Y-120265168D01*
X119047574Y-120260627D01*
X119055558Y-120256851D01*
X119063874Y-120253875D01*
X119072442Y-120251729D01*
X119081178Y-120250433D01*
X119090000Y-120250000D01*
X119810000Y-120250000D01*
X119818822Y-120250433D01*
X119818822Y-120250433D01*
G37*
D16*
X119450000Y-120750000D03*
D14*
G36*
X119818822Y-123250433D02*
G01*
X119827558Y-123251729D01*
X119836126Y-123253875D01*
X119844442Y-123256851D01*
X119852426Y-123260627D01*
X119860001Y-123265168D01*
X119867095Y-123270429D01*
X119873640Y-123276360D01*
X119879571Y-123282905D01*
X119884832Y-123289999D01*
X119889373Y-123297574D01*
X119893149Y-123305558D01*
X119896125Y-123313874D01*
X119898271Y-123322442D01*
X119899567Y-123331178D01*
X119900000Y-123340000D01*
X119900000Y-124160000D01*
X119899567Y-124168822D01*
X119898271Y-124177558D01*
X119896125Y-124186126D01*
X119893149Y-124194442D01*
X119889373Y-124202426D01*
X119884832Y-124210001D01*
X119879571Y-124217095D01*
X119873640Y-124223640D01*
X119867095Y-124229571D01*
X119860001Y-124234832D01*
X119852426Y-124239373D01*
X119844442Y-124243149D01*
X119836126Y-124246125D01*
X119827558Y-124248271D01*
X119818822Y-124249567D01*
X119810000Y-124250000D01*
X119090000Y-124250000D01*
X119081178Y-124249567D01*
X119072442Y-124248271D01*
X119063874Y-124246125D01*
X119055558Y-124243149D01*
X119047574Y-124239373D01*
X119039999Y-124234832D01*
X119032905Y-124229571D01*
X119026360Y-124223640D01*
X119020429Y-124217095D01*
X119015168Y-124210001D01*
X119010627Y-124202426D01*
X119006851Y-124194442D01*
X119003875Y-124186126D01*
X119001729Y-124177558D01*
X119000433Y-124168822D01*
X119000000Y-124160000D01*
X119000000Y-123340000D01*
X119000433Y-123331178D01*
X119001729Y-123322442D01*
X119003875Y-123313874D01*
X119006851Y-123305558D01*
X119010627Y-123297574D01*
X119015168Y-123289999D01*
X119020429Y-123282905D01*
X119026360Y-123276360D01*
X119032905Y-123270429D01*
X119039999Y-123265168D01*
X119047574Y-123260627D01*
X119055558Y-123256851D01*
X119063874Y-123253875D01*
X119072442Y-123251729D01*
X119081178Y-123250433D01*
X119090000Y-123250000D01*
X119810000Y-123250000D01*
X119818822Y-123250433D01*
X119818822Y-123250433D01*
G37*
D16*
X119450000Y-123750000D03*
D14*
G36*
X112818822Y-109500433D02*
G01*
X112827558Y-109501729D01*
X112836126Y-109503875D01*
X112844442Y-109506851D01*
X112852426Y-109510627D01*
X112860001Y-109515168D01*
X112867095Y-109520429D01*
X112873640Y-109526360D01*
X112879571Y-109532905D01*
X112884832Y-109539999D01*
X112889373Y-109547574D01*
X112893149Y-109555558D01*
X112896125Y-109563874D01*
X112898271Y-109572442D01*
X112899567Y-109581178D01*
X112900000Y-109590000D01*
X112900000Y-110410000D01*
X112899567Y-110418822D01*
X112898271Y-110427558D01*
X112896125Y-110436126D01*
X112893149Y-110444442D01*
X112889373Y-110452426D01*
X112884832Y-110460001D01*
X112879571Y-110467095D01*
X112873640Y-110473640D01*
X112867095Y-110479571D01*
X112860001Y-110484832D01*
X112852426Y-110489373D01*
X112844442Y-110493149D01*
X112836126Y-110496125D01*
X112827558Y-110498271D01*
X112818822Y-110499567D01*
X112810000Y-110500000D01*
X112090000Y-110500000D01*
X112081178Y-110499567D01*
X112072442Y-110498271D01*
X112063874Y-110496125D01*
X112055558Y-110493149D01*
X112047574Y-110489373D01*
X112039999Y-110484832D01*
X112032905Y-110479571D01*
X112026360Y-110473640D01*
X112020429Y-110467095D01*
X112015168Y-110460001D01*
X112010627Y-110452426D01*
X112006851Y-110444442D01*
X112003875Y-110436126D01*
X112001729Y-110427558D01*
X112000433Y-110418822D01*
X112000000Y-110410000D01*
X112000000Y-109590000D01*
X112000433Y-109581178D01*
X112001729Y-109572442D01*
X112003875Y-109563874D01*
X112006851Y-109555558D01*
X112010627Y-109547574D01*
X112015168Y-109539999D01*
X112020429Y-109532905D01*
X112026360Y-109526360D01*
X112032905Y-109520429D01*
X112039999Y-109515168D01*
X112047574Y-109510627D01*
X112055558Y-109506851D01*
X112063874Y-109503875D01*
X112072442Y-109501729D01*
X112081178Y-109500433D01*
X112090000Y-109500000D01*
X112810000Y-109500000D01*
X112818822Y-109500433D01*
X112818822Y-109500433D01*
G37*
D16*
X112450000Y-110000000D03*
D14*
G36*
X112818822Y-106500433D02*
G01*
X112827558Y-106501729D01*
X112836126Y-106503875D01*
X112844442Y-106506851D01*
X112852426Y-106510627D01*
X112860001Y-106515168D01*
X112867095Y-106520429D01*
X112873640Y-106526360D01*
X112879571Y-106532905D01*
X112884832Y-106539999D01*
X112889373Y-106547574D01*
X112893149Y-106555558D01*
X112896125Y-106563874D01*
X112898271Y-106572442D01*
X112899567Y-106581178D01*
X112900000Y-106590000D01*
X112900000Y-107410000D01*
X112899567Y-107418822D01*
X112898271Y-107427558D01*
X112896125Y-107436126D01*
X112893149Y-107444442D01*
X112889373Y-107452426D01*
X112884832Y-107460001D01*
X112879571Y-107467095D01*
X112873640Y-107473640D01*
X112867095Y-107479571D01*
X112860001Y-107484832D01*
X112852426Y-107489373D01*
X112844442Y-107493149D01*
X112836126Y-107496125D01*
X112827558Y-107498271D01*
X112818822Y-107499567D01*
X112810000Y-107500000D01*
X112090000Y-107500000D01*
X112081178Y-107499567D01*
X112072442Y-107498271D01*
X112063874Y-107496125D01*
X112055558Y-107493149D01*
X112047574Y-107489373D01*
X112039999Y-107484832D01*
X112032905Y-107479571D01*
X112026360Y-107473640D01*
X112020429Y-107467095D01*
X112015168Y-107460001D01*
X112010627Y-107452426D01*
X112006851Y-107444442D01*
X112003875Y-107436126D01*
X112001729Y-107427558D01*
X112000433Y-107418822D01*
X112000000Y-107410000D01*
X112000000Y-106590000D01*
X112000433Y-106581178D01*
X112001729Y-106572442D01*
X112003875Y-106563874D01*
X112006851Y-106555558D01*
X112010627Y-106547574D01*
X112015168Y-106539999D01*
X112020429Y-106532905D01*
X112026360Y-106526360D01*
X112032905Y-106520429D01*
X112039999Y-106515168D01*
X112047574Y-106510627D01*
X112055558Y-106506851D01*
X112063874Y-106503875D01*
X112072442Y-106501729D01*
X112081178Y-106500433D01*
X112090000Y-106500000D01*
X112810000Y-106500000D01*
X112818822Y-106500433D01*
X112818822Y-106500433D01*
G37*
D16*
X112450000Y-107000000D03*
D14*
G36*
X112545881Y-108100289D02*
G01*
X112551705Y-108101153D01*
X112557417Y-108102584D01*
X112562961Y-108104567D01*
X112568284Y-108107085D01*
X112573334Y-108110112D01*
X112578064Y-108113619D01*
X112582426Y-108117574D01*
X112586381Y-108121936D01*
X112589888Y-108126666D01*
X112592915Y-108131716D01*
X112595433Y-108137039D01*
X112597416Y-108142583D01*
X112598847Y-108148295D01*
X112599711Y-108154119D01*
X112600000Y-108160000D01*
X112600000Y-108840000D01*
X112599711Y-108845881D01*
X112598847Y-108851705D01*
X112597416Y-108857417D01*
X112595433Y-108862961D01*
X112592915Y-108868284D01*
X112589888Y-108873334D01*
X112586381Y-108878064D01*
X112582426Y-108882426D01*
X112578064Y-108886381D01*
X112573334Y-108889888D01*
X112568284Y-108892915D01*
X112562961Y-108895433D01*
X112557417Y-108897416D01*
X112551705Y-108898847D01*
X112545881Y-108899711D01*
X112540000Y-108900000D01*
X112060000Y-108900000D01*
X112054119Y-108899711D01*
X112048295Y-108898847D01*
X112042583Y-108897416D01*
X112037039Y-108895433D01*
X112031716Y-108892915D01*
X112026666Y-108889888D01*
X112021936Y-108886381D01*
X112017574Y-108882426D01*
X112013619Y-108878064D01*
X112010112Y-108873334D01*
X112007085Y-108868284D01*
X112004567Y-108862961D01*
X112002584Y-108857417D01*
X112001153Y-108851705D01*
X112000289Y-108845881D01*
X112000000Y-108840000D01*
X112000000Y-108160000D01*
X112000289Y-108154119D01*
X112001153Y-108148295D01*
X112002584Y-108142583D01*
X112004567Y-108137039D01*
X112007085Y-108131716D01*
X112010112Y-108126666D01*
X112013619Y-108121936D01*
X112017574Y-108117574D01*
X112021936Y-108113619D01*
X112026666Y-108110112D01*
X112031716Y-108107085D01*
X112037039Y-108104567D01*
X112042583Y-108102584D01*
X112048295Y-108101153D01*
X112054119Y-108100289D01*
X112060000Y-108100000D01*
X112540000Y-108100000D01*
X112545881Y-108100289D01*
X112545881Y-108100289D01*
G37*
D15*
X112300000Y-108500000D03*
D14*
G36*
X97224505Y-117151204D02*
G01*
X97248773Y-117154804D01*
X97272572Y-117160765D01*
X97295671Y-117169030D01*
X97317850Y-117179520D01*
X97338893Y-117192132D01*
X97358599Y-117206747D01*
X97376777Y-117223223D01*
X97393253Y-117241401D01*
X97407868Y-117261107D01*
X97420480Y-117282150D01*
X97430970Y-117304329D01*
X97439235Y-117327428D01*
X97445196Y-117351227D01*
X97448796Y-117375495D01*
X97450000Y-117399999D01*
X97450000Y-118050001D01*
X97448796Y-118074505D01*
X97445196Y-118098773D01*
X97439235Y-118122572D01*
X97430970Y-118145671D01*
X97420480Y-118167850D01*
X97407868Y-118188893D01*
X97393253Y-118208599D01*
X97376777Y-118226777D01*
X97358599Y-118243253D01*
X97338893Y-118257868D01*
X97317850Y-118270480D01*
X97295671Y-118280970D01*
X97272572Y-118289235D01*
X97248773Y-118295196D01*
X97224505Y-118298796D01*
X97200001Y-118300000D01*
X96299999Y-118300000D01*
X96275495Y-118298796D01*
X96251227Y-118295196D01*
X96227428Y-118289235D01*
X96204329Y-118280970D01*
X96182150Y-118270480D01*
X96161107Y-118257868D01*
X96141401Y-118243253D01*
X96123223Y-118226777D01*
X96106747Y-118208599D01*
X96092132Y-118188893D01*
X96079520Y-118167850D01*
X96069030Y-118145671D01*
X96060765Y-118122572D01*
X96054804Y-118098773D01*
X96051204Y-118074505D01*
X96050000Y-118050001D01*
X96050000Y-117399999D01*
X96051204Y-117375495D01*
X96054804Y-117351227D01*
X96060765Y-117327428D01*
X96069030Y-117304329D01*
X96079520Y-117282150D01*
X96092132Y-117261107D01*
X96106747Y-117241401D01*
X96123223Y-117223223D01*
X96141401Y-117206747D01*
X96161107Y-117192132D01*
X96182150Y-117179520D01*
X96204329Y-117169030D01*
X96227428Y-117160765D01*
X96251227Y-117154804D01*
X96275495Y-117151204D01*
X96299999Y-117150000D01*
X97200001Y-117150000D01*
X97224505Y-117151204D01*
X97224505Y-117151204D01*
G37*
D17*
X96750000Y-117725000D03*
D14*
G36*
X97224505Y-119201204D02*
G01*
X97248773Y-119204804D01*
X97272572Y-119210765D01*
X97295671Y-119219030D01*
X97317850Y-119229520D01*
X97338893Y-119242132D01*
X97358599Y-119256747D01*
X97376777Y-119273223D01*
X97393253Y-119291401D01*
X97407868Y-119311107D01*
X97420480Y-119332150D01*
X97430970Y-119354329D01*
X97439235Y-119377428D01*
X97445196Y-119401227D01*
X97448796Y-119425495D01*
X97450000Y-119449999D01*
X97450000Y-120100001D01*
X97448796Y-120124505D01*
X97445196Y-120148773D01*
X97439235Y-120172572D01*
X97430970Y-120195671D01*
X97420480Y-120217850D01*
X97407868Y-120238893D01*
X97393253Y-120258599D01*
X97376777Y-120276777D01*
X97358599Y-120293253D01*
X97338893Y-120307868D01*
X97317850Y-120320480D01*
X97295671Y-120330970D01*
X97272572Y-120339235D01*
X97248773Y-120345196D01*
X97224505Y-120348796D01*
X97200001Y-120350000D01*
X96299999Y-120350000D01*
X96275495Y-120348796D01*
X96251227Y-120345196D01*
X96227428Y-120339235D01*
X96204329Y-120330970D01*
X96182150Y-120320480D01*
X96161107Y-120307868D01*
X96141401Y-120293253D01*
X96123223Y-120276777D01*
X96106747Y-120258599D01*
X96092132Y-120238893D01*
X96079520Y-120217850D01*
X96069030Y-120195671D01*
X96060765Y-120172572D01*
X96054804Y-120148773D01*
X96051204Y-120124505D01*
X96050000Y-120100001D01*
X96050000Y-119449999D01*
X96051204Y-119425495D01*
X96054804Y-119401227D01*
X96060765Y-119377428D01*
X96069030Y-119354329D01*
X96079520Y-119332150D01*
X96092132Y-119311107D01*
X96106747Y-119291401D01*
X96123223Y-119273223D01*
X96141401Y-119256747D01*
X96161107Y-119242132D01*
X96182150Y-119229520D01*
X96204329Y-119219030D01*
X96227428Y-119210765D01*
X96251227Y-119204804D01*
X96275495Y-119201204D01*
X96299999Y-119200000D01*
X97200001Y-119200000D01*
X97224505Y-119201204D01*
X97224505Y-119201204D01*
G37*
D17*
X96750000Y-119775000D03*
D14*
G36*
X108574505Y-106301204D02*
G01*
X108598773Y-106304804D01*
X108622572Y-106310765D01*
X108645671Y-106319030D01*
X108667850Y-106329520D01*
X108688893Y-106342132D01*
X108708599Y-106356747D01*
X108726777Y-106373223D01*
X108743253Y-106391401D01*
X108757868Y-106411107D01*
X108770480Y-106432150D01*
X108780970Y-106454329D01*
X108789235Y-106477428D01*
X108795196Y-106501227D01*
X108798796Y-106525495D01*
X108800000Y-106549999D01*
X108800000Y-107450001D01*
X108798796Y-107474505D01*
X108795196Y-107498773D01*
X108789235Y-107522572D01*
X108780970Y-107545671D01*
X108770480Y-107567850D01*
X108757868Y-107588893D01*
X108743253Y-107608599D01*
X108726777Y-107626777D01*
X108708599Y-107643253D01*
X108688893Y-107657868D01*
X108667850Y-107670480D01*
X108645671Y-107680970D01*
X108622572Y-107689235D01*
X108598773Y-107695196D01*
X108574505Y-107698796D01*
X108550001Y-107700000D01*
X107899999Y-107700000D01*
X107875495Y-107698796D01*
X107851227Y-107695196D01*
X107827428Y-107689235D01*
X107804329Y-107680970D01*
X107782150Y-107670480D01*
X107761107Y-107657868D01*
X107741401Y-107643253D01*
X107723223Y-107626777D01*
X107706747Y-107608599D01*
X107692132Y-107588893D01*
X107679520Y-107567850D01*
X107669030Y-107545671D01*
X107660765Y-107522572D01*
X107654804Y-107498773D01*
X107651204Y-107474505D01*
X107650000Y-107450001D01*
X107650000Y-106549999D01*
X107651204Y-106525495D01*
X107654804Y-106501227D01*
X107660765Y-106477428D01*
X107669030Y-106454329D01*
X107679520Y-106432150D01*
X107692132Y-106411107D01*
X107706747Y-106391401D01*
X107723223Y-106373223D01*
X107741401Y-106356747D01*
X107761107Y-106342132D01*
X107782150Y-106329520D01*
X107804329Y-106319030D01*
X107827428Y-106310765D01*
X107851227Y-106304804D01*
X107875495Y-106301204D01*
X107899999Y-106300000D01*
X108550001Y-106300000D01*
X108574505Y-106301204D01*
X108574505Y-106301204D01*
G37*
D17*
X108225000Y-107000000D03*
D14*
G36*
X106524505Y-106301204D02*
G01*
X106548773Y-106304804D01*
X106572572Y-106310765D01*
X106595671Y-106319030D01*
X106617850Y-106329520D01*
X106638893Y-106342132D01*
X106658599Y-106356747D01*
X106676777Y-106373223D01*
X106693253Y-106391401D01*
X106707868Y-106411107D01*
X106720480Y-106432150D01*
X106730970Y-106454329D01*
X106739235Y-106477428D01*
X106745196Y-106501227D01*
X106748796Y-106525495D01*
X106750000Y-106549999D01*
X106750000Y-107450001D01*
X106748796Y-107474505D01*
X106745196Y-107498773D01*
X106739235Y-107522572D01*
X106730970Y-107545671D01*
X106720480Y-107567850D01*
X106707868Y-107588893D01*
X106693253Y-107608599D01*
X106676777Y-107626777D01*
X106658599Y-107643253D01*
X106638893Y-107657868D01*
X106617850Y-107670480D01*
X106595671Y-107680970D01*
X106572572Y-107689235D01*
X106548773Y-107695196D01*
X106524505Y-107698796D01*
X106500001Y-107700000D01*
X105849999Y-107700000D01*
X105825495Y-107698796D01*
X105801227Y-107695196D01*
X105777428Y-107689235D01*
X105754329Y-107680970D01*
X105732150Y-107670480D01*
X105711107Y-107657868D01*
X105691401Y-107643253D01*
X105673223Y-107626777D01*
X105656747Y-107608599D01*
X105642132Y-107588893D01*
X105629520Y-107567850D01*
X105619030Y-107545671D01*
X105610765Y-107522572D01*
X105604804Y-107498773D01*
X105601204Y-107474505D01*
X105600000Y-107450001D01*
X105600000Y-106549999D01*
X105601204Y-106525495D01*
X105604804Y-106501227D01*
X105610765Y-106477428D01*
X105619030Y-106454329D01*
X105629520Y-106432150D01*
X105642132Y-106411107D01*
X105656747Y-106391401D01*
X105673223Y-106373223D01*
X105691401Y-106356747D01*
X105711107Y-106342132D01*
X105732150Y-106329520D01*
X105754329Y-106319030D01*
X105777428Y-106310765D01*
X105801227Y-106304804D01*
X105825495Y-106301204D01*
X105849999Y-106300000D01*
X106500001Y-106300000D01*
X106524505Y-106301204D01*
X106524505Y-106301204D01*
G37*
D17*
X106175000Y-107000000D03*
D18*
X96250000Y-120275000D02*
X96750000Y-119775000D01*
X96250000Y-123200000D02*
X96250000Y-120275000D01*
X98450432Y-109020279D02*
X98874695Y-108596016D01*
X95250000Y-112220711D02*
X98450432Y-109020279D01*
X95250000Y-118275000D02*
X95250000Y-112220711D01*
X96750000Y-119775000D02*
X95250000Y-118275000D01*
X113903984Y-108453984D02*
X112450000Y-107000000D01*
X117529410Y-118829410D02*
X117529410Y-113634264D01*
X119450000Y-120750000D02*
X117529410Y-118829410D01*
X117529410Y-113634264D02*
X117155044Y-113259898D01*
X117155044Y-113259898D02*
X115907643Y-113259898D01*
X115907643Y-113259898D02*
X113903984Y-111256239D01*
X113903984Y-111256239D02*
X113903984Y-108453984D01*
X108225000Y-107000000D02*
X112450000Y-107000000D01*
X99025000Y-120000000D02*
X96750000Y-117725000D01*
X106270000Y-120000000D02*
X99025000Y-120000000D01*
X106800000Y-120000000D02*
X106270000Y-120000000D01*
X110600000Y-116200000D02*
X106800000Y-120000000D01*
X106200000Y-107000000D02*
X110600000Y-110225000D01*
X110600000Y-110225000D02*
X110600000Y-116200000D01*
D19*
G36*
X104787300Y-105600000D02*
G01*
X104787544Y-105602478D01*
X104788267Y-105604860D01*
X104789440Y-105607056D01*
X104791020Y-105608980D01*
X104792944Y-105610560D01*
X104795140Y-105611733D01*
X104797522Y-105612456D01*
X104800000Y-105612700D01*
X113487300Y-105612700D01*
X113487300Y-107500000D01*
X113487544Y-107502478D01*
X113488267Y-107504860D01*
X113489440Y-107507056D01*
X113491020Y-107508980D01*
X113492944Y-107510560D01*
X113495140Y-107511733D01*
X113497522Y-107512456D01*
X113500000Y-107512700D01*
X115987300Y-107512700D01*
X115987300Y-110000000D01*
X115987544Y-110002478D01*
X115988267Y-110004860D01*
X115989440Y-110007056D01*
X115991020Y-110008980D01*
X115992944Y-110010560D01*
X115995140Y-110011733D01*
X115997522Y-110012456D01*
X116000000Y-110012700D01*
X118487300Y-110012700D01*
X118487300Y-112500000D01*
X118487544Y-112502478D01*
X118488267Y-112504860D01*
X118489440Y-112507056D01*
X118491020Y-112508980D01*
X118492944Y-112510560D01*
X118495140Y-112511733D01*
X118497522Y-112512456D01*
X118500000Y-112512700D01*
X121000000Y-112512700D01*
X121002478Y-112512456D01*
X121004860Y-112511733D01*
X121007056Y-112510560D01*
X121008980Y-112508980D01*
X121010560Y-112507056D01*
X121011733Y-112504860D01*
X121012456Y-112502478D01*
X121012700Y-112500000D01*
X121012700Y-110000000D01*
X121012456Y-109997522D01*
X121011733Y-109995140D01*
X121010560Y-109992944D01*
X121008980Y-109991020D01*
X121007056Y-109989440D01*
X121004860Y-109988267D01*
X121002478Y-109987544D01*
X121000000Y-109987300D01*
X118512700Y-109987300D01*
X118512700Y-109612700D01*
X121387053Y-109612700D01*
X121187542Y-119987300D01*
X121000000Y-119987300D01*
X120997522Y-119987544D01*
X120995140Y-119988267D01*
X120992944Y-119989440D01*
X120991020Y-119991020D01*
X120989440Y-119992944D01*
X120988267Y-119995140D01*
X120987544Y-119997522D01*
X120987300Y-120000000D01*
X120987300Y-127500000D01*
X120987544Y-127502478D01*
X120988267Y-127504860D01*
X120989440Y-127507056D01*
X120991020Y-127508980D01*
X120992944Y-127510560D01*
X120995140Y-127511733D01*
X120997522Y-127512456D01*
X121000000Y-127512700D01*
X121187300Y-127512700D01*
X121187300Y-131169138D01*
X119816951Y-131169138D01*
X119816951Y-128746049D01*
X119817302Y-128742487D01*
X119815898Y-128728235D01*
X119811741Y-128714532D01*
X119804991Y-128701902D01*
X119795906Y-128690832D01*
X119784836Y-128681747D01*
X119772206Y-128674997D01*
X119758503Y-128670840D01*
X119744251Y-128669436D01*
X119740688Y-128669787D01*
X117317717Y-128669787D01*
X117317717Y-126246705D01*
X117318068Y-126243142D01*
X117316664Y-126228890D01*
X117312507Y-126215187D01*
X117305757Y-126202557D01*
X117296672Y-126191487D01*
X117285602Y-126182402D01*
X117272972Y-126175652D01*
X117259269Y-126171495D01*
X117245017Y-126170091D01*
X117241454Y-126170442D01*
X109750880Y-126170442D01*
X109747317Y-126170091D01*
X109733065Y-126171495D01*
X109719362Y-126175652D01*
X109706732Y-126182402D01*
X109695662Y-126191487D01*
X109686577Y-126202557D01*
X109679827Y-126215187D01*
X109675670Y-126228890D01*
X109674266Y-126243142D01*
X109674617Y-126246705D01*
X109674618Y-127489245D01*
X109674617Y-127489255D01*
X109674618Y-128669787D01*
X102253180Y-128669787D01*
X102249617Y-128669436D01*
X102235365Y-128670840D01*
X102221662Y-128674997D01*
X102212700Y-128679787D01*
X102212700Y-125000000D01*
X102212456Y-124997522D01*
X102211733Y-124995140D01*
X102210560Y-124992944D01*
X102208980Y-124991020D01*
X102207056Y-124989440D01*
X102204860Y-124988267D01*
X102202478Y-124987544D01*
X102200000Y-124987300D01*
X90612700Y-124987300D01*
X90612700Y-124250000D01*
X118476781Y-124250000D01*
X118486835Y-124352075D01*
X118516609Y-124450227D01*
X118564959Y-124540685D01*
X118630028Y-124619972D01*
X118709315Y-124685041D01*
X118799773Y-124733391D01*
X118897925Y-124763165D01*
X119000000Y-124773219D01*
X119078525Y-124770700D01*
X119208700Y-124640525D01*
X119208700Y-123991300D01*
X119691300Y-123991300D01*
X119691300Y-124640525D01*
X119821475Y-124770700D01*
X119900000Y-124773219D01*
X120002075Y-124763165D01*
X120100227Y-124733391D01*
X120190685Y-124685041D01*
X120269972Y-124619972D01*
X120335041Y-124540685D01*
X120383391Y-124450227D01*
X120413165Y-124352075D01*
X120423219Y-124250000D01*
X120420700Y-124121475D01*
X120290525Y-123991300D01*
X119691300Y-123991300D01*
X119208700Y-123991300D01*
X118609475Y-123991300D01*
X118479300Y-124121475D01*
X118476781Y-124250000D01*
X90612700Y-124250000D01*
X90612700Y-123650000D01*
X92226781Y-123650000D01*
X92236835Y-123752075D01*
X92266609Y-123850227D01*
X92314959Y-123940685D01*
X92380028Y-124019972D01*
X92459315Y-124085041D01*
X92549773Y-124133391D01*
X92647925Y-124163165D01*
X92750000Y-124173219D01*
X92878525Y-124170700D01*
X93008700Y-124040525D01*
X93008700Y-123441300D01*
X92359475Y-123441300D01*
X92229300Y-123571475D01*
X92226781Y-123650000D01*
X90612700Y-123650000D01*
X90612700Y-122750000D01*
X92226781Y-122750000D01*
X92229300Y-122828525D01*
X92359475Y-122958700D01*
X93008700Y-122958700D01*
X93008700Y-122359475D01*
X93491300Y-122359475D01*
X93491300Y-122958700D01*
X93511300Y-122958700D01*
X93511300Y-123441300D01*
X93491300Y-123441300D01*
X93491300Y-124040525D01*
X93621475Y-124170700D01*
X93750000Y-124173219D01*
X93852075Y-124163165D01*
X93950227Y-124133391D01*
X94040685Y-124085041D01*
X94119972Y-124019972D01*
X94185041Y-123940685D01*
X94233391Y-123850227D01*
X94263165Y-123752075D01*
X94273219Y-123650000D01*
X94270700Y-123571475D01*
X94140527Y-123441302D01*
X94243346Y-123441302D01*
X94250266Y-123449734D01*
X94284498Y-123477827D01*
X94323553Y-123498703D01*
X94365929Y-123511557D01*
X94410000Y-123515898D01*
X95090000Y-123515898D01*
X95134071Y-123511557D01*
X95176447Y-123498703D01*
X95215502Y-123477827D01*
X95249734Y-123449734D01*
X95277827Y-123415502D01*
X95298703Y-123376447D01*
X95311557Y-123334071D01*
X95315898Y-123290000D01*
X95315898Y-122810000D01*
X95311557Y-122765929D01*
X95298703Y-122723553D01*
X95277827Y-122684498D01*
X95249734Y-122650266D01*
X95215502Y-122622173D01*
X95176447Y-122601297D01*
X95134071Y-122588443D01*
X95090000Y-122584102D01*
X94410000Y-122584102D01*
X94365929Y-122588443D01*
X94323553Y-122601297D01*
X94284498Y-122622173D01*
X94261163Y-122641324D01*
X94233391Y-122549773D01*
X94185041Y-122459315D01*
X94119972Y-122380028D01*
X94040685Y-122314959D01*
X93950227Y-122266609D01*
X93852075Y-122236835D01*
X93750000Y-122226781D01*
X93621475Y-122229300D01*
X93491300Y-122359475D01*
X93008700Y-122359475D01*
X92878525Y-122229300D01*
X92750000Y-122226781D01*
X92647925Y-122236835D01*
X92549773Y-122266609D01*
X92459315Y-122314959D01*
X92380028Y-122380028D01*
X92314959Y-122459315D01*
X92266609Y-122549773D01*
X92236835Y-122647925D01*
X92226781Y-122750000D01*
X90612700Y-122750000D01*
X90612700Y-121262700D01*
X92250000Y-121262700D01*
X92252478Y-121262456D01*
X92254860Y-121261733D01*
X92257056Y-121260560D01*
X92258980Y-121258980D01*
X92260560Y-121257056D01*
X92261733Y-121254860D01*
X92262456Y-121252478D01*
X92262700Y-121250000D01*
X92262700Y-118762700D01*
X94750000Y-118762700D01*
X94752478Y-118762456D01*
X94754860Y-118761733D01*
X94757056Y-118760560D01*
X94758980Y-118758980D01*
X94760560Y-118757056D01*
X94761733Y-118754860D01*
X94762456Y-118752478D01*
X94762700Y-118750000D01*
X94762700Y-116250000D01*
X94762456Y-116247522D01*
X94761733Y-116245140D01*
X94760560Y-116242944D01*
X94758980Y-116241020D01*
X94757056Y-116239440D01*
X94754860Y-116238267D01*
X94752478Y-116237544D01*
X94750000Y-116237300D01*
X90612700Y-116237300D01*
X90612700Y-116212700D01*
X94800000Y-116212700D01*
X94802478Y-116212456D01*
X94804860Y-116211733D01*
X94807056Y-116210560D01*
X94808980Y-116208980D01*
X94810560Y-116207056D01*
X94811733Y-116204860D01*
X94812456Y-116202478D01*
X94812700Y-116200000D01*
X94812700Y-112220711D01*
X94956488Y-112220711D01*
X94957901Y-112235059D01*
X94957900Y-118260662D01*
X94956488Y-118275000D01*
X94957900Y-118289338D01*
X94957900Y-118289345D01*
X94962127Y-118332261D01*
X94978829Y-118387322D01*
X95005953Y-118438066D01*
X95042455Y-118482545D01*
X95053602Y-118491693D01*
X95901095Y-119339186D01*
X95892093Y-119368862D01*
X95884102Y-119449999D01*
X95884102Y-120100001D01*
X95892093Y-120181138D01*
X95915760Y-120259158D01*
X95954193Y-120331061D01*
X95957901Y-120335579D01*
X95957900Y-122584102D01*
X95840000Y-122584102D01*
X95790077Y-122589019D01*
X95742072Y-122603581D01*
X95697831Y-122627229D01*
X95659053Y-122659053D01*
X95627229Y-122697831D01*
X95603581Y-122742072D01*
X95589019Y-122790077D01*
X95584102Y-122840000D01*
X95584102Y-123560000D01*
X95589019Y-123609923D01*
X95603581Y-123657928D01*
X95627229Y-123702169D01*
X95659053Y-123740947D01*
X95697831Y-123772771D01*
X95742072Y-123796419D01*
X95790077Y-123810981D01*
X95840000Y-123815898D01*
X96660000Y-123815898D01*
X96709923Y-123810981D01*
X96757928Y-123796419D01*
X96802169Y-123772771D01*
X96840947Y-123740947D01*
X96872771Y-123702169D01*
X96896419Y-123657928D01*
X96910981Y-123609923D01*
X96915898Y-123560000D01*
X96915898Y-123403600D01*
X104883181Y-123403600D01*
X104893235Y-123505675D01*
X104923009Y-123603827D01*
X104971359Y-123694285D01*
X105036428Y-123773572D01*
X105115715Y-123838641D01*
X105206173Y-123886991D01*
X105304325Y-123916765D01*
X105406400Y-123926819D01*
X105898525Y-123924300D01*
X106028700Y-123794125D01*
X106028700Y-122781300D01*
X106511300Y-122781300D01*
X106511300Y-123794125D01*
X106641475Y-123924300D01*
X107133600Y-123926819D01*
X107235675Y-123916765D01*
X107333827Y-123886991D01*
X107424285Y-123838641D01*
X107503572Y-123773572D01*
X107568641Y-123694285D01*
X107616991Y-123603827D01*
X107646765Y-123505675D01*
X107656819Y-123403600D01*
X107654300Y-122911475D01*
X107524125Y-122781300D01*
X106511300Y-122781300D01*
X106028700Y-122781300D01*
X105015875Y-122781300D01*
X104885700Y-122911475D01*
X104883181Y-123403600D01*
X96915898Y-123403600D01*
X96915898Y-122840000D01*
X96910981Y-122790077D01*
X96896419Y-122742072D01*
X96872771Y-122697831D01*
X96840947Y-122659053D01*
X96802169Y-122627229D01*
X96757928Y-122603581D01*
X96709923Y-122589019D01*
X96660000Y-122584102D01*
X96542100Y-122584102D01*
X96542100Y-122540000D01*
X107776323Y-122540000D01*
X107796185Y-122741660D01*
X107855007Y-122935571D01*
X107950529Y-123114280D01*
X108079080Y-123270920D01*
X108235720Y-123399471D01*
X108414429Y-123494993D01*
X108608340Y-123553815D01*
X108759468Y-123568700D01*
X108860532Y-123568700D01*
X109011660Y-123553815D01*
X109205571Y-123494993D01*
X109384280Y-123399471D01*
X109540920Y-123270920D01*
X109669471Y-123114280D01*
X109764993Y-122935571D01*
X109823815Y-122741660D01*
X109843677Y-122540000D01*
X109833698Y-122438682D01*
X110321300Y-122438682D01*
X110321300Y-122641318D01*
X110360833Y-122840061D01*
X110438378Y-123027272D01*
X110550957Y-123195758D01*
X110694242Y-123339043D01*
X110862728Y-123451622D01*
X111049939Y-123529167D01*
X111248682Y-123568700D01*
X111451318Y-123568700D01*
X111650061Y-123529167D01*
X111837272Y-123451622D01*
X112005758Y-123339043D01*
X112094801Y-123250000D01*
X118476781Y-123250000D01*
X118479300Y-123378525D01*
X118609475Y-123508700D01*
X119208700Y-123508700D01*
X119208700Y-123488700D01*
X119691300Y-123488700D01*
X119691300Y-123508700D01*
X120290525Y-123508700D01*
X120420700Y-123378525D01*
X120423219Y-123250000D01*
X120413165Y-123147925D01*
X120383391Y-123049773D01*
X120335041Y-122959315D01*
X120269972Y-122880028D01*
X120190685Y-122814959D01*
X120100227Y-122766609D01*
X120002075Y-122736835D01*
X119900000Y-122726781D01*
X119821475Y-122729300D01*
X119691302Y-122859473D01*
X119691302Y-122756654D01*
X119699734Y-122749734D01*
X119727827Y-122715502D01*
X119748703Y-122676447D01*
X119761557Y-122634071D01*
X119765898Y-122590000D01*
X119765898Y-121910000D01*
X119761557Y-121865929D01*
X119748703Y-121823553D01*
X119727827Y-121784498D01*
X119699734Y-121750266D01*
X119665502Y-121722173D01*
X119626447Y-121701297D01*
X119584071Y-121688443D01*
X119540000Y-121684102D01*
X119060000Y-121684102D01*
X119015929Y-121688443D01*
X118973553Y-121701297D01*
X118934498Y-121722173D01*
X118900266Y-121750266D01*
X118872173Y-121784498D01*
X118851297Y-121823553D01*
X118838443Y-121865929D01*
X118834102Y-121910000D01*
X118834102Y-122590000D01*
X118838443Y-122634071D01*
X118851297Y-122676447D01*
X118872173Y-122715502D01*
X118891324Y-122738837D01*
X118799773Y-122766609D01*
X118709315Y-122814959D01*
X118630028Y-122880028D01*
X118564959Y-122959315D01*
X118516609Y-123049773D01*
X118486835Y-123147925D01*
X118476781Y-123250000D01*
X112094801Y-123250000D01*
X112149043Y-123195758D01*
X112261622Y-123027272D01*
X112339167Y-122840061D01*
X112378700Y-122641318D01*
X112378700Y-122438682D01*
X112339167Y-122239939D01*
X112261622Y-122052728D01*
X112149043Y-121884242D01*
X112005758Y-121740957D01*
X111837272Y-121628378D01*
X111650061Y-121550833D01*
X111451318Y-121511300D01*
X111248682Y-121511300D01*
X111049939Y-121550833D01*
X110862728Y-121628378D01*
X110694242Y-121740957D01*
X110550957Y-121884242D01*
X110438378Y-122052728D01*
X110360833Y-122239939D01*
X110321300Y-122438682D01*
X109833698Y-122438682D01*
X109823815Y-122338340D01*
X109764993Y-122144429D01*
X109669471Y-121965720D01*
X109540920Y-121809080D01*
X109384280Y-121680529D01*
X109205571Y-121585007D01*
X109011660Y-121526185D01*
X108860532Y-121511300D01*
X108759468Y-121511300D01*
X108608340Y-121526185D01*
X108414429Y-121585007D01*
X108235720Y-121680529D01*
X108079080Y-121809080D01*
X107950529Y-121965720D01*
X107855007Y-122144429D01*
X107796185Y-122338340D01*
X107776323Y-122540000D01*
X96542100Y-122540000D01*
X96542100Y-121676400D01*
X104883181Y-121676400D01*
X104885700Y-122168525D01*
X105015875Y-122298700D01*
X106028700Y-122298700D01*
X106028700Y-121285875D01*
X106511300Y-121285875D01*
X106511300Y-122298700D01*
X107524125Y-122298700D01*
X107654300Y-122168525D01*
X107656819Y-121676400D01*
X107646765Y-121574325D01*
X107616991Y-121476173D01*
X107568641Y-121385715D01*
X107503572Y-121306428D01*
X107424285Y-121241359D01*
X107333827Y-121193009D01*
X107235675Y-121163235D01*
X107133600Y-121153181D01*
X106641475Y-121155700D01*
X106511300Y-121285875D01*
X106028700Y-121285875D01*
X105898525Y-121155700D01*
X105406400Y-121153181D01*
X105304325Y-121163235D01*
X105206173Y-121193009D01*
X105115715Y-121241359D01*
X105036428Y-121306428D01*
X104971359Y-121385715D01*
X104923009Y-121476173D01*
X104893235Y-121574325D01*
X104883181Y-121676400D01*
X96542100Y-121676400D01*
X96542100Y-120515898D01*
X97200001Y-120515898D01*
X97281138Y-120507907D01*
X97359158Y-120484240D01*
X97431061Y-120445807D01*
X97494085Y-120394085D01*
X97545807Y-120331061D01*
X97584240Y-120259158D01*
X97607907Y-120181138D01*
X97615898Y-120100001D01*
X97615898Y-119449999D01*
X97607907Y-119368862D01*
X97584240Y-119290842D01*
X97545807Y-119218939D01*
X97494085Y-119155915D01*
X97431061Y-119104193D01*
X97359158Y-119065760D01*
X97281138Y-119042093D01*
X97200001Y-119034102D01*
X96422193Y-119034102D01*
X95542100Y-118154009D01*
X95542100Y-117399999D01*
X95884102Y-117399999D01*
X95884102Y-118050001D01*
X95892093Y-118131138D01*
X95915760Y-118209158D01*
X95954193Y-118281061D01*
X96005915Y-118344085D01*
X96068939Y-118395807D01*
X96140842Y-118434240D01*
X96218862Y-118457907D01*
X96299999Y-118465898D01*
X97077807Y-118465898D01*
X98808311Y-120196403D01*
X98817455Y-120207545D01*
X98828597Y-120216689D01*
X98828598Y-120216690D01*
X98861933Y-120244047D01*
X98912677Y-120271171D01*
X98967738Y-120287873D01*
X99025000Y-120293513D01*
X99039346Y-120292100D01*
X105283620Y-120292100D01*
X105315007Y-120395571D01*
X105410529Y-120574280D01*
X105539080Y-120730920D01*
X105695720Y-120859471D01*
X105874429Y-120954993D01*
X106068340Y-121013815D01*
X106219468Y-121028700D01*
X106320532Y-121028700D01*
X106471660Y-121013815D01*
X106665571Y-120954993D01*
X106844280Y-120859471D01*
X107000920Y-120730920D01*
X107129471Y-120574280D01*
X107224993Y-120395571D01*
X107283815Y-120201660D01*
X107303677Y-120000000D01*
X107776323Y-120000000D01*
X107796185Y-120201660D01*
X107855007Y-120395571D01*
X107950529Y-120574280D01*
X108079080Y-120730920D01*
X108235720Y-120859471D01*
X108414429Y-120954993D01*
X108608340Y-121013815D01*
X108759468Y-121028700D01*
X108860532Y-121028700D01*
X109011660Y-121013815D01*
X109205571Y-120954993D01*
X109384280Y-120859471D01*
X109540920Y-120730920D01*
X109669471Y-120574280D01*
X109764993Y-120395571D01*
X109823815Y-120201660D01*
X109843677Y-120000000D01*
X109833698Y-119898682D01*
X110321300Y-119898682D01*
X110321300Y-120101318D01*
X110360833Y-120300061D01*
X110438378Y-120487272D01*
X110550957Y-120655758D01*
X110694242Y-120799043D01*
X110862728Y-120911622D01*
X111049939Y-120989167D01*
X111248682Y-121028700D01*
X111451318Y-121028700D01*
X111650061Y-120989167D01*
X111837272Y-120911622D01*
X112005758Y-120799043D01*
X112149043Y-120655758D01*
X112261622Y-120487272D01*
X112339167Y-120300061D01*
X112378700Y-120101318D01*
X112378700Y-119898682D01*
X112339167Y-119699939D01*
X112261622Y-119512728D01*
X112149043Y-119344242D01*
X112005758Y-119200957D01*
X111837272Y-119088378D01*
X111650061Y-119010833D01*
X111451318Y-118971300D01*
X111248682Y-118971300D01*
X111049939Y-119010833D01*
X110862728Y-119088378D01*
X110694242Y-119200957D01*
X110550957Y-119344242D01*
X110438378Y-119512728D01*
X110360833Y-119699939D01*
X110321300Y-119898682D01*
X109833698Y-119898682D01*
X109823815Y-119798340D01*
X109764993Y-119604429D01*
X109669471Y-119425720D01*
X109540920Y-119269080D01*
X109384280Y-119140529D01*
X109205571Y-119045007D01*
X109011660Y-118986185D01*
X108860532Y-118971300D01*
X108759468Y-118971300D01*
X108608340Y-118986185D01*
X108414429Y-119045007D01*
X108235720Y-119140529D01*
X108079080Y-119269080D01*
X107950529Y-119425720D01*
X107855007Y-119604429D01*
X107796185Y-119798340D01*
X107776323Y-120000000D01*
X107303677Y-120000000D01*
X107295555Y-119917536D01*
X110796403Y-116416689D01*
X110807545Y-116407545D01*
X110844047Y-116363067D01*
X110871171Y-116312323D01*
X110887873Y-116257262D01*
X110892100Y-116214346D01*
X110893513Y-116200000D01*
X110892100Y-116185654D01*
X110892100Y-110500000D01*
X111476781Y-110500000D01*
X111486835Y-110602075D01*
X111516609Y-110700227D01*
X111564959Y-110790685D01*
X111630028Y-110869972D01*
X111709315Y-110935041D01*
X111799773Y-110983391D01*
X111897925Y-111013165D01*
X112000000Y-111023219D01*
X112078525Y-111020700D01*
X112208700Y-110890525D01*
X112208700Y-110241300D01*
X112691300Y-110241300D01*
X112691300Y-110890525D01*
X112821475Y-111020700D01*
X112900000Y-111023219D01*
X113002075Y-111013165D01*
X113100227Y-110983391D01*
X113190685Y-110935041D01*
X113269972Y-110869972D01*
X113335041Y-110790685D01*
X113383391Y-110700227D01*
X113413165Y-110602075D01*
X113423219Y-110500000D01*
X113420700Y-110371475D01*
X113290525Y-110241300D01*
X112691300Y-110241300D01*
X112208700Y-110241300D01*
X111609475Y-110241300D01*
X111479300Y-110371475D01*
X111476781Y-110500000D01*
X110892100Y-110500000D01*
X110892100Y-110245711D01*
X110893235Y-110237750D01*
X110892100Y-110217029D01*
X110892100Y-110210654D01*
X110891313Y-110202667D01*
X110890088Y-110180297D01*
X110888500Y-110174107D01*
X110887873Y-110167738D01*
X110881358Y-110146261D01*
X110875793Y-110124563D01*
X110873029Y-110118804D01*
X110871171Y-110112677D01*
X110860599Y-110092899D01*
X110850901Y-110072688D01*
X110847060Y-110067569D01*
X110844047Y-110061933D01*
X110829827Y-110044606D01*
X110816365Y-110026667D01*
X110811602Y-110022399D01*
X110807545Y-110017455D01*
X110790221Y-110003238D01*
X110784250Y-109997887D01*
X110779110Y-109994120D01*
X110763066Y-109980953D01*
X110755975Y-109977163D01*
X110104962Y-109500000D01*
X111476781Y-109500000D01*
X111479300Y-109628525D01*
X111609475Y-109758700D01*
X112208700Y-109758700D01*
X112208700Y-109738700D01*
X112691300Y-109738700D01*
X112691300Y-109758700D01*
X113290525Y-109758700D01*
X113420700Y-109628525D01*
X113423219Y-109500000D01*
X113413165Y-109397925D01*
X113383391Y-109299773D01*
X113335041Y-109209315D01*
X113269972Y-109130028D01*
X113190685Y-109064959D01*
X113100227Y-109016609D01*
X113002075Y-108986835D01*
X112900000Y-108976781D01*
X112821475Y-108979300D01*
X112691302Y-109109473D01*
X112691302Y-109006654D01*
X112699734Y-108999734D01*
X112727827Y-108965502D01*
X112748703Y-108926447D01*
X112761557Y-108884071D01*
X112765898Y-108840000D01*
X112765898Y-108160000D01*
X112761557Y-108115929D01*
X112748703Y-108073553D01*
X112727827Y-108034498D01*
X112699734Y-108000266D01*
X112665502Y-107972173D01*
X112626447Y-107951297D01*
X112584071Y-107938443D01*
X112540000Y-107934102D01*
X112060000Y-107934102D01*
X112015929Y-107938443D01*
X111973553Y-107951297D01*
X111934498Y-107972173D01*
X111900266Y-108000266D01*
X111872173Y-108034498D01*
X111851297Y-108073553D01*
X111838443Y-108115929D01*
X111834102Y-108160000D01*
X111834102Y-108840000D01*
X111838443Y-108884071D01*
X111851297Y-108926447D01*
X111872173Y-108965502D01*
X111891324Y-108988837D01*
X111799773Y-109016609D01*
X111709315Y-109064959D01*
X111630028Y-109130028D01*
X111564959Y-109209315D01*
X111516609Y-109299773D01*
X111486835Y-109397925D01*
X111476781Y-109500000D01*
X110104962Y-109500000D01*
X107871684Y-107863109D01*
X107899999Y-107865898D01*
X108550001Y-107865898D01*
X108631138Y-107857907D01*
X108709158Y-107834240D01*
X108781061Y-107795807D01*
X108844085Y-107744085D01*
X108895807Y-107681061D01*
X108934240Y-107609158D01*
X108957907Y-107531138D01*
X108965898Y-107450001D01*
X108965898Y-107292100D01*
X111834102Y-107292100D01*
X111834102Y-107410000D01*
X111839019Y-107459923D01*
X111853581Y-107507928D01*
X111877229Y-107552169D01*
X111909053Y-107590947D01*
X111947831Y-107622771D01*
X111992072Y-107646419D01*
X112040077Y-107660981D01*
X112090000Y-107665898D01*
X112702807Y-107665898D01*
X113611885Y-108574977D01*
X113611884Y-111241901D01*
X113610472Y-111256239D01*
X113611884Y-111270577D01*
X113611884Y-111270584D01*
X113616111Y-111313500D01*
X113632813Y-111368561D01*
X113659937Y-111419305D01*
X113696439Y-111463784D01*
X113707586Y-111472932D01*
X115690952Y-113456299D01*
X115700098Y-113467443D01*
X115711240Y-113476587D01*
X115711241Y-113476588D01*
X115744576Y-113503945D01*
X115795320Y-113531069D01*
X115850381Y-113547771D01*
X115907643Y-113553411D01*
X115921989Y-113551998D01*
X117034053Y-113551998D01*
X117219354Y-113737300D01*
X112250000Y-113737300D01*
X112247522Y-113737544D01*
X112245140Y-113738267D01*
X112242944Y-113739440D01*
X112241020Y-113741020D01*
X112239440Y-113742944D01*
X112238267Y-113745140D01*
X112237544Y-113747522D01*
X112237300Y-113750000D01*
X112237300Y-118750000D01*
X112237544Y-118752478D01*
X112238267Y-118754860D01*
X112239440Y-118757056D01*
X112241020Y-118758980D01*
X112242944Y-118760560D01*
X112245140Y-118761733D01*
X112247522Y-118762456D01*
X112250000Y-118762700D01*
X117237310Y-118762700D01*
X117237310Y-118815072D01*
X117235898Y-118829410D01*
X117237310Y-118843748D01*
X117237310Y-118843755D01*
X117241537Y-118886671D01*
X117258239Y-118941732D01*
X117285363Y-118992476D01*
X117321865Y-119036955D01*
X117333012Y-119046103D01*
X118834102Y-120547194D01*
X118834102Y-121160000D01*
X118839019Y-121209923D01*
X118853581Y-121257928D01*
X118877229Y-121302169D01*
X118909053Y-121340947D01*
X118947831Y-121372771D01*
X118992072Y-121396419D01*
X119040077Y-121410981D01*
X119090000Y-121415898D01*
X119810000Y-121415898D01*
X119859923Y-121410981D01*
X119907928Y-121396419D01*
X119952169Y-121372771D01*
X119990947Y-121340947D01*
X120022771Y-121302169D01*
X120046419Y-121257928D01*
X120060981Y-121209923D01*
X120065898Y-121160000D01*
X120065898Y-120340000D01*
X120060981Y-120290077D01*
X120046419Y-120242072D01*
X120022771Y-120197831D01*
X119990947Y-120159053D01*
X119952169Y-120127229D01*
X119907928Y-120103581D01*
X119859923Y-120089019D01*
X119810000Y-120084102D01*
X119197194Y-120084102D01*
X117821510Y-118708419D01*
X117821510Y-113648599D01*
X117822922Y-113634263D01*
X117821510Y-113619927D01*
X117821510Y-113619918D01*
X117817283Y-113577002D01*
X117800581Y-113521941D01*
X117773457Y-113471197D01*
X117736955Y-113426719D01*
X117725813Y-113417575D01*
X117371737Y-113063500D01*
X117362589Y-113052353D01*
X117318111Y-113015851D01*
X117267367Y-112988727D01*
X117212306Y-112972025D01*
X117169390Y-112967798D01*
X117169382Y-112967798D01*
X117155044Y-112966386D01*
X117140706Y-112967798D01*
X116028635Y-112967798D01*
X114196084Y-111135248D01*
X114196084Y-108468330D01*
X114197497Y-108453984D01*
X114191857Y-108396722D01*
X114175155Y-108341661D01*
X114148031Y-108290917D01*
X114120674Y-108257582D01*
X114120673Y-108257581D01*
X114111529Y-108246439D01*
X114100387Y-108237295D01*
X113065898Y-107202807D01*
X113065898Y-106590000D01*
X113060981Y-106540077D01*
X113046419Y-106492072D01*
X113022771Y-106447831D01*
X112990947Y-106409053D01*
X112952169Y-106377229D01*
X112907928Y-106353581D01*
X112859923Y-106339019D01*
X112810000Y-106334102D01*
X112090000Y-106334102D01*
X112040077Y-106339019D01*
X111992072Y-106353581D01*
X111947831Y-106377229D01*
X111909053Y-106409053D01*
X111877229Y-106447831D01*
X111853581Y-106492072D01*
X111839019Y-106540077D01*
X111834102Y-106590000D01*
X111834102Y-106707900D01*
X108965898Y-106707900D01*
X108965898Y-106549999D01*
X108957907Y-106468862D01*
X108934240Y-106390842D01*
X108895807Y-106318939D01*
X108844085Y-106255915D01*
X108781061Y-106204193D01*
X108709158Y-106165760D01*
X108631138Y-106142093D01*
X108550001Y-106134102D01*
X107899999Y-106134102D01*
X107818862Y-106142093D01*
X107740842Y-106165760D01*
X107668939Y-106204193D01*
X107605915Y-106255915D01*
X107554193Y-106318939D01*
X107515760Y-106390842D01*
X107492093Y-106468862D01*
X107484102Y-106549999D01*
X107484102Y-107450001D01*
X107492093Y-107531138D01*
X107513059Y-107600253D01*
X106915898Y-107162562D01*
X106915898Y-106549999D01*
X106907907Y-106468862D01*
X106884240Y-106390842D01*
X106845807Y-106318939D01*
X106794085Y-106255915D01*
X106731061Y-106204193D01*
X106659158Y-106165760D01*
X106581138Y-106142093D01*
X106500001Y-106134102D01*
X105849999Y-106134102D01*
X105768862Y-106142093D01*
X105690842Y-106165760D01*
X105618939Y-106204193D01*
X105555915Y-106255915D01*
X105504193Y-106318939D01*
X105465760Y-106390842D01*
X105442093Y-106468862D01*
X105434102Y-106549999D01*
X105434102Y-107450001D01*
X105442093Y-107531138D01*
X105465760Y-107609158D01*
X105504193Y-107681061D01*
X105555915Y-107744085D01*
X105618939Y-107795807D01*
X105690842Y-107834240D01*
X105768862Y-107857907D01*
X105849999Y-107865898D01*
X106500001Y-107865898D01*
X106581138Y-107857907D01*
X106659158Y-107834240D01*
X106731061Y-107795807D01*
X106759642Y-107772351D01*
X110307900Y-110373064D01*
X110307901Y-116079007D01*
X107053617Y-119333292D01*
X107000920Y-119269080D01*
X106844280Y-119140529D01*
X106665571Y-119045007D01*
X106471660Y-118986185D01*
X106320532Y-118971300D01*
X106219468Y-118971300D01*
X106068340Y-118986185D01*
X105874429Y-119045007D01*
X105695720Y-119140529D01*
X105539080Y-119269080D01*
X105410529Y-119425720D01*
X105315007Y-119604429D01*
X105283620Y-119707900D01*
X99145992Y-119707900D01*
X97598905Y-118160814D01*
X97607907Y-118131138D01*
X97615898Y-118050001D01*
X97615898Y-117399999D01*
X97607907Y-117318862D01*
X97584240Y-117240842D01*
X97545807Y-117168939D01*
X97494085Y-117105915D01*
X97431061Y-117054193D01*
X97359158Y-117015760D01*
X97281138Y-116992093D01*
X97200001Y-116984102D01*
X96299999Y-116984102D01*
X96218862Y-116992093D01*
X96140842Y-117015760D01*
X96068939Y-117054193D01*
X96005915Y-117105915D01*
X95954193Y-117168939D01*
X95915760Y-117240842D01*
X95892093Y-117318862D01*
X95884102Y-117399999D01*
X95542100Y-117399999D01*
X95542100Y-112341702D01*
X96633802Y-111250000D01*
X97237300Y-111250000D01*
X97237300Y-116250000D01*
X97237544Y-116252478D01*
X97238267Y-116254860D01*
X97239440Y-116257056D01*
X97241020Y-116258980D01*
X97242944Y-116260560D01*
X97245140Y-116261733D01*
X97247522Y-116262456D01*
X97250000Y-116262700D01*
X99737300Y-116262700D01*
X99737300Y-118750000D01*
X99737544Y-118752478D01*
X99738267Y-118754860D01*
X99739440Y-118757056D01*
X99741020Y-118758980D01*
X99742944Y-118760560D01*
X99745140Y-118761733D01*
X99747522Y-118762456D01*
X99750000Y-118762700D01*
X107250000Y-118762700D01*
X107252478Y-118762456D01*
X107254860Y-118761733D01*
X107257056Y-118760560D01*
X107258980Y-118758980D01*
X107260560Y-118757056D01*
X107261733Y-118754860D01*
X107262456Y-118752478D01*
X107262700Y-118750000D01*
X107262700Y-116262700D01*
X109750000Y-116262700D01*
X109752478Y-116262456D01*
X109754860Y-116261733D01*
X109757056Y-116260560D01*
X109758980Y-116258980D01*
X109760560Y-116257056D01*
X109761733Y-116254860D01*
X109762456Y-116252478D01*
X109762700Y-116250000D01*
X109762700Y-111250000D01*
X109762456Y-111247522D01*
X109761733Y-111245140D01*
X109760560Y-111242944D01*
X109758980Y-111241020D01*
X109757056Y-111239440D01*
X109754860Y-111238267D01*
X109752478Y-111237544D01*
X109750000Y-111237300D01*
X107262700Y-111237300D01*
X107262700Y-108750000D01*
X107262456Y-108747522D01*
X107261733Y-108745140D01*
X107260560Y-108742944D01*
X107258980Y-108741020D01*
X107257056Y-108739440D01*
X107254860Y-108738267D01*
X107252478Y-108737544D01*
X107250000Y-108737300D01*
X99750000Y-108737300D01*
X99747522Y-108737544D01*
X99745140Y-108738267D01*
X99742944Y-108739440D01*
X99741020Y-108741020D01*
X99739440Y-108742944D01*
X99738267Y-108745140D01*
X99737544Y-108747522D01*
X99737300Y-108750000D01*
X99737300Y-111237300D01*
X97250000Y-111237300D01*
X97247522Y-111237544D01*
X97245140Y-111238267D01*
X97242944Y-111239440D01*
X97241020Y-111241020D01*
X97239440Y-111242944D01*
X97238267Y-111245140D01*
X97237544Y-111247522D01*
X97237300Y-111250000D01*
X96633802Y-111250000D01*
X98610380Y-109273422D01*
X98658393Y-109321435D01*
X98697171Y-109353259D01*
X98741412Y-109376907D01*
X98789417Y-109391469D01*
X98839340Y-109396386D01*
X98889263Y-109391469D01*
X98937268Y-109376907D01*
X98981509Y-109353259D01*
X99020287Y-109321435D01*
X99600114Y-108741608D01*
X99631938Y-108702830D01*
X99655586Y-108658589D01*
X99670148Y-108610584D01*
X99675065Y-108560661D01*
X99670148Y-108510738D01*
X99655586Y-108462733D01*
X99631938Y-108418492D01*
X99600114Y-108379714D01*
X99090997Y-107870597D01*
X99052219Y-107838773D01*
X99007978Y-107815125D01*
X98959973Y-107800563D01*
X98910050Y-107795646D01*
X98860127Y-107800563D01*
X98812122Y-107815125D01*
X98767881Y-107838773D01*
X98729103Y-107870597D01*
X98149276Y-108450424D01*
X98117452Y-108489202D01*
X98093804Y-108533443D01*
X98079242Y-108581448D01*
X98074325Y-108631371D01*
X98079242Y-108681294D01*
X98093804Y-108729299D01*
X98117452Y-108773540D01*
X98149276Y-108812318D01*
X98197289Y-108860331D01*
X95053598Y-112004022D01*
X95042456Y-112013166D01*
X95033312Y-112024308D01*
X95033310Y-112024310D01*
X95005953Y-112057645D01*
X94978829Y-112108389D01*
X94962127Y-112163450D01*
X94956488Y-112220711D01*
X94812700Y-112220711D01*
X94812700Y-110012700D01*
X96000000Y-110012700D01*
X96002478Y-110012456D01*
X96004860Y-110011733D01*
X96007056Y-110010560D01*
X96008980Y-110008980D01*
X96010560Y-110007056D01*
X96011733Y-110004860D01*
X96012456Y-110002478D01*
X96012700Y-110000000D01*
X96012700Y-107712132D01*
X99405401Y-107712132D01*
X99409742Y-107756203D01*
X99422596Y-107798579D01*
X99443472Y-107837634D01*
X99471565Y-107871866D01*
X99810976Y-108211277D01*
X99845208Y-108239370D01*
X99884263Y-108260246D01*
X99926639Y-108273100D01*
X99970710Y-108277441D01*
X100014781Y-108273100D01*
X100057157Y-108260246D01*
X100096212Y-108239370D01*
X100130444Y-108211277D01*
X100611277Y-107730444D01*
X100639370Y-107696212D01*
X100660246Y-107657157D01*
X100673100Y-107614781D01*
X100676059Y-107584739D01*
X100760433Y-107629837D01*
X100858586Y-107659612D01*
X100960661Y-107669666D01*
X101062736Y-107659612D01*
X101160888Y-107629837D01*
X101251345Y-107581487D01*
X101330632Y-107516418D01*
X101419732Y-107423756D01*
X101419732Y-107239661D01*
X100996016Y-106815945D01*
X100981874Y-106830087D01*
X100640624Y-106488837D01*
X100654766Y-106474695D01*
X101337266Y-106474695D01*
X101760982Y-106898411D01*
X101945077Y-106898411D01*
X102037739Y-106809311D01*
X102102808Y-106730024D01*
X102151158Y-106639567D01*
X102180933Y-106541415D01*
X102190987Y-106439340D01*
X102180933Y-106337265D01*
X102151158Y-106239112D01*
X102102808Y-106148655D01*
X102037739Y-106069368D01*
X101980432Y-106015624D01*
X101796337Y-106015624D01*
X101337266Y-106474695D01*
X100654766Y-106474695D01*
X100231050Y-106050979D01*
X100046955Y-106050979D01*
X99954293Y-106140079D01*
X99889224Y-106219366D01*
X99840874Y-106309823D01*
X99811099Y-106407975D01*
X99801045Y-106510050D01*
X99811099Y-106612125D01*
X99840874Y-106710278D01*
X99889224Y-106800735D01*
X99954293Y-106880022D01*
X100011600Y-106933766D01*
X100195693Y-106933766D01*
X100122989Y-107006470D01*
X100112132Y-107005401D01*
X100068061Y-107009742D01*
X100025685Y-107022596D01*
X99986630Y-107043472D01*
X99952398Y-107071565D01*
X99471565Y-107552398D01*
X99443472Y-107586630D01*
X99422596Y-107625685D01*
X99409742Y-107668061D01*
X99405401Y-107712132D01*
X96012700Y-107712132D01*
X96012700Y-107512700D01*
X98500000Y-107512700D01*
X98502478Y-107512456D01*
X98504860Y-107511733D01*
X98507056Y-107510560D01*
X98508980Y-107508980D01*
X98510560Y-107507056D01*
X98511733Y-107504860D01*
X98512456Y-107502478D01*
X98512700Y-107500000D01*
X98512700Y-105525634D01*
X100572300Y-105525634D01*
X100572300Y-105709729D01*
X100996016Y-106133445D01*
X101455087Y-105674374D01*
X101455087Y-105490279D01*
X101401343Y-105432972D01*
X101322056Y-105367903D01*
X101231599Y-105319553D01*
X101133446Y-105289778D01*
X101031371Y-105279724D01*
X100929296Y-105289778D01*
X100831144Y-105319553D01*
X100740687Y-105367903D01*
X100661400Y-105432972D01*
X100572300Y-105525634D01*
X98512700Y-105525634D01*
X98512700Y-105012700D01*
X103500000Y-105012700D01*
X103502478Y-105012456D01*
X103504860Y-105011733D01*
X103507056Y-105010560D01*
X103508980Y-105008980D01*
X103510560Y-105007056D01*
X103511733Y-105004860D01*
X103512456Y-105002478D01*
X103512700Y-105000000D01*
X103512700Y-102500000D01*
X103512456Y-102497522D01*
X103511733Y-102495140D01*
X103510560Y-102492944D01*
X103508980Y-102491020D01*
X103507056Y-102489440D01*
X103504860Y-102488267D01*
X103502478Y-102487544D01*
X103500000Y-102487300D01*
X98500000Y-102487300D01*
X98497522Y-102487544D01*
X98495140Y-102488267D01*
X98492944Y-102489440D01*
X98491020Y-102491020D01*
X98489440Y-102492944D01*
X98488267Y-102495140D01*
X98487544Y-102497522D01*
X98487300Y-102500000D01*
X98487300Y-104987300D01*
X96000000Y-104987300D01*
X95997522Y-104987544D01*
X95995140Y-104988267D01*
X95992944Y-104989440D01*
X95991020Y-104991020D01*
X95989440Y-104992944D01*
X95988267Y-104995140D01*
X95987544Y-104997522D01*
X95987300Y-105000000D01*
X95987300Y-107487300D01*
X94812700Y-107487300D01*
X94812700Y-103789522D01*
X94819406Y-103776974D01*
X94823563Y-103763271D01*
X94824967Y-103749019D01*
X94824616Y-103745456D01*
X94824616Y-101322372D01*
X97247586Y-101322372D01*
X97251149Y-101322723D01*
X97265401Y-101321319D01*
X97279104Y-101317162D01*
X97287453Y-101312700D01*
X104787300Y-101312700D01*
X104787300Y-105600000D01*
X104787300Y-105600000D01*
G37*
X104787300Y-105600000D02*
X104787544Y-105602478D01*
X104788267Y-105604860D01*
X104789440Y-105607056D01*
X104791020Y-105608980D01*
X104792944Y-105610560D01*
X104795140Y-105611733D01*
X104797522Y-105612456D01*
X104800000Y-105612700D01*
X113487300Y-105612700D01*
X113487300Y-107500000D01*
X113487544Y-107502478D01*
X113488267Y-107504860D01*
X113489440Y-107507056D01*
X113491020Y-107508980D01*
X113492944Y-107510560D01*
X113495140Y-107511733D01*
X113497522Y-107512456D01*
X113500000Y-107512700D01*
X115987300Y-107512700D01*
X115987300Y-110000000D01*
X115987544Y-110002478D01*
X115988267Y-110004860D01*
X115989440Y-110007056D01*
X115991020Y-110008980D01*
X115992944Y-110010560D01*
X115995140Y-110011733D01*
X115997522Y-110012456D01*
X116000000Y-110012700D01*
X118487300Y-110012700D01*
X118487300Y-112500000D01*
X118487544Y-112502478D01*
X118488267Y-112504860D01*
X118489440Y-112507056D01*
X118491020Y-112508980D01*
X118492944Y-112510560D01*
X118495140Y-112511733D01*
X118497522Y-112512456D01*
X118500000Y-112512700D01*
X121000000Y-112512700D01*
X121002478Y-112512456D01*
X121004860Y-112511733D01*
X121007056Y-112510560D01*
X121008980Y-112508980D01*
X121010560Y-112507056D01*
X121011733Y-112504860D01*
X121012456Y-112502478D01*
X121012700Y-112500000D01*
X121012700Y-110000000D01*
X121012456Y-109997522D01*
X121011733Y-109995140D01*
X121010560Y-109992944D01*
X121008980Y-109991020D01*
X121007056Y-109989440D01*
X121004860Y-109988267D01*
X121002478Y-109987544D01*
X121000000Y-109987300D01*
X118512700Y-109987300D01*
X118512700Y-109612700D01*
X121387053Y-109612700D01*
X121187542Y-119987300D01*
X121000000Y-119987300D01*
X120997522Y-119987544D01*
X120995140Y-119988267D01*
X120992944Y-119989440D01*
X120991020Y-119991020D01*
X120989440Y-119992944D01*
X120988267Y-119995140D01*
X120987544Y-119997522D01*
X120987300Y-120000000D01*
X120987300Y-127500000D01*
X120987544Y-127502478D01*
X120988267Y-127504860D01*
X120989440Y-127507056D01*
X120991020Y-127508980D01*
X120992944Y-127510560D01*
X120995140Y-127511733D01*
X120997522Y-127512456D01*
X121000000Y-127512700D01*
X121187300Y-127512700D01*
X121187300Y-131169138D01*
X119816951Y-131169138D01*
X119816951Y-128746049D01*
X119817302Y-128742487D01*
X119815898Y-128728235D01*
X119811741Y-128714532D01*
X119804991Y-128701902D01*
X119795906Y-128690832D01*
X119784836Y-128681747D01*
X119772206Y-128674997D01*
X119758503Y-128670840D01*
X119744251Y-128669436D01*
X119740688Y-128669787D01*
X117317717Y-128669787D01*
X117317717Y-126246705D01*
X117318068Y-126243142D01*
X117316664Y-126228890D01*
X117312507Y-126215187D01*
X117305757Y-126202557D01*
X117296672Y-126191487D01*
X117285602Y-126182402D01*
X117272972Y-126175652D01*
X117259269Y-126171495D01*
X117245017Y-126170091D01*
X117241454Y-126170442D01*
X109750880Y-126170442D01*
X109747317Y-126170091D01*
X109733065Y-126171495D01*
X109719362Y-126175652D01*
X109706732Y-126182402D01*
X109695662Y-126191487D01*
X109686577Y-126202557D01*
X109679827Y-126215187D01*
X109675670Y-126228890D01*
X109674266Y-126243142D01*
X109674617Y-126246705D01*
X109674618Y-127489245D01*
X109674617Y-127489255D01*
X109674618Y-128669787D01*
X102253180Y-128669787D01*
X102249617Y-128669436D01*
X102235365Y-128670840D01*
X102221662Y-128674997D01*
X102212700Y-128679787D01*
X102212700Y-125000000D01*
X102212456Y-124997522D01*
X102211733Y-124995140D01*
X102210560Y-124992944D01*
X102208980Y-124991020D01*
X102207056Y-124989440D01*
X102204860Y-124988267D01*
X102202478Y-124987544D01*
X102200000Y-124987300D01*
X90612700Y-124987300D01*
X90612700Y-124250000D01*
X118476781Y-124250000D01*
X118486835Y-124352075D01*
X118516609Y-124450227D01*
X118564959Y-124540685D01*
X118630028Y-124619972D01*
X118709315Y-124685041D01*
X118799773Y-124733391D01*
X118897925Y-124763165D01*
X119000000Y-124773219D01*
X119078525Y-124770700D01*
X119208700Y-124640525D01*
X119208700Y-123991300D01*
X119691300Y-123991300D01*
X119691300Y-124640525D01*
X119821475Y-124770700D01*
X119900000Y-124773219D01*
X120002075Y-124763165D01*
X120100227Y-124733391D01*
X120190685Y-124685041D01*
X120269972Y-124619972D01*
X120335041Y-124540685D01*
X120383391Y-124450227D01*
X120413165Y-124352075D01*
X120423219Y-124250000D01*
X120420700Y-124121475D01*
X120290525Y-123991300D01*
X119691300Y-123991300D01*
X119208700Y-123991300D01*
X118609475Y-123991300D01*
X118479300Y-124121475D01*
X118476781Y-124250000D01*
X90612700Y-124250000D01*
X90612700Y-123650000D01*
X92226781Y-123650000D01*
X92236835Y-123752075D01*
X92266609Y-123850227D01*
X92314959Y-123940685D01*
X92380028Y-124019972D01*
X92459315Y-124085041D01*
X92549773Y-124133391D01*
X92647925Y-124163165D01*
X92750000Y-124173219D01*
X92878525Y-124170700D01*
X93008700Y-124040525D01*
X93008700Y-123441300D01*
X92359475Y-123441300D01*
X92229300Y-123571475D01*
X92226781Y-123650000D01*
X90612700Y-123650000D01*
X90612700Y-122750000D01*
X92226781Y-122750000D01*
X92229300Y-122828525D01*
X92359475Y-122958700D01*
X93008700Y-122958700D01*
X93008700Y-122359475D01*
X93491300Y-122359475D01*
X93491300Y-122958700D01*
X93511300Y-122958700D01*
X93511300Y-123441300D01*
X93491300Y-123441300D01*
X93491300Y-124040525D01*
X93621475Y-124170700D01*
X93750000Y-124173219D01*
X93852075Y-124163165D01*
X93950227Y-124133391D01*
X94040685Y-124085041D01*
X94119972Y-124019972D01*
X94185041Y-123940685D01*
X94233391Y-123850227D01*
X94263165Y-123752075D01*
X94273219Y-123650000D01*
X94270700Y-123571475D01*
X94140527Y-123441302D01*
X94243346Y-123441302D01*
X94250266Y-123449734D01*
X94284498Y-123477827D01*
X94323553Y-123498703D01*
X94365929Y-123511557D01*
X94410000Y-123515898D01*
X95090000Y-123515898D01*
X95134071Y-123511557D01*
X95176447Y-123498703D01*
X95215502Y-123477827D01*
X95249734Y-123449734D01*
X95277827Y-123415502D01*
X95298703Y-123376447D01*
X95311557Y-123334071D01*
X95315898Y-123290000D01*
X95315898Y-122810000D01*
X95311557Y-122765929D01*
X95298703Y-122723553D01*
X95277827Y-122684498D01*
X95249734Y-122650266D01*
X95215502Y-122622173D01*
X95176447Y-122601297D01*
X95134071Y-122588443D01*
X95090000Y-122584102D01*
X94410000Y-122584102D01*
X94365929Y-122588443D01*
X94323553Y-122601297D01*
X94284498Y-122622173D01*
X94261163Y-122641324D01*
X94233391Y-122549773D01*
X94185041Y-122459315D01*
X94119972Y-122380028D01*
X94040685Y-122314959D01*
X93950227Y-122266609D01*
X93852075Y-122236835D01*
X93750000Y-122226781D01*
X93621475Y-122229300D01*
X93491300Y-122359475D01*
X93008700Y-122359475D01*
X92878525Y-122229300D01*
X92750000Y-122226781D01*
X92647925Y-122236835D01*
X92549773Y-122266609D01*
X92459315Y-122314959D01*
X92380028Y-122380028D01*
X92314959Y-122459315D01*
X92266609Y-122549773D01*
X92236835Y-122647925D01*
X92226781Y-122750000D01*
X90612700Y-122750000D01*
X90612700Y-121262700D01*
X92250000Y-121262700D01*
X92252478Y-121262456D01*
X92254860Y-121261733D01*
X92257056Y-121260560D01*
X92258980Y-121258980D01*
X92260560Y-121257056D01*
X92261733Y-121254860D01*
X92262456Y-121252478D01*
X92262700Y-121250000D01*
X92262700Y-118762700D01*
X94750000Y-118762700D01*
X94752478Y-118762456D01*
X94754860Y-118761733D01*
X94757056Y-118760560D01*
X94758980Y-118758980D01*
X94760560Y-118757056D01*
X94761733Y-118754860D01*
X94762456Y-118752478D01*
X94762700Y-118750000D01*
X94762700Y-116250000D01*
X94762456Y-116247522D01*
X94761733Y-116245140D01*
X94760560Y-116242944D01*
X94758980Y-116241020D01*
X94757056Y-116239440D01*
X94754860Y-116238267D01*
X94752478Y-116237544D01*
X94750000Y-116237300D01*
X90612700Y-116237300D01*
X90612700Y-116212700D01*
X94800000Y-116212700D01*
X94802478Y-116212456D01*
X94804860Y-116211733D01*
X94807056Y-116210560D01*
X94808980Y-116208980D01*
X94810560Y-116207056D01*
X94811733Y-116204860D01*
X94812456Y-116202478D01*
X94812700Y-116200000D01*
X94812700Y-112220711D01*
X94956488Y-112220711D01*
X94957901Y-112235059D01*
X94957900Y-118260662D01*
X94956488Y-118275000D01*
X94957900Y-118289338D01*
X94957900Y-118289345D01*
X94962127Y-118332261D01*
X94978829Y-118387322D01*
X95005953Y-118438066D01*
X95042455Y-118482545D01*
X95053602Y-118491693D01*
X95901095Y-119339186D01*
X95892093Y-119368862D01*
X95884102Y-119449999D01*
X95884102Y-120100001D01*
X95892093Y-120181138D01*
X95915760Y-120259158D01*
X95954193Y-120331061D01*
X95957901Y-120335579D01*
X95957900Y-122584102D01*
X95840000Y-122584102D01*
X95790077Y-122589019D01*
X95742072Y-122603581D01*
X95697831Y-122627229D01*
X95659053Y-122659053D01*
X95627229Y-122697831D01*
X95603581Y-122742072D01*
X95589019Y-122790077D01*
X95584102Y-122840000D01*
X95584102Y-123560000D01*
X95589019Y-123609923D01*
X95603581Y-123657928D01*
X95627229Y-123702169D01*
X95659053Y-123740947D01*
X95697831Y-123772771D01*
X95742072Y-123796419D01*
X95790077Y-123810981D01*
X95840000Y-123815898D01*
X96660000Y-123815898D01*
X96709923Y-123810981D01*
X96757928Y-123796419D01*
X96802169Y-123772771D01*
X96840947Y-123740947D01*
X96872771Y-123702169D01*
X96896419Y-123657928D01*
X96910981Y-123609923D01*
X96915898Y-123560000D01*
X96915898Y-123403600D01*
X104883181Y-123403600D01*
X104893235Y-123505675D01*
X104923009Y-123603827D01*
X104971359Y-123694285D01*
X105036428Y-123773572D01*
X105115715Y-123838641D01*
X105206173Y-123886991D01*
X105304325Y-123916765D01*
X105406400Y-123926819D01*
X105898525Y-123924300D01*
X106028700Y-123794125D01*
X106028700Y-122781300D01*
X106511300Y-122781300D01*
X106511300Y-123794125D01*
X106641475Y-123924300D01*
X107133600Y-123926819D01*
X107235675Y-123916765D01*
X107333827Y-123886991D01*
X107424285Y-123838641D01*
X107503572Y-123773572D01*
X107568641Y-123694285D01*
X107616991Y-123603827D01*
X107646765Y-123505675D01*
X107656819Y-123403600D01*
X107654300Y-122911475D01*
X107524125Y-122781300D01*
X106511300Y-122781300D01*
X106028700Y-122781300D01*
X105015875Y-122781300D01*
X104885700Y-122911475D01*
X104883181Y-123403600D01*
X96915898Y-123403600D01*
X96915898Y-122840000D01*
X96910981Y-122790077D01*
X96896419Y-122742072D01*
X96872771Y-122697831D01*
X96840947Y-122659053D01*
X96802169Y-122627229D01*
X96757928Y-122603581D01*
X96709923Y-122589019D01*
X96660000Y-122584102D01*
X96542100Y-122584102D01*
X96542100Y-122540000D01*
X107776323Y-122540000D01*
X107796185Y-122741660D01*
X107855007Y-122935571D01*
X107950529Y-123114280D01*
X108079080Y-123270920D01*
X108235720Y-123399471D01*
X108414429Y-123494993D01*
X108608340Y-123553815D01*
X108759468Y-123568700D01*
X108860532Y-123568700D01*
X109011660Y-123553815D01*
X109205571Y-123494993D01*
X109384280Y-123399471D01*
X109540920Y-123270920D01*
X109669471Y-123114280D01*
X109764993Y-122935571D01*
X109823815Y-122741660D01*
X109843677Y-122540000D01*
X109833698Y-122438682D01*
X110321300Y-122438682D01*
X110321300Y-122641318D01*
X110360833Y-122840061D01*
X110438378Y-123027272D01*
X110550957Y-123195758D01*
X110694242Y-123339043D01*
X110862728Y-123451622D01*
X111049939Y-123529167D01*
X111248682Y-123568700D01*
X111451318Y-123568700D01*
X111650061Y-123529167D01*
X111837272Y-123451622D01*
X112005758Y-123339043D01*
X112094801Y-123250000D01*
X118476781Y-123250000D01*
X118479300Y-123378525D01*
X118609475Y-123508700D01*
X119208700Y-123508700D01*
X119208700Y-123488700D01*
X119691300Y-123488700D01*
X119691300Y-123508700D01*
X120290525Y-123508700D01*
X120420700Y-123378525D01*
X120423219Y-123250000D01*
X120413165Y-123147925D01*
X120383391Y-123049773D01*
X120335041Y-122959315D01*
X120269972Y-122880028D01*
X120190685Y-122814959D01*
X120100227Y-122766609D01*
X120002075Y-122736835D01*
X119900000Y-122726781D01*
X119821475Y-122729300D01*
X119691302Y-122859473D01*
X119691302Y-122756654D01*
X119699734Y-122749734D01*
X119727827Y-122715502D01*
X119748703Y-122676447D01*
X119761557Y-122634071D01*
X119765898Y-122590000D01*
X119765898Y-121910000D01*
X119761557Y-121865929D01*
X119748703Y-121823553D01*
X119727827Y-121784498D01*
X119699734Y-121750266D01*
X119665502Y-121722173D01*
X119626447Y-121701297D01*
X119584071Y-121688443D01*
X119540000Y-121684102D01*
X119060000Y-121684102D01*
X119015929Y-121688443D01*
X118973553Y-121701297D01*
X118934498Y-121722173D01*
X118900266Y-121750266D01*
X118872173Y-121784498D01*
X118851297Y-121823553D01*
X118838443Y-121865929D01*
X118834102Y-121910000D01*
X118834102Y-122590000D01*
X118838443Y-122634071D01*
X118851297Y-122676447D01*
X118872173Y-122715502D01*
X118891324Y-122738837D01*
X118799773Y-122766609D01*
X118709315Y-122814959D01*
X118630028Y-122880028D01*
X118564959Y-122959315D01*
X118516609Y-123049773D01*
X118486835Y-123147925D01*
X118476781Y-123250000D01*
X112094801Y-123250000D01*
X112149043Y-123195758D01*
X112261622Y-123027272D01*
X112339167Y-122840061D01*
X112378700Y-122641318D01*
X112378700Y-122438682D01*
X112339167Y-122239939D01*
X112261622Y-122052728D01*
X112149043Y-121884242D01*
X112005758Y-121740957D01*
X111837272Y-121628378D01*
X111650061Y-121550833D01*
X111451318Y-121511300D01*
X111248682Y-121511300D01*
X111049939Y-121550833D01*
X110862728Y-121628378D01*
X110694242Y-121740957D01*
X110550957Y-121884242D01*
X110438378Y-122052728D01*
X110360833Y-122239939D01*
X110321300Y-122438682D01*
X109833698Y-122438682D01*
X109823815Y-122338340D01*
X109764993Y-122144429D01*
X109669471Y-121965720D01*
X109540920Y-121809080D01*
X109384280Y-121680529D01*
X109205571Y-121585007D01*
X109011660Y-121526185D01*
X108860532Y-121511300D01*
X108759468Y-121511300D01*
X108608340Y-121526185D01*
X108414429Y-121585007D01*
X108235720Y-121680529D01*
X108079080Y-121809080D01*
X107950529Y-121965720D01*
X107855007Y-122144429D01*
X107796185Y-122338340D01*
X107776323Y-122540000D01*
X96542100Y-122540000D01*
X96542100Y-121676400D01*
X104883181Y-121676400D01*
X104885700Y-122168525D01*
X105015875Y-122298700D01*
X106028700Y-122298700D01*
X106028700Y-121285875D01*
X106511300Y-121285875D01*
X106511300Y-122298700D01*
X107524125Y-122298700D01*
X107654300Y-122168525D01*
X107656819Y-121676400D01*
X107646765Y-121574325D01*
X107616991Y-121476173D01*
X107568641Y-121385715D01*
X107503572Y-121306428D01*
X107424285Y-121241359D01*
X107333827Y-121193009D01*
X107235675Y-121163235D01*
X107133600Y-121153181D01*
X106641475Y-121155700D01*
X106511300Y-121285875D01*
X106028700Y-121285875D01*
X105898525Y-121155700D01*
X105406400Y-121153181D01*
X105304325Y-121163235D01*
X105206173Y-121193009D01*
X105115715Y-121241359D01*
X105036428Y-121306428D01*
X104971359Y-121385715D01*
X104923009Y-121476173D01*
X104893235Y-121574325D01*
X104883181Y-121676400D01*
X96542100Y-121676400D01*
X96542100Y-120515898D01*
X97200001Y-120515898D01*
X97281138Y-120507907D01*
X97359158Y-120484240D01*
X97431061Y-120445807D01*
X97494085Y-120394085D01*
X97545807Y-120331061D01*
X97584240Y-120259158D01*
X97607907Y-120181138D01*
X97615898Y-120100001D01*
X97615898Y-119449999D01*
X97607907Y-119368862D01*
X97584240Y-119290842D01*
X97545807Y-119218939D01*
X97494085Y-119155915D01*
X97431061Y-119104193D01*
X97359158Y-119065760D01*
X97281138Y-119042093D01*
X97200001Y-119034102D01*
X96422193Y-119034102D01*
X95542100Y-118154009D01*
X95542100Y-117399999D01*
X95884102Y-117399999D01*
X95884102Y-118050001D01*
X95892093Y-118131138D01*
X95915760Y-118209158D01*
X95954193Y-118281061D01*
X96005915Y-118344085D01*
X96068939Y-118395807D01*
X96140842Y-118434240D01*
X96218862Y-118457907D01*
X96299999Y-118465898D01*
X97077807Y-118465898D01*
X98808311Y-120196403D01*
X98817455Y-120207545D01*
X98828597Y-120216689D01*
X98828598Y-120216690D01*
X98861933Y-120244047D01*
X98912677Y-120271171D01*
X98967738Y-120287873D01*
X99025000Y-120293513D01*
X99039346Y-120292100D01*
X105283620Y-120292100D01*
X105315007Y-120395571D01*
X105410529Y-120574280D01*
X105539080Y-120730920D01*
X105695720Y-120859471D01*
X105874429Y-120954993D01*
X106068340Y-121013815D01*
X106219468Y-121028700D01*
X106320532Y-121028700D01*
X106471660Y-121013815D01*
X106665571Y-120954993D01*
X106844280Y-120859471D01*
X107000920Y-120730920D01*
X107129471Y-120574280D01*
X107224993Y-120395571D01*
X107283815Y-120201660D01*
X107303677Y-120000000D01*
X107776323Y-120000000D01*
X107796185Y-120201660D01*
X107855007Y-120395571D01*
X107950529Y-120574280D01*
X108079080Y-120730920D01*
X108235720Y-120859471D01*
X108414429Y-120954993D01*
X108608340Y-121013815D01*
X108759468Y-121028700D01*
X108860532Y-121028700D01*
X109011660Y-121013815D01*
X109205571Y-120954993D01*
X109384280Y-120859471D01*
X109540920Y-120730920D01*
X109669471Y-120574280D01*
X109764993Y-120395571D01*
X109823815Y-120201660D01*
X109843677Y-120000000D01*
X109833698Y-119898682D01*
X110321300Y-119898682D01*
X110321300Y-120101318D01*
X110360833Y-120300061D01*
X110438378Y-120487272D01*
X110550957Y-120655758D01*
X110694242Y-120799043D01*
X110862728Y-120911622D01*
X111049939Y-120989167D01*
X111248682Y-121028700D01*
X111451318Y-121028700D01*
X111650061Y-120989167D01*
X111837272Y-120911622D01*
X112005758Y-120799043D01*
X112149043Y-120655758D01*
X112261622Y-120487272D01*
X112339167Y-120300061D01*
X112378700Y-120101318D01*
X112378700Y-119898682D01*
X112339167Y-119699939D01*
X112261622Y-119512728D01*
X112149043Y-119344242D01*
X112005758Y-119200957D01*
X111837272Y-119088378D01*
X111650061Y-119010833D01*
X111451318Y-118971300D01*
X111248682Y-118971300D01*
X111049939Y-119010833D01*
X110862728Y-119088378D01*
X110694242Y-119200957D01*
X110550957Y-119344242D01*
X110438378Y-119512728D01*
X110360833Y-119699939D01*
X110321300Y-119898682D01*
X109833698Y-119898682D01*
X109823815Y-119798340D01*
X109764993Y-119604429D01*
X109669471Y-119425720D01*
X109540920Y-119269080D01*
X109384280Y-119140529D01*
X109205571Y-119045007D01*
X109011660Y-118986185D01*
X108860532Y-118971300D01*
X108759468Y-118971300D01*
X108608340Y-118986185D01*
X108414429Y-119045007D01*
X108235720Y-119140529D01*
X108079080Y-119269080D01*
X107950529Y-119425720D01*
X107855007Y-119604429D01*
X107796185Y-119798340D01*
X107776323Y-120000000D01*
X107303677Y-120000000D01*
X107295555Y-119917536D01*
X110796403Y-116416689D01*
X110807545Y-116407545D01*
X110844047Y-116363067D01*
X110871171Y-116312323D01*
X110887873Y-116257262D01*
X110892100Y-116214346D01*
X110893513Y-116200000D01*
X110892100Y-116185654D01*
X110892100Y-110500000D01*
X111476781Y-110500000D01*
X111486835Y-110602075D01*
X111516609Y-110700227D01*
X111564959Y-110790685D01*
X111630028Y-110869972D01*
X111709315Y-110935041D01*
X111799773Y-110983391D01*
X111897925Y-111013165D01*
X112000000Y-111023219D01*
X112078525Y-111020700D01*
X112208700Y-110890525D01*
X112208700Y-110241300D01*
X112691300Y-110241300D01*
X112691300Y-110890525D01*
X112821475Y-111020700D01*
X112900000Y-111023219D01*
X113002075Y-111013165D01*
X113100227Y-110983391D01*
X113190685Y-110935041D01*
X113269972Y-110869972D01*
X113335041Y-110790685D01*
X113383391Y-110700227D01*
X113413165Y-110602075D01*
X113423219Y-110500000D01*
X113420700Y-110371475D01*
X113290525Y-110241300D01*
X112691300Y-110241300D01*
X112208700Y-110241300D01*
X111609475Y-110241300D01*
X111479300Y-110371475D01*
X111476781Y-110500000D01*
X110892100Y-110500000D01*
X110892100Y-110245711D01*
X110893235Y-110237750D01*
X110892100Y-110217029D01*
X110892100Y-110210654D01*
X110891313Y-110202667D01*
X110890088Y-110180297D01*
X110888500Y-110174107D01*
X110887873Y-110167738D01*
X110881358Y-110146261D01*
X110875793Y-110124563D01*
X110873029Y-110118804D01*
X110871171Y-110112677D01*
X110860599Y-110092899D01*
X110850901Y-110072688D01*
X110847060Y-110067569D01*
X110844047Y-110061933D01*
X110829827Y-110044606D01*
X110816365Y-110026667D01*
X110811602Y-110022399D01*
X110807545Y-110017455D01*
X110790221Y-110003238D01*
X110784250Y-109997887D01*
X110779110Y-109994120D01*
X110763066Y-109980953D01*
X110755975Y-109977163D01*
X110104962Y-109500000D01*
X111476781Y-109500000D01*
X111479300Y-109628525D01*
X111609475Y-109758700D01*
X112208700Y-109758700D01*
X112208700Y-109738700D01*
X112691300Y-109738700D01*
X112691300Y-109758700D01*
X113290525Y-109758700D01*
X113420700Y-109628525D01*
X113423219Y-109500000D01*
X113413165Y-109397925D01*
X113383391Y-109299773D01*
X113335041Y-109209315D01*
X113269972Y-109130028D01*
X113190685Y-109064959D01*
X113100227Y-109016609D01*
X113002075Y-108986835D01*
X112900000Y-108976781D01*
X112821475Y-108979300D01*
X112691302Y-109109473D01*
X112691302Y-109006654D01*
X112699734Y-108999734D01*
X112727827Y-108965502D01*
X112748703Y-108926447D01*
X112761557Y-108884071D01*
X112765898Y-108840000D01*
X112765898Y-108160000D01*
X112761557Y-108115929D01*
X112748703Y-108073553D01*
X112727827Y-108034498D01*
X112699734Y-108000266D01*
X112665502Y-107972173D01*
X112626447Y-107951297D01*
X112584071Y-107938443D01*
X112540000Y-107934102D01*
X112060000Y-107934102D01*
X112015929Y-107938443D01*
X111973553Y-107951297D01*
X111934498Y-107972173D01*
X111900266Y-108000266D01*
X111872173Y-108034498D01*
X111851297Y-108073553D01*
X111838443Y-108115929D01*
X111834102Y-108160000D01*
X111834102Y-108840000D01*
X111838443Y-108884071D01*
X111851297Y-108926447D01*
X111872173Y-108965502D01*
X111891324Y-108988837D01*
X111799773Y-109016609D01*
X111709315Y-109064959D01*
X111630028Y-109130028D01*
X111564959Y-109209315D01*
X111516609Y-109299773D01*
X111486835Y-109397925D01*
X111476781Y-109500000D01*
X110104962Y-109500000D01*
X107871684Y-107863109D01*
X107899999Y-107865898D01*
X108550001Y-107865898D01*
X108631138Y-107857907D01*
X108709158Y-107834240D01*
X108781061Y-107795807D01*
X108844085Y-107744085D01*
X108895807Y-107681061D01*
X108934240Y-107609158D01*
X108957907Y-107531138D01*
X108965898Y-107450001D01*
X108965898Y-107292100D01*
X111834102Y-107292100D01*
X111834102Y-107410000D01*
X111839019Y-107459923D01*
X111853581Y-107507928D01*
X111877229Y-107552169D01*
X111909053Y-107590947D01*
X111947831Y-107622771D01*
X111992072Y-107646419D01*
X112040077Y-107660981D01*
X112090000Y-107665898D01*
X112702807Y-107665898D01*
X113611885Y-108574977D01*
X113611884Y-111241901D01*
X113610472Y-111256239D01*
X113611884Y-111270577D01*
X113611884Y-111270584D01*
X113616111Y-111313500D01*
X113632813Y-111368561D01*
X113659937Y-111419305D01*
X113696439Y-111463784D01*
X113707586Y-111472932D01*
X115690952Y-113456299D01*
X115700098Y-113467443D01*
X115711240Y-113476587D01*
X115711241Y-113476588D01*
X115744576Y-113503945D01*
X115795320Y-113531069D01*
X115850381Y-113547771D01*
X115907643Y-113553411D01*
X115921989Y-113551998D01*
X117034053Y-113551998D01*
X117219354Y-113737300D01*
X112250000Y-113737300D01*
X112247522Y-113737544D01*
X112245140Y-113738267D01*
X112242944Y-113739440D01*
X112241020Y-113741020D01*
X112239440Y-113742944D01*
X112238267Y-113745140D01*
X112237544Y-113747522D01*
X112237300Y-113750000D01*
X112237300Y-118750000D01*
X112237544Y-118752478D01*
X112238267Y-118754860D01*
X112239440Y-118757056D01*
X112241020Y-118758980D01*
X112242944Y-118760560D01*
X112245140Y-118761733D01*
X112247522Y-118762456D01*
X112250000Y-118762700D01*
X117237310Y-118762700D01*
X117237310Y-118815072D01*
X117235898Y-118829410D01*
X117237310Y-118843748D01*
X117237310Y-118843755D01*
X117241537Y-118886671D01*
X117258239Y-118941732D01*
X117285363Y-118992476D01*
X117321865Y-119036955D01*
X117333012Y-119046103D01*
X118834102Y-120547194D01*
X118834102Y-121160000D01*
X118839019Y-121209923D01*
X118853581Y-121257928D01*
X118877229Y-121302169D01*
X118909053Y-121340947D01*
X118947831Y-121372771D01*
X118992072Y-121396419D01*
X119040077Y-121410981D01*
X119090000Y-121415898D01*
X119810000Y-121415898D01*
X119859923Y-121410981D01*
X119907928Y-121396419D01*
X119952169Y-121372771D01*
X119990947Y-121340947D01*
X120022771Y-121302169D01*
X120046419Y-121257928D01*
X120060981Y-121209923D01*
X120065898Y-121160000D01*
X120065898Y-120340000D01*
X120060981Y-120290077D01*
X120046419Y-120242072D01*
X120022771Y-120197831D01*
X119990947Y-120159053D01*
X119952169Y-120127229D01*
X119907928Y-120103581D01*
X119859923Y-120089019D01*
X119810000Y-120084102D01*
X119197194Y-120084102D01*
X117821510Y-118708419D01*
X117821510Y-113648599D01*
X117822922Y-113634263D01*
X117821510Y-113619927D01*
X117821510Y-113619918D01*
X117817283Y-113577002D01*
X117800581Y-113521941D01*
X117773457Y-113471197D01*
X117736955Y-113426719D01*
X117725813Y-113417575D01*
X117371737Y-113063500D01*
X117362589Y-113052353D01*
X117318111Y-113015851D01*
X117267367Y-112988727D01*
X117212306Y-112972025D01*
X117169390Y-112967798D01*
X117169382Y-112967798D01*
X117155044Y-112966386D01*
X117140706Y-112967798D01*
X116028635Y-112967798D01*
X114196084Y-111135248D01*
X114196084Y-108468330D01*
X114197497Y-108453984D01*
X114191857Y-108396722D01*
X114175155Y-108341661D01*
X114148031Y-108290917D01*
X114120674Y-108257582D01*
X114120673Y-108257581D01*
X114111529Y-108246439D01*
X114100387Y-108237295D01*
X113065898Y-107202807D01*
X113065898Y-106590000D01*
X113060981Y-106540077D01*
X113046419Y-106492072D01*
X113022771Y-106447831D01*
X112990947Y-106409053D01*
X112952169Y-106377229D01*
X112907928Y-106353581D01*
X112859923Y-106339019D01*
X112810000Y-106334102D01*
X112090000Y-106334102D01*
X112040077Y-106339019D01*
X111992072Y-106353581D01*
X111947831Y-106377229D01*
X111909053Y-106409053D01*
X111877229Y-106447831D01*
X111853581Y-106492072D01*
X111839019Y-106540077D01*
X111834102Y-106590000D01*
X111834102Y-106707900D01*
X108965898Y-106707900D01*
X108965898Y-106549999D01*
X108957907Y-106468862D01*
X108934240Y-106390842D01*
X108895807Y-106318939D01*
X108844085Y-106255915D01*
X108781061Y-106204193D01*
X108709158Y-106165760D01*
X108631138Y-106142093D01*
X108550001Y-106134102D01*
X107899999Y-106134102D01*
X107818862Y-106142093D01*
X107740842Y-106165760D01*
X107668939Y-106204193D01*
X107605915Y-106255915D01*
X107554193Y-106318939D01*
X107515760Y-106390842D01*
X107492093Y-106468862D01*
X107484102Y-106549999D01*
X107484102Y-107450001D01*
X107492093Y-107531138D01*
X107513059Y-107600253D01*
X106915898Y-107162562D01*
X106915898Y-106549999D01*
X106907907Y-106468862D01*
X106884240Y-106390842D01*
X106845807Y-106318939D01*
X106794085Y-106255915D01*
X106731061Y-106204193D01*
X106659158Y-106165760D01*
X106581138Y-106142093D01*
X106500001Y-106134102D01*
X105849999Y-106134102D01*
X105768862Y-106142093D01*
X105690842Y-106165760D01*
X105618939Y-106204193D01*
X105555915Y-106255915D01*
X105504193Y-106318939D01*
X105465760Y-106390842D01*
X105442093Y-106468862D01*
X105434102Y-106549999D01*
X105434102Y-107450001D01*
X105442093Y-107531138D01*
X105465760Y-107609158D01*
X105504193Y-107681061D01*
X105555915Y-107744085D01*
X105618939Y-107795807D01*
X105690842Y-107834240D01*
X105768862Y-107857907D01*
X105849999Y-107865898D01*
X106500001Y-107865898D01*
X106581138Y-107857907D01*
X106659158Y-107834240D01*
X106731061Y-107795807D01*
X106759642Y-107772351D01*
X110307900Y-110373064D01*
X110307901Y-116079007D01*
X107053617Y-119333292D01*
X107000920Y-119269080D01*
X106844280Y-119140529D01*
X106665571Y-119045007D01*
X106471660Y-118986185D01*
X106320532Y-118971300D01*
X106219468Y-118971300D01*
X106068340Y-118986185D01*
X105874429Y-119045007D01*
X105695720Y-119140529D01*
X105539080Y-119269080D01*
X105410529Y-119425720D01*
X105315007Y-119604429D01*
X105283620Y-119707900D01*
X99145992Y-119707900D01*
X97598905Y-118160814D01*
X97607907Y-118131138D01*
X97615898Y-118050001D01*
X97615898Y-117399999D01*
X97607907Y-117318862D01*
X97584240Y-117240842D01*
X97545807Y-117168939D01*
X97494085Y-117105915D01*
X97431061Y-117054193D01*
X97359158Y-117015760D01*
X97281138Y-116992093D01*
X97200001Y-116984102D01*
X96299999Y-116984102D01*
X96218862Y-116992093D01*
X96140842Y-117015760D01*
X96068939Y-117054193D01*
X96005915Y-117105915D01*
X95954193Y-117168939D01*
X95915760Y-117240842D01*
X95892093Y-117318862D01*
X95884102Y-117399999D01*
X95542100Y-117399999D01*
X95542100Y-112341702D01*
X96633802Y-111250000D01*
X97237300Y-111250000D01*
X97237300Y-116250000D01*
X97237544Y-116252478D01*
X97238267Y-116254860D01*
X97239440Y-116257056D01*
X97241020Y-116258980D01*
X97242944Y-116260560D01*
X97245140Y-116261733D01*
X97247522Y-116262456D01*
X97250000Y-116262700D01*
X99737300Y-116262700D01*
X99737300Y-118750000D01*
X99737544Y-118752478D01*
X99738267Y-118754860D01*
X99739440Y-118757056D01*
X99741020Y-118758980D01*
X99742944Y-118760560D01*
X99745140Y-118761733D01*
X99747522Y-118762456D01*
X99750000Y-118762700D01*
X107250000Y-118762700D01*
X107252478Y-118762456D01*
X107254860Y-118761733D01*
X107257056Y-118760560D01*
X107258980Y-118758980D01*
X107260560Y-118757056D01*
X107261733Y-118754860D01*
X107262456Y-118752478D01*
X107262700Y-118750000D01*
X107262700Y-116262700D01*
X109750000Y-116262700D01*
X109752478Y-116262456D01*
X109754860Y-116261733D01*
X109757056Y-116260560D01*
X109758980Y-116258980D01*
X109760560Y-116257056D01*
X109761733Y-116254860D01*
X109762456Y-116252478D01*
X109762700Y-116250000D01*
X109762700Y-111250000D01*
X109762456Y-111247522D01*
X109761733Y-111245140D01*
X109760560Y-111242944D01*
X109758980Y-111241020D01*
X109757056Y-111239440D01*
X109754860Y-111238267D01*
X109752478Y-111237544D01*
X109750000Y-111237300D01*
X107262700Y-111237300D01*
X107262700Y-108750000D01*
X107262456Y-108747522D01*
X107261733Y-108745140D01*
X107260560Y-108742944D01*
X107258980Y-108741020D01*
X107257056Y-108739440D01*
X107254860Y-108738267D01*
X107252478Y-108737544D01*
X107250000Y-108737300D01*
X99750000Y-108737300D01*
X99747522Y-108737544D01*
X99745140Y-108738267D01*
X99742944Y-108739440D01*
X99741020Y-108741020D01*
X99739440Y-108742944D01*
X99738267Y-108745140D01*
X99737544Y-108747522D01*
X99737300Y-108750000D01*
X99737300Y-111237300D01*
X97250000Y-111237300D01*
X97247522Y-111237544D01*
X97245140Y-111238267D01*
X97242944Y-111239440D01*
X97241020Y-111241020D01*
X97239440Y-111242944D01*
X97238267Y-111245140D01*
X97237544Y-111247522D01*
X97237300Y-111250000D01*
X96633802Y-111250000D01*
X98610380Y-109273422D01*
X98658393Y-109321435D01*
X98697171Y-109353259D01*
X98741412Y-109376907D01*
X98789417Y-109391469D01*
X98839340Y-109396386D01*
X98889263Y-109391469D01*
X98937268Y-109376907D01*
X98981509Y-109353259D01*
X99020287Y-109321435D01*
X99600114Y-108741608D01*
X99631938Y-108702830D01*
X99655586Y-108658589D01*
X99670148Y-108610584D01*
X99675065Y-108560661D01*
X99670148Y-108510738D01*
X99655586Y-108462733D01*
X99631938Y-108418492D01*
X99600114Y-108379714D01*
X99090997Y-107870597D01*
X99052219Y-107838773D01*
X99007978Y-107815125D01*
X98959973Y-107800563D01*
X98910050Y-107795646D01*
X98860127Y-107800563D01*
X98812122Y-107815125D01*
X98767881Y-107838773D01*
X98729103Y-107870597D01*
X98149276Y-108450424D01*
X98117452Y-108489202D01*
X98093804Y-108533443D01*
X98079242Y-108581448D01*
X98074325Y-108631371D01*
X98079242Y-108681294D01*
X98093804Y-108729299D01*
X98117452Y-108773540D01*
X98149276Y-108812318D01*
X98197289Y-108860331D01*
X95053598Y-112004022D01*
X95042456Y-112013166D01*
X95033312Y-112024308D01*
X95033310Y-112024310D01*
X95005953Y-112057645D01*
X94978829Y-112108389D01*
X94962127Y-112163450D01*
X94956488Y-112220711D01*
X94812700Y-112220711D01*
X94812700Y-110012700D01*
X96000000Y-110012700D01*
X96002478Y-110012456D01*
X96004860Y-110011733D01*
X96007056Y-110010560D01*
X96008980Y-110008980D01*
X96010560Y-110007056D01*
X96011733Y-110004860D01*
X96012456Y-110002478D01*
X96012700Y-110000000D01*
X96012700Y-107712132D01*
X99405401Y-107712132D01*
X99409742Y-107756203D01*
X99422596Y-107798579D01*
X99443472Y-107837634D01*
X99471565Y-107871866D01*
X99810976Y-108211277D01*
X99845208Y-108239370D01*
X99884263Y-108260246D01*
X99926639Y-108273100D01*
X99970710Y-108277441D01*
X100014781Y-108273100D01*
X100057157Y-108260246D01*
X100096212Y-108239370D01*
X100130444Y-108211277D01*
X100611277Y-107730444D01*
X100639370Y-107696212D01*
X100660246Y-107657157D01*
X100673100Y-107614781D01*
X100676059Y-107584739D01*
X100760433Y-107629837D01*
X100858586Y-107659612D01*
X100960661Y-107669666D01*
X101062736Y-107659612D01*
X101160888Y-107629837D01*
X101251345Y-107581487D01*
X101330632Y-107516418D01*
X101419732Y-107423756D01*
X101419732Y-107239661D01*
X100996016Y-106815945D01*
X100981874Y-106830087D01*
X100640624Y-106488837D01*
X100654766Y-106474695D01*
X101337266Y-106474695D01*
X101760982Y-106898411D01*
X101945077Y-106898411D01*
X102037739Y-106809311D01*
X102102808Y-106730024D01*
X102151158Y-106639567D01*
X102180933Y-106541415D01*
X102190987Y-106439340D01*
X102180933Y-106337265D01*
X102151158Y-106239112D01*
X102102808Y-106148655D01*
X102037739Y-106069368D01*
X101980432Y-106015624D01*
X101796337Y-106015624D01*
X101337266Y-106474695D01*
X100654766Y-106474695D01*
X100231050Y-106050979D01*
X100046955Y-106050979D01*
X99954293Y-106140079D01*
X99889224Y-106219366D01*
X99840874Y-106309823D01*
X99811099Y-106407975D01*
X99801045Y-106510050D01*
X99811099Y-106612125D01*
X99840874Y-106710278D01*
X99889224Y-106800735D01*
X99954293Y-106880022D01*
X100011600Y-106933766D01*
X100195693Y-106933766D01*
X100122989Y-107006470D01*
X100112132Y-107005401D01*
X100068061Y-107009742D01*
X100025685Y-107022596D01*
X99986630Y-107043472D01*
X99952398Y-107071565D01*
X99471565Y-107552398D01*
X99443472Y-107586630D01*
X99422596Y-107625685D01*
X99409742Y-107668061D01*
X99405401Y-107712132D01*
X96012700Y-107712132D01*
X96012700Y-107512700D01*
X98500000Y-107512700D01*
X98502478Y-107512456D01*
X98504860Y-107511733D01*
X98507056Y-107510560D01*
X98508980Y-107508980D01*
X98510560Y-107507056D01*
X98511733Y-107504860D01*
X98512456Y-107502478D01*
X98512700Y-107500000D01*
X98512700Y-105525634D01*
X100572300Y-105525634D01*
X100572300Y-105709729D01*
X100996016Y-106133445D01*
X101455087Y-105674374D01*
X101455087Y-105490279D01*
X101401343Y-105432972D01*
X101322056Y-105367903D01*
X101231599Y-105319553D01*
X101133446Y-105289778D01*
X101031371Y-105279724D01*
X100929296Y-105289778D01*
X100831144Y-105319553D01*
X100740687Y-105367903D01*
X100661400Y-105432972D01*
X100572300Y-105525634D01*
X98512700Y-105525634D01*
X98512700Y-105012700D01*
X103500000Y-105012700D01*
X103502478Y-105012456D01*
X103504860Y-105011733D01*
X103507056Y-105010560D01*
X103508980Y-105008980D01*
X103510560Y-105007056D01*
X103511733Y-105004860D01*
X103512456Y-105002478D01*
X103512700Y-105000000D01*
X103512700Y-102500000D01*
X103512456Y-102497522D01*
X103511733Y-102495140D01*
X103510560Y-102492944D01*
X103508980Y-102491020D01*
X103507056Y-102489440D01*
X103504860Y-102488267D01*
X103502478Y-102487544D01*
X103500000Y-102487300D01*
X98500000Y-102487300D01*
X98497522Y-102487544D01*
X98495140Y-102488267D01*
X98492944Y-102489440D01*
X98491020Y-102491020D01*
X98489440Y-102492944D01*
X98488267Y-102495140D01*
X98487544Y-102497522D01*
X98487300Y-102500000D01*
X98487300Y-104987300D01*
X96000000Y-104987300D01*
X95997522Y-104987544D01*
X95995140Y-104988267D01*
X95992944Y-104989440D01*
X95991020Y-104991020D01*
X95989440Y-104992944D01*
X95988267Y-104995140D01*
X95987544Y-104997522D01*
X95987300Y-105000000D01*
X95987300Y-107487300D01*
X94812700Y-107487300D01*
X94812700Y-103789522D01*
X94819406Y-103776974D01*
X94823563Y-103763271D01*
X94824967Y-103749019D01*
X94824616Y-103745456D01*
X94824616Y-101322372D01*
X97247586Y-101322372D01*
X97251149Y-101322723D01*
X97265401Y-101321319D01*
X97279104Y-101317162D01*
X97287453Y-101312700D01*
X104787300Y-101312700D01*
X104787300Y-105600000D01*
G36*
X116187300Y-107487300D02*
G01*
X116012700Y-107487300D01*
X116012700Y-107412700D01*
X116187300Y-107412700D01*
X116187300Y-107487300D01*
X116187300Y-107487300D01*
G37*
X116187300Y-107487300D02*
X116012700Y-107487300D01*
X116012700Y-107412700D01*
X116187300Y-107412700D01*
X116187300Y-107487300D01*
G36*
X96187300Y-130187300D02*
G01*
X93412700Y-130187300D01*
X93412700Y-125000000D01*
X93487300Y-125000000D01*
X93487300Y-130000000D01*
X93487544Y-130002478D01*
X93488267Y-130004860D01*
X93489440Y-130007056D01*
X93491020Y-130008980D01*
X93492944Y-130010560D01*
X93495140Y-130011733D01*
X93497522Y-130012456D01*
X93500000Y-130012700D01*
X96000000Y-130012700D01*
X96002478Y-130012456D01*
X96004860Y-130011733D01*
X96007056Y-130010560D01*
X96008980Y-130008980D01*
X96010560Y-130007056D01*
X96011733Y-130004860D01*
X96012456Y-130002478D01*
X96012700Y-130000000D01*
X96012700Y-125000000D01*
X96012456Y-124997522D01*
X96011733Y-124995140D01*
X96010560Y-124992944D01*
X96008980Y-124991020D01*
X96007056Y-124989440D01*
X96004860Y-124988267D01*
X96002478Y-124987544D01*
X96000000Y-124987300D01*
X93500000Y-124987300D01*
X93497522Y-124987544D01*
X93495140Y-124988267D01*
X93492944Y-124989440D01*
X93491020Y-124991020D01*
X93489440Y-124992944D01*
X93488267Y-124995140D01*
X93487544Y-124997522D01*
X93487300Y-125000000D01*
X93412700Y-125000000D01*
X93412700Y-124812700D01*
X96187300Y-124812700D01*
X96187300Y-130187300D01*
X96187300Y-130187300D01*
G37*
X96187300Y-130187300D02*
X93412700Y-130187300D01*
X93412700Y-125000000D01*
X93487300Y-125000000D01*
X93487300Y-130000000D01*
X93487544Y-130002478D01*
X93488267Y-130004860D01*
X93489440Y-130007056D01*
X93491020Y-130008980D01*
X93492944Y-130010560D01*
X93495140Y-130011733D01*
X93497522Y-130012456D01*
X93500000Y-130012700D01*
X96000000Y-130012700D01*
X96002478Y-130012456D01*
X96004860Y-130011733D01*
X96007056Y-130010560D01*
X96008980Y-130008980D01*
X96010560Y-130007056D01*
X96011733Y-130004860D01*
X96012456Y-130002478D01*
X96012700Y-130000000D01*
X96012700Y-125000000D01*
X96012456Y-124997522D01*
X96011733Y-124995140D01*
X96010560Y-124992944D01*
X96008980Y-124991020D01*
X96007056Y-124989440D01*
X96004860Y-124988267D01*
X96002478Y-124987544D01*
X96000000Y-124987300D01*
X93500000Y-124987300D01*
X93497522Y-124987544D01*
X93495140Y-124988267D01*
X93492944Y-124989440D01*
X93491020Y-124991020D01*
X93489440Y-124992944D01*
X93488267Y-124995140D01*
X93487544Y-124997522D01*
X93487300Y-125000000D01*
X93412700Y-125000000D01*
X93412700Y-124812700D01*
X96187300Y-124812700D01*
X96187300Y-130187300D01*
G36*
X126187300Y-125187300D02*
G01*
X123800000Y-125187300D01*
X123797522Y-125187544D01*
X123795140Y-125188267D01*
X123792944Y-125189440D01*
X123791020Y-125191020D01*
X123789440Y-125192944D01*
X123788267Y-125195140D01*
X123787544Y-125197522D01*
X123787300Y-125200000D01*
X123787300Y-127787300D01*
X121212523Y-127787300D01*
X121208655Y-127512700D01*
X123500000Y-127512700D01*
X123502478Y-127512456D01*
X123504860Y-127511733D01*
X123507056Y-127510560D01*
X123508980Y-127508980D01*
X123510560Y-127507056D01*
X123511733Y-127504860D01*
X123512456Y-127502478D01*
X123512700Y-127500000D01*
X123512700Y-125012700D01*
X126000000Y-125012700D01*
X126002478Y-125012456D01*
X126004860Y-125011733D01*
X126007056Y-125010560D01*
X126008980Y-125008980D01*
X126010560Y-125007056D01*
X126011733Y-125004860D01*
X126012456Y-125002478D01*
X126012700Y-125000000D01*
X126012700Y-117500000D01*
X126012456Y-117497522D01*
X126011733Y-117495140D01*
X126010560Y-117492944D01*
X126008980Y-117491020D01*
X126007056Y-117489440D01*
X126004860Y-117488267D01*
X126002478Y-117487544D01*
X126000000Y-117487300D01*
X123500000Y-117487300D01*
X123497522Y-117487544D01*
X123495140Y-117488267D01*
X123492944Y-117489440D01*
X123491020Y-117491020D01*
X123489440Y-117492944D01*
X123488267Y-117495140D01*
X123487544Y-117497522D01*
X123487300Y-117500000D01*
X123487300Y-119987300D01*
X121102664Y-119987300D01*
X121014815Y-113750000D01*
X122237300Y-113750000D01*
X122237300Y-116250000D01*
X122237544Y-116252478D01*
X122238267Y-116254860D01*
X122239440Y-116257056D01*
X122241020Y-116258980D01*
X122242944Y-116260560D01*
X122245140Y-116261733D01*
X122247522Y-116262456D01*
X122250000Y-116262700D01*
X124750000Y-116262700D01*
X124752478Y-116262456D01*
X124754860Y-116261733D01*
X124757056Y-116260560D01*
X124758980Y-116258980D01*
X124760560Y-116257056D01*
X124761733Y-116254860D01*
X124762456Y-116252478D01*
X124762700Y-116250000D01*
X124762700Y-113750000D01*
X124762456Y-113747522D01*
X124761733Y-113745140D01*
X124760560Y-113742944D01*
X124758980Y-113741020D01*
X124757056Y-113739440D01*
X124754860Y-113738267D01*
X124752478Y-113737544D01*
X124750000Y-113737300D01*
X122250000Y-113737300D01*
X122247522Y-113737544D01*
X122245140Y-113738267D01*
X122242944Y-113739440D01*
X122241020Y-113741020D01*
X122239440Y-113742944D01*
X122238267Y-113745140D01*
X122237544Y-113747522D01*
X122237300Y-113750000D01*
X121014815Y-113750000D01*
X121012700Y-113599892D01*
X121012700Y-113312700D01*
X126187300Y-113312700D01*
X126187300Y-125187300D01*
X126187300Y-125187300D01*
G37*
X126187300Y-125187300D02*
X123800000Y-125187300D01*
X123797522Y-125187544D01*
X123795140Y-125188267D01*
X123792944Y-125189440D01*
X123791020Y-125191020D01*
X123789440Y-125192944D01*
X123788267Y-125195140D01*
X123787544Y-125197522D01*
X123787300Y-125200000D01*
X123787300Y-127787300D01*
X121212523Y-127787300D01*
X121208655Y-127512700D01*
X123500000Y-127512700D01*
X123502478Y-127512456D01*
X123504860Y-127511733D01*
X123507056Y-127510560D01*
X123508980Y-127508980D01*
X123510560Y-127507056D01*
X123511733Y-127504860D01*
X123512456Y-127502478D01*
X123512700Y-127500000D01*
X123512700Y-125012700D01*
X126000000Y-125012700D01*
X126002478Y-125012456D01*
X126004860Y-125011733D01*
X126007056Y-125010560D01*
X126008980Y-125008980D01*
X126010560Y-125007056D01*
X126011733Y-125004860D01*
X126012456Y-125002478D01*
X126012700Y-125000000D01*
X126012700Y-117500000D01*
X126012456Y-117497522D01*
X126011733Y-117495140D01*
X126010560Y-117492944D01*
X126008980Y-117491020D01*
X126007056Y-117489440D01*
X126004860Y-117488267D01*
X126002478Y-117487544D01*
X126000000Y-117487300D01*
X123500000Y-117487300D01*
X123497522Y-117487544D01*
X123495140Y-117488267D01*
X123492944Y-117489440D01*
X123491020Y-117491020D01*
X123489440Y-117492944D01*
X123488267Y-117495140D01*
X123487544Y-117497522D01*
X123487300Y-117500000D01*
X123487300Y-119987300D01*
X121102664Y-119987300D01*
X121014815Y-113750000D01*
X122237300Y-113750000D01*
X122237300Y-116250000D01*
X122237544Y-116252478D01*
X122238267Y-116254860D01*
X122239440Y-116257056D01*
X122241020Y-116258980D01*
X122242944Y-116260560D01*
X122245140Y-116261733D01*
X122247522Y-116262456D01*
X122250000Y-116262700D01*
X124750000Y-116262700D01*
X124752478Y-116262456D01*
X124754860Y-116261733D01*
X124757056Y-116260560D01*
X124758980Y-116258980D01*
X124760560Y-116257056D01*
X124761733Y-116254860D01*
X124762456Y-116252478D01*
X124762700Y-116250000D01*
X124762700Y-113750000D01*
X124762456Y-113747522D01*
X124761733Y-113745140D01*
X124760560Y-113742944D01*
X124758980Y-113741020D01*
X124757056Y-113739440D01*
X124754860Y-113738267D01*
X124752478Y-113737544D01*
X124750000Y-113737300D01*
X122250000Y-113737300D01*
X122247522Y-113737544D01*
X122245140Y-113738267D01*
X122242944Y-113739440D01*
X122241020Y-113741020D01*
X122239440Y-113742944D01*
X122238267Y-113745140D01*
X122237544Y-113747522D01*
X122237300Y-113750000D01*
X121014815Y-113750000D01*
X121012700Y-113599892D01*
X121012700Y-113312700D01*
X126187300Y-113312700D01*
X126187300Y-125187300D01*
G36*
X113611885Y-108574977D02*
G01*
X113611885Y-109883223D01*
X113420700Y-109886899D01*
X113420700Y-109758698D01*
X113412700Y-109758698D01*
X113412700Y-109636525D01*
X113420700Y-109628525D01*
X113423219Y-109500000D01*
X113413165Y-109397925D01*
X113412700Y-109396392D01*
X113412700Y-108375792D01*
X113611885Y-108574977D01*
X113611885Y-108574977D01*
G37*
X113611885Y-108574977D02*
X113611885Y-109883223D01*
X113420700Y-109886899D01*
X113420700Y-109758698D01*
X113412700Y-109758698D01*
X113412700Y-109636525D01*
X113420700Y-109628525D01*
X113423219Y-109500000D01*
X113413165Y-109397925D01*
X113412700Y-109396392D01*
X113412700Y-108375792D01*
X113611885Y-108574977D01*
G36*
X116287300Y-107212700D02*
G01*
X118687300Y-107212700D01*
X118687300Y-109694740D01*
X118594640Y-109787400D01*
X118512700Y-109788976D01*
X118512700Y-107500000D01*
X118512456Y-107497522D01*
X118511733Y-107495140D01*
X118510560Y-107492944D01*
X118508980Y-107491020D01*
X118507056Y-107489440D01*
X118504860Y-107488267D01*
X118502478Y-107487544D01*
X118500000Y-107487300D01*
X116306797Y-107487300D01*
X116287300Y-107458055D01*
X116287300Y-107487300D01*
X116012700Y-107487300D01*
X116012700Y-107200000D01*
X116100000Y-107200000D01*
X116100000Y-107212700D01*
X116123730Y-107212700D01*
X116110567Y-107192955D01*
X116100000Y-107200000D01*
X116012700Y-107200000D01*
X116012700Y-105000000D01*
X116012456Y-104997522D01*
X116011733Y-104995140D01*
X116010560Y-104992944D01*
X116008980Y-104991020D01*
X116007056Y-104989440D01*
X116004860Y-104988267D01*
X116002478Y-104987544D01*
X116000000Y-104987300D01*
X113500000Y-104987300D01*
X113497522Y-104987544D01*
X113495140Y-104988267D01*
X113492944Y-104989440D01*
X113491020Y-104991020D01*
X113489440Y-104992944D01*
X113488267Y-104995140D01*
X113487544Y-104997522D01*
X113487300Y-105000000D01*
X113487300Y-107500000D01*
X113487544Y-107502478D01*
X113488267Y-107504860D01*
X113489440Y-107507056D01*
X113491020Y-107508980D01*
X113492944Y-107510560D01*
X113495140Y-107511733D01*
X113497522Y-107512456D01*
X113500000Y-107512700D01*
X115987300Y-107512700D01*
X115987300Y-109837541D01*
X114196084Y-109871988D01*
X114196084Y-108468330D01*
X114197497Y-108453984D01*
X114191857Y-108396722D01*
X114175155Y-108341661D01*
X114148031Y-108290917D01*
X114120674Y-108257582D01*
X114120673Y-108257581D01*
X114111529Y-108246439D01*
X114100387Y-108237295D01*
X113412700Y-107549608D01*
X113412700Y-104712700D01*
X116287300Y-104712700D01*
X116287300Y-107212700D01*
X116287300Y-107212700D01*
G37*
X116287300Y-107212700D02*
X118687300Y-107212700D01*
X118687300Y-109694740D01*
X118594640Y-109787400D01*
X118512700Y-109788976D01*
X118512700Y-107500000D01*
X118512456Y-107497522D01*
X118511733Y-107495140D01*
X118510560Y-107492944D01*
X118508980Y-107491020D01*
X118507056Y-107489440D01*
X118504860Y-107488267D01*
X118502478Y-107487544D01*
X118500000Y-107487300D01*
X116306797Y-107487300D01*
X116287300Y-107458055D01*
X116287300Y-107487300D01*
X116012700Y-107487300D01*
X116012700Y-107200000D01*
X116100000Y-107200000D01*
X116100000Y-107212700D01*
X116123730Y-107212700D01*
X116110567Y-107192955D01*
X116100000Y-107200000D01*
X116012700Y-107200000D01*
X116012700Y-105000000D01*
X116012456Y-104997522D01*
X116011733Y-104995140D01*
X116010560Y-104992944D01*
X116008980Y-104991020D01*
X116007056Y-104989440D01*
X116004860Y-104988267D01*
X116002478Y-104987544D01*
X116000000Y-104987300D01*
X113500000Y-104987300D01*
X113497522Y-104987544D01*
X113495140Y-104988267D01*
X113492944Y-104989440D01*
X113491020Y-104991020D01*
X113489440Y-104992944D01*
X113488267Y-104995140D01*
X113487544Y-104997522D01*
X113487300Y-105000000D01*
X113487300Y-107500000D01*
X113487544Y-107502478D01*
X113488267Y-107504860D01*
X113489440Y-107507056D01*
X113491020Y-107508980D01*
X113492944Y-107510560D01*
X113495140Y-107511733D01*
X113497522Y-107512456D01*
X113500000Y-107512700D01*
X115987300Y-107512700D01*
X115987300Y-109837541D01*
X114196084Y-109871988D01*
X114196084Y-108468330D01*
X114197497Y-108453984D01*
X114191857Y-108396722D01*
X114175155Y-108341661D01*
X114148031Y-108290917D01*
X114120674Y-108257582D01*
X114120673Y-108257581D01*
X114111529Y-108246439D01*
X114100387Y-108237295D01*
X113412700Y-107549608D01*
X113412700Y-104712700D01*
X116287300Y-104712700D01*
X116287300Y-107212700D01*
G36*
X94887300Y-107487300D02*
G01*
X93500000Y-107487300D01*
X93497522Y-107487544D01*
X93495140Y-107488267D01*
X93492944Y-107489440D01*
X93491020Y-107491020D01*
X93489440Y-107492944D01*
X93488267Y-107495140D01*
X93487544Y-107497522D01*
X93487300Y-107500000D01*
X93487300Y-110000000D01*
X93487544Y-110002478D01*
X93488267Y-110004860D01*
X93489440Y-110007056D01*
X93491020Y-110008980D01*
X93492944Y-110010560D01*
X93495140Y-110011733D01*
X93497522Y-110012456D01*
X93500000Y-110012700D01*
X94887300Y-110012700D01*
X94887300Y-110287300D01*
X93212700Y-110287300D01*
X93212700Y-107212700D01*
X94887300Y-107212700D01*
X94887300Y-107487300D01*
X94887300Y-107487300D01*
G37*
X94887300Y-107487300D02*
X93500000Y-107487300D01*
X93497522Y-107487544D01*
X93495140Y-107488267D01*
X93492944Y-107489440D01*
X93491020Y-107491020D01*
X93489440Y-107492944D01*
X93488267Y-107495140D01*
X93487544Y-107497522D01*
X93487300Y-107500000D01*
X93487300Y-110000000D01*
X93487544Y-110002478D01*
X93488267Y-110004860D01*
X93489440Y-110007056D01*
X93491020Y-110008980D01*
X93492944Y-110010560D01*
X93495140Y-110011733D01*
X93497522Y-110012456D01*
X93500000Y-110012700D01*
X94887300Y-110012700D01*
X94887300Y-110287300D01*
X93212700Y-110287300D01*
X93212700Y-107212700D01*
X94887300Y-107212700D01*
X94887300Y-107487300D01*
M02*
