G04 #@! TF.GenerationSoftware,KiCad,Pcbnew,5.1.2*
G04 #@! TF.CreationDate,2019-06-30T01:50:48-07:00*
G04 #@! TF.ProjectId,Mario_SAO,4d617269-6f5f-4534-914f-2e6b69636164,rev?*
G04 #@! TF.SameCoordinates,Original*
G04 #@! TF.FileFunction,Paste,Bot*
G04 #@! TF.FilePolarity,Positive*
%FSLAX46Y46*%
G04 Gerber Fmt 4.6, Leading zero omitted, Abs format (unit mm)*
G04 Created by KiCad (PCBNEW 5.1.2) date 2019-06-30 01:50:48*
%MOMM*%
%LPD*%
G04 APERTURE LIST*
%ADD10C,0.100000*%
%ADD11C,0.600000*%
%ADD12C,0.900000*%
%ADD13C,1.150000*%
G04 APERTURE END LIST*
D10*
G36*
X95095881Y-122750289D02*
G01*
X95101705Y-122751153D01*
X95107417Y-122752584D01*
X95112961Y-122754567D01*
X95118284Y-122757085D01*
X95123334Y-122760112D01*
X95128064Y-122763619D01*
X95132426Y-122767574D01*
X95136381Y-122771936D01*
X95139888Y-122776666D01*
X95142915Y-122781716D01*
X95145433Y-122787039D01*
X95147416Y-122792583D01*
X95148847Y-122798295D01*
X95149711Y-122804119D01*
X95150000Y-122810000D01*
X95150000Y-123290000D01*
X95149711Y-123295881D01*
X95148847Y-123301705D01*
X95147416Y-123307417D01*
X95145433Y-123312961D01*
X95142915Y-123318284D01*
X95139888Y-123323334D01*
X95136381Y-123328064D01*
X95132426Y-123332426D01*
X95128064Y-123336381D01*
X95123334Y-123339888D01*
X95118284Y-123342915D01*
X95112961Y-123345433D01*
X95107417Y-123347416D01*
X95101705Y-123348847D01*
X95095881Y-123349711D01*
X95090000Y-123350000D01*
X94410000Y-123350000D01*
X94404119Y-123349711D01*
X94398295Y-123348847D01*
X94392583Y-123347416D01*
X94387039Y-123345433D01*
X94381716Y-123342915D01*
X94376666Y-123339888D01*
X94371936Y-123336381D01*
X94367574Y-123332426D01*
X94363619Y-123328064D01*
X94360112Y-123323334D01*
X94357085Y-123318284D01*
X94354567Y-123312961D01*
X94352584Y-123307417D01*
X94351153Y-123301705D01*
X94350289Y-123295881D01*
X94350000Y-123290000D01*
X94350000Y-122810000D01*
X94350289Y-122804119D01*
X94351153Y-122798295D01*
X94352584Y-122792583D01*
X94354567Y-122787039D01*
X94357085Y-122781716D01*
X94360112Y-122776666D01*
X94363619Y-122771936D01*
X94367574Y-122767574D01*
X94371936Y-122763619D01*
X94376666Y-122760112D01*
X94381716Y-122757085D01*
X94387039Y-122754567D01*
X94392583Y-122752584D01*
X94398295Y-122751153D01*
X94404119Y-122750289D01*
X94410000Y-122750000D01*
X95090000Y-122750000D01*
X95095881Y-122750289D01*
X95095881Y-122750289D01*
G37*
D11*
X94750000Y-123050000D03*
D10*
G36*
X96668822Y-122750433D02*
G01*
X96677558Y-122751729D01*
X96686126Y-122753875D01*
X96694442Y-122756851D01*
X96702426Y-122760627D01*
X96710001Y-122765168D01*
X96717095Y-122770429D01*
X96723640Y-122776360D01*
X96729571Y-122782905D01*
X96734832Y-122789999D01*
X96739373Y-122797574D01*
X96743149Y-122805558D01*
X96746125Y-122813874D01*
X96748271Y-122822442D01*
X96749567Y-122831178D01*
X96750000Y-122840000D01*
X96750000Y-123560000D01*
X96749567Y-123568822D01*
X96748271Y-123577558D01*
X96746125Y-123586126D01*
X96743149Y-123594442D01*
X96739373Y-123602426D01*
X96734832Y-123610001D01*
X96729571Y-123617095D01*
X96723640Y-123623640D01*
X96717095Y-123629571D01*
X96710001Y-123634832D01*
X96702426Y-123639373D01*
X96694442Y-123643149D01*
X96686126Y-123646125D01*
X96677558Y-123648271D01*
X96668822Y-123649567D01*
X96660000Y-123650000D01*
X95840000Y-123650000D01*
X95831178Y-123649567D01*
X95822442Y-123648271D01*
X95813874Y-123646125D01*
X95805558Y-123643149D01*
X95797574Y-123639373D01*
X95789999Y-123634832D01*
X95782905Y-123629571D01*
X95776360Y-123623640D01*
X95770429Y-123617095D01*
X95765168Y-123610001D01*
X95760627Y-123602426D01*
X95756851Y-123594442D01*
X95753875Y-123586126D01*
X95751729Y-123577558D01*
X95750433Y-123568822D01*
X95750000Y-123560000D01*
X95750000Y-122840000D01*
X95750433Y-122831178D01*
X95751729Y-122822442D01*
X95753875Y-122813874D01*
X95756851Y-122805558D01*
X95760627Y-122797574D01*
X95765168Y-122789999D01*
X95770429Y-122782905D01*
X95776360Y-122776360D01*
X95782905Y-122770429D01*
X95789999Y-122765168D01*
X95797574Y-122760627D01*
X95805558Y-122756851D01*
X95813874Y-122753875D01*
X95822442Y-122751729D01*
X95831178Y-122750433D01*
X95840000Y-122750000D01*
X96660000Y-122750000D01*
X96668822Y-122750433D01*
X96668822Y-122750433D01*
G37*
D12*
X96250000Y-123200000D03*
D10*
G36*
X93668822Y-122750433D02*
G01*
X93677558Y-122751729D01*
X93686126Y-122753875D01*
X93694442Y-122756851D01*
X93702426Y-122760627D01*
X93710001Y-122765168D01*
X93717095Y-122770429D01*
X93723640Y-122776360D01*
X93729571Y-122782905D01*
X93734832Y-122789999D01*
X93739373Y-122797574D01*
X93743149Y-122805558D01*
X93746125Y-122813874D01*
X93748271Y-122822442D01*
X93749567Y-122831178D01*
X93750000Y-122840000D01*
X93750000Y-123560000D01*
X93749567Y-123568822D01*
X93748271Y-123577558D01*
X93746125Y-123586126D01*
X93743149Y-123594442D01*
X93739373Y-123602426D01*
X93734832Y-123610001D01*
X93729571Y-123617095D01*
X93723640Y-123623640D01*
X93717095Y-123629571D01*
X93710001Y-123634832D01*
X93702426Y-123639373D01*
X93694442Y-123643149D01*
X93686126Y-123646125D01*
X93677558Y-123648271D01*
X93668822Y-123649567D01*
X93660000Y-123650000D01*
X92840000Y-123650000D01*
X92831178Y-123649567D01*
X92822442Y-123648271D01*
X92813874Y-123646125D01*
X92805558Y-123643149D01*
X92797574Y-123639373D01*
X92789999Y-123634832D01*
X92782905Y-123629571D01*
X92776360Y-123623640D01*
X92770429Y-123617095D01*
X92765168Y-123610001D01*
X92760627Y-123602426D01*
X92756851Y-123594442D01*
X92753875Y-123586126D01*
X92751729Y-123577558D01*
X92750433Y-123568822D01*
X92750000Y-123560000D01*
X92750000Y-122840000D01*
X92750433Y-122831178D01*
X92751729Y-122822442D01*
X92753875Y-122813874D01*
X92756851Y-122805558D01*
X92760627Y-122797574D01*
X92765168Y-122789999D01*
X92770429Y-122782905D01*
X92776360Y-122776360D01*
X92782905Y-122770429D01*
X92789999Y-122765168D01*
X92797574Y-122760627D01*
X92805558Y-122756851D01*
X92813874Y-122753875D01*
X92822442Y-122751729D01*
X92831178Y-122750433D01*
X92840000Y-122750000D01*
X93660000Y-122750000D01*
X93668822Y-122750433D01*
X93668822Y-122750433D01*
G37*
D12*
X93250000Y-123200000D03*
D10*
G36*
X101040193Y-105840656D02*
G01*
X101048929Y-105841952D01*
X101057497Y-105844098D01*
X101065813Y-105847074D01*
X101073797Y-105850850D01*
X101081372Y-105855391D01*
X101088466Y-105860652D01*
X101095011Y-105866583D01*
X101604128Y-106375700D01*
X101610059Y-106382245D01*
X101615320Y-106389339D01*
X101619861Y-106396914D01*
X101623637Y-106404898D01*
X101626613Y-106413214D01*
X101628759Y-106421782D01*
X101630055Y-106430518D01*
X101630488Y-106439340D01*
X101630055Y-106448162D01*
X101628759Y-106456898D01*
X101626613Y-106465466D01*
X101623637Y-106473782D01*
X101619861Y-106481766D01*
X101615320Y-106489341D01*
X101610059Y-106496435D01*
X101604128Y-106502980D01*
X101024301Y-107082807D01*
X101017756Y-107088738D01*
X101010662Y-107093999D01*
X101003087Y-107098540D01*
X100995103Y-107102316D01*
X100986787Y-107105292D01*
X100978219Y-107107438D01*
X100969483Y-107108734D01*
X100960661Y-107109167D01*
X100951839Y-107108734D01*
X100943103Y-107107438D01*
X100934535Y-107105292D01*
X100926219Y-107102316D01*
X100918235Y-107098540D01*
X100910660Y-107093999D01*
X100903566Y-107088738D01*
X100897021Y-107082807D01*
X100387904Y-106573690D01*
X100381973Y-106567145D01*
X100376712Y-106560051D01*
X100372171Y-106552476D01*
X100368395Y-106544492D01*
X100365419Y-106536176D01*
X100363273Y-106527608D01*
X100361977Y-106518872D01*
X100361544Y-106510050D01*
X100361977Y-106501228D01*
X100363273Y-106492492D01*
X100365419Y-106483924D01*
X100368395Y-106475608D01*
X100372171Y-106467624D01*
X100376712Y-106460049D01*
X100381973Y-106452955D01*
X100387904Y-106446410D01*
X100967731Y-105866583D01*
X100974276Y-105860652D01*
X100981370Y-105855391D01*
X100988945Y-105850850D01*
X100996929Y-105847074D01*
X101005245Y-105844098D01*
X101013813Y-105841952D01*
X101022549Y-105840656D01*
X101031371Y-105840223D01*
X101040193Y-105840656D01*
X101040193Y-105840656D01*
G37*
D12*
X100996016Y-106474695D03*
D10*
G36*
X98918872Y-107961977D02*
G01*
X98927608Y-107963273D01*
X98936176Y-107965419D01*
X98944492Y-107968395D01*
X98952476Y-107972171D01*
X98960051Y-107976712D01*
X98967145Y-107981973D01*
X98973690Y-107987904D01*
X99482807Y-108497021D01*
X99488738Y-108503566D01*
X99493999Y-108510660D01*
X99498540Y-108518235D01*
X99502316Y-108526219D01*
X99505292Y-108534535D01*
X99507438Y-108543103D01*
X99508734Y-108551839D01*
X99509167Y-108560661D01*
X99508734Y-108569483D01*
X99507438Y-108578219D01*
X99505292Y-108586787D01*
X99502316Y-108595103D01*
X99498540Y-108603087D01*
X99493999Y-108610662D01*
X99488738Y-108617756D01*
X99482807Y-108624301D01*
X98902980Y-109204128D01*
X98896435Y-109210059D01*
X98889341Y-109215320D01*
X98881766Y-109219861D01*
X98873782Y-109223637D01*
X98865466Y-109226613D01*
X98856898Y-109228759D01*
X98848162Y-109230055D01*
X98839340Y-109230488D01*
X98830518Y-109230055D01*
X98821782Y-109228759D01*
X98813214Y-109226613D01*
X98804898Y-109223637D01*
X98796914Y-109219861D01*
X98789339Y-109215320D01*
X98782245Y-109210059D01*
X98775700Y-109204128D01*
X98266583Y-108695011D01*
X98260652Y-108688466D01*
X98255391Y-108681372D01*
X98250850Y-108673797D01*
X98247074Y-108665813D01*
X98244098Y-108657497D01*
X98241952Y-108648929D01*
X98240656Y-108640193D01*
X98240223Y-108631371D01*
X98240656Y-108622549D01*
X98241952Y-108613813D01*
X98244098Y-108605245D01*
X98247074Y-108596929D01*
X98250850Y-108588945D01*
X98255391Y-108581370D01*
X98260652Y-108574276D01*
X98266583Y-108567731D01*
X98846410Y-107987904D01*
X98852955Y-107981973D01*
X98860049Y-107976712D01*
X98867624Y-107972171D01*
X98875608Y-107968395D01*
X98883924Y-107965419D01*
X98892492Y-107963273D01*
X98901228Y-107961977D01*
X98910050Y-107961544D01*
X98918872Y-107961977D01*
X98918872Y-107961977D01*
G37*
D12*
X98874695Y-108596016D03*
D10*
G36*
X100118013Y-107171588D02*
G01*
X100123837Y-107172452D01*
X100129549Y-107173883D01*
X100135093Y-107175866D01*
X100140416Y-107178384D01*
X100145466Y-107181411D01*
X100150196Y-107184918D01*
X100154558Y-107188873D01*
X100493969Y-107528284D01*
X100497924Y-107532646D01*
X100501431Y-107537376D01*
X100504458Y-107542426D01*
X100506976Y-107547749D01*
X100508959Y-107553293D01*
X100510390Y-107559005D01*
X100511254Y-107564829D01*
X100511543Y-107570710D01*
X100511254Y-107576591D01*
X100510390Y-107582415D01*
X100508959Y-107588127D01*
X100506976Y-107593671D01*
X100504458Y-107598994D01*
X100501431Y-107604044D01*
X100497924Y-107608774D01*
X100493969Y-107613136D01*
X100013136Y-108093969D01*
X100008774Y-108097924D01*
X100004044Y-108101431D01*
X99998994Y-108104458D01*
X99993671Y-108106976D01*
X99988127Y-108108959D01*
X99982415Y-108110390D01*
X99976591Y-108111254D01*
X99970710Y-108111543D01*
X99964829Y-108111254D01*
X99959005Y-108110390D01*
X99953293Y-108108959D01*
X99947749Y-108106976D01*
X99942426Y-108104458D01*
X99937376Y-108101431D01*
X99932646Y-108097924D01*
X99928284Y-108093969D01*
X99588873Y-107754558D01*
X99584918Y-107750196D01*
X99581411Y-107745466D01*
X99578384Y-107740416D01*
X99575866Y-107735093D01*
X99573883Y-107729549D01*
X99572452Y-107723837D01*
X99571588Y-107718013D01*
X99571299Y-107712132D01*
X99571588Y-107706251D01*
X99572452Y-107700427D01*
X99573883Y-107694715D01*
X99575866Y-107689171D01*
X99578384Y-107683848D01*
X99581411Y-107678798D01*
X99584918Y-107674068D01*
X99588873Y-107669706D01*
X100069706Y-107188873D01*
X100074068Y-107184918D01*
X100078798Y-107181411D01*
X100083848Y-107178384D01*
X100089171Y-107175866D01*
X100094715Y-107173883D01*
X100100427Y-107172452D01*
X100106251Y-107171588D01*
X100112132Y-107171299D01*
X100118013Y-107171588D01*
X100118013Y-107171588D01*
G37*
D11*
X100041421Y-107641421D03*
D10*
G36*
X119545881Y-121850289D02*
G01*
X119551705Y-121851153D01*
X119557417Y-121852584D01*
X119562961Y-121854567D01*
X119568284Y-121857085D01*
X119573334Y-121860112D01*
X119578064Y-121863619D01*
X119582426Y-121867574D01*
X119586381Y-121871936D01*
X119589888Y-121876666D01*
X119592915Y-121881716D01*
X119595433Y-121887039D01*
X119597416Y-121892583D01*
X119598847Y-121898295D01*
X119599711Y-121904119D01*
X119600000Y-121910000D01*
X119600000Y-122590000D01*
X119599711Y-122595881D01*
X119598847Y-122601705D01*
X119597416Y-122607417D01*
X119595433Y-122612961D01*
X119592915Y-122618284D01*
X119589888Y-122623334D01*
X119586381Y-122628064D01*
X119582426Y-122632426D01*
X119578064Y-122636381D01*
X119573334Y-122639888D01*
X119568284Y-122642915D01*
X119562961Y-122645433D01*
X119557417Y-122647416D01*
X119551705Y-122648847D01*
X119545881Y-122649711D01*
X119540000Y-122650000D01*
X119060000Y-122650000D01*
X119054119Y-122649711D01*
X119048295Y-122648847D01*
X119042583Y-122647416D01*
X119037039Y-122645433D01*
X119031716Y-122642915D01*
X119026666Y-122639888D01*
X119021936Y-122636381D01*
X119017574Y-122632426D01*
X119013619Y-122628064D01*
X119010112Y-122623334D01*
X119007085Y-122618284D01*
X119004567Y-122612961D01*
X119002584Y-122607417D01*
X119001153Y-122601705D01*
X119000289Y-122595881D01*
X119000000Y-122590000D01*
X119000000Y-121910000D01*
X119000289Y-121904119D01*
X119001153Y-121898295D01*
X119002584Y-121892583D01*
X119004567Y-121887039D01*
X119007085Y-121881716D01*
X119010112Y-121876666D01*
X119013619Y-121871936D01*
X119017574Y-121867574D01*
X119021936Y-121863619D01*
X119026666Y-121860112D01*
X119031716Y-121857085D01*
X119037039Y-121854567D01*
X119042583Y-121852584D01*
X119048295Y-121851153D01*
X119054119Y-121850289D01*
X119060000Y-121850000D01*
X119540000Y-121850000D01*
X119545881Y-121850289D01*
X119545881Y-121850289D01*
G37*
D11*
X119300000Y-122250000D03*
D10*
G36*
X119818822Y-120250433D02*
G01*
X119827558Y-120251729D01*
X119836126Y-120253875D01*
X119844442Y-120256851D01*
X119852426Y-120260627D01*
X119860001Y-120265168D01*
X119867095Y-120270429D01*
X119873640Y-120276360D01*
X119879571Y-120282905D01*
X119884832Y-120289999D01*
X119889373Y-120297574D01*
X119893149Y-120305558D01*
X119896125Y-120313874D01*
X119898271Y-120322442D01*
X119899567Y-120331178D01*
X119900000Y-120340000D01*
X119900000Y-121160000D01*
X119899567Y-121168822D01*
X119898271Y-121177558D01*
X119896125Y-121186126D01*
X119893149Y-121194442D01*
X119889373Y-121202426D01*
X119884832Y-121210001D01*
X119879571Y-121217095D01*
X119873640Y-121223640D01*
X119867095Y-121229571D01*
X119860001Y-121234832D01*
X119852426Y-121239373D01*
X119844442Y-121243149D01*
X119836126Y-121246125D01*
X119827558Y-121248271D01*
X119818822Y-121249567D01*
X119810000Y-121250000D01*
X119090000Y-121250000D01*
X119081178Y-121249567D01*
X119072442Y-121248271D01*
X119063874Y-121246125D01*
X119055558Y-121243149D01*
X119047574Y-121239373D01*
X119039999Y-121234832D01*
X119032905Y-121229571D01*
X119026360Y-121223640D01*
X119020429Y-121217095D01*
X119015168Y-121210001D01*
X119010627Y-121202426D01*
X119006851Y-121194442D01*
X119003875Y-121186126D01*
X119001729Y-121177558D01*
X119000433Y-121168822D01*
X119000000Y-121160000D01*
X119000000Y-120340000D01*
X119000433Y-120331178D01*
X119001729Y-120322442D01*
X119003875Y-120313874D01*
X119006851Y-120305558D01*
X119010627Y-120297574D01*
X119015168Y-120289999D01*
X119020429Y-120282905D01*
X119026360Y-120276360D01*
X119032905Y-120270429D01*
X119039999Y-120265168D01*
X119047574Y-120260627D01*
X119055558Y-120256851D01*
X119063874Y-120253875D01*
X119072442Y-120251729D01*
X119081178Y-120250433D01*
X119090000Y-120250000D01*
X119810000Y-120250000D01*
X119818822Y-120250433D01*
X119818822Y-120250433D01*
G37*
D12*
X119450000Y-120750000D03*
D10*
G36*
X119818822Y-123250433D02*
G01*
X119827558Y-123251729D01*
X119836126Y-123253875D01*
X119844442Y-123256851D01*
X119852426Y-123260627D01*
X119860001Y-123265168D01*
X119867095Y-123270429D01*
X119873640Y-123276360D01*
X119879571Y-123282905D01*
X119884832Y-123289999D01*
X119889373Y-123297574D01*
X119893149Y-123305558D01*
X119896125Y-123313874D01*
X119898271Y-123322442D01*
X119899567Y-123331178D01*
X119900000Y-123340000D01*
X119900000Y-124160000D01*
X119899567Y-124168822D01*
X119898271Y-124177558D01*
X119896125Y-124186126D01*
X119893149Y-124194442D01*
X119889373Y-124202426D01*
X119884832Y-124210001D01*
X119879571Y-124217095D01*
X119873640Y-124223640D01*
X119867095Y-124229571D01*
X119860001Y-124234832D01*
X119852426Y-124239373D01*
X119844442Y-124243149D01*
X119836126Y-124246125D01*
X119827558Y-124248271D01*
X119818822Y-124249567D01*
X119810000Y-124250000D01*
X119090000Y-124250000D01*
X119081178Y-124249567D01*
X119072442Y-124248271D01*
X119063874Y-124246125D01*
X119055558Y-124243149D01*
X119047574Y-124239373D01*
X119039999Y-124234832D01*
X119032905Y-124229571D01*
X119026360Y-124223640D01*
X119020429Y-124217095D01*
X119015168Y-124210001D01*
X119010627Y-124202426D01*
X119006851Y-124194442D01*
X119003875Y-124186126D01*
X119001729Y-124177558D01*
X119000433Y-124168822D01*
X119000000Y-124160000D01*
X119000000Y-123340000D01*
X119000433Y-123331178D01*
X119001729Y-123322442D01*
X119003875Y-123313874D01*
X119006851Y-123305558D01*
X119010627Y-123297574D01*
X119015168Y-123289999D01*
X119020429Y-123282905D01*
X119026360Y-123276360D01*
X119032905Y-123270429D01*
X119039999Y-123265168D01*
X119047574Y-123260627D01*
X119055558Y-123256851D01*
X119063874Y-123253875D01*
X119072442Y-123251729D01*
X119081178Y-123250433D01*
X119090000Y-123250000D01*
X119810000Y-123250000D01*
X119818822Y-123250433D01*
X119818822Y-123250433D01*
G37*
D12*
X119450000Y-123750000D03*
D10*
G36*
X112818822Y-109500433D02*
G01*
X112827558Y-109501729D01*
X112836126Y-109503875D01*
X112844442Y-109506851D01*
X112852426Y-109510627D01*
X112860001Y-109515168D01*
X112867095Y-109520429D01*
X112873640Y-109526360D01*
X112879571Y-109532905D01*
X112884832Y-109539999D01*
X112889373Y-109547574D01*
X112893149Y-109555558D01*
X112896125Y-109563874D01*
X112898271Y-109572442D01*
X112899567Y-109581178D01*
X112900000Y-109590000D01*
X112900000Y-110410000D01*
X112899567Y-110418822D01*
X112898271Y-110427558D01*
X112896125Y-110436126D01*
X112893149Y-110444442D01*
X112889373Y-110452426D01*
X112884832Y-110460001D01*
X112879571Y-110467095D01*
X112873640Y-110473640D01*
X112867095Y-110479571D01*
X112860001Y-110484832D01*
X112852426Y-110489373D01*
X112844442Y-110493149D01*
X112836126Y-110496125D01*
X112827558Y-110498271D01*
X112818822Y-110499567D01*
X112810000Y-110500000D01*
X112090000Y-110500000D01*
X112081178Y-110499567D01*
X112072442Y-110498271D01*
X112063874Y-110496125D01*
X112055558Y-110493149D01*
X112047574Y-110489373D01*
X112039999Y-110484832D01*
X112032905Y-110479571D01*
X112026360Y-110473640D01*
X112020429Y-110467095D01*
X112015168Y-110460001D01*
X112010627Y-110452426D01*
X112006851Y-110444442D01*
X112003875Y-110436126D01*
X112001729Y-110427558D01*
X112000433Y-110418822D01*
X112000000Y-110410000D01*
X112000000Y-109590000D01*
X112000433Y-109581178D01*
X112001729Y-109572442D01*
X112003875Y-109563874D01*
X112006851Y-109555558D01*
X112010627Y-109547574D01*
X112015168Y-109539999D01*
X112020429Y-109532905D01*
X112026360Y-109526360D01*
X112032905Y-109520429D01*
X112039999Y-109515168D01*
X112047574Y-109510627D01*
X112055558Y-109506851D01*
X112063874Y-109503875D01*
X112072442Y-109501729D01*
X112081178Y-109500433D01*
X112090000Y-109500000D01*
X112810000Y-109500000D01*
X112818822Y-109500433D01*
X112818822Y-109500433D01*
G37*
D12*
X112450000Y-110000000D03*
D10*
G36*
X112818822Y-106500433D02*
G01*
X112827558Y-106501729D01*
X112836126Y-106503875D01*
X112844442Y-106506851D01*
X112852426Y-106510627D01*
X112860001Y-106515168D01*
X112867095Y-106520429D01*
X112873640Y-106526360D01*
X112879571Y-106532905D01*
X112884832Y-106539999D01*
X112889373Y-106547574D01*
X112893149Y-106555558D01*
X112896125Y-106563874D01*
X112898271Y-106572442D01*
X112899567Y-106581178D01*
X112900000Y-106590000D01*
X112900000Y-107410000D01*
X112899567Y-107418822D01*
X112898271Y-107427558D01*
X112896125Y-107436126D01*
X112893149Y-107444442D01*
X112889373Y-107452426D01*
X112884832Y-107460001D01*
X112879571Y-107467095D01*
X112873640Y-107473640D01*
X112867095Y-107479571D01*
X112860001Y-107484832D01*
X112852426Y-107489373D01*
X112844442Y-107493149D01*
X112836126Y-107496125D01*
X112827558Y-107498271D01*
X112818822Y-107499567D01*
X112810000Y-107500000D01*
X112090000Y-107500000D01*
X112081178Y-107499567D01*
X112072442Y-107498271D01*
X112063874Y-107496125D01*
X112055558Y-107493149D01*
X112047574Y-107489373D01*
X112039999Y-107484832D01*
X112032905Y-107479571D01*
X112026360Y-107473640D01*
X112020429Y-107467095D01*
X112015168Y-107460001D01*
X112010627Y-107452426D01*
X112006851Y-107444442D01*
X112003875Y-107436126D01*
X112001729Y-107427558D01*
X112000433Y-107418822D01*
X112000000Y-107410000D01*
X112000000Y-106590000D01*
X112000433Y-106581178D01*
X112001729Y-106572442D01*
X112003875Y-106563874D01*
X112006851Y-106555558D01*
X112010627Y-106547574D01*
X112015168Y-106539999D01*
X112020429Y-106532905D01*
X112026360Y-106526360D01*
X112032905Y-106520429D01*
X112039999Y-106515168D01*
X112047574Y-106510627D01*
X112055558Y-106506851D01*
X112063874Y-106503875D01*
X112072442Y-106501729D01*
X112081178Y-106500433D01*
X112090000Y-106500000D01*
X112810000Y-106500000D01*
X112818822Y-106500433D01*
X112818822Y-106500433D01*
G37*
D12*
X112450000Y-107000000D03*
D10*
G36*
X112545881Y-108100289D02*
G01*
X112551705Y-108101153D01*
X112557417Y-108102584D01*
X112562961Y-108104567D01*
X112568284Y-108107085D01*
X112573334Y-108110112D01*
X112578064Y-108113619D01*
X112582426Y-108117574D01*
X112586381Y-108121936D01*
X112589888Y-108126666D01*
X112592915Y-108131716D01*
X112595433Y-108137039D01*
X112597416Y-108142583D01*
X112598847Y-108148295D01*
X112599711Y-108154119D01*
X112600000Y-108160000D01*
X112600000Y-108840000D01*
X112599711Y-108845881D01*
X112598847Y-108851705D01*
X112597416Y-108857417D01*
X112595433Y-108862961D01*
X112592915Y-108868284D01*
X112589888Y-108873334D01*
X112586381Y-108878064D01*
X112582426Y-108882426D01*
X112578064Y-108886381D01*
X112573334Y-108889888D01*
X112568284Y-108892915D01*
X112562961Y-108895433D01*
X112557417Y-108897416D01*
X112551705Y-108898847D01*
X112545881Y-108899711D01*
X112540000Y-108900000D01*
X112060000Y-108900000D01*
X112054119Y-108899711D01*
X112048295Y-108898847D01*
X112042583Y-108897416D01*
X112037039Y-108895433D01*
X112031716Y-108892915D01*
X112026666Y-108889888D01*
X112021936Y-108886381D01*
X112017574Y-108882426D01*
X112013619Y-108878064D01*
X112010112Y-108873334D01*
X112007085Y-108868284D01*
X112004567Y-108862961D01*
X112002584Y-108857417D01*
X112001153Y-108851705D01*
X112000289Y-108845881D01*
X112000000Y-108840000D01*
X112000000Y-108160000D01*
X112000289Y-108154119D01*
X112001153Y-108148295D01*
X112002584Y-108142583D01*
X112004567Y-108137039D01*
X112007085Y-108131716D01*
X112010112Y-108126666D01*
X112013619Y-108121936D01*
X112017574Y-108117574D01*
X112021936Y-108113619D01*
X112026666Y-108110112D01*
X112031716Y-108107085D01*
X112037039Y-108104567D01*
X112042583Y-108102584D01*
X112048295Y-108101153D01*
X112054119Y-108100289D01*
X112060000Y-108100000D01*
X112540000Y-108100000D01*
X112545881Y-108100289D01*
X112545881Y-108100289D01*
G37*
D11*
X112300000Y-108500000D03*
D10*
G36*
X97224505Y-117151204D02*
G01*
X97248773Y-117154804D01*
X97272572Y-117160765D01*
X97295671Y-117169030D01*
X97317850Y-117179520D01*
X97338893Y-117192132D01*
X97358599Y-117206747D01*
X97376777Y-117223223D01*
X97393253Y-117241401D01*
X97407868Y-117261107D01*
X97420480Y-117282150D01*
X97430970Y-117304329D01*
X97439235Y-117327428D01*
X97445196Y-117351227D01*
X97448796Y-117375495D01*
X97450000Y-117399999D01*
X97450000Y-118050001D01*
X97448796Y-118074505D01*
X97445196Y-118098773D01*
X97439235Y-118122572D01*
X97430970Y-118145671D01*
X97420480Y-118167850D01*
X97407868Y-118188893D01*
X97393253Y-118208599D01*
X97376777Y-118226777D01*
X97358599Y-118243253D01*
X97338893Y-118257868D01*
X97317850Y-118270480D01*
X97295671Y-118280970D01*
X97272572Y-118289235D01*
X97248773Y-118295196D01*
X97224505Y-118298796D01*
X97200001Y-118300000D01*
X96299999Y-118300000D01*
X96275495Y-118298796D01*
X96251227Y-118295196D01*
X96227428Y-118289235D01*
X96204329Y-118280970D01*
X96182150Y-118270480D01*
X96161107Y-118257868D01*
X96141401Y-118243253D01*
X96123223Y-118226777D01*
X96106747Y-118208599D01*
X96092132Y-118188893D01*
X96079520Y-118167850D01*
X96069030Y-118145671D01*
X96060765Y-118122572D01*
X96054804Y-118098773D01*
X96051204Y-118074505D01*
X96050000Y-118050001D01*
X96050000Y-117399999D01*
X96051204Y-117375495D01*
X96054804Y-117351227D01*
X96060765Y-117327428D01*
X96069030Y-117304329D01*
X96079520Y-117282150D01*
X96092132Y-117261107D01*
X96106747Y-117241401D01*
X96123223Y-117223223D01*
X96141401Y-117206747D01*
X96161107Y-117192132D01*
X96182150Y-117179520D01*
X96204329Y-117169030D01*
X96227428Y-117160765D01*
X96251227Y-117154804D01*
X96275495Y-117151204D01*
X96299999Y-117150000D01*
X97200001Y-117150000D01*
X97224505Y-117151204D01*
X97224505Y-117151204D01*
G37*
D13*
X96750000Y-117725000D03*
D10*
G36*
X97224505Y-119201204D02*
G01*
X97248773Y-119204804D01*
X97272572Y-119210765D01*
X97295671Y-119219030D01*
X97317850Y-119229520D01*
X97338893Y-119242132D01*
X97358599Y-119256747D01*
X97376777Y-119273223D01*
X97393253Y-119291401D01*
X97407868Y-119311107D01*
X97420480Y-119332150D01*
X97430970Y-119354329D01*
X97439235Y-119377428D01*
X97445196Y-119401227D01*
X97448796Y-119425495D01*
X97450000Y-119449999D01*
X97450000Y-120100001D01*
X97448796Y-120124505D01*
X97445196Y-120148773D01*
X97439235Y-120172572D01*
X97430970Y-120195671D01*
X97420480Y-120217850D01*
X97407868Y-120238893D01*
X97393253Y-120258599D01*
X97376777Y-120276777D01*
X97358599Y-120293253D01*
X97338893Y-120307868D01*
X97317850Y-120320480D01*
X97295671Y-120330970D01*
X97272572Y-120339235D01*
X97248773Y-120345196D01*
X97224505Y-120348796D01*
X97200001Y-120350000D01*
X96299999Y-120350000D01*
X96275495Y-120348796D01*
X96251227Y-120345196D01*
X96227428Y-120339235D01*
X96204329Y-120330970D01*
X96182150Y-120320480D01*
X96161107Y-120307868D01*
X96141401Y-120293253D01*
X96123223Y-120276777D01*
X96106747Y-120258599D01*
X96092132Y-120238893D01*
X96079520Y-120217850D01*
X96069030Y-120195671D01*
X96060765Y-120172572D01*
X96054804Y-120148773D01*
X96051204Y-120124505D01*
X96050000Y-120100001D01*
X96050000Y-119449999D01*
X96051204Y-119425495D01*
X96054804Y-119401227D01*
X96060765Y-119377428D01*
X96069030Y-119354329D01*
X96079520Y-119332150D01*
X96092132Y-119311107D01*
X96106747Y-119291401D01*
X96123223Y-119273223D01*
X96141401Y-119256747D01*
X96161107Y-119242132D01*
X96182150Y-119229520D01*
X96204329Y-119219030D01*
X96227428Y-119210765D01*
X96251227Y-119204804D01*
X96275495Y-119201204D01*
X96299999Y-119200000D01*
X97200001Y-119200000D01*
X97224505Y-119201204D01*
X97224505Y-119201204D01*
G37*
D13*
X96750000Y-119775000D03*
D10*
G36*
X108574505Y-106301204D02*
G01*
X108598773Y-106304804D01*
X108622572Y-106310765D01*
X108645671Y-106319030D01*
X108667850Y-106329520D01*
X108688893Y-106342132D01*
X108708599Y-106356747D01*
X108726777Y-106373223D01*
X108743253Y-106391401D01*
X108757868Y-106411107D01*
X108770480Y-106432150D01*
X108780970Y-106454329D01*
X108789235Y-106477428D01*
X108795196Y-106501227D01*
X108798796Y-106525495D01*
X108800000Y-106549999D01*
X108800000Y-107450001D01*
X108798796Y-107474505D01*
X108795196Y-107498773D01*
X108789235Y-107522572D01*
X108780970Y-107545671D01*
X108770480Y-107567850D01*
X108757868Y-107588893D01*
X108743253Y-107608599D01*
X108726777Y-107626777D01*
X108708599Y-107643253D01*
X108688893Y-107657868D01*
X108667850Y-107670480D01*
X108645671Y-107680970D01*
X108622572Y-107689235D01*
X108598773Y-107695196D01*
X108574505Y-107698796D01*
X108550001Y-107700000D01*
X107899999Y-107700000D01*
X107875495Y-107698796D01*
X107851227Y-107695196D01*
X107827428Y-107689235D01*
X107804329Y-107680970D01*
X107782150Y-107670480D01*
X107761107Y-107657868D01*
X107741401Y-107643253D01*
X107723223Y-107626777D01*
X107706747Y-107608599D01*
X107692132Y-107588893D01*
X107679520Y-107567850D01*
X107669030Y-107545671D01*
X107660765Y-107522572D01*
X107654804Y-107498773D01*
X107651204Y-107474505D01*
X107650000Y-107450001D01*
X107650000Y-106549999D01*
X107651204Y-106525495D01*
X107654804Y-106501227D01*
X107660765Y-106477428D01*
X107669030Y-106454329D01*
X107679520Y-106432150D01*
X107692132Y-106411107D01*
X107706747Y-106391401D01*
X107723223Y-106373223D01*
X107741401Y-106356747D01*
X107761107Y-106342132D01*
X107782150Y-106329520D01*
X107804329Y-106319030D01*
X107827428Y-106310765D01*
X107851227Y-106304804D01*
X107875495Y-106301204D01*
X107899999Y-106300000D01*
X108550001Y-106300000D01*
X108574505Y-106301204D01*
X108574505Y-106301204D01*
G37*
D13*
X108225000Y-107000000D03*
D10*
G36*
X106524505Y-106301204D02*
G01*
X106548773Y-106304804D01*
X106572572Y-106310765D01*
X106595671Y-106319030D01*
X106617850Y-106329520D01*
X106638893Y-106342132D01*
X106658599Y-106356747D01*
X106676777Y-106373223D01*
X106693253Y-106391401D01*
X106707868Y-106411107D01*
X106720480Y-106432150D01*
X106730970Y-106454329D01*
X106739235Y-106477428D01*
X106745196Y-106501227D01*
X106748796Y-106525495D01*
X106750000Y-106549999D01*
X106750000Y-107450001D01*
X106748796Y-107474505D01*
X106745196Y-107498773D01*
X106739235Y-107522572D01*
X106730970Y-107545671D01*
X106720480Y-107567850D01*
X106707868Y-107588893D01*
X106693253Y-107608599D01*
X106676777Y-107626777D01*
X106658599Y-107643253D01*
X106638893Y-107657868D01*
X106617850Y-107670480D01*
X106595671Y-107680970D01*
X106572572Y-107689235D01*
X106548773Y-107695196D01*
X106524505Y-107698796D01*
X106500001Y-107700000D01*
X105849999Y-107700000D01*
X105825495Y-107698796D01*
X105801227Y-107695196D01*
X105777428Y-107689235D01*
X105754329Y-107680970D01*
X105732150Y-107670480D01*
X105711107Y-107657868D01*
X105691401Y-107643253D01*
X105673223Y-107626777D01*
X105656747Y-107608599D01*
X105642132Y-107588893D01*
X105629520Y-107567850D01*
X105619030Y-107545671D01*
X105610765Y-107522572D01*
X105604804Y-107498773D01*
X105601204Y-107474505D01*
X105600000Y-107450001D01*
X105600000Y-106549999D01*
X105601204Y-106525495D01*
X105604804Y-106501227D01*
X105610765Y-106477428D01*
X105619030Y-106454329D01*
X105629520Y-106432150D01*
X105642132Y-106411107D01*
X105656747Y-106391401D01*
X105673223Y-106373223D01*
X105691401Y-106356747D01*
X105711107Y-106342132D01*
X105732150Y-106329520D01*
X105754329Y-106319030D01*
X105777428Y-106310765D01*
X105801227Y-106304804D01*
X105825495Y-106301204D01*
X105849999Y-106300000D01*
X106500001Y-106300000D01*
X106524505Y-106301204D01*
X106524505Y-106301204D01*
G37*
D13*
X106175000Y-107000000D03*
M02*
