G04 #@! TF.GenerationSoftware,KiCad,Pcbnew,5.1.2*
G04 #@! TF.CreationDate,2019-06-30T01:50:48-07:00*
G04 #@! TF.ProjectId,Mario_SAO,4d617269-6f5f-4534-914f-2e6b69636164,rev?*
G04 #@! TF.SameCoordinates,Original*
G04 #@! TF.FileFunction,Soldermask,Top*
G04 #@! TF.FilePolarity,Negative*
%FSLAX46Y46*%
G04 Gerber Fmt 4.6, Leading zero omitted, Abs format (unit mm)*
G04 Created by KiCad (PCBNEW 5.1.2) date 2019-06-30 01:50:48*
%MOMM*%
%LPD*%
G04 APERTURE LIST*
%ADD10C,0.010000*%
%ADD11C,0.100000*%
G04 APERTURE END LIST*
D10*
G36*
X119774833Y-73774500D02*
G01*
X119028708Y-73769603D01*
X118824890Y-73768179D01*
X118608127Y-73766511D01*
X118388751Y-73764690D01*
X118177098Y-73762806D01*
X117983502Y-73760948D01*
X117818296Y-73759207D01*
X117769204Y-73758643D01*
X117255826Y-73752580D01*
X117261204Y-71260582D01*
X117266583Y-68768584D01*
X119774833Y-68757664D01*
X119774833Y-73774500D01*
X119774833Y-73774500D01*
G37*
X119774833Y-73774500D02*
X119028708Y-73769603D01*
X118824890Y-73768179D01*
X118608127Y-73766511D01*
X118388751Y-73764690D01*
X118177098Y-73762806D01*
X117983502Y-73760948D01*
X117818296Y-73759207D01*
X117769204Y-73758643D01*
X117255826Y-73752580D01*
X117261204Y-71260582D01*
X117266583Y-68768584D01*
X119774833Y-68757664D01*
X119774833Y-73774500D01*
G36*
X102248833Y-71255331D02*
G01*
X103502958Y-71260791D01*
X104757083Y-71266250D01*
X104767841Y-76250664D01*
X102259417Y-76261584D01*
X102253956Y-77505125D01*
X102248495Y-78748667D01*
X97253500Y-78748667D01*
X97253500Y-68758000D01*
X102248833Y-68758000D01*
X102248833Y-71255331D01*
X102248833Y-71255331D01*
G37*
X102248833Y-71255331D02*
X103502958Y-71260791D01*
X104757083Y-71266250D01*
X104767841Y-76250664D01*
X102259417Y-76261584D01*
X102253956Y-77505125D01*
X102248495Y-78748667D01*
X97253500Y-78748667D01*
X97253500Y-68758000D01*
X102248833Y-68758000D01*
X102248833Y-71255331D01*
G36*
X119774833Y-88738995D02*
G01*
X122261917Y-88749917D01*
X122267295Y-91263459D01*
X122272673Y-93777000D01*
X119774833Y-93777000D01*
X119774833Y-96281592D01*
X118647708Y-96267568D01*
X118408972Y-96264909D01*
X118136505Y-96262414D01*
X117838907Y-96260131D01*
X117524780Y-96258109D01*
X117202726Y-96256395D01*
X116881346Y-96255038D01*
X116569241Y-96254086D01*
X116275014Y-96253587D01*
X116139458Y-96253522D01*
X114758333Y-96253500D01*
X114758333Y-93755834D01*
X109763000Y-93755834D01*
X109763000Y-91258167D01*
X107265333Y-91258167D01*
X107265333Y-93755834D01*
X104767667Y-93755834D01*
X104767667Y-96253326D01*
X109752417Y-96264084D01*
X109757876Y-97518209D01*
X109763336Y-98772334D01*
X117256000Y-98772334D01*
X117256000Y-101248834D01*
X104767667Y-101248834D01*
X104767667Y-98751167D01*
X99772672Y-98751167D01*
X99767211Y-97507625D01*
X99761750Y-96264084D01*
X97258792Y-96258705D01*
X94755833Y-96253327D01*
X94755833Y-93755834D01*
X92258167Y-93755834D01*
X92258167Y-88760500D01*
X94755833Y-88760500D01*
X94755833Y-86262834D01*
X97253500Y-86262834D01*
X97253500Y-91258167D01*
X99751167Y-91258167D01*
X99751167Y-93755834D01*
X102270000Y-93755834D01*
X102270000Y-91258167D01*
X104767667Y-91258167D01*
X104767667Y-88760500D01*
X102270000Y-88760500D01*
X102270000Y-83765167D01*
X104767667Y-83765167D01*
X109763000Y-83765167D01*
X109763000Y-88760500D01*
X112260667Y-88760500D01*
X112260667Y-83765167D01*
X114758333Y-83765167D01*
X114758333Y-88760500D01*
X117256000Y-88760500D01*
X117256000Y-83765167D01*
X114758333Y-83765167D01*
X112260667Y-83765167D01*
X109763000Y-83765167D01*
X104767667Y-83765167D01*
X104767667Y-81267500D01*
X111144125Y-81267478D01*
X111675057Y-81267429D01*
X112201945Y-81267286D01*
X112722750Y-81267054D01*
X113235430Y-81266737D01*
X113737946Y-81266338D01*
X114228257Y-81265861D01*
X114704324Y-81265311D01*
X115164104Y-81264690D01*
X115605559Y-81264003D01*
X116026648Y-81263253D01*
X116425330Y-81262445D01*
X116799565Y-81261581D01*
X117147314Y-81260667D01*
X117466535Y-81259706D01*
X117755188Y-81258701D01*
X118011232Y-81257656D01*
X118232629Y-81256576D01*
X118417336Y-81255464D01*
X118563314Y-81254323D01*
X118647708Y-81253433D01*
X119774833Y-81239409D01*
X119774833Y-88738995D01*
X119774833Y-88738995D01*
G37*
X119774833Y-88738995D02*
X122261917Y-88749917D01*
X122267295Y-91263459D01*
X122272673Y-93777000D01*
X119774833Y-93777000D01*
X119774833Y-96281592D01*
X118647708Y-96267568D01*
X118408972Y-96264909D01*
X118136505Y-96262414D01*
X117838907Y-96260131D01*
X117524780Y-96258109D01*
X117202726Y-96256395D01*
X116881346Y-96255038D01*
X116569241Y-96254086D01*
X116275014Y-96253587D01*
X116139458Y-96253522D01*
X114758333Y-96253500D01*
X114758333Y-93755834D01*
X109763000Y-93755834D01*
X109763000Y-91258167D01*
X107265333Y-91258167D01*
X107265333Y-93755834D01*
X104767667Y-93755834D01*
X104767667Y-96253326D01*
X109752417Y-96264084D01*
X109757876Y-97518209D01*
X109763336Y-98772334D01*
X117256000Y-98772334D01*
X117256000Y-101248834D01*
X104767667Y-101248834D01*
X104767667Y-98751167D01*
X99772672Y-98751167D01*
X99767211Y-97507625D01*
X99761750Y-96264084D01*
X97258792Y-96258705D01*
X94755833Y-96253327D01*
X94755833Y-93755834D01*
X92258167Y-93755834D01*
X92258167Y-88760500D01*
X94755833Y-88760500D01*
X94755833Y-86262834D01*
X97253500Y-86262834D01*
X97253500Y-91258167D01*
X99751167Y-91258167D01*
X99751167Y-93755834D01*
X102270000Y-93755834D01*
X102270000Y-91258167D01*
X104767667Y-91258167D01*
X104767667Y-88760500D01*
X102270000Y-88760500D01*
X102270000Y-83765167D01*
X104767667Y-83765167D01*
X109763000Y-83765167D01*
X109763000Y-88760500D01*
X112260667Y-88760500D01*
X112260667Y-83765167D01*
X114758333Y-83765167D01*
X114758333Y-88760500D01*
X117256000Y-88760500D01*
X117256000Y-83765167D01*
X114758333Y-83765167D01*
X112260667Y-83765167D01*
X109763000Y-83765167D01*
X104767667Y-83765167D01*
X104767667Y-81267500D01*
X111144125Y-81267478D01*
X111675057Y-81267429D01*
X112201945Y-81267286D01*
X112722750Y-81267054D01*
X113235430Y-81266737D01*
X113737946Y-81266338D01*
X114228257Y-81265861D01*
X114704324Y-81265311D01*
X115164104Y-81264690D01*
X115605559Y-81264003D01*
X116026648Y-81263253D01*
X116425330Y-81262445D01*
X116799565Y-81261581D01*
X117147314Y-81260667D01*
X117466535Y-81259706D01*
X117755188Y-81258701D01*
X118011232Y-81257656D01*
X118232629Y-81256576D01*
X118417336Y-81255464D01*
X118563314Y-81254323D01*
X118647708Y-81253433D01*
X119774833Y-81239409D01*
X119774833Y-88738995D01*
G36*
X103497667Y-105016500D02*
G01*
X98523500Y-105016500D01*
X98523500Y-102518834D01*
X103497667Y-102518834D01*
X103497667Y-105016500D01*
X103497667Y-105016500D01*
G37*
X103497667Y-105016500D02*
X98523500Y-105016500D01*
X98523500Y-102518834D01*
X103497667Y-102518834D01*
X103497667Y-105016500D01*
G36*
X98502333Y-107514167D02*
G01*
X96004667Y-107514167D01*
X96004667Y-105016500D01*
X98502333Y-105016500D01*
X98502333Y-107514167D01*
X98502333Y-107514167D01*
G37*
X98502333Y-107514167D02*
X96004667Y-107514167D01*
X96004667Y-105016500D01*
X98502333Y-105016500D01*
X98502333Y-107514167D01*
G36*
X96004667Y-110011834D02*
G01*
X93507000Y-110011834D01*
X93507000Y-107514167D01*
X96004667Y-107514167D01*
X96004667Y-110011834D01*
X96004667Y-110011834D01*
G37*
X96004667Y-110011834D02*
X93507000Y-110011834D01*
X93507000Y-107514167D01*
X96004667Y-107514167D01*
X96004667Y-110011834D01*
G36*
X127267833Y-111260667D02*
G01*
X124749000Y-111260667D01*
X124749000Y-106265334D01*
X122251333Y-106265334D01*
X122251333Y-103746500D01*
X127267833Y-103746500D01*
X127267833Y-111260667D01*
X127267833Y-111260667D01*
G37*
X127267833Y-111260667D02*
X124749000Y-111260667D01*
X124749000Y-106265334D01*
X122251333Y-106265334D01*
X122251333Y-103746500D01*
X127267833Y-103746500D01*
X127267833Y-111260667D01*
G36*
X116007167Y-107514167D02*
G01*
X113509500Y-107514167D01*
X113509500Y-105016500D01*
X116007167Y-105016500D01*
X116007167Y-107514167D01*
X116007167Y-107514167D01*
G37*
X116007167Y-107514167D02*
X113509500Y-107514167D01*
X113509500Y-105016500D01*
X116007167Y-105016500D01*
X116007167Y-107514167D01*
G36*
X118526006Y-108747125D02*
G01*
X118526000Y-109990667D01*
X121023667Y-109990667D01*
X121023667Y-112530667D01*
X118504833Y-112530667D01*
X118504833Y-110011834D01*
X116007167Y-110011834D01*
X116007167Y-107517878D01*
X118526011Y-107503584D01*
X118526006Y-108747125D01*
X118526006Y-108747125D01*
G37*
X118526006Y-108747125D02*
X118526000Y-109990667D01*
X121023667Y-109990667D01*
X121023667Y-112530667D01*
X118504833Y-112530667D01*
X118504833Y-110011834D01*
X116007167Y-110011834D01*
X116007167Y-107517878D01*
X118526011Y-107503584D01*
X118526006Y-108747125D01*
G36*
X82246333Y-108763000D02*
G01*
X84744000Y-108763000D01*
X84744000Y-111260667D01*
X82246333Y-111260667D01*
X82246333Y-113758334D01*
X79748667Y-113758334D01*
X79748667Y-116256000D01*
X77251000Y-116256000D01*
X77251000Y-108763336D01*
X78505125Y-108757876D01*
X79759250Y-108752417D01*
X79764711Y-107508875D01*
X79770172Y-106265334D01*
X82246333Y-106265334D01*
X82246333Y-108763000D01*
X82246333Y-108763000D01*
G37*
X82246333Y-108763000D02*
X84744000Y-108763000D01*
X84744000Y-111260667D01*
X82246333Y-111260667D01*
X82246333Y-113758334D01*
X79748667Y-113758334D01*
X79748667Y-116256000D01*
X77251000Y-116256000D01*
X77251000Y-108763336D01*
X78505125Y-108757876D01*
X79759250Y-108752417D01*
X79764711Y-107508875D01*
X79770172Y-106265334D01*
X82246333Y-106265334D01*
X82246333Y-108763000D01*
G36*
X124770167Y-116277167D02*
G01*
X122251333Y-116277167D01*
X122251333Y-113758334D01*
X124770167Y-113758334D01*
X124770167Y-116277167D01*
X124770167Y-116277167D01*
G37*
X124770167Y-116277167D02*
X122251333Y-116277167D01*
X122251333Y-113758334D01*
X124770167Y-113758334D01*
X124770167Y-116277167D01*
G36*
X117256000Y-118753667D02*
G01*
X112260667Y-118753667D01*
X112260667Y-113758334D01*
X117256000Y-113758334D01*
X117256000Y-118753667D01*
X117256000Y-118753667D01*
G37*
X117256000Y-118753667D02*
X112260667Y-118753667D01*
X112260667Y-113758334D01*
X117256000Y-113758334D01*
X117256000Y-118753667D01*
G36*
X107265333Y-111260667D02*
G01*
X109763000Y-111260667D01*
X109763000Y-116256000D01*
X107265333Y-116256000D01*
X107265333Y-118753667D01*
X99772672Y-118753667D01*
X99767211Y-117510125D01*
X99761750Y-116266584D01*
X97253500Y-116255664D01*
X97253500Y-111260667D01*
X99772333Y-111260667D01*
X99772333Y-108763000D01*
X107265333Y-108763000D01*
X107265333Y-111260667D01*
X107265333Y-111260667D01*
G37*
X107265333Y-111260667D02*
X109763000Y-111260667D01*
X109763000Y-116256000D01*
X107265333Y-116256000D01*
X107265333Y-118753667D01*
X99772672Y-118753667D01*
X99767211Y-117510125D01*
X99761750Y-116266584D01*
X97253500Y-116255664D01*
X97253500Y-111260667D01*
X99772333Y-111260667D01*
X99772333Y-108763000D01*
X107265333Y-108763000D01*
X107265333Y-111260667D01*
G36*
X89760500Y-116256000D02*
G01*
X94755833Y-116256000D01*
X94755833Y-118753667D01*
X92251482Y-118753667D01*
X92266537Y-120013084D01*
X92281592Y-121272500D01*
X84737136Y-121272500D01*
X84751151Y-120507039D01*
X84753413Y-120360637D01*
X84755563Y-120177146D01*
X84757569Y-119961808D01*
X84759404Y-119719866D01*
X84761038Y-119456565D01*
X84762441Y-119177146D01*
X84763585Y-118886854D01*
X84764440Y-118590932D01*
X84764977Y-118294623D01*
X84765166Y-118003170D01*
X84765167Y-117998789D01*
X84765167Y-116256000D01*
X87262833Y-116256000D01*
X87262833Y-113758334D01*
X89760500Y-113758334D01*
X89760500Y-116256000D01*
X89760500Y-116256000D01*
G37*
X89760500Y-116256000D02*
X94755833Y-116256000D01*
X94755833Y-118753667D01*
X92251482Y-118753667D01*
X92266537Y-120013084D01*
X92281592Y-121272500D01*
X84737136Y-121272500D01*
X84751151Y-120507039D01*
X84753413Y-120360637D01*
X84755563Y-120177146D01*
X84757569Y-119961808D01*
X84759404Y-119719866D01*
X84761038Y-119456565D01*
X84762441Y-119177146D01*
X84763585Y-118886854D01*
X84764440Y-118590932D01*
X84764977Y-118294623D01*
X84765166Y-118003170D01*
X84765167Y-117998789D01*
X84765167Y-116256000D01*
X87262833Y-116256000D01*
X87262833Y-113758334D01*
X89760500Y-113758334D01*
X89760500Y-116256000D01*
G36*
X126019000Y-125019000D02*
G01*
X123521333Y-125019000D01*
X123521333Y-127516667D01*
X121002500Y-127516667D01*
X121002500Y-120002500D01*
X123500167Y-120002500D01*
X123500167Y-117504834D01*
X126019000Y-117504834D01*
X126019000Y-125019000D01*
X126019000Y-125019000D01*
G37*
X126019000Y-125019000D02*
X123521333Y-125019000D01*
X123521333Y-127516667D01*
X121002500Y-127516667D01*
X121002500Y-120002500D01*
X123500167Y-120002500D01*
X123500167Y-117504834D01*
X126019000Y-117504834D01*
X126019000Y-125019000D01*
G36*
X96025833Y-130014334D02*
G01*
X93507000Y-130014334D01*
X93507000Y-124997834D01*
X96025833Y-124997834D01*
X96025833Y-130014334D01*
X96025833Y-130014334D01*
G37*
X96025833Y-130014334D02*
X93507000Y-130014334D01*
X93507000Y-124997834D01*
X96025833Y-124997834D01*
X96025833Y-130014334D01*
D11*
G36*
X111616778Y-121660547D02*
G01*
X111783224Y-121729491D01*
X111933022Y-121829583D01*
X112060417Y-121956978D01*
X112160509Y-122106776D01*
X112229453Y-122273222D01*
X112264600Y-122449918D01*
X112264600Y-122630082D01*
X112229453Y-122806778D01*
X112160509Y-122973224D01*
X112060417Y-123123022D01*
X111933022Y-123250417D01*
X111783224Y-123350509D01*
X111616778Y-123419453D01*
X111440082Y-123454600D01*
X111259918Y-123454600D01*
X111083222Y-123419453D01*
X110916776Y-123350509D01*
X110766978Y-123250417D01*
X110639583Y-123123022D01*
X110539491Y-122973224D01*
X110470547Y-122806778D01*
X110435400Y-122630082D01*
X110435400Y-122449918D01*
X110470547Y-122273222D01*
X110539491Y-122106776D01*
X110639583Y-121956978D01*
X110766978Y-121829583D01*
X110916776Y-121729491D01*
X111083222Y-121660547D01*
X111259918Y-121625400D01*
X111440082Y-121625400D01*
X111616778Y-121660547D01*
X111616778Y-121660547D01*
G37*
G36*
X108989294Y-121638633D02*
G01*
X109161695Y-121690931D01*
X109320583Y-121775858D01*
X109459849Y-121890151D01*
X109574142Y-122029417D01*
X109659069Y-122188305D01*
X109711367Y-122360706D01*
X109729025Y-122540000D01*
X109711367Y-122719294D01*
X109659069Y-122891695D01*
X109574142Y-123050583D01*
X109459849Y-123189849D01*
X109320583Y-123304142D01*
X109161695Y-123389069D01*
X108989294Y-123441367D01*
X108854931Y-123454600D01*
X108765069Y-123454600D01*
X108630706Y-123441367D01*
X108458305Y-123389069D01*
X108299417Y-123304142D01*
X108160151Y-123189849D01*
X108045858Y-123050583D01*
X107960931Y-122891695D01*
X107908633Y-122719294D01*
X107890975Y-122540000D01*
X107908633Y-122360706D01*
X107960931Y-122188305D01*
X108045858Y-122029417D01*
X108160151Y-121890151D01*
X108299417Y-121775858D01*
X108458305Y-121690931D01*
X108630706Y-121638633D01*
X108765069Y-121625400D01*
X108854931Y-121625400D01*
X108989294Y-121638633D01*
X108989294Y-121638633D01*
G37*
G36*
X107184600Y-123454600D02*
G01*
X105355400Y-123454600D01*
X105355400Y-121625400D01*
X107184600Y-121625400D01*
X107184600Y-123454600D01*
X107184600Y-123454600D01*
G37*
G36*
X111616778Y-119120547D02*
G01*
X111783224Y-119189491D01*
X111933022Y-119289583D01*
X112060417Y-119416978D01*
X112160509Y-119566776D01*
X112229453Y-119733222D01*
X112264600Y-119909918D01*
X112264600Y-120090082D01*
X112229453Y-120266778D01*
X112160509Y-120433224D01*
X112060417Y-120583022D01*
X111933022Y-120710417D01*
X111783224Y-120810509D01*
X111616778Y-120879453D01*
X111440082Y-120914600D01*
X111259918Y-120914600D01*
X111083222Y-120879453D01*
X110916776Y-120810509D01*
X110766978Y-120710417D01*
X110639583Y-120583022D01*
X110539491Y-120433224D01*
X110470547Y-120266778D01*
X110435400Y-120090082D01*
X110435400Y-119909918D01*
X110470547Y-119733222D01*
X110539491Y-119566776D01*
X110639583Y-119416978D01*
X110766978Y-119289583D01*
X110916776Y-119189491D01*
X111083222Y-119120547D01*
X111259918Y-119085400D01*
X111440082Y-119085400D01*
X111616778Y-119120547D01*
X111616778Y-119120547D01*
G37*
G36*
X108989294Y-119098633D02*
G01*
X109161695Y-119150931D01*
X109320583Y-119235858D01*
X109459849Y-119350151D01*
X109574142Y-119489417D01*
X109659069Y-119648305D01*
X109711367Y-119820706D01*
X109729025Y-120000000D01*
X109711367Y-120179294D01*
X109659069Y-120351695D01*
X109574142Y-120510583D01*
X109459849Y-120649849D01*
X109320583Y-120764142D01*
X109161695Y-120849069D01*
X108989294Y-120901367D01*
X108854931Y-120914600D01*
X108765069Y-120914600D01*
X108630706Y-120901367D01*
X108458305Y-120849069D01*
X108299417Y-120764142D01*
X108160151Y-120649849D01*
X108045858Y-120510583D01*
X107960931Y-120351695D01*
X107908633Y-120179294D01*
X107890975Y-120000000D01*
X107908633Y-119820706D01*
X107960931Y-119648305D01*
X108045858Y-119489417D01*
X108160151Y-119350151D01*
X108299417Y-119235858D01*
X108458305Y-119150931D01*
X108630706Y-119098633D01*
X108765069Y-119085400D01*
X108854931Y-119085400D01*
X108989294Y-119098633D01*
X108989294Y-119098633D01*
G37*
G36*
X106449294Y-119098633D02*
G01*
X106621695Y-119150931D01*
X106780583Y-119235858D01*
X106919849Y-119350151D01*
X107034142Y-119489417D01*
X107119069Y-119648305D01*
X107171367Y-119820706D01*
X107189025Y-120000000D01*
X107171367Y-120179294D01*
X107119069Y-120351695D01*
X107034142Y-120510583D01*
X106919849Y-120649849D01*
X106780583Y-120764142D01*
X106621695Y-120849069D01*
X106449294Y-120901367D01*
X106314931Y-120914600D01*
X106225069Y-120914600D01*
X106090706Y-120901367D01*
X105918305Y-120849069D01*
X105759417Y-120764142D01*
X105620151Y-120649849D01*
X105505858Y-120510583D01*
X105420931Y-120351695D01*
X105368633Y-120179294D01*
X105350975Y-120000000D01*
X105368633Y-119820706D01*
X105420931Y-119648305D01*
X105505858Y-119489417D01*
X105620151Y-119350151D01*
X105759417Y-119235858D01*
X105918305Y-119150931D01*
X106090706Y-119098633D01*
X106225069Y-119085400D01*
X106314931Y-119085400D01*
X106449294Y-119098633D01*
X106449294Y-119098633D01*
G37*
M02*
