G04 #@! TF.GenerationSoftware,KiCad,Pcbnew,5.1.2*
G04 #@! TF.CreationDate,2019-06-30T01:50:48-07:00*
G04 #@! TF.ProjectId,Mario_SAO,4d617269-6f5f-4534-914f-2e6b69636164,rev?*
G04 #@! TF.SameCoordinates,Original*
G04 #@! TF.FileFunction,Copper,L1,Top*
G04 #@! TF.FilePolarity,Positive*
%FSLAX46Y46*%
G04 Gerber Fmt 4.6, Leading zero omitted, Abs format (unit mm)*
G04 Created by KiCad (PCBNEW 5.1.2) date 2019-06-30 01:50:48*
%MOMM*%
%LPD*%
G04 APERTURE LIST*
%ADD10C,0.010000*%
%ADD11R,1.727200X1.727200*%
%ADD12O,1.727200X1.727200*%
%ADD13C,1.727200*%
%ADD14C,0.254000*%
G04 APERTURE END LIST*
D10*
G36*
X117266583Y-83754584D02*
G01*
X117271962Y-86257542D01*
X117277340Y-88760500D01*
X114758333Y-88760500D01*
X114758333Y-83743664D01*
X117266583Y-83754584D01*
X117266583Y-83754584D01*
G37*
X117266583Y-83754584D02*
X117271962Y-86257542D01*
X117277340Y-88760500D01*
X114758333Y-88760500D01*
X114758333Y-83743664D01*
X117266583Y-83754584D01*
G36*
X112260667Y-88760500D02*
G01*
X109763000Y-88760500D01*
X109763000Y-83744000D01*
X112260667Y-83744000D01*
X112260667Y-88760500D01*
X112260667Y-88760500D01*
G37*
X112260667Y-88760500D02*
X109763000Y-88760500D01*
X109763000Y-83744000D01*
X112260667Y-83744000D01*
X112260667Y-88760500D01*
G36*
X102270000Y-68758000D02*
G01*
X104767667Y-68758000D01*
X104767667Y-71255667D01*
X107243828Y-71255667D01*
X107249289Y-70012125D01*
X107254750Y-68768584D01*
X117256000Y-68757912D01*
X117256000Y-66260334D01*
X122272500Y-66260334D01*
X122272500Y-73774500D01*
X119774833Y-73774500D01*
X119774833Y-76251000D01*
X124770167Y-76251000D01*
X124770167Y-78748667D01*
X127267833Y-78748667D01*
X127267833Y-81267500D01*
X124770167Y-81267500D01*
X124770167Y-83765167D01*
X122272500Y-83765167D01*
X122272500Y-88760500D01*
X124770167Y-88760500D01*
X124770167Y-93755834D01*
X127267833Y-93755834D01*
X127267833Y-96274667D01*
X122272500Y-96274667D01*
X122272500Y-98772334D01*
X119774833Y-98772334D01*
X119774833Y-103746500D01*
X122251333Y-103746500D01*
X122251333Y-101248834D01*
X127267833Y-101248834D01*
X127267833Y-103746500D01*
X129765500Y-103746500D01*
X129765500Y-111281834D01*
X127267833Y-111281834D01*
X127267833Y-116256000D01*
X129765500Y-116256000D01*
X129765500Y-128765500D01*
X127267833Y-128765500D01*
X127267833Y-131263167D01*
X119753667Y-131263167D01*
X119753667Y-128765500D01*
X117256000Y-128765500D01*
X117256000Y-126267834D01*
X109763000Y-126267834D01*
X109763000Y-128765500D01*
X102270000Y-128765500D01*
X102270000Y-131263167D01*
X97274667Y-131263167D01*
X97274667Y-133760834D01*
X92258167Y-133760834D01*
X92258167Y-131263167D01*
X89739333Y-131263167D01*
X89739333Y-125019000D01*
X93528167Y-125019000D01*
X93528167Y-129993167D01*
X96004667Y-129993167D01*
X96004667Y-125019000D01*
X93528167Y-125019000D01*
X89739333Y-125019000D01*
X89739333Y-123770167D01*
X84744000Y-123770167D01*
X84744000Y-121272500D01*
X79748667Y-121272500D01*
X79748667Y-118774834D01*
X77251000Y-118774834D01*
X77251000Y-116277167D01*
X84765167Y-116277167D01*
X84765167Y-121251334D01*
X92258167Y-121251334D01*
X92258167Y-118944167D01*
X104852333Y-118944167D01*
X104852333Y-123897167D01*
X112493500Y-123897167D01*
X112493524Y-122420792D01*
X112493758Y-122138285D01*
X112494424Y-121840363D01*
X112495480Y-121534296D01*
X112496885Y-121227353D01*
X112498599Y-120926805D01*
X112500579Y-120639921D01*
X112502785Y-120373970D01*
X112505175Y-120136224D01*
X112506574Y-120023667D01*
X121023667Y-120023667D01*
X121023667Y-127495500D01*
X123500167Y-127495500D01*
X123500167Y-124997834D01*
X125997833Y-124997834D01*
X125997833Y-117526000D01*
X123521333Y-117526000D01*
X123521333Y-120023667D01*
X121023667Y-120023667D01*
X112506574Y-120023667D01*
X112507562Y-119944292D01*
X112521575Y-118944167D01*
X104852333Y-118944167D01*
X92258167Y-118944167D01*
X92258167Y-118753667D01*
X94755833Y-118753667D01*
X94755833Y-116277167D01*
X89760836Y-116277167D01*
X89755376Y-115023042D01*
X89749917Y-113768917D01*
X87262833Y-113757995D01*
X87262833Y-116277167D01*
X84765167Y-116277167D01*
X77251000Y-116277167D01*
X74753333Y-116277167D01*
X74753333Y-111260667D01*
X72255667Y-111260667D01*
X72255667Y-108763000D01*
X77272167Y-108763000D01*
X77272167Y-116256000D01*
X79748667Y-116256000D01*
X79748667Y-113758334D01*
X82246333Y-113758334D01*
X82246333Y-111260667D01*
X84744000Y-111260667D01*
X97274667Y-111260667D01*
X97274667Y-116256000D01*
X99772333Y-116256000D01*
X99772333Y-118753667D01*
X107243828Y-118753667D01*
X112260492Y-118753667D01*
X117256000Y-118753667D01*
X117256000Y-113779500D01*
X122272500Y-113779500D01*
X122272500Y-116256000D01*
X124749000Y-116256000D01*
X124749000Y-113779500D01*
X122272500Y-113779500D01*
X117256000Y-113779500D01*
X117256000Y-113758159D01*
X112271250Y-113768917D01*
X112260492Y-118753667D01*
X107243828Y-118753667D01*
X107249289Y-117510125D01*
X107254750Y-116266584D01*
X109763000Y-116255664D01*
X109763000Y-111260667D01*
X107244167Y-111260667D01*
X107244167Y-108763000D01*
X99772333Y-108763000D01*
X99772333Y-111260667D01*
X97274667Y-111260667D01*
X84744000Y-111260667D01*
X84744000Y-108763000D01*
X82246333Y-108763000D01*
X82246333Y-106265334D01*
X79769833Y-106265334D01*
X79769833Y-108763000D01*
X77272167Y-108763000D01*
X72255667Y-108763000D01*
X72255667Y-103746500D01*
X74753333Y-103746500D01*
X74753333Y-101248834D01*
X82267500Y-101248834D01*
X82267500Y-103746500D01*
X84765167Y-103746500D01*
X84765167Y-106243828D01*
X86008708Y-106249289D01*
X87252250Y-106254750D01*
X87257709Y-107509044D01*
X87263169Y-108763338D01*
X88506543Y-108757878D01*
X89749917Y-108752417D01*
X89755306Y-107514167D01*
X93507000Y-107514167D01*
X93507000Y-110011834D01*
X96004667Y-110011834D01*
X96004667Y-107514167D01*
X93507000Y-107514167D01*
X89755306Y-107514167D01*
X89755376Y-107498292D01*
X89760836Y-106244167D01*
X92258167Y-106244167D01*
X92258167Y-105016500D01*
X96025833Y-105016500D01*
X96025833Y-107514167D01*
X98502333Y-107514167D01*
X98502333Y-105016500D01*
X113530667Y-105016500D01*
X113530667Y-107514167D01*
X116007167Y-107514167D01*
X116028333Y-107514167D01*
X116028333Y-110011834D01*
X118526000Y-110011834D01*
X118526000Y-112509500D01*
X121002500Y-112509500D01*
X121002500Y-110011834D01*
X118526000Y-110011834D01*
X116028333Y-110011834D01*
X117091958Y-110011707D01*
X117306937Y-110011410D01*
X117514444Y-110010607D01*
X117709560Y-110009353D01*
X117887364Y-110007702D01*
X118042934Y-110005709D01*
X118171350Y-110003428D01*
X118267691Y-110000913D01*
X118327037Y-109998221D01*
X118330208Y-109997986D01*
X118504833Y-109984392D01*
X118504833Y-107514167D01*
X116028333Y-107514167D01*
X116007167Y-107514167D01*
X116007167Y-105016500D01*
X113530667Y-105016500D01*
X98502333Y-105016500D01*
X96025833Y-105016500D01*
X92258167Y-105016500D01*
X92258167Y-103746500D01*
X94755833Y-103746500D01*
X94755833Y-102518834D01*
X98523500Y-102518834D01*
X98523500Y-104995334D01*
X103497667Y-104995334D01*
X103497667Y-103767667D01*
X122272500Y-103767667D01*
X122272500Y-106244167D01*
X124770167Y-106244167D01*
X124770167Y-111260667D01*
X127246667Y-111260667D01*
X127246667Y-103767667D01*
X122272500Y-103767667D01*
X103497667Y-103767667D01*
X103497667Y-102518834D01*
X98523500Y-102518834D01*
X94755833Y-102518834D01*
X94755833Y-101248834D01*
X97253500Y-101248834D01*
X97253500Y-98772334D01*
X94755833Y-98772334D01*
X94755833Y-96274667D01*
X92258167Y-96274667D01*
X92258167Y-93777000D01*
X89760500Y-93777000D01*
X89760500Y-88760500D01*
X92258167Y-88760500D01*
X92258167Y-93755498D01*
X93512292Y-93760957D01*
X94766417Y-93766417D01*
X94771877Y-95009959D01*
X94777338Y-96253500D01*
X99772333Y-96253500D01*
X99772333Y-98751167D01*
X104767667Y-98751167D01*
X104767667Y-101248834D01*
X117256000Y-101248834D01*
X117256000Y-98772334D01*
X109763000Y-98772334D01*
X109763000Y-96274840D01*
X107260042Y-96269462D01*
X104757083Y-96264084D01*
X104751624Y-95009959D01*
X104746164Y-93755834D01*
X107243828Y-93755834D01*
X107254750Y-91268750D01*
X108508875Y-91263291D01*
X109763000Y-91257831D01*
X109763000Y-93755660D01*
X112265958Y-93761038D01*
X114768917Y-93766417D01*
X114774377Y-95009959D01*
X114779838Y-96253500D01*
X119753667Y-96253500D01*
X119753667Y-93755834D01*
X122251333Y-93755834D01*
X122251333Y-88782005D01*
X121007792Y-88776544D01*
X119764250Y-88771084D01*
X119753550Y-81267500D01*
X104767667Y-81267500D01*
X104767667Y-83765167D01*
X102270000Y-83765167D01*
X102270000Y-88760500D01*
X104767667Y-88760500D01*
X104767667Y-91258167D01*
X102270336Y-91258167D01*
X102264876Y-92512292D01*
X102259417Y-93766417D01*
X99761750Y-93766417D01*
X99756290Y-92512292D01*
X99750831Y-91258167D01*
X97253500Y-91258167D01*
X97253500Y-86262834D01*
X94777000Y-86262834D01*
X94777000Y-88760500D01*
X92258167Y-88760500D01*
X92258167Y-83744000D01*
X94755833Y-83744000D01*
X94755833Y-68758000D01*
X97274667Y-68758000D01*
X97274667Y-78748667D01*
X102248833Y-78748667D01*
X102248833Y-76251000D01*
X104746500Y-76251000D01*
X104746500Y-73753334D01*
X117277167Y-73753334D01*
X119753667Y-73753334D01*
X119753667Y-68779167D01*
X119261542Y-68779134D01*
X119114652Y-68778680D01*
X118935482Y-68777411D01*
X118734076Y-68775441D01*
X118520477Y-68772883D01*
X118304728Y-68769851D01*
X118096874Y-68766458D01*
X118023292Y-68765121D01*
X117277167Y-68751141D01*
X117277167Y-73753334D01*
X104746500Y-73753334D01*
X104746500Y-71277172D01*
X103502958Y-71271711D01*
X102259417Y-71266250D01*
X102248497Y-68758000D01*
X97274667Y-68758000D01*
X94755833Y-68758000D01*
X94755833Y-66260334D01*
X102270000Y-66260334D01*
X102270000Y-68758000D01*
X102270000Y-68758000D01*
G37*
X102270000Y-68758000D02*
X104767667Y-68758000D01*
X104767667Y-71255667D01*
X107243828Y-71255667D01*
X107249289Y-70012125D01*
X107254750Y-68768584D01*
X117256000Y-68757912D01*
X117256000Y-66260334D01*
X122272500Y-66260334D01*
X122272500Y-73774500D01*
X119774833Y-73774500D01*
X119774833Y-76251000D01*
X124770167Y-76251000D01*
X124770167Y-78748667D01*
X127267833Y-78748667D01*
X127267833Y-81267500D01*
X124770167Y-81267500D01*
X124770167Y-83765167D01*
X122272500Y-83765167D01*
X122272500Y-88760500D01*
X124770167Y-88760500D01*
X124770167Y-93755834D01*
X127267833Y-93755834D01*
X127267833Y-96274667D01*
X122272500Y-96274667D01*
X122272500Y-98772334D01*
X119774833Y-98772334D01*
X119774833Y-103746500D01*
X122251333Y-103746500D01*
X122251333Y-101248834D01*
X127267833Y-101248834D01*
X127267833Y-103746500D01*
X129765500Y-103746500D01*
X129765500Y-111281834D01*
X127267833Y-111281834D01*
X127267833Y-116256000D01*
X129765500Y-116256000D01*
X129765500Y-128765500D01*
X127267833Y-128765500D01*
X127267833Y-131263167D01*
X119753667Y-131263167D01*
X119753667Y-128765500D01*
X117256000Y-128765500D01*
X117256000Y-126267834D01*
X109763000Y-126267834D01*
X109763000Y-128765500D01*
X102270000Y-128765500D01*
X102270000Y-131263167D01*
X97274667Y-131263167D01*
X97274667Y-133760834D01*
X92258167Y-133760834D01*
X92258167Y-131263167D01*
X89739333Y-131263167D01*
X89739333Y-125019000D01*
X93528167Y-125019000D01*
X93528167Y-129993167D01*
X96004667Y-129993167D01*
X96004667Y-125019000D01*
X93528167Y-125019000D01*
X89739333Y-125019000D01*
X89739333Y-123770167D01*
X84744000Y-123770167D01*
X84744000Y-121272500D01*
X79748667Y-121272500D01*
X79748667Y-118774834D01*
X77251000Y-118774834D01*
X77251000Y-116277167D01*
X84765167Y-116277167D01*
X84765167Y-121251334D01*
X92258167Y-121251334D01*
X92258167Y-118944167D01*
X104852333Y-118944167D01*
X104852333Y-123897167D01*
X112493500Y-123897167D01*
X112493524Y-122420792D01*
X112493758Y-122138285D01*
X112494424Y-121840363D01*
X112495480Y-121534296D01*
X112496885Y-121227353D01*
X112498599Y-120926805D01*
X112500579Y-120639921D01*
X112502785Y-120373970D01*
X112505175Y-120136224D01*
X112506574Y-120023667D01*
X121023667Y-120023667D01*
X121023667Y-127495500D01*
X123500167Y-127495500D01*
X123500167Y-124997834D01*
X125997833Y-124997834D01*
X125997833Y-117526000D01*
X123521333Y-117526000D01*
X123521333Y-120023667D01*
X121023667Y-120023667D01*
X112506574Y-120023667D01*
X112507562Y-119944292D01*
X112521575Y-118944167D01*
X104852333Y-118944167D01*
X92258167Y-118944167D01*
X92258167Y-118753667D01*
X94755833Y-118753667D01*
X94755833Y-116277167D01*
X89760836Y-116277167D01*
X89755376Y-115023042D01*
X89749917Y-113768917D01*
X87262833Y-113757995D01*
X87262833Y-116277167D01*
X84765167Y-116277167D01*
X77251000Y-116277167D01*
X74753333Y-116277167D01*
X74753333Y-111260667D01*
X72255667Y-111260667D01*
X72255667Y-108763000D01*
X77272167Y-108763000D01*
X77272167Y-116256000D01*
X79748667Y-116256000D01*
X79748667Y-113758334D01*
X82246333Y-113758334D01*
X82246333Y-111260667D01*
X84744000Y-111260667D01*
X97274667Y-111260667D01*
X97274667Y-116256000D01*
X99772333Y-116256000D01*
X99772333Y-118753667D01*
X107243828Y-118753667D01*
X112260492Y-118753667D01*
X117256000Y-118753667D01*
X117256000Y-113779500D01*
X122272500Y-113779500D01*
X122272500Y-116256000D01*
X124749000Y-116256000D01*
X124749000Y-113779500D01*
X122272500Y-113779500D01*
X117256000Y-113779500D01*
X117256000Y-113758159D01*
X112271250Y-113768917D01*
X112260492Y-118753667D01*
X107243828Y-118753667D01*
X107249289Y-117510125D01*
X107254750Y-116266584D01*
X109763000Y-116255664D01*
X109763000Y-111260667D01*
X107244167Y-111260667D01*
X107244167Y-108763000D01*
X99772333Y-108763000D01*
X99772333Y-111260667D01*
X97274667Y-111260667D01*
X84744000Y-111260667D01*
X84744000Y-108763000D01*
X82246333Y-108763000D01*
X82246333Y-106265334D01*
X79769833Y-106265334D01*
X79769833Y-108763000D01*
X77272167Y-108763000D01*
X72255667Y-108763000D01*
X72255667Y-103746500D01*
X74753333Y-103746500D01*
X74753333Y-101248834D01*
X82267500Y-101248834D01*
X82267500Y-103746500D01*
X84765167Y-103746500D01*
X84765167Y-106243828D01*
X86008708Y-106249289D01*
X87252250Y-106254750D01*
X87257709Y-107509044D01*
X87263169Y-108763338D01*
X88506543Y-108757878D01*
X89749917Y-108752417D01*
X89755306Y-107514167D01*
X93507000Y-107514167D01*
X93507000Y-110011834D01*
X96004667Y-110011834D01*
X96004667Y-107514167D01*
X93507000Y-107514167D01*
X89755306Y-107514167D01*
X89755376Y-107498292D01*
X89760836Y-106244167D01*
X92258167Y-106244167D01*
X92258167Y-105016500D01*
X96025833Y-105016500D01*
X96025833Y-107514167D01*
X98502333Y-107514167D01*
X98502333Y-105016500D01*
X113530667Y-105016500D01*
X113530667Y-107514167D01*
X116007167Y-107514167D01*
X116028333Y-107514167D01*
X116028333Y-110011834D01*
X118526000Y-110011834D01*
X118526000Y-112509500D01*
X121002500Y-112509500D01*
X121002500Y-110011834D01*
X118526000Y-110011834D01*
X116028333Y-110011834D01*
X117091958Y-110011707D01*
X117306937Y-110011410D01*
X117514444Y-110010607D01*
X117709560Y-110009353D01*
X117887364Y-110007702D01*
X118042934Y-110005709D01*
X118171350Y-110003428D01*
X118267691Y-110000913D01*
X118327037Y-109998221D01*
X118330208Y-109997986D01*
X118504833Y-109984392D01*
X118504833Y-107514167D01*
X116028333Y-107514167D01*
X116007167Y-107514167D01*
X116007167Y-105016500D01*
X113530667Y-105016500D01*
X98502333Y-105016500D01*
X96025833Y-105016500D01*
X92258167Y-105016500D01*
X92258167Y-103746500D01*
X94755833Y-103746500D01*
X94755833Y-102518834D01*
X98523500Y-102518834D01*
X98523500Y-104995334D01*
X103497667Y-104995334D01*
X103497667Y-103767667D01*
X122272500Y-103767667D01*
X122272500Y-106244167D01*
X124770167Y-106244167D01*
X124770167Y-111260667D01*
X127246667Y-111260667D01*
X127246667Y-103767667D01*
X122272500Y-103767667D01*
X103497667Y-103767667D01*
X103497667Y-102518834D01*
X98523500Y-102518834D01*
X94755833Y-102518834D01*
X94755833Y-101248834D01*
X97253500Y-101248834D01*
X97253500Y-98772334D01*
X94755833Y-98772334D01*
X94755833Y-96274667D01*
X92258167Y-96274667D01*
X92258167Y-93777000D01*
X89760500Y-93777000D01*
X89760500Y-88760500D01*
X92258167Y-88760500D01*
X92258167Y-93755498D01*
X93512292Y-93760957D01*
X94766417Y-93766417D01*
X94771877Y-95009959D01*
X94777338Y-96253500D01*
X99772333Y-96253500D01*
X99772333Y-98751167D01*
X104767667Y-98751167D01*
X104767667Y-101248834D01*
X117256000Y-101248834D01*
X117256000Y-98772334D01*
X109763000Y-98772334D01*
X109763000Y-96274840D01*
X107260042Y-96269462D01*
X104757083Y-96264084D01*
X104751624Y-95009959D01*
X104746164Y-93755834D01*
X107243828Y-93755834D01*
X107254750Y-91268750D01*
X108508875Y-91263291D01*
X109763000Y-91257831D01*
X109763000Y-93755660D01*
X112265958Y-93761038D01*
X114768917Y-93766417D01*
X114774377Y-95009959D01*
X114779838Y-96253500D01*
X119753667Y-96253500D01*
X119753667Y-93755834D01*
X122251333Y-93755834D01*
X122251333Y-88782005D01*
X121007792Y-88776544D01*
X119764250Y-88771084D01*
X119753550Y-81267500D01*
X104767667Y-81267500D01*
X104767667Y-83765167D01*
X102270000Y-83765167D01*
X102270000Y-88760500D01*
X104767667Y-88760500D01*
X104767667Y-91258167D01*
X102270336Y-91258167D01*
X102264876Y-92512292D01*
X102259417Y-93766417D01*
X99761750Y-93766417D01*
X99756290Y-92512292D01*
X99750831Y-91258167D01*
X97253500Y-91258167D01*
X97253500Y-86262834D01*
X94777000Y-86262834D01*
X94777000Y-88760500D01*
X92258167Y-88760500D01*
X92258167Y-83744000D01*
X94755833Y-83744000D01*
X94755833Y-68758000D01*
X97274667Y-68758000D01*
X97274667Y-78748667D01*
X102248833Y-78748667D01*
X102248833Y-76251000D01*
X104746500Y-76251000D01*
X104746500Y-73753334D01*
X117277167Y-73753334D01*
X119753667Y-73753334D01*
X119753667Y-68779167D01*
X119261542Y-68779134D01*
X119114652Y-68778680D01*
X118935482Y-68777411D01*
X118734076Y-68775441D01*
X118520477Y-68772883D01*
X118304728Y-68769851D01*
X118096874Y-68766458D01*
X118023292Y-68765121D01*
X117277167Y-68751141D01*
X117277167Y-73753334D01*
X104746500Y-73753334D01*
X104746500Y-71277172D01*
X103502958Y-71271711D01*
X102259417Y-71266250D01*
X102248497Y-68758000D01*
X97274667Y-68758000D01*
X94755833Y-68758000D01*
X94755833Y-66260334D01*
X102270000Y-66260334D01*
X102270000Y-68758000D01*
D11*
X106270000Y-122540000D03*
D12*
X106270000Y-120000000D03*
X108810000Y-122540000D03*
X108810000Y-120000000D03*
D13*
X111350000Y-122540000D03*
X111350000Y-120000000D03*
D14*
G36*
X105830477Y-118938897D02*
G01*
X105631911Y-119045032D01*
X105457867Y-119187867D01*
X105315032Y-119361911D01*
X105208897Y-119560477D01*
X105143539Y-119775933D01*
X105121470Y-120000000D01*
X105143539Y-120224067D01*
X105208897Y-120439523D01*
X105315032Y-120638089D01*
X105457867Y-120812133D01*
X105631911Y-120954968D01*
X105791700Y-121040376D01*
X105406400Y-121038328D01*
X105281918Y-121050588D01*
X105162220Y-121086898D01*
X105051906Y-121145863D01*
X104955215Y-121225215D01*
X104875863Y-121321906D01*
X104816898Y-121432220D01*
X104780588Y-121551918D01*
X104768328Y-121676400D01*
X104771400Y-122254250D01*
X104930150Y-122413000D01*
X106143000Y-122413000D01*
X106143000Y-122393000D01*
X106397000Y-122393000D01*
X106397000Y-122413000D01*
X106417000Y-122413000D01*
X106417000Y-122667000D01*
X106397000Y-122667000D01*
X106397000Y-123879850D01*
X106555750Y-124038600D01*
X107133600Y-124041672D01*
X107258082Y-124029412D01*
X107377780Y-123993102D01*
X107488094Y-123934137D01*
X107584785Y-123854785D01*
X107664137Y-123758094D01*
X107723102Y-123647780D01*
X107759412Y-123528082D01*
X107771672Y-123403600D01*
X107769624Y-123018300D01*
X107855032Y-123178089D01*
X107997867Y-123352133D01*
X108171911Y-123494968D01*
X108370477Y-123601103D01*
X108585933Y-123666461D01*
X108753854Y-123683000D01*
X108866146Y-123683000D01*
X109034067Y-123666461D01*
X109249523Y-123601103D01*
X109448089Y-123494968D01*
X109622133Y-123352133D01*
X109764968Y-123178089D01*
X109871103Y-122979523D01*
X109936461Y-122764067D01*
X109958530Y-122540000D01*
X109947443Y-122427424D01*
X110207000Y-122427424D01*
X110207000Y-122652576D01*
X110250925Y-122873401D01*
X110337087Y-123081413D01*
X110462174Y-123268620D01*
X110621380Y-123427826D01*
X110808587Y-123552913D01*
X111016599Y-123639075D01*
X111237424Y-123683000D01*
X111462576Y-123683000D01*
X111683401Y-123639075D01*
X111891413Y-123552913D01*
X112078620Y-123427826D01*
X112237826Y-123268620D01*
X112362913Y-123081413D01*
X112449075Y-122873401D01*
X112493000Y-122652576D01*
X112493000Y-122427424D01*
X112449075Y-122206599D01*
X112362913Y-121998587D01*
X112237826Y-121811380D01*
X112078620Y-121652174D01*
X111891413Y-121527087D01*
X111683401Y-121440925D01*
X111462576Y-121397000D01*
X111237424Y-121397000D01*
X111016599Y-121440925D01*
X110808587Y-121527087D01*
X110621380Y-121652174D01*
X110462174Y-121811380D01*
X110337087Y-121998587D01*
X110250925Y-122206599D01*
X110207000Y-122427424D01*
X109947443Y-122427424D01*
X109936461Y-122315933D01*
X109871103Y-122100477D01*
X109764968Y-121901911D01*
X109622133Y-121727867D01*
X109448089Y-121585032D01*
X109249523Y-121478897D01*
X109034067Y-121413539D01*
X108866146Y-121397000D01*
X108753854Y-121397000D01*
X108585933Y-121413539D01*
X108370477Y-121478897D01*
X108171911Y-121585032D01*
X107997867Y-121727867D01*
X107855032Y-121901911D01*
X107769624Y-122061700D01*
X107771672Y-121676400D01*
X107759412Y-121551918D01*
X107723102Y-121432220D01*
X107664137Y-121321906D01*
X107584785Y-121225215D01*
X107488094Y-121145863D01*
X107377780Y-121086898D01*
X107258082Y-121050588D01*
X107133600Y-121038328D01*
X106748300Y-121040376D01*
X106908089Y-120954968D01*
X107082133Y-120812133D01*
X107224968Y-120638089D01*
X107331103Y-120439523D01*
X107396461Y-120224067D01*
X107418530Y-120000000D01*
X107396461Y-119775933D01*
X107331103Y-119560477D01*
X107224968Y-119361911D01*
X107082133Y-119187867D01*
X106908089Y-119045032D01*
X106709523Y-118938897D01*
X106670304Y-118927000D01*
X108409696Y-118927000D01*
X108370477Y-118938897D01*
X108171911Y-119045032D01*
X107997867Y-119187867D01*
X107855032Y-119361911D01*
X107748897Y-119560477D01*
X107683539Y-119775933D01*
X107661470Y-120000000D01*
X107683539Y-120224067D01*
X107748897Y-120439523D01*
X107855032Y-120638089D01*
X107997867Y-120812133D01*
X108171911Y-120954968D01*
X108370477Y-121061103D01*
X108585933Y-121126461D01*
X108753854Y-121143000D01*
X108866146Y-121143000D01*
X109034067Y-121126461D01*
X109249523Y-121061103D01*
X109448089Y-120954968D01*
X109622133Y-120812133D01*
X109764968Y-120638089D01*
X109871103Y-120439523D01*
X109936461Y-120224067D01*
X109958530Y-120000000D01*
X109936461Y-119775933D01*
X109871103Y-119560477D01*
X109764968Y-119361911D01*
X109622133Y-119187867D01*
X109448089Y-119045032D01*
X109249523Y-118938897D01*
X109210304Y-118927000D01*
X110953649Y-118927000D01*
X110808587Y-118987087D01*
X110621380Y-119112174D01*
X110462174Y-119271380D01*
X110337087Y-119458587D01*
X110250925Y-119666599D01*
X110207000Y-119887424D01*
X110207000Y-120112576D01*
X110250925Y-120333401D01*
X110337087Y-120541413D01*
X110462174Y-120728620D01*
X110621380Y-120887826D01*
X110808587Y-121012913D01*
X111016599Y-121099075D01*
X111237424Y-121143000D01*
X111462576Y-121143000D01*
X111683401Y-121099075D01*
X111891413Y-121012913D01*
X112078620Y-120887826D01*
X112237826Y-120728620D01*
X112362913Y-120541413D01*
X112449075Y-120333401D01*
X112493000Y-120112576D01*
X112493000Y-119887424D01*
X112449075Y-119666599D01*
X112362913Y-119458587D01*
X112237826Y-119271380D01*
X112078620Y-119112174D01*
X111891413Y-118987087D01*
X111746351Y-118927000D01*
X112698584Y-118927000D01*
X112722411Y-124097617D01*
X104651416Y-124073379D01*
X104648316Y-123403600D01*
X104768328Y-123403600D01*
X104780588Y-123528082D01*
X104816898Y-123647780D01*
X104875863Y-123758094D01*
X104955215Y-123854785D01*
X105051906Y-123934137D01*
X105162220Y-123993102D01*
X105281918Y-124029412D01*
X105406400Y-124041672D01*
X105984250Y-124038600D01*
X106143000Y-123879850D01*
X106143000Y-122667000D01*
X104930150Y-122667000D01*
X104771400Y-122825750D01*
X104768328Y-123403600D01*
X104648316Y-123403600D01*
X104627590Y-118927000D01*
X105869696Y-118927000D01*
X105830477Y-118938897D01*
X105830477Y-118938897D01*
G37*
X105830477Y-118938897D02*
X105631911Y-119045032D01*
X105457867Y-119187867D01*
X105315032Y-119361911D01*
X105208897Y-119560477D01*
X105143539Y-119775933D01*
X105121470Y-120000000D01*
X105143539Y-120224067D01*
X105208897Y-120439523D01*
X105315032Y-120638089D01*
X105457867Y-120812133D01*
X105631911Y-120954968D01*
X105791700Y-121040376D01*
X105406400Y-121038328D01*
X105281918Y-121050588D01*
X105162220Y-121086898D01*
X105051906Y-121145863D01*
X104955215Y-121225215D01*
X104875863Y-121321906D01*
X104816898Y-121432220D01*
X104780588Y-121551918D01*
X104768328Y-121676400D01*
X104771400Y-122254250D01*
X104930150Y-122413000D01*
X106143000Y-122413000D01*
X106143000Y-122393000D01*
X106397000Y-122393000D01*
X106397000Y-122413000D01*
X106417000Y-122413000D01*
X106417000Y-122667000D01*
X106397000Y-122667000D01*
X106397000Y-123879850D01*
X106555750Y-124038600D01*
X107133600Y-124041672D01*
X107258082Y-124029412D01*
X107377780Y-123993102D01*
X107488094Y-123934137D01*
X107584785Y-123854785D01*
X107664137Y-123758094D01*
X107723102Y-123647780D01*
X107759412Y-123528082D01*
X107771672Y-123403600D01*
X107769624Y-123018300D01*
X107855032Y-123178089D01*
X107997867Y-123352133D01*
X108171911Y-123494968D01*
X108370477Y-123601103D01*
X108585933Y-123666461D01*
X108753854Y-123683000D01*
X108866146Y-123683000D01*
X109034067Y-123666461D01*
X109249523Y-123601103D01*
X109448089Y-123494968D01*
X109622133Y-123352133D01*
X109764968Y-123178089D01*
X109871103Y-122979523D01*
X109936461Y-122764067D01*
X109958530Y-122540000D01*
X109947443Y-122427424D01*
X110207000Y-122427424D01*
X110207000Y-122652576D01*
X110250925Y-122873401D01*
X110337087Y-123081413D01*
X110462174Y-123268620D01*
X110621380Y-123427826D01*
X110808587Y-123552913D01*
X111016599Y-123639075D01*
X111237424Y-123683000D01*
X111462576Y-123683000D01*
X111683401Y-123639075D01*
X111891413Y-123552913D01*
X112078620Y-123427826D01*
X112237826Y-123268620D01*
X112362913Y-123081413D01*
X112449075Y-122873401D01*
X112493000Y-122652576D01*
X112493000Y-122427424D01*
X112449075Y-122206599D01*
X112362913Y-121998587D01*
X112237826Y-121811380D01*
X112078620Y-121652174D01*
X111891413Y-121527087D01*
X111683401Y-121440925D01*
X111462576Y-121397000D01*
X111237424Y-121397000D01*
X111016599Y-121440925D01*
X110808587Y-121527087D01*
X110621380Y-121652174D01*
X110462174Y-121811380D01*
X110337087Y-121998587D01*
X110250925Y-122206599D01*
X110207000Y-122427424D01*
X109947443Y-122427424D01*
X109936461Y-122315933D01*
X109871103Y-122100477D01*
X109764968Y-121901911D01*
X109622133Y-121727867D01*
X109448089Y-121585032D01*
X109249523Y-121478897D01*
X109034067Y-121413539D01*
X108866146Y-121397000D01*
X108753854Y-121397000D01*
X108585933Y-121413539D01*
X108370477Y-121478897D01*
X108171911Y-121585032D01*
X107997867Y-121727867D01*
X107855032Y-121901911D01*
X107769624Y-122061700D01*
X107771672Y-121676400D01*
X107759412Y-121551918D01*
X107723102Y-121432220D01*
X107664137Y-121321906D01*
X107584785Y-121225215D01*
X107488094Y-121145863D01*
X107377780Y-121086898D01*
X107258082Y-121050588D01*
X107133600Y-121038328D01*
X106748300Y-121040376D01*
X106908089Y-120954968D01*
X107082133Y-120812133D01*
X107224968Y-120638089D01*
X107331103Y-120439523D01*
X107396461Y-120224067D01*
X107418530Y-120000000D01*
X107396461Y-119775933D01*
X107331103Y-119560477D01*
X107224968Y-119361911D01*
X107082133Y-119187867D01*
X106908089Y-119045032D01*
X106709523Y-118938897D01*
X106670304Y-118927000D01*
X108409696Y-118927000D01*
X108370477Y-118938897D01*
X108171911Y-119045032D01*
X107997867Y-119187867D01*
X107855032Y-119361911D01*
X107748897Y-119560477D01*
X107683539Y-119775933D01*
X107661470Y-120000000D01*
X107683539Y-120224067D01*
X107748897Y-120439523D01*
X107855032Y-120638089D01*
X107997867Y-120812133D01*
X108171911Y-120954968D01*
X108370477Y-121061103D01*
X108585933Y-121126461D01*
X108753854Y-121143000D01*
X108866146Y-121143000D01*
X109034067Y-121126461D01*
X109249523Y-121061103D01*
X109448089Y-120954968D01*
X109622133Y-120812133D01*
X109764968Y-120638089D01*
X109871103Y-120439523D01*
X109936461Y-120224067D01*
X109958530Y-120000000D01*
X109936461Y-119775933D01*
X109871103Y-119560477D01*
X109764968Y-119361911D01*
X109622133Y-119187867D01*
X109448089Y-119045032D01*
X109249523Y-118938897D01*
X109210304Y-118927000D01*
X110953649Y-118927000D01*
X110808587Y-118987087D01*
X110621380Y-119112174D01*
X110462174Y-119271380D01*
X110337087Y-119458587D01*
X110250925Y-119666599D01*
X110207000Y-119887424D01*
X110207000Y-120112576D01*
X110250925Y-120333401D01*
X110337087Y-120541413D01*
X110462174Y-120728620D01*
X110621380Y-120887826D01*
X110808587Y-121012913D01*
X111016599Y-121099075D01*
X111237424Y-121143000D01*
X111462576Y-121143000D01*
X111683401Y-121099075D01*
X111891413Y-121012913D01*
X112078620Y-120887826D01*
X112237826Y-120728620D01*
X112362913Y-120541413D01*
X112449075Y-120333401D01*
X112493000Y-120112576D01*
X112493000Y-119887424D01*
X112449075Y-119666599D01*
X112362913Y-119458587D01*
X112237826Y-119271380D01*
X112078620Y-119112174D01*
X111891413Y-118987087D01*
X111746351Y-118927000D01*
X112698584Y-118927000D01*
X112722411Y-124097617D01*
X104651416Y-124073379D01*
X104648316Y-123403600D01*
X104768328Y-123403600D01*
X104780588Y-123528082D01*
X104816898Y-123647780D01*
X104875863Y-123758094D01*
X104955215Y-123854785D01*
X105051906Y-123934137D01*
X105162220Y-123993102D01*
X105281918Y-124029412D01*
X105406400Y-124041672D01*
X105984250Y-124038600D01*
X106143000Y-123879850D01*
X106143000Y-122667000D01*
X104930150Y-122667000D01*
X104771400Y-122825750D01*
X104768328Y-123403600D01*
X104648316Y-123403600D01*
X104627590Y-118927000D01*
X105869696Y-118927000D01*
X105830477Y-118938897D01*
M02*
